<?xml version="1.0" encoding="UTF-8"?>
<svg width="69px" height="60px" viewBox="0 0 69 60" version="1.1" xmlns="http://www.w3.org/2000/svg" xmlns:xlink="http://www.w3.org/1999/xlink">
    <!-- Generator: sketchtool 45.2 (43514) - http://www.bohemiancoding.com/sketch -->
    <title>97F4352E-1D8F-474F-AA96-26BB7734750D</title>
    <desc>Created with sketchtool.</desc>
    <defs></defs>
    <g id="survey" stroke="none" stroke-width="1" fill="none" fill-rule="evenodd">
        <g id="Activity" transform="translate(-387.000000, -566.000000)">
            <g id="Group-19" transform="translate(174.000000, 253.000000)">
                <path d="M259.000219,323.314979 C261.846142,323.314979 264.175042,320.996401 264.175042,318.158636 C264.175042,315.321525 261.846142,313 259.000219,313 C256.12539,313 253.825396,315.324145 253.825396,318.16191 C253.825396,320.999021 256.124733,323.314979 259.000219,323.314979 Z M267.625363,343.953779 C259.689856,343.953779 253.249904,350.373789 253.249904,358.284723 C253.249904,366.194839 259.689856,372.614849 267.625363,372.614849 C275.560048,372.614849 282,366.194839 282,358.284723 C282,350.373789 275.560048,343.953779 267.625363,343.953779 Z M267.625363,368.315631 C262.076404,368.315631 257.562476,363.81568 257.562476,358.284068 C257.562476,352.752947 262.076404,348.252997 267.625363,348.252997 C273.174157,348.252997 277.687428,352.752947 277.687428,358.284068 C277.687428,363.81568 273.174157,368.315631 267.625363,368.315631 Z M255.549899,338.221434 L267.625363,338.221434 L267.625363,333.062634 L258.425385,333.062634 L252.87659,323.690412 C252.013682,322.257776 250.458508,321.311745 248.678821,321.311745 C247.327796,321.311745 246.120315,321.853527 245.228501,322.745036 L234.591601,333.346542 C233.671537,334.209398 233.124952,335.441793 233.124952,336.788798 C233.124952,338.590972 234.073757,340.113168 235.568655,341.004841 L245.200416,346.819706 L245.200416,361.15065 L250.375075,361.15065 L250.375075,342.578121 L243.906382,337.791643 L250.576596,331.113758 L255.549899,338.221434 Z M227.375294,343.953779 C219.439952,343.953779 213,350.373789 213,358.284723 C213,366.194839 219.439952,372.614849 227.375294,372.614849 C235.310144,372.614849 241.750096,366.194839 241.750096,358.284723 C241.750096,350.373789 235.310144,343.953779 227.375294,343.953779 Z M227.375294,368.315631 C221.8265,368.315631 217.312572,363.81568 217.312572,358.284068 C217.312572,352.752947 221.8265,348.252997 227.375294,348.252997 C232.923596,348.252997 237.437524,352.752947 237.437524,358.284068 C237.437524,363.81568 232.923596,368.315631 227.375294,368.315631 Z" id="man-on-motorbike-copy-2" fill="#1E3750"></path>
                <g id="Group-11-Copy-2" transform="translate(182.000000, 280.000000)">
                    <g id="Group-2"></g>
                    <g id="Group-10" transform="translate(96.000000, 0.000000)" fill="#31729F">
                        <path d="M0,5.28252688e-26 L35.7838061,35.135396 L35.7838061,3.99626902 C35.7838061,1.78919058 33.9847584,-3.65926265e-27 31.7831086,-1.43492963e-42 L0,5.28252688e-26 Z" id="Path-5"></path>
                    </g>
                </g>
            </g>
        </g>
    </g>
</svg>