<?xml version="1.0" encoding="UTF-8"?>
<svg width="48px" height="55px" viewBox="0 0 48 55" version="1.1" xmlns="http://www.w3.org/2000/svg" xmlns:xlink="http://www.w3.org/1999/xlink">
    <!-- Generator: sketchtool 45.2 (43514) - http://www.bohemiancoding.com/sketch -->
    <title>DF77CE31-CE11-43E1-8A92-A7A6F18E3A25</title>
    <desc>Created with sketchtool.</desc>
    <defs>
        <polygon id="path-1" points="23.702183 0.55 0.0654545455 0.55 0.0654545455 55.0002824 47.3389114 55.0002824 47.3389114 0.55 23.702183 0.55"></polygon>
    </defs>
    <g id="survey" stroke="none" stroke-width="1" fill="none" fill-rule="evenodd">
        <g id="Activity" transform="translate(-835.000000, -354.000000)">
            <g id="Group-19" transform="translate(174.000000, 253.000000)">
                <g id="Group-15-Copy-2" transform="translate(623.000000, 66.000000)">
                    <g id="man-dancing-silhouette" transform="translate(38.000000, 35.000000)">
                        <mask id="mask-2" fill="white">
                            <use xlink:href="#path-1"></use>
                        </mask>
                        <g id="Clip-2"></g>
                        <path d="M22.3418182,6.4328 C22.3418182,9.6811 19.7301818,12.3101 16.5087273,12.3101 C13.2872727,12.3101 10.6789091,9.6811 10.6789091,6.4328 C10.6789091,3.1845 13.2872727,0.55 16.5087273,0.55 C19.7301818,0.55 22.3418182,3.1845 22.3418182,6.4328 Z" id="Fill-1" fill="#4A6483" mask="url(#mask-2)"></path>
                        <path d="M44.6978182,22.3949 C48.2127273,22.275 48.2258182,16.7618 44.6978182,16.8828 C37.8665455,17.1182 31.1127273,16.698 24.3872727,15.653 C23.1687273,14.1878 21.4178182,13.3804 19.2785455,13.9601 C17.7949091,14.3605 16.3723636,15.6618 15.7330909,17.2095 C10.9647273,16.203 7.44,13.1054 5.03672727,8.2588 C3.46036364,5.0787 -1.25236364,7.8716 0.315272727,11.0429 C3.73745455,17.9399 9.54109091,22.2101 16.8578182,22.9625 C18.7538182,26.9412 21.0250909,30.7142 23.016,34.6588 C23.1010909,34.8216 23.1905455,34.9767 23.28,35.123 C23.3432727,35.4926 23.472,35.8699 23.676,36.2571 C26.6290909,41.7527 25.1247273,45.4608 19.7301818,48.2449 C15.8094545,50.2733 19.2654545,56.2199 23.1818182,54.197 C27.0807273,52.1807 30.1112727,49.4307 31.6745455,45.2463 C32.5996364,42.7537 32.352,40.0598 31.5850909,37.5122 C35.7992727,40.8551 38.1818182,45.4828 37.8621818,51.6747 C37.6407273,56.122 44.472,56.0956 44.6978182,51.6747 C45.1963636,41.8341 40.116,33.9625 31.8796364,29.4679 C30.8007273,27.3284 29.6378182,25.2824 28.5043636,23.2243 C28.2141818,22.7007 27.9370909,22.1672 27.6523636,21.6392 C33.2978182,22.3179 38.9781818,22.5929 44.6978182,22.3949 Z" id="Fill-3" fill="#4A6483" mask="url(#mask-2)"></path>
                    </g>
                </g>
            </g>
        </g>
    </g>
</svg>