<?xml version="1.0" encoding="UTF-8"?>
<svg width="63px" height="62px" viewBox="0 0 63 62" version="1.1" xmlns="http://www.w3.org/2000/svg" xmlns:xlink="http://www.w3.org/1999/xlink">
    <!-- Generator: sketchtool 45.2 (43514) - http://www.bohemiancoding.com/sketch -->
    <title>B6EC9897-C4EA-4E48-A656-AC57A3E426B3</title>
    <desc>Created with sketchtool.</desc>
    <defs>
        <polygon id="path-1" points="62.2857607 0.0911020408 0.0756 0.0911020408 0.0756 61.999285 62.2857607 61.999285 62.2857607 0.0911020408"></polygon>
    </defs>
    <g id="survey" stroke="none" stroke-width="1" fill="none" fill-rule="evenodd">
        <g id="Activity" transform="translate(-535.000000, -351.000000)">
            <g id="Group-19" transform="translate(174.000000, 253.000000)">
                <g id="Group-8-Copy-2" transform="translate(329.000000, 66.000000)">
                    <g id="Group-9">
                        <g id="gymnast-girl" transform="translate(32.000000, 32.000000)">
                            <mask id="mask-2" fill="white">
                                <use xlink:href="#path-1"></use>
                            </mask>
                            <g id="Clip-2"></g>
                            <path d="M40.26078,9.20004082 C40.26078,9.20004082 44.37594,16.4907347 44.37594,12.4569388 C44.37594,8.42946939 41.12262,5.1675102 37.11078,5.1675102 C33.1002,5.1675102 29.84688,8.42946939 29.84688,12.4569388 C29.84688,16.4907347 40.26078,9.20004082 40.26078,9.20004082 Z" id="Fill-1" fill="#4A6483" mask="url(#mask-2)"></path>
                            <path d="M45.4482,3.84779592 C45.84258,3.62510204 46.22688,3.41759184 46.57086,3.27461224 C46.90602,3.12530612 47.24496,3.05697959 47.28402,3.1404898 C47.30418,3.17085714 47.19582,3.21514286 47.09754,3.21008163 C46.99926,3.20502041 46.9602,3.18477551 46.96902,3.23412245 C46.96902,3.26955102 47.0232,3.39734694 47.03832,3.46693878 L47.09754,3.60991837 C47.08242,3.596 47.1177,3.68457143 47.12652,3.71873469 L47.21598,3.99077551 L47.9934,6.46191837 C48.57426,8.18653061 49.37688,10.1249796 50.92164,11.6762449 C51.69402,12.4379592 52.65414,13.0503673 53.67348,13.3477143 C54.6966,13.6387347 55.74492,13.6437959 56.69496,13.3616327 C55.85328,12.8276735 55.13508,12.308898 54.5832,11.7116735 C54.0225,11.1233061 53.60922,10.5045714 53.26902,9.83269388 C52.58484,8.494 52.1577,6.94146939 51.59574,5.24595918 C51.30594,4.39567347 51.00102,3.51122449 50.54238,2.58755102 L50.36094,2.24085714 L50.25258,2.03840816 L50.15934,1.8802449 C49.96656,1.53987755 49.77,1.29187755 49.47012,0.985673469 C49.17906,0.69844898 48.77586,0.387183673 48.25422,0.220163265 C47.73762,0.0468163265 47.16684,0.062 46.74348,0.179673469 C46.305,0.29355102 45.98496,0.490938776 45.7191,0.679469388 C45.45828,0.871795918 45.23652,1.06538776 45.05508,1.27289796 C44.68086,1.67779592 44.39988,2.0877551 44.1441,2.49771429 C43.8984,2.91273469 43.6716,3.32395918 43.47,3.73897959 C43.36668,3.9464898 43.25832,4.14893878 43.13988,4.34632653 C43.03152,4.54877551 42.91434,4.73730612 42.73668,4.91065306 C43.25328,4.96 43.75098,4.70693878 44.19324,4.51461224 C44.6418,4.30204082 45.05004,4.06542857 45.4482,3.84779592 Z" id="Fill-3" fill="#4A6483" mask="url(#mask-2)"></path>
                            <path d="M60.13098,53.026449 C54.75078,50.1693878 49.2723,47.5147755 43.66656,45.1726939 C43.14996,48.0588571 42.38262,50.9007347 41.55984,53.6249388 C46.3932,55.6949796 51.12324,57.999102 55.79406,60.4803673 C60.69168,63.0742449 65.03742,55.6215918 60.13098,53.026449 Z" id="Fill-4" fill="#4A6483" mask="url(#mask-2)"></path>
                            <path d="M40.02516,28.5807347 C39.95082,28.4516735 39.87648,28.3377959 39.79836,28.2239184 C39.5325,25.2188163 37.88316,22.5996327 34.60086,21.6898776 C33.23754,21.3140816 31.66254,21.4178367 30.2148,21.9075102 C30.13668,21.8480408 30.0573,21.7885714 29.96406,21.7341633 C23.65902,17.7459184 17.61102,13.4464082 11.9259,8.5977551 C7.72758,5.01440816 1.6191,11.0929388 5.84766,14.7015918 C11.97504,19.9260408 18.46656,24.6355102 25.25418,28.9464082 C24.7275,31.8566122 24.04332,34.7339184 23.27598,37.5859184 C17.02008,35.6234286 10.94184,32.9637551 4.30164,32.7322041 C2.01852,32.6524898 -0.07812,34.7541633 -3.23953971e-13,37.046898 C0.21672,42.9533469 2.0727,48.330898 4.60152,53.6097551 C7.00434,58.6266939 14.41566,54.2474694 12.02418,49.2545714 C10.90656,46.9226122 9.95148,44.5349796 9.3366,42.0638367 C15.2775,43.4126531 20.98656,46.3291837 26.94258,47.4654286 C27.00684,47.475551 27.0648,47.4806122 27.12402,47.4856735 C28.7973,48.157551 30.69738,48.9243265 31.06152,49.0470612 C31.89312,46.2798367 32.6025,43.4873061 32.95152,40.6947755 C33.32574,40.3341633 33.73902,40.0418776 34.15734,39.8103265 C33.95574,45.5282449 31.92336,51.3461224 30.21984,56.6983673 C28.5327,62.016449 36.8298,64.2762857 38.50812,58.9923673 C41.5548,49.4177959 45.43434,37.9756327 40.02516,28.5807347 Z" id="Fill-5" fill="#4A6483" mask="url(#mask-2)"></path>
                        </g>
                    </g>
                </g>
            </g>
        </g>
    </g>
</svg>