<?xml version="1.0" encoding="UTF-8"?>
<svg width="80px" height="80px" viewBox="0 0 80 80" version="1.1" xmlns="http://www.w3.org/2000/svg" xmlns:xlink="http://www.w3.org/1999/xlink">
    <!-- Generator: sketchtool 45.2 (43514) - http://www.bohemiancoding.com/sketch -->
    <title>824CE059-FDD0-4D24-BC91-38CD4CC88342</title>
    <desc>Created with sketchtool.</desc>
    <defs>
        <polygon id="path-1" points="80 79.9978136 80 0.569756098 0 0.569756098 0 79.9978136"></polygon>
    </defs>
    <g id="survey" stroke="none" stroke-width="1" fill="none" fill-rule="evenodd">
        <g id="Activity" transform="translate(-970.000000, -329.000000)">
            <g id="Group-19" transform="translate(174.000000, 253.000000)">
                <g id="Group-16-Copy-2" transform="translate(770.000000, 66.000000)">
                    <g id="two-men-practicing-karate" transform="translate(26.000000, 10.000000)">
                        <mask id="mask-2" fill="white">
                            <use xlink:href="#path-1"></use>
                        </mask>
                        <g id="Clip-2"></g>
                        <path d="M58.2536585,60.8663415 C58.2536585,63.6487805 55.9980488,65.8965854 53.2156098,65.8965854 C50.435122,65.8965854 48.1853659,63.6487805 48.1853659,60.8663415 C48.1853659,58.0839024 50.435122,55.8282927 53.2156098,55.8282927 C55.9980488,55.8282927 58.2536585,58.0839024 58.2536585,60.8663415 Z" id="Fill-1" fill="#4A6483" mask="url(#mask-2)"></path>
                        <path d="M44.1697561,60.9736585 C43.8634146,56.3765854 45.7326829,52.2926829 49.5121951,49.1980488 C52.4546341,46.7804878 48.2536585,42.6341463 45.3346341,45.0204878 C39.9921951,49.4107317 37.6682927,55.7678049 38.3843902,62.3765854 C34.9463415,64.4331707 31.4029268,65.12 27.3560976,64.8156098 C25.5863415,59.6390244 24.8546341,54.1209756 23.3229268,48.8839024 C22.2556098,45.2331707 16.5697561,46.7882927 17.6370732,50.4468293 C19.2370732,55.9356098 20.1209756,61.5531707 21.9356098,66.9404878 C20.915122,66.6282927 19.8790244,66.3629268 18.8487805,66.1034146 C17.0341463,65.6526829 14.9014634,64.9053659 13.0029268,64.9053659 C11.1960976,64.9053659 9.73268293,66.9404878 8.54439024,68.0702439 C6.24195122,70.2712195 3.87902439,72.4897561 1.28780488,74.3570732 C-1.76780488,76.5521951 1.17463415,81.6741463 4.26926829,79.4497561 C7.74439024,76.9482927 10.9365854,74.0292683 13.9941463,71.0263415 C17.1726829,71.6058537 20.5268293,72.2926829 23.315122,73.7482927 C23.3229268,73.7482927 23.3229268,73.7482927 23.3307317,73.7560976 C24.1385366,74.2887805 25.1141463,74.6243902 26.1502439,74.7453659 C32.7746341,75.5082927 39.3970732,74.0214634 44.8546341,70.1190244 C48.5053659,67.5043902 47.1258537,62.4604878 44.1697561,60.9736585 Z" id="Fill-3" fill="#4A6483" mask="url(#mask-2)"></path>
                        <path d="M80,56.1560976 C78.9717073,49.3795122 76.9658537,42.9404878 73.795122,36.8565854 C73.635122,36.5521951 73.4536585,36.2926829 73.2468293,36.08 C73.2156098,35.7073171 73.1395122,35.3326829 73.0107317,34.96 C72.2107317,32.6731707 71.5473171,30.3414634 70.755122,28.0468293 C70.7239024,27.9707317 70.6926829,27.902439 70.6634146,27.8263415 C70.6321951,27.6507317 70.5873171,27.475122 70.5268293,27.2917073 C67.9258537,19.6936585 66.6614634,11.8653659 66.5931707,3.84 C66.5541463,-0.52097561 59.795122,-0.52097561 59.8243902,3.84 C59.884878,10.7980488 60.7843902,17.7190244 62.5990244,24.4253659 C62.4312195,24.5170732 62.2634146,24.6165854 62.1034146,24.7160976 C55.8146341,20.8897561 52.2946341,14.5404878 53.3912195,6.54439024 C53.9785366,2.27707317 47.4614634,0.43902439 46.8741463,4.74536585 C46.0370732,10.8292683 46.5853659,16.6673171 49.7034146,22.062439 C52.0273171,26.0721951 55.6487805,28.9834146 59.6721951,31.1180488 C60.0760976,32.2770732 60.4487805,33.4419512 60.8156098,34.6165854 C59.9160976,38.2302439 57.9960976,41.1785366 55.404878,43.8321951 C52.355122,46.9560976 57.1336585,51.742439 60.1834146,48.6185366 C62.2107317,46.5443902 63.9473171,44.257561 65.2819512,41.742439 C66.3336585,42.2087805 67.537561,42.337561 68.8195122,42.0331707 C71.1882927,47.0790244 72.6302439,52.4136585 73.475122,57.9473171 C74.1307317,62.2536585 80.6478049,60.417561 80,56.1560976 Z" id="Fill-4" fill="#4A6483" mask="url(#mask-2)"></path>
                        <path d="M77.0887805,40.1580488 C79.2526829,39.3873171 80.0156098,37.0029268 79.2370732,34.8292683 C78.4604878,32.657561 75.8692683,31.5297561 73.7034146,32.3063415 L74.3902439,35.2643902 L77.0887805,40.1580488 Z" id="Fill-5" fill="#4A6483" mask="url(#mask-2)"></path>
                    </g>
                </g>
            </g>
        </g>
    </g>
</svg>