<?xml version="1.0" encoding="UTF-8"?>
<svg width="69px" height="43px" viewBox="0 0 69 43" version="1.1" xmlns="http://www.w3.org/2000/svg" xmlns:xlink="http://www.w3.org/1999/xlink">
    <!-- Generator: sketchtool 45.2 (43514) - http://www.bohemiancoding.com/sketch -->
    <title>F402562D-A507-4C48-8540-2A175CD337A2</title>
    <desc>Created with sketchtool.</desc>
    <defs></defs>
    <g id="survey" stroke="none" stroke-width="1" fill="none" fill-rule="evenodd">
        <g id="Activity" transform="translate(-829.000000, -580.000000)" fill="#1E3750">
            <g id="Group-19" transform="translate(174.000000, 253.000000)">
                <g id="Group-14" transform="translate(623.000000, 280.000000)">
                    <g id="man-in-canoe-copy-2" transform="translate(32.000000, 47.000000)">
                        <path d="M28.4640818,9.98136325 C31.1886658,9.98136325 33.4004262,7.77170962 33.4004262,5.04501881 C33.4004262,2.31955695 31.1886658,0.109903319 28.4640818,0.109903319 C25.7386199,0.109903319 23.5284396,2.31955695 23.5284396,5.04501881 C23.5284396,7.77170962 25.7386199,9.98136325 28.4640818,9.98136325 Z" id="Fill-1"></path>
                        <g id="Group-5" transform="translate(0.000000, 3.686853)">
                            <path d="M30.5262613,31.1739184 C33.5787997,29.8180345 37.386265,30.2755554 39.8812108,32.6044172 L39.9394982,32.5571904 C43.201836,29.567153 48.2445725,29.5841827 51.4807512,32.6100353 C53.6630168,30.5766483 56.8286186,29.9792026 59.6225506,30.7425567 C64.2785187,27.6064497 67.0745574,23.5984898 67.0745574,19.229394 C67.0745574,17.8872041 66.7975168,16.5822338 66.2885556,15.3250171 C66.04575,14.7298538 65.5541696,14.2716307 64.9423277,14.0728918 C64.3320658,13.8746796 63.6640432,13.956317 63.1189157,14.2949807 C55.82123,18.8301605 45.8820022,21.6625411 34.8776252,21.7942144 L30.5262613,31.1739184 Z" id="Fill-2"></path>
                            <path d="M67.5299715,34.3676106 C66.6705837,33.5110318 65.2790602,33.5098029 64.4205503,34.3690151 C63.704423,35.0849667 62.4480841,35.0863713 61.733537,34.3697173 C59.3537615,31.9880106 55.2114948,31.9823925 52.8229411,34.3711219 C52.1055849,35.088478 50.860131,35.092516 50.1339966,34.3669083 C47.7247262,31.9528977 43.8136779,31.9111134 41.355074,34.2462956 L41.2253319,34.3697173 C40.508678,35.0870735 39.2605906,35.0891803 38.5391965,34.3656794 C36.1601232,31.9880106 32.012414,31.9880106 29.6333408,34.3697173 C28.9159846,35.0870735 27.6657904,35.0870735 26.9443963,34.3676106 C26.8717126,34.2949269 26.7969222,34.22435 26.7207272,34.1557043 L36.086035,13.960355 L38.4273619,12.7210458 C39.5012894,12.1525683 39.9114079,10.8228435 39.3422281,9.74821372 C39.1329553,9.35389606 38.8202751,9.04858956 38.4561545,8.84914839 L41.7664214,1.70999733 C42.0222187,1.15925178 41.7836267,0.504923236 41.2316522,0.249828152 C40.6842424,-0.00790039833 40.0272804,0.233500662 39.7735898,0.784070643 L35.9338206,9.06439035 L30.7813564,11.7912567 L26.6008167,8.52821665 C26.2050946,7.4082913 24.2793286,5.73288016 21.8419679,6.23200977 C20.4004086,6.52766023 19.1296734,7.51801905 18.5755921,8.99714919 L14.8955866,18.8171687 C11.2663192,17.6205217 7.95254096,16.0952182 5.05783501,14.2970875 C4.51253196,13.9589505 3.84450939,13.8787175 3.23424751,14.0762275 C2.62258112,14.2744397 2.12801618,14.7319606 1.88801964,15.3271239 C1.37712721,16.5834628 1.10008658,17.8872041 1.10008658,19.229394 C1.10008658,23.5835668 3.88506477,27.5748481 8.51083578,30.7062149 C11.309508,29.8907182 14.4366612,30.5032624 16.6937172,32.6100353 C18.542586,30.8796725 21.1198715,30.1925134 23.5742619,30.4900951 L27.7514659,21.4808319 C26.3092043,21.3402048 24.8916972,21.1523509 23.5022805,20.9211326 L26.1789355,13.7786458 L29.19917,16.1350713 C29.5941899,16.4430113 30.0708473,16.6006681 30.5522449,16.6006681 C30.9040759,16.6006681 31.2566093,16.5170994 31.58035,16.3448708 L32.8758398,15.6591162 L24.8307764,33.0083909 C22.5607286,32.1435607 19.8106877,32.5949367 18.0338004,34.3732286 C17.3164442,35.088478 16.0750283,35.0932183 15.3495961,34.3676106 C12.8923967,31.9153269 8.89760417,31.9139224 6.44040472,34.3683128 C5.72568202,35.0849667 4.4733811,35.0870735 3.75409372,34.3683128 C2.89540821,33.5098029 1.50388471,33.5103296 0.644672504,34.3676106 C-0.21471527,35.2262961 -0.21471527,36.6192241 0.644672504,37.4784363 C3.02234127,39.8601431 7.17759967,39.8554028 9.55105489,37.4791386 C10.2938679,36.7350966 11.5008732,36.7405391 12.2435106,37.4824743 C13.4313794,38.6710453 15.0114591,39.3266028 16.6937172,39.3266028 C18.3752731,39.3266028 19.9560551,38.6717476 21.1500686,37.4770318 C21.8674248,36.7603779 23.1148099,36.7577444 23.8363796,37.4791386 C26.2228266,39.8622498 30.3650932,39.8582118 32.742762,37.4791386 C33.4648584,36.7596756 34.7138236,36.7617824 35.4269662,37.4751006 C37.7723311,39.8183587 41.8227776,39.8664634 44.2127358,37.5997513 L44.3396689,37.4763295 C45.0570251,36.7589734 46.3023034,36.7549354 47.0286134,37.4805431 C49.4076867,39.8601431 53.549251,39.8629521 55.9364003,37.4770318 C56.6544587,36.7603779 57.9039506,36.7577444 58.6213068,37.4791386 C61.0031891,39.8589141 65.1563407,39.8568073 67.5299715,37.4784363 C68.3891837,36.6197508 68.3891837,35.2269983 67.5299715,34.3676106 Z" id="Fill-4"></path>
                        </g>
                    </g>
                </g>
            </g>
        </g>
    </g>
</svg>