<?xml version="1.0" encoding="UTF-8"?>
<svg width="58px" height="56px" viewBox="0 0 58 56" version="1.1" xmlns="http://www.w3.org/2000/svg" xmlns:xlink="http://www.w3.org/1999/xlink">
    <!-- Generator: sketchtool 45.2 (43514) - http://www.bohemiancoding.com/sketch -->
    <title>37982550-765B-4877-8A18-E4B27D90117B</title>
    <desc>Created with sketchtool.</desc>
    <defs></defs>
    <g id="survey" stroke="none" stroke-width="1" fill="none" fill-rule="evenodd">
        <g id="Activity" transform="translate(-245.000000, -569.000000)" fill="#1E3750">
            <g id="Group-19" transform="translate(174.000000, 253.000000)">
                <g id="running-copy-2" transform="translate(71.000000, 316.000000)">
                    <g id="Group-3" transform="translate(0.000000, 0.032060)">
                        <g id="skiing">
                            <path d="M56.1997218,11.4773811 C54.8818362,10.1478619 52.7340048,10.1448136 51.4082852,11.4813326 L46.250334,16.739572 C45.9786096,17.0147111 45.5439402,17.0256625 45.2604649,16.7624908 L38.0288806,10.027171 C37.3264037,9.37245956 36.4126353,9.01264488 35.4553328,9.01264488 L24.6978223,9.01264488 C24.444004,9.01264488 24.2009293,9.11030403 24.0171684,9.28575179 L14.8996287,18.0193019 C13.5640608,19.3677885 13.4721804,21.5414665 14.6961712,22.865002 C15.3501899,23.572551 16.2334061,23.9622843 17.1827627,23.9622843 C18.1410724,23.9573167 19.0459997,23.5536965 19.6713687,22.8639859 L26.1106101,15.9891207 L28.4154551,15.9891207 L13.3881338,32.9320229 L4.11951188,32.9320229 C1.92232697,32.9320229 0.115494058,34.5894058 0.00581946802,36.7052787 C-0.0524871251,37.810577 0.330814375,38.8610056 1.0845474,39.6623751 C1.82753679,40.4526803 2.87179556,40.9051865 3.9515307,40.9051865 L17.7823918,40.9051865 C18.0551234,40.9051865 18.3158803,40.7914954 18.5035581,40.5891773 L25.5899915,32.95799 L31.5491268,39.2447552 L29.7501278,50.8436134 C29.2966569,52.7651841 30.2104253,54.7225444 31.9225799,55.4950113 C32.4500252,55.734135 33.0102609,55.8538098 33.567475,55.8538098 C34.167104,55.8538098 34.7638233,55.7152806 35.3130915,55.4411576 C36.3741372,54.9109757 37.1368233,53.9412712 37.4143671,52.7352654 L40.4878297,36.104308 C40.5470316,35.7814119 40.4453028,35.4485805 40.2140908,35.2163437 L32.0114387,26.9522348 L38.5277881,20.3882983 L43.0702186,24.9699235 C44.3387507,26.2495406 46.5497009,26.2495406 47.8172258,24.9699235 L56.3399486,16.3728704 C56.9692346,15.7380295 57.3160525,14.8928545 57.3160525,13.995858 C57.3160525,13.0978455 56.9692346,12.2536866 56.3399486,11.6188457 L56.1997218,11.4773811 Z" id="Fill-1"></path>
                            <path d="M45.4438901,12.0023696 C48.7129762,12.0023696 51.3714659,9.32041232 51.3714659,6.02246861 C51.3714659,2.7246378 48.7129762,0.0426805665 45.4438901,0.0426805665 C42.1749158,0.0426805665 39.5164261,2.7246378 39.5164261,6.02246861 C39.5164261,9.32041232 42.1749158,12.0023696 45.4438901,12.0023696" id="Fill-4"></path>
                        </g>
                    </g>
                </g>
            </g>
        </g>
    </g>
</svg>