<?xml version="1.0" encoding="UTF-8"?>
<svg width="55px" height="59px" viewBox="0 0 55 59" version="1.1" xmlns="http://www.w3.org/2000/svg" xmlns:xlink="http://www.w3.org/1999/xlink">
    <!-- Generator: sketchtool 45.2 (43514) - http://www.bohemiancoding.com/sketch -->
    <title>B8E66872-7F6F-4832-9B3F-2FFF057730FE</title>
    <desc>Created with sketchtool.</desc>
    <defs>
        <polygon id="path-1" points="22.7177811 0.0595765909 0.00891458548 0.0595765909 0.00891458548 37.2650869 45.4266475 37.2650869 45.4266475 0.0595765909"></polygon>
    </defs>
    <g id="survey" stroke="none" stroke-width="1" fill="none" fill-rule="evenodd">
        <g id="Activity" transform="translate(-979.000000, -564.000000)">
            <g id="Group-19" transform="translate(174.000000, 253.000000)">
                <g id="Group-15" transform="translate(770.000000, 280.000000)">
                    <g id="roller-skater-copy-2" transform="translate(35.000000, 31.000000)">
                        <g id="Group-4">
                            <mask id="mask-2" fill="white">
                                <use xlink:href="#path-1"></use>
                            </mask>
                            <g id="Clip-2"></g>
                            <path d="M40.4940588,0.0595765909 C39.1075436,0.0595765909 37.9189322,0.555849593 36.9282246,1.54899136 C35.937517,2.54213313 35.4424604,3.73366495 35.4424604,5.12358682 C35.4424604,6.51350869 35.937517,7.7050405 36.9282246,8.69818227 C37.9183379,9.69132405 39.1069493,10.187597 40.4940588,10.187597 C41.880574,10.187597 43.0494247,9.69132405 44.0001653,8.69818227 C44.9513516,7.7050405 45.4266475,6.51350869 45.4266475,5.12358682 C45.4266475,3.73366495 44.9513516,2.54213313 44.0001653,1.54899136 C43.0494247,0.555849593 41.880574,0.0595765909 40.4940588,0.0595765909 Z" id="Fill-1" fill="#1E3750" mask="url(#mask-2)"></path>
                            <path d="M2.81478037,34.9118823 C2.29996305,34.0775121 1.62616897,33.9187405 0.793992413,34.4354185 C-0.0377384119,34.9515007 -0.215881545,35.6466106 0.259414437,36.5205992 C0.814198807,37.3147551 1.52691992,37.4735268 2.39876638,36.997063 C3.1914216,36.4409155 3.32959768,35.7461035 2.81478037,34.9118823 Z" id="Fill-3" fill="#1E3750" mask="url(#mask-2)"></path>
                        </g>
                        <path d="M3.76552091,39.0822436 C3.2507036,38.2478735 2.57690951,38.0891019 1.74517868,38.6057799 C0.91300213,39.1218621 0.754471084,39.7973117 1.2698827,40.6309371 C1.78470001,41.4653073 2.4584941,41.6240789 3.29022492,41.1079967 C4.12240148,40.5914676 4.28078395,39.9164649 3.76552091,39.0822436 Z" id="Fill-5" fill="#1E3750"></path>
                        <path d="M4.89485031,43.1931774 C4.34006594,42.3193377 3.62675053,42.1605661 2.75564695,42.7161178 C1.96284315,43.1931774 1.82407277,43.8681801 2.33948438,44.7420198 C2.85430169,45.6158594 3.52809578,45.774631 4.35982661,45.2184836 C5.19200316,44.6623361 5.37029487,43.9873333 4.89485031,43.1931774 Z" id="Fill-6" fill="#1E3750"></path>
                        <g id="Group-13" transform="translate(2.971528, 46.469741)" fill="#1E3750">
                            <path d="M2.93379008,0.833923331 C2.41837846,0.000148941477 1.72541802,-0.179027656 0.853720136,0.298031896 C0.0609163341,0.853732548 -0.0772597408,1.54899136 0.437557571,2.38321258 C0.952374882,3.21698697 1.6064083,3.3955678 2.39876638,2.91910401 C3.27046426,2.36295654 3.44860739,1.66829349 2.93379008,0.833923331 Z" id="Fill-7"></path>
                            <path d="M26.8841612,9.23452053 C25.9335692,9.55221271 25.596895,10.1677878 25.8738415,11.0812459 C26.1512337,11.994704 26.7653,12.3123962 27.7164863,12.0341735 C28.6670783,11.7566955 28.9839918,11.1405246 28.6670783,10.187597 C28.3501647,9.23452053 27.755859,8.91638154 26.8841612,9.23452053 Z" id="Fill-9"></path>
                            <path d="M30.9851676,9.23452053 C30.0739484,9.55221271 29.7767956,10.187597 30.0937091,11.1405246 C30.4106226,12.0941969 31.0245404,12.4117401 31.9357596,12.0941969 C32.8469788,11.7765047 33.1441317,11.1405246 32.8272181,10.187597 C32.5103046,9.23452053 31.8963868,8.91638154 30.9851676,9.23452053 Z" id="Fill-10"></path>
                            <path d="M35.2044409,9.23452053 C34.253849,9.55221271 33.9369355,10.187597 34.253849,11.1405246 C34.5707625,12.0941969 35.2044409,12.4117401 36.1557758,12.0941969 C37.1063678,11.7765047 37.4232813,11.1405246 37.1063678,10.187597 C36.7894542,9.23452053 36.1557758,8.91638154 35.2044409,9.23452053 Z" id="Fill-11"></path>
                            <path d="M39.4244571,9.29394818 C38.5120493,9.57202192 38.1951358,10.187597 38.4731223,11.1405246 C38.7505145,12.0941969 39.3645808,12.4117401 40.3159157,12.0941969 C41.2665076,11.7765047 41.5834212,11.1609296 41.2665076,10.2468758 C40.9489998,9.33356662 40.335082,9.01587445 39.4244571,9.29394818 Z" id="Fill-12"></path>
                        </g>
                        <path d="M52.4393062,19.6005495 L43.7627402,19.6005495 L39.3645808,12.5706607 C38.5723713,10.8229814 37.1852618,9.90952331 35.2044409,9.83028644 C34.9671644,9.75060275 34.6502509,9.79022119 34.253849,9.9489928 L12.3835478,15.0730264 C11.6702324,15.2317981 11.1350601,15.6087689 10.7787739,16.2045348 C10.4218933,16.8003008 10.32309,17.4362809 10.481621,18.1111347 C10.6400035,18.7865843 10.9964383,19.3026665 11.5512227,19.6604239 C12.1060071,20.0177346 12.7398341,20.1172275 13.4531495,19.9583069 L28.0727726,17.336788 L16.899974,36.6397524 L5.01386003,36.6397524 L7.62910225,46.2907133 C7.70799634,46.4496338 7.76772406,46.5095083 7.80724539,46.4698899 L7.8663788,46.4100154 C8.26278071,47.0453997 8.8570864,47.1250834 9.6492959,46.6486196 C9.96620941,46.4896991 10.1647075,46.1720069 10.2436016,45.6949474 L11.7892421,40.8101137 L11.9076576,40.5716584 L19.1581871,40.5716584 C20.822243,40.5716584 21.9713331,40.0155109 22.6051601,38.9036628 L26.0525789,33.1838633 L33.5405336,40.9288201 L30.3311342,53.7978105 L41.2665076,53.7978105 C41.6629095,53.7978105 41.9798231,53.63889 42.2172482,53.3211978 C42.455119,53.0030588 42.5741288,52.6853667 42.5741288,52.3676745 C42.5741288,51.811527 42.3361093,51.3751285 41.8608133,51.0568405 L37.1063678,48.3166152 L39.3645808,39.2608245 C39.7609827,37.910521 39.3645808,36.6793708 38.1759694,35.5669269 L31.9956359,29.2521061 C34.2143276,25.6775107 35.9972447,22.6986811 37.3443872,20.3156175 L40.196906,24.4859789 L52.3204451,24.4859789 C53.0336119,24.4859789 53.6279176,24.2473746 54.1033622,23.7709108 C54.5792525,23.2944471 54.816529,22.7184904 54.816529,22.0434876 C54.816529,21.368038 54.5792525,20.7920813 54.1033622,20.3156175 C53.6279176,19.8391537 53.0737275,19.6005495 52.4393062,19.6005495 Z" id="Fill-14" fill="#1E3750"></path>
                    </g>
                </g>
            </g>
        </g>
    </g>
</svg>