<?xml version="1.0" encoding="UTF-8"?>
<svg width="54px" height="52px" viewBox="0 0 54 52" version="1.1" xmlns="http://www.w3.org/2000/svg" xmlns:xlink="http://www.w3.org/1999/xlink">
    <!-- Generator: sketchtool 45.2 (43514) - http://www.bohemiancoding.com/sketch -->
    <title>713D7171-A675-43A2-95F1-5AAF62710AD5</title>
    <desc>Created with sketchtool.</desc>
    <defs></defs>
    <g id="survey" stroke="none" stroke-width="1" fill="none" fill-rule="evenodd">
        <g id="Activity" transform="translate(-682.000000, -571.000000)" fill="#1E3750">
            <g id="Group-19" transform="translate(174.000000, 253.000000)">
                <g id="ski-stick-man-copy-2" transform="translate(508.000000, 318.000000)">
                    <path d="M53.86325,12.7572472 C53.86325,16.4035776 50.9446875,19.3584696 47.3431875,19.3584696 C43.7478125,19.3584696 40.82925,16.4035776 40.82925,12.7572472 C40.82925,9.11246708 43.7478125,6.1637764 47.3431875,6.1637764 C50.9446875,6.1637764 53.86325,9.11246708 53.86325,12.7572472 Z" id="Fill-1"></path>
                    <path d="M47.8699375,41.5108571 C46.4810937,41.0938236 45.0279375,41.904636 44.6221562,43.3107677 C43.9928125,45.4905043 41.7265625,46.7431553 39.573625,46.107528 L30.4994375,43.4192894 L33.3644062,34.2321491 C34.453125,30.7563528 32.5451875,27.0325068 29.106,25.934887 L28.8365,25.8449689 L32.1149062,24.5427081 L44.694125,28.7331975 C44.9682187,28.8246658 45.2438437,28.8665242 45.5133437,28.8665242 C46.6127812,28.8665242 47.6356562,28.1580323 48.001625,27.043359 C48.4564062,25.6511801 47.707625,24.1489292 46.3325625,23.6946882 L37.6764062,20.8064596 C38.2935,19.5228025 38.4068125,17.9957466 37.8509687,16.5555081 C37.3425937,15.247046 36.3426875,14.199036 35.0686875,13.6362733 C33.7946875,13.0735106 32.3537812,13.0487056 31.0614062,13.5634087 L25.780125,15.6640795 L8.58265625,5.05530435 L9.60553125,3.3592646 C10.1690312,2.42132671 9.87503125,1.19193043 8.948625,0.621416149 C8.0206875,0.0524521739 6.81253125,0.350111801 6.2505625,1.28804969 L5.2276875,2.98408944 L2.98440625,1.60276273 C2.064125,1.03379876 0.84984375,1.32990807 0.287875,2.26939627 C-0.275625,3.20733416 0.018375,4.43052919 0.94478125,5.00569441 L3.1819375,6.38081988 L2.1590625,8.08306087 C1.59709375,9.02099876 1.8895625,10.2441938 2.8175,10.8147081 C3.13446875,11.0131478 3.48665625,11.1046161 3.83425,11.1046161 C4.4988125,11.1046161 5.14346875,10.7650981 5.5155625,10.1542758 L6.5384375,8.45203478 L21.186375,17.4872447 L14.6188437,20.1041689 C12.0524687,21.1273739 10.3895312,23.688487 10.486,26.4867975 C10.5809375,29.2789068 12.4107812,31.7190957 15.043,32.5609143 L22.18475,34.8445217 L20.439125,40.4457938 L3.91846875,35.5530137 C2.529625,35.1344298 1.07646875,35.9467925 0.6706875,37.3513739 C0.263375,38.7559553 1.05809375,40.2334012 2.4469375,40.6395826 L38.1020937,51.2002981 C38.9687812,51.4545491 39.8477187,51.5816745 40.7098125,51.5816745 C44.7415937,51.5816745 48.461,48.9058385 49.6523125,44.7990658 C50.0535,43.3944845 49.25725,41.9232398 47.8699375,41.5108571 Z" id="Fill-3"></path>
                </g>
            </g>
        </g>
    </g>
</svg>