<?xml version="1.0" encoding="UTF-8"?>
<svg width="49px" height="83px" viewBox="0 0 49 83" version="1.1" xmlns="http://www.w3.org/2000/svg" xmlns:xlink="http://www.w3.org/1999/xlink">
    <!-- Generator: sketchtool 45.2 (43514) - http://www.bohemiancoding.com/sketch -->
    <title>C822DCD3-3A28-4B10-B2A9-F765A3DD88BA</title>
    <desc>Created with sketchtool.</desc>
    <defs></defs>
    <g id="survey" stroke="none" stroke-width="1" fill="none" fill-rule="evenodd">
        <g id="Activity" transform="translate(-247.000000, -333.000000)" fill="#31729F">
            <g id="Group-19" transform="translate(174.000000, 253.000000)">
                <g id="Group-6-Copy-2" transform="translate(34.000000, 66.000000)">
                    <g id="tennis-player-with-racket" transform="translate(39.000000, 14.000000)">
                        <g id="Group-3">
                            <path d="M46.9491281,16.6102225 C45.4882395,15.9466673 43.7667106,16.5967206 43.1049016,18.0614638 L39.9554986,25.0328225 C39.9554986,25.0328225 32.2635704,28.1641847 30.9078067,28.6047401 C28.2775122,29.458847 25.1520012,29.1918569 20.3388446,30.4719283 L11.2164359,32.7280597 L4.8105502,27.9335628 C6.01709735,25.8350993 8.05074289,22.29367 8.55986018,21.3979684 C9.1095939,20.4288773 10.3476351,19.1180998 10.9729545,18.4835084 C12.2846265,18.6816821 13.6692779,18.5063746 15.0198287,17.9739189 C17.1494768,17.1326607 19.0006742,15.4754059 20.2335025,13.3061661 C21.4645933,11.1377974 21.9406962,8.6954699 21.574931,6.4284499 C21.1904866,4.04992997 19.9348522,2.14354254 18.0386944,1.06077372 C16.992441,0.464510438 15.8395423,0.161587785 14.6117096,0.161587785 C13.6243174,0.161587785 12.6212869,0.359761484 11.6295507,0.751971188 C9.49816507,1.59322943 7.64696771,3.25026643 6.41587693,5.4188529 C5.18478615,7.5872216 4.7080317,10.0293313 5.07357965,12.2965691 C5.30533227,13.7299529 5.86788081,15.022873 6.70518761,16.0496741 C6.4888562,16.8944167 6.01123294,18.5974039 5.43434919,19.6139696 C4.91241709,20.5327551 2.19241889,25.2675821 1.29820564,26.8242256 L1.23695518,26.9298457 C1.02409898,27.04287 0.823840387,27.1900848 0.647256618,27.3747565 C-0.241743831,28.3053018 -0.211335802,29.7846358 0.717846686,30.6770708 L8.67019788,38.3211312 C9.23861083,38.8605556 10.0505052,39.1506297 10.884554,39.0212723 L11.2511879,38.9650868 L19.1457639,37.7453386 L21.3635952,54.1336502 L15.6027941,78.2927662 C15.2997998,79.8988442 16.1907551,81.5347572 17.7721898,82.112292 C19.5302083,82.7547232 21.4739329,81.8461731 22.1144563,80.083516 L30.2807497,60.0390086 L33.4733756,66.8043538 L31.1843026,78.389022 C30.8272255,80.2664456 32.3178705,81.808716 34.1173742,82.0935635 C36.0187448,82.3938729 37.6714212,81.0933308 38.1034324,79.1860723 L41.3859791,66.5057866 C41.4700356,65.9639666 41.4233376,65.3794631 41.2180834,64.82915 L41.1016641,64.5177342 L37.8716798,55.8518815 L34.9572874,34.5791327 L43.6096749,30.6975415 L43.8464231,30.5910503 C44.5540614,30.270488 45.1368095,29.6724826 45.4185182,28.8804411 L48.4873399,20.2400678 C48.9836424,18.8304213 48.3329106,17.238934 46.9491281,16.6102225 Z M8.86111687,6.81565082 C10.1829973,4.48896093 12.4355807,2.98501856 14.6008495,2.98501856 C15.3432399,2.98501856 16.0313301,3.16272157 16.6464411,3.51333657 C19.1068851,4.91862764 19.6183915,8.68545233 17.7867422,11.9102393 C16.4657305,14.2369292 14.2131472,15.7408715 12.0470095,15.7408715 C11.305488,15.7408715 10.6173977,15.5631685 10.0031556,15.2116824 C8.82810243,14.5413762 8.0568245,13.3079083 7.83202228,11.7401583 C7.60200726,10.138218 7.96777241,8.38928065 8.86111687,6.81565082 Z" id="Fill-1"></path>
                        </g>
                        <path d="M18.1099361,20.9044941 C17.6679337,24.6891762 20.3692527,28.1147502 24.1439751,28.5579188 C27.9186975,29.0004342 31.3361255,26.2917699 31.7774764,22.5070878 C32.21861,18.7232768 29.5164222,15.2959607 25.7425686,14.8536631 C21.9678462,14.4104945 18.5502009,17.119812 18.1099361,20.9044941 Z" id="Fill-4"></path>
                        <path d="M44.972389,9.96726594 C44.972389,11.4067474 43.8081959,12.5737945 42.3727197,12.5737945 C40.9363747,12.5737945 39.7730504,11.4067474 39.7730504,9.96726594 C39.7730504,8.52800224 40.9363747,7.36073738 42.3727197,7.36073738 C43.8081959,7.36073738 44.972389,8.52800224 44.972389,9.96726594 Z" id="Fill-5"></path>
                    </g>
                </g>
            </g>
        </g>
    </g>
</svg>