<?xml version="1.0" encoding="UTF-8"?>
<svg width="55px" height="39px" viewBox="0 0 55 39" version="1.1" xmlns="http://www.w3.org/2000/svg" xmlns:xlink="http://www.w3.org/1999/xlink">
    <!-- Generator: sketchtool 45.2 (43514) - http://www.bohemiancoding.com/sketch -->
    <title>51B42923-05D8-4151-B3E7-AFD7FECF5EE8</title>
    <desc>Created with sketchtool.</desc>
    <defs>
        <polygon id="path-1" points="0.00837563452 6.67167568 54.9444416 6.67167568 54.9444416 0.111196911 0.00837563452 0.111196911"></polygon>
    </defs>
    <g id="survey" stroke="none" stroke-width="1" fill="none" fill-rule="evenodd">
        <g id="Activity" transform="translate(-540.000000, -579.000000)">
            <g id="Group-19" transform="translate(174.000000, 253.000000)">
                <g id="Group-12" transform="translate(329.000000, 280.000000)">
                    <rect id="Rectangle-15-Copy-15" stroke="#DADADA" x="0.5" y="0.5" width="131" height="131" rx="4"></rect>
                    <g id="swimming-man-copy-2" transform="translate(37.000000, 46.000000)">
                        <g id="Group-3" transform="translate(0.000000, 32.247104)">
                            <mask id="mask-2" fill="white">
                                <use xlink:href="#path-1"></use>
                            </mask>
                            <g id="Clip-2"></g>
                            <path d="M54.9444416,6.67167568 C53.752868,6.67167568 52.6361168,6.41216988 51.5941878,5.89371429 C50.4026142,5.37456371 49.2111802,5.11505792 48.0203046,5.11505792 C46.8288706,5.11505792 45.6749873,5.37456371 44.558236,5.89371429 C43.5161675,6.41216988 42.3994162,6.67167568 41.2079822,6.67167568 C40.0171066,6.67167568 38.9003553,6.41216988 37.8577284,5.89371429 C36.6662944,5.37456371 35.4754188,5.11505792 34.2845431,5.11505792 C33.0929695,5.11505792 31.9392259,5.37456371 30.8224746,5.89371429 C29.7798477,6.41216988 28.6630964,6.67167568 27.4722208,6.67167568 C26.2807868,6.67167568 25.1640355,6.41216988 24.121967,5.89371429 C23.0052157,5.37456371 21.8513325,5.11505792 20.6598985,5.11505792 C19.4684645,5.11505792 18.2775888,5.37456371 17.0860152,5.89371429 C16.0440863,6.41216988 14.927335,6.67167568 13.7357614,6.67167568 C12.5448858,6.67167568 11.4281345,6.41216988 10.3855076,5.89371429 C9.26875635,5.37456371 8.11501269,5.11505792 6.92413706,5.11505792 C5.73256345,5.11505792 4.5788198,5.37456371 3.46206853,5.89371429 C2.34531726,6.41216988 1.19143401,6.67167568 0,6.67167568 L0,1.66781467 C1.19143401,1.66781467 2.34531726,1.40830888 3.46206853,0.889853282 C4.5788198,0.370702703 5.73256345,0.111196911 6.92413706,0.111196911 C8.11501269,0.111196911 9.26875635,0.370702703 10.3855076,0.889853282 C11.5022589,1.40830888 12.6381345,1.66781467 13.7920178,1.66781467 C14.9457614,1.66781467 16.0440863,1.40830888 17.0860152,0.889853282 C18.2027665,0.370702703 19.3757741,0.111196911 20.6043401,0.111196911 C21.8322081,0.111196911 23.0052157,0.370702703 24.121967,0.889853282 C25.2387183,1.40830888 26.3740355,1.66781467 27.5277792,1.66781467 C28.6822208,1.66781467 29.7798477,1.40830888 30.8224746,0.889853282 C31.9392259,0.370702703 33.1301015,0.111196911 34.3956599,0.111196911 C35.5124112,0.111196911 36.6668528,0.370702703 37.8577284,0.889853282 C38.9003553,1.40830888 39.9985406,1.66781467 41.1524239,1.66781467 C42.3061675,1.66781467 43.4414848,1.40830888 44.558236,0.889853282 C45.6749873,0.370702703 46.8479949,0.111196911 48.0758629,0.111196911 C49.3044289,0.111196911 50.4774365,0.370702703 51.5941878,0.889853282 C52.6361168,1.40830888 53.752868,1.66781467 54.9444416,1.66781467 L54.9444416,6.67167568 Z" id="Fill-1" fill="#1E3750" mask="url(#mask-2)"></path>
                        </g>
                        <path d="M47.015368,24.6858533 C48.8023096,24.6858533 50.3284898,24.0555058 51.5941878,22.7952278 C52.8597462,21.5350888 53.4922462,20.015305 53.4922462,18.2360154 C53.4922462,16.4574208 52.8597462,14.9376371 51.5941878,13.6774981 C50.3284898,12.4172201 48.7831853,11.7868726 46.9591117,11.7868726 C45.1351777,11.7868726 43.5904315,12.4172201 42.3247335,13.6774981 C41.0591751,14.9376371 40.4266751,16.4574208 40.4266751,18.2360154 C40.4266751,20.089668 41.0406091,21.6279382 42.2691751,22.8512432 C43.4977411,24.0738533 45.0796193,24.6858533 47.015368,24.6858533 Z" id="Fill-4" fill="#1E3750"></path>
                        <path d="M8.93401015,28.3550734 C9.38057107,28.4294363 9.86482234,28.5777452 10.3855076,28.799722 C11.5022589,29.3188726 12.6381345,29.5783784 13.7920178,29.5783784 C14.9457614,29.5783784 16.0440863,29.3188726 17.0860152,28.799722 C18.2775888,28.2812664 19.4498985,28.0217606 20.6043401,28.0217606 C21.7580838,28.0217606 22.930533,28.2812664 24.121967,28.799722 C25.2387183,29.3188726 26.3740355,29.5783784 27.5277792,29.5783784 C28.6822208,29.5783784 29.7798477,29.3188726 30.8224746,28.799722 C32.0133503,28.2812664 33.1862183,28.0217606 34.3401015,28.0217606 C35.4939848,28.0217606 36.6668528,28.2812664 37.8577284,28.799722 C38.9003553,29.3188726 40.0171066,29.5783784 41.2079822,29.5783784 C42.0275381,29.5783784 42.8466751,29.4302085 43.6651142,29.1337297 L32.8323477,9.78560618 L45.4520558,7.45033205 C46.4198604,7.30202317 47.2013071,6.89434749 47.7966751,6.22702703 C48.3927411,5.55970656 48.6904949,4.74421622 48.6904949,3.78041699 C48.6904949,2.81675676 48.3180584,1.96429344 47.5737437,1.22316602 C46.8288706,0.48203861 45.9727411,0.111196911 45.004797,0.111196911 C44.7818655,0.111196911 44.6329188,0.148169884 44.558236,0.222532819 L25.0150888,3.66977606 C24.1960914,3.8917529 23.507335,4.46622394 22.9489594,5.39305019 C22.3905838,6.31987645 22.3350254,7.33899614 22.7815863,8.45096525 L23.0052157,8.78427799 L28.1424112,17.9027027 L8.93401015,28.3550734 Z" id="Fill-5" fill="#1E3750"></path>
                    </g>
                </g>
            </g>
        </g>
    </g>
</svg>