<?xml version="1.0" encoding="UTF-8"?>
<svg width="34px" height="69px" viewBox="0 0 34 69" version="1.1" xmlns="http://www.w3.org/2000/svg" xmlns:xlink="http://www.w3.org/1999/xlink">
    <!-- Generator: sketchtool 45.2 (43514) - http://www.bohemiancoding.com/sketch -->
    <title>1FB9CD66-050B-4BC5-958E-616AF995F2BE</title>
    <desc>Created with sketchtool.</desc>
    <defs></defs>
    <g id="survey" stroke="none" stroke-width="1" fill="none" fill-rule="evenodd">
        <g id="Activity" transform="translate(-1140.000000, -346.000000)" fill="#1E3750">
            <g id="Group-19" transform="translate(174.000000, 253.000000)">
                <g id="Group-17-Copy-2" transform="translate(917.000000, 66.000000)">
                    <g id="person-walking" transform="translate(49.000000, 27.000000)">
                        <g id="Group-4" transform="translate(0.000000, 14.375000)">
                            <path d="M1.24916123,44.8756895 C0.186722826,46.6725645 0.248963768,48.896377 2.06987319,50.2318145 C3.62444928,51.371752 6.40068478,51.2265645 7.46891304,49.4239395 C9.66905797,45.6893145 13.661163,42.881877 13.661163,42.881877 C13.661163,42.881877 12.1905399,39.664752 11.4943098,33.6344395 C11.4943098,33.638752 3.76051087,40.625002 1.24916123,44.8756895 Z" id="Fill-1"></path>
                            <path d="M32.6692572,12.4255645 C28.145933,8.42643952 23.3012717,4.84418952 17.9977645,1.95768952 C17.4260163,1.53075202 16.7703152,1.19437702 16.079875,0.970127016 C15.6224764,0.784689516 15.1694203,0.694127016 14.7351812,0.684064516 C14.0056594,0.599252016 13.2761377,0.638064516 12.6088569,0.817752016 C10.8443986,1.28493952 9.65168841,2.35731452 8.9728279,3.72150202 C5.70445471,7.51218952 2.97453804,11.633502 0.525429348,15.9848145 C-1.90486232,20.3088145 4.76070833,24.171377 7.19244746,19.8545645 C7.94947101,18.5061895 8.73544384,17.1693145 9.55036594,15.8669395 C10.2567283,20.583377 10.9573007,25.307002 11.6651105,30.0234395 C11.8055145,30.9779395 12.2643605,31.8030645 12.902692,32.471502 C13.9260489,39.193252 15.8091993,45.8186895 18.7721576,51.9165645 C20.9317736,56.3641895 27.587212,52.478627 25.4377283,48.048252 C23.2216612,43.494252 21.7409058,38.445752 20.8304511,33.3641895 C22.830846,31.977002 23.5603678,29.478627 23.1825797,26.957252 C22.4863496,22.296877 21.7973569,17.636502 21.095337,12.9746895 C23.2042917,14.485502 25.2408732,16.1084395 27.2079764,17.843502 C30.9163786,21.1166895 36.3964764,15.716002 32.6692572,12.4255645 Z" id="Fill-3"></path>
                        </g>
                        <path d="M20.8811123,6.68131452 C20.8811123,10.3699395 17.8674928,13.3628145 14.1518533,13.3628145 C10.4376612,13.3628145 7.42983152,10.3699395 7.42983152,6.68131452 C7.42983152,2.99700202 10.4376612,0.00412701613 14.1518533,0.00412701613 C17.8674928,0.00412701613 20.8811123,2.99700202 20.8811123,6.68131452 Z" id="Fill-5"></path>
                    </g>
                </g>
            </g>
        </g>
    </g>
</svg>