<?xml version="1.0" encoding="UTF-8"?>
<svg width="76px" height="71px" viewBox="0 0 76 71" version="1.1" xmlns="http://www.w3.org/2000/svg" xmlns:xlink="http://www.w3.org/1999/xlink">
    <!-- Generator: sketchtool 45.2 (43514) - http://www.bohemiancoding.com/sketch -->
    <title>EBCC384E-199F-4DBF-9E28-95783171F23D</title>
    <desc>Created with sketchtool.</desc>
    <defs>
        <polygon id="path-1" points="0.0111219512 0.158270833 0.0111219512 66.3777191 75.9262244 66.3777191 75.9262244 0.158270833 0.0111219512 0.158270833"></polygon>
    </defs>
    <g id="survey" stroke="none" stroke-width="1" fill="none" fill-rule="evenodd">
        <g id="Activity" transform="translate(-384.000000, -347.000000)">
            <g id="Group-19" transform="translate(174.000000, 253.000000)">
                <g id="Group-12-Copy-2" transform="translate(182.000000, 66.000000)">
                    <g id="Group-11">
                        <g id="Group-2">
                            <g id="weightlifting" transform="translate(28.000000, 28.000000)">
                                <g id="Group-3" transform="translate(0.000000, 4.437500)">
                                    <mask id="mask-2" fill="white">
                                        <use xlink:href="#path-1"></use>
                                    </mask>
                                    <g id="Clip-2"></g>
                                    <path d="M73.5294439,8.165 L71.5098829,8.165 L71.5098829,1.42073958 C71.5098829,0.722942708 70.9437756,0.158270833 70.2442049,0.158270833 L66.7860195,0.158270833 C66.0866341,0.158270833 65.5196,0.722942708 65.5196,1.42073958 L65.5196,8.165 L61.0989951,8.165 C61.282878,6.23376302 59.8572293,4.54233594 57.9681659,4.34283333 C56.0246049,4.13852344 54.3012585,5.5555651 54.0993951,7.4636901 L54.0246927,8.165 L47.9315317,8.165 C46.1344098,12.036349 42.2547024,14.5352161 37.9573659,14.5352161 C33.6012683,14.5352161 29.7541854,11.9792161 27.9830146,8.165 L21.9122829,8.165 L21.8377659,7.4636901 C21.6342341,5.54114323 19.8949463,4.13926302 17.9689951,4.34283333 C16.0827122,4.54233594 14.6533561,6.23154427 14.8379805,8.165 L10.4058829,8.165 L10.4058829,1.42073958 C10.4058829,0.723682292 9.83884878,0.158270833 9.14020488,0.158270833 L5.68109268,0.158270833 C4.98170732,0.158270833 4.41541463,0.723682292 4.41541463,1.42073958 L4.41541463,8.165 L2.39603902,8.165 C1.07308293,8.165 0,9.2346224 0,10.5549635 C0,11.8753047 1.07308293,12.9456667 2.39603902,12.9456667 L4.41541463,12.9456667 L4.41541463,19.6891875 C4.41541463,20.3869844 4.98244878,20.9523958 5.68109268,20.9523958 L9.14020488,20.9523958 C9.83884878,20.9523958 10.4058829,20.3869844 10.4058829,19.6891875 L10.4058829,12.9456667 L15.3427317,12.9456667 C15.4947317,14.375651 16.5663317,24.487974 16.7250049,25.9835964 C17.042722,28.9846406 20.8334537,30.2535807 22.8737756,27.924263 L27.8185951,22.2792083 L27.8185951,35.7080078 L15.0233463,40.8930417 C13.5302244,41.4983906 12.4658537,42.843138 12.2226537,44.4328724 L9.67016585,61.1254531 C9.28923902,63.6171094 11.0053561,65.9449479 13.5027902,66.3249089 C16.0007805,66.7048698 18.3345366,64.9931042 18.7154634,62.5020026 L20.8768293,48.3718932 L32.7128098,43.5755104 L43.2199024,43.5755104 L55.0566244,48.3718932 L57.2172488,62.5020026 C57.5987317,64.9938437 59.9324878,66.7048698 62.429922,66.3249089 C64.9280976,65.9449479 66.6440293,63.6171094 66.2625463,61.1254531 L63.7100585,44.4328724 C63.4668585,42.843138 62.4030439,41.4983906 60.9093659,40.8930417 L48.012722,35.6662214 L48.012722,22.1586562 L53.0632,27.9237083 C55.0486537,30.1907161 58.8840585,29.0676589 59.2114146,25.9835964 C59.3699024,24.4907474 60.4422439,14.3726927 60.5944293,12.9449271 L65.5196,12.9449271 L65.5196,19.6891875 C65.5196,20.3869844 66.0866341,20.9523958 66.7860195,20.9523958 L70.2442049,20.9523958 C70.9437756,20.9523958 71.5106244,20.3869844 71.5106244,19.6891875 L71.5106244,12.9449271 L73.5294439,12.9449271 C74.8529561,12.9449271 75.9262244,11.8753047 75.9262244,10.5549635 C75.9262244,9.2346224 74.8529561,8.165 73.5294439,8.165 Z M22.876,17.2539245 C22.6863707,15.4648724 22.6066634,14.716599 22.4190732,12.9449271 L26.6500488,12.9449271 C25.1170732,14.6957057 24.429922,15.4800339 22.876,17.2539245 Z M53.0609756,17.2539245 C51.3114927,15.2576042 53.5584976,17.8222943 49.2863707,12.9449271 L53.5179024,12.9449271 C53.1631122,16.290987 53.2500488,15.4669063 53.0609756,17.2539245 Z" id="Fill-1" fill="#56A5E3" mask="url(#mask-2)"></path>
                                </g>
                                <path d="M45.8591415,8.01264583 C45.8591415,12.3649089 42.3212488,15.8938307 37.9573659,15.8938307 C33.5932976,15.8938307 30.0561463,12.3649089 30.0561463,8.01264583 C30.0561463,3.65964323 33.5932976,0.130721354 37.9573659,0.130721354 C42.3212488,0.130721354 45.8591415,3.65964323 45.8591415,8.01264583 Z" id="Fill-4" fill="#40A2E6"></path>
                            </g>
                        </g>
                    </g>
                </g>
            </g>
        </g>
    </g>
</svg>