<?xml version="1.0" encoding="UTF-8"?>
<svg width="44px" height="54px" viewBox="0 0 44 54" version="1.1" xmlns="http://www.w3.org/2000/svg" xmlns:xlink="http://www.w3.org/1999/xlink">
    <!-- Generator: sketchtool 45.2 (43514) - http://www.bohemiancoding.com/sketch -->
    <title>7CE89766-3379-4B24-BFD2-230929186F03</title>
    <desc>Created with sketchtool.</desc>
    <defs>
        <polygon id="path-1" points="21.6599038 0.0111538462 0.06 0.0111538462 0.06 53.9989423 43.2598076 53.9989423 43.2598076 0.0111538462"></polygon>
    </defs>
    <g id="survey" stroke="none" stroke-width="1" fill="none" fill-rule="evenodd">
        <g id="Activity" transform="translate(-694.000000, -353.000000)">
            <g id="Group-19" transform="translate(174.000000, 253.000000)">
                <g id="Group-14-Copy-3" transform="translate(476.000000, 66.000000)">
                    <g id="meditation-yoga-posture" transform="translate(44.000000, 34.000000)">
                        <mask id="mask-2" fill="white">
                            <use xlink:href="#path-1"></use>
                        </mask>
                        <g id="Clip-2"></g>
                        <path d="M28.727,7.70057692 C28.727,11.9472115 25.473,15.3931731 21.457,15.3931731 C17.441,15.3931731 14.184,11.9472115 14.184,7.70057692 C14.184,3.45288462 17.441,0.0111538462 21.457,0.0111538462 C25.473,0.0111538462 28.727,3.45288462 28.727,7.70057692 Z" id="Fill-1" fill="#4A6483" mask="url(#mask-2)"></path>
                        <path d="M42.906,41.4388462 C39.398,32.7340385 26.969,19.2971154 26.73,19.1321154 C25.477,17.7063462 23.648,17.0040385 21.805,16.9754808 L21.805,16.97125 L21.457,16.97125 L21.457,16.9754808 C19.609,17.0040385 17.781,17.7063462 16.531,19.1321154 C16.289,19.2971154 3.859,32.7340385 0.355,41.4388462 C-0.504,43.5669231 0.301,45.5744231 1.645,46.7558654 C1.309,47.9214423 1.301,49.2266346 1.676,50.4874038 C2.316,52.6525 3.98,53.9989423 6.012,53.9989423 L37.246,53.9989423 C39.277,53.9989423 40.938,52.6525 41.582,50.4874038 C41.957,49.2266346 41.949,47.9214423 41.613,46.7558654 C42.961,45.5744231 43.762,43.5669231 42.906,41.4388462 Z M9.891,40.0670192 C11.383,37.4894231 13.082,35.1339423 14.93,32.86625 C14.93,35.20375 14.996,41.0549038 15.105,41.5879808 C14.73,41.4843269 11.246,40.5588462 9.891,40.0670192 Z M28.152,41.5879808 C28.266,41.0549038 28.328,35.20375 28.328,32.86625 C30.18,35.1339423 31.879,37.4894231 33.367,40.0670192 C32.012,40.5588462 28.531,41.4843269 28.152,41.5879808 Z" id="Fill-3" fill="#4A6483" mask="url(#mask-2)"></path>
                    </g>
                </g>
            </g>
        </g>
    </g>
</svg>