<?xml version="1.0" encoding="UTF-8"?>
<svg width="30px" height="21px" viewBox="0 0 30 21" version="1.1" xmlns="http://www.w3.org/2000/svg" xmlns:xlink="http://www.w3.org/1999/xlink">
    <!-- Generator: sketchtool 45.2 (43514) - http://www.bohemiancoding.com/sketch -->
    <title>FEC1C1D1-81BD-4A9D-B13D-FFBBB0BBC1CC</title>
    <desc>Created with sketchtool.</desc>
    <defs>
        <rect id="path-1" x="1" y="143" width="339" height="54.3063815" rx="4"></rect>
        <polygon id="path-2" points="0.00465116279 0.0539189189 0.00465116279 20.9289122 29.9721872 20.9289122 29.9721872 0.0539189189 0.00465116279 0.0539189189"></polygon>
    </defs>
    <g id="survey" stroke="none" stroke-width="1" fill="none" fill-rule="evenodd">
        <g id="login" transform="translate(-566.000000, -456.000000)">
            <polygon id="Rectangle-4" fill="#D9D9D9" points="0 0 387.532414 0 1440 0 1440 1024 0 1024"></polygon>
            <rect id="Rectangle-3" fill="#FFFFFF" x="462" y="193" width="516" height="644" rx="8"></rect>
            <g id="Group-4" transform="translate(549.000000, 296.000000)">
                <g id="Rectangle-2">
                    <use fill="#FFFFFF" fill-rule="evenodd" xlink:href="#path-1"></use>
                    <rect stroke="#979797" stroke-width="2" x="2" y="144" width="337" height="52.3063815" rx="4"></rect>
                </g>
                <g id="envelopeIcon" transform="translate(17.000000, 160.000000)">
                    <g id="Group-3">
                        <mask id="mask-3" fill="white">
                            <use xlink:href="#path-2"></use>
                        </mask>
                        <g id="Clip-2"></g>
                        <path d="M26.3132558,0.0539189189 L3.6651938,0.0539189189 C1.64333333,0.0539189189 0,1.55790203 0,3.40831419 L0,17.5748007 C0,19.4249291 1.64333333,20.9289122 3.6651938,20.9289122 L26.3068992,20.9289122 C28.3287597,20.9289122 29.9721705,19.4249291 29.9721705,17.5748007 L29.9721705,3.41384797 C29.9782171,1.56371959 28.3348837,0.0539189189 26.3132558,0.0539189189 L26.3132558,0.0539189189 Z M28.3039535,17.5748007 C28.3039535,18.5793953 27.4110078,19.3966926 26.3132558,19.3966926 L3.6651938,19.3966926 C2.56751938,19.3966926 1.67457364,18.5793953 1.67457364,17.5748007 L1.67457364,3.41384797 C1.67457364,2.40925338 2.56751938,1.59202703 3.6651938,1.59202703 L26.3068992,1.59202703 C27.4046512,1.59202703 28.2975969,2.40925338 28.2975969,3.41384797 L28.2975969,17.5748007 L28.3039535,17.5748007 Z" id="Fill-1" fill="#9B9B9B" mask="url(#mask-3)"></path>
                    </g>
                    <path d="M18.9023256,10.3156115 L26.2324031,4.29932432 C26.5737209,4.01554054 26.6045736,3.53303716 26.2944961,3.21519932 C25.9844186,2.90310811 25.4572093,2.87487162 25.1102326,3.15865541 L15.0015504,11.462098 L13.0293023,9.84999324 C13.0232558,9.84445946 13.0172093,9.83892568 13.0172093,9.83310811 C12.9735659,9.79344932 12.9303101,9.75939527 12.8806202,9.72527027 L4.85589147,3.15283784 C4.50852713,2.86905405 3.98131783,2.89729054 3.67124031,3.21519932 C3.36116279,3.53303716 3.3924031,4.01554054 3.73937984,4.29932432 L11.1567442,10.3665507 L3.77062016,16.6949291 C3.43565891,16.9845304 3.41689922,17.4669628 3.73333333,17.7790541 C3.90077519,17.9378311 4.12395349,18.0231791 4.34713178,18.0231791 C4.55186047,18.0231791 4.75651163,17.955 4.91790698,17.8186419 L12.4155039,11.3997365 L14.4494574,13.0624966 C14.6108527,13.1930372 14.8092248,13.2553986 15.007907,13.2553986 C15.2062016,13.2553986 15.4109302,13.1875034 15.565969,13.0569628 L17.655969,11.3429088 L25.1102326,17.8244595 C25.2713178,17.9663514 25.482093,18.0345304 25.6867442,18.0345304 C25.9099225,18.0345304 26.1270543,17.955 26.2944961,17.7959392 C26.6109302,17.4897365 26.5985271,17.0014155 26.2636434,16.712098 L18.9023256,10.3156115 Z" id="Fill-4" fill="#9B9B9B"></path>
                </g>
            </g>
        </g>
    </g>
</svg>