<?xml version="1.0" encoding="UTF-8"?>
<svg width="396px" height="236px" viewBox="0 0 396 236" version="1.1" xmlns="http://www.w3.org/2000/svg" xmlns:xlink="http://www.w3.org/1999/xlink">
    <!-- Generator: sketchtool 45.2 (43514) - http://www.bohemiancoding.com/sketch -->
    <title>454683EE-1703-4C5E-839F-52F3626C9CAF</title>
    <desc>Created with sketchtool.</desc>
    <defs>
        <path d="M0.82599536,0.295758741 C0.835183295,0.331580452 0.856315545,0.364646647 0.873772622,0.398631347 L0.873772622,0.256263009 C0.856315545,0.267285074 0.822320186,0.286573687 0.82599536,0.295758741 Z" id="path-1"></path>
        <path d="M0.389568445,172.729535 L0.352816705,176.909653 C0.352816705,177.061206 0.349141531,177.210922 0.344547564,177.35972 C0.424482599,190.701011 11.3075916,201.532946 24.6732807,201.532946 C39.6082691,201.532946 48.8834896,191.100561 48.8834896,174.302934 L48.8871647,174.009931 C49.6029049,140.443151 63.2212622,108.9972 87.2293364,85.4715208 C111.276,61.9091015 143.066255,48.9315386 176.742794,48.9315386 C210.419332,48.9315386 242.208668,61.9091015 266.255332,85.4715208 C290.265244,108.9972 303.881763,140.443151 304.598422,174.009931 L304.603016,174.302934 C304.603016,191.100561 313.878237,201.532946 328.811387,201.532946 C342.177995,201.532946 353.062023,190.701011 353.140121,177.35972 C353.136445,177.1999 353.131852,177.055695 353.130933,176.909653 L353.090506,172.497153 C350.81006,77.2270162 272.578469,0.43812708 176.742794,0.43812708 C80.8308585,0.43812708 2.54873318,77.3528514 0.389568445,172.729535 Z" id="path-3"></path>
        <path d="M0.586190255,39.4994066 C0.586190255,61.1458235 18.1379026,78.6938693 39.7929466,78.6938693 C61.4443155,78.6938693 78.9978654,61.1458235 78.9978654,39.4994066 C78.9978654,17.8539081 61.4443155,0.305862301 39.7929466,0.305862301 C18.1379026,0.305862301 0.586190255,17.8539081 0.586190255,39.4994066 Z" id="path-5"></path>
        <path d="M0.365679814,39.572887 C0.365679814,61.219304 17.9173921,78.7682683 39.5715174,78.7682683 C61.2247239,78.7682683 78.777355,61.219304 78.777355,39.572887 C78.777355,17.9273886 61.2247239,0.378424228 39.5715174,0.378424228 C17.9173921,0.378424228 0.365679814,17.9273886 0.365679814,39.572887 Z" id="path-7"></path>
        <path d="M0.0597215777,39.3956155 C0.0597215777,61.0420324 17.6132715,78.5909967 39.266478,78.5909967 C60.9187657,78.5909967 78.4713968,61.0420324 78.4713968,39.3956155 C78.4713968,17.750117 60.9187657,0.201152684 39.266478,0.201152684 C17.6132715,0.201152684 0.0597215777,17.750117 0.0597215777,39.3956155 Z" id="path-9"></path>
        <path d="M7.2557123,0.235137384 C7.25203712,0.132264779 7.36412993,0.0422512488 7.49367981,0.0422512488 C7.49827378,0.0422512488 7.50654292,0.0422512488 7.5102181,0.0431697542 C7.64252436,0.0532733137 7.71235267,0.153390403 7.75186079,0.264529558 C7.82352668,0.453741672 7.71327146,0.694390089 7.91724362,0.846861986 C7.94940139,1.05168869 7.97972158,1.25375988 8.01187935,1.45674958 C8.02566125,1.5118599 8.03944316,1.56421471 8.05138747,1.61840653 C7.97053364,1.63769514 7.89059861,1.65698376 7.81066357,1.67902789 C7.75461717,1.63402112 7.69857077,1.58717735 7.64068677,1.54400759 C7.47346636,1.44940153 7.71602784,1.15364279 7.46519722,1.13343567 C7.25203712,1.11782108 7.37791183,1.36673605 7.30532715,1.45123854 C6.87808817,1.91508378 7.11789327,2.45975748 7.12891879,2.99524614 C7.12708121,3.0228013 7.12708121,3.05127497 7.12891879,3.08158564 C7.13075638,3.05311198 7.13075638,3.0237198 7.12891879,2.99524614 C7.16199536,2.71234647 7.51113689,2.60028881 7.49092343,2.29901904 C7.46335963,1.95549801 7.66365661,1.91049125 7.93653828,1.95182399 C7.94205104,2.02254891 7.94664501,2.09235532 7.95032019,2.16124323 C7.95950812,2.36423292 7.90438051,2.67193223 8.15061717,2.68938383 C8.45381903,2.71510199 8.37755916,2.39178808 8.3720464,2.20441298 C8.36469606,1.99866777 8.61736427,1.99499375 8.61920186,1.81864071 C8.63849652,1.74056775 8.60358237,1.69188696 8.52548492,1.67259835 C8.3582645,1.41909086 8.4152297,1.13894671 8.41706729,0.864313589 C9.18517865,0.860639567 9.95053364,0.857884051 10.7112947,0.857884051 C10.7379397,1.1545613 10.7177262,1.41357982 10.576232,1.72036063 C10.3621531,2.17961333 10.4641392,2.72061302 10.6203341,3.2267095 C10.6929188,2.9043141 10.9520186,2.72061302 11.0732993,2.46435001 C11.1468028,2.31095961 10.9713132,2.00785282 11.2322506,1.99499375 C11.5611787,1.97754214 11.3820139,2.31279662 11.452761,2.48272012 C11.4895128,2.56722262 11.5005383,2.6664212 11.6852158,2.66366568 C11.7853643,2.34953683 12.0766218,1.89763217 11.9535035,1.70015351 C11.7578005,1.38694317 11.8358979,1.13251717 11.822116,0.845024975 C12.6012529,0.850536008 13.3803898,0.85421003 14.1549327,0.857884051 C14.1834153,1.09393994 14.251406,1.34285491 14.113587,1.54860012 C13.7515824,2.0895998 13.9592297,2.64437707 13.9702552,3.3295821 C14.2615128,3.04760094 14.2091415,2.72612405 14.4811044,2.57365215 C14.6510812,2.47720909 14.3956566,1.99866777 14.7016148,1.99958627 C15.0498376,2.00234179 14.7668492,2.46159449 14.9735777,2.6324365 C15.0048167,2.65723615 15.0571879,2.65356212 15.1959258,2.68754682 C15.2023573,2.33943327 15.2400278,1.99040122 15.4779954,1.72036063 C15.0774014,1.5109414 15.2620789,1.15364279 15.2574849,0.845024975 C16.0320278,0.850536008 16.8084084,0.853291524 17.5875452,0.857884051 C17.6086775,1.15364279 17.5838701,1.41082431 17.4543202,1.71668661 C17.2558608,2.17869483 17.2944501,2.72061302 17.5149606,3.23130203 C17.5030162,2.84093723 17.9697633,2.72245003 17.9734385,2.35688488 C17.9761949,2.21176102 17.9173921,1.96652008 18.1663852,1.99040122 C18.3924084,2.00968983 18.3032854,2.24390871 18.3326868,2.39178808 C18.353819,2.50017172 18.3299304,2.62968098 18.4787749,2.67193223 C18.634051,2.65723615 18.6175128,2.51854183 18.6735592,2.42669129 C18.9969745,1.90498022 18.5825986,1.3759211 18.7075545,0.857884051 L21.04129,0.846861986 C21.0633411,1.17017589 21.0109698,1.442972 20.8713132,1.7662859 C20.6884733,2.19614643 20.7132807,2.74449416 20.9484919,3.23589455 C20.9815684,2.81521908 21.4804733,2.62508846 21.4198329,2.16583575 C21.3959443,1.97937915 21.6440186,1.90130619 21.6899582,2.02989695 C21.8011323,2.33943327 21.8571787,2.22002757 21.9159814,2.10337738 C21.949058,2.04000051 21.9812158,1.97754214 22.0243991,1.97937915 C22.2467471,1.99499375 22.4883898,1.86089196 22.1943759,1.54217058 C22.033587,1.36673605 22.1144408,1.09118442 22.1475174,0.85604704 C22.9248167,0.853291524 23.7002784,0.850536008 24.4748213,0.845024975 C24.4922784,1.10036948 24.5859954,1.37224708 24.4178561,1.5963624 C24.018181,2.12542151 24.293819,2.6664212 24.3636473,3.23956857 C24.4022367,2.90155858 24.6282599,2.72061302 24.805587,2.50017172 C24.9231926,2.35688488 24.7109513,1.98580869 25.0178283,1.99223823 C25.3807517,1.99866777 25.1253271,2.37984751 25.2410951,2.55711906 C25.2723341,2.60488134 25.3366497,2.63611052 25.4294478,2.70959095 C25.5222459,2.34035178 25.5498097,1.98856421 25.7795081,1.71668661 C25.3761578,1.5109414 25.5580789,1.15364279 25.5534849,0.845024975 C26.3326218,0.850536008 27.1062459,0.853291524 27.8853828,0.857884051 C27.9138654,1.09393994 27.9836937,1.34561042 27.8458747,1.54860012 C27.4756009,2.09051831 27.7043805,2.64713259 27.7530766,3.21844295 C27.9625615,3.0062682 27.9882877,2.70499843 28.2308492,2.52129735 C28.369587,2.41291371 28.1545893,1.99683076 28.4302274,1.99683076 C28.7747749,1.99958627 28.5404826,2.39178808 28.6617633,2.57089664 C28.6939211,2.61865892 28.7591555,2.64437707 28.7839629,2.6664212 C29.3453457,2.1052144 28.8932993,1.45583107 29.0044733,0.857884051 C29.7808538,0.85604704 30.5599907,0.850536008 31.33729,0.845024975 C31.3519907,1.10128798 31.4383573,1.36673605 31.2775684,1.60095493 C30.9091323,2.13736208 31.146181,2.67744326 31.2104965,3.23589455 C31.315239,2.91901019 31.5596381,2.716939 31.6919443,2.45240944 C31.7682042,2.29993754 31.5982274,2.03448948 31.8729466,1.98489019 C32.165123,1.93161687 31.9877958,2.38535854 32.2202506,2.38627705 C32.8376798,1.93161687 32.2974292,1.35571398 32.4435174,0.857884051 C33.5745522,0.85604704 34.7028306,0.85421003 35.8320278,0.853291524 C35.8219211,1.20875312 35.804464,1.5632962 35.804464,1.91600228 C35.8017077,10.5049464 35.8017077,19.0948089 35.8063016,27.6828345 C35.8063016,28.3919207 35.8246775,29.0991698 35.8347842,29.8073375 C35.8347842,29.893677 35.8384594,29.9836905 35.8393782,30.0672745 C35.8320278,31.4964689 35.8274339,32.9192338 35.8182459,34.3447542 C35.8237587,34.7213414 35.8283527,35.0970101 35.8320278,35.4754344 L35.8320278,39.7391365 C35.831109,40.1644045 35.8292715,40.590591 35.8283527,41.0149405 C35.8292715,42.4450534 35.831109,43.8724108 35.8320278,45.3034422 C35.8219211,45.6111416 35.804464,45.9179224 35.8017077,46.2210291 C35.7961949,49.2723041 35.7925197,52.3171495 35.787007,55.365669 C35.7686311,55.3785281 35.7373921,55.3968982 35.7401485,55.4060832 C35.7484176,55.4419049 35.7686311,55.4795637 35.787007,55.5080373 C35.782413,55.7395007 35.7787378,55.9709641 35.7750626,56.1996719 C35.6298933,56.2079384 35.4902367,56.2171235 35.3469049,56.2171235 C24.0990348,56.219879 12.8548399,56.2171235 1.60880742,56.2345751 C1.00975406,56.2345751 0.910524362,56.0132153 0.910524362,55.4896672 C0.924306265,47.8504577 0.922468677,40.2103298 0.918793503,32.5711203 C0.916037123,21.999123 0.910524362,11.4252888 0.908686775,0.853291524 C1.88812065,0.853291524 2.87214849,0.85604704 3.85158237,0.85604704 C3.86628306,1.15272429 3.86444548,1.40806879 3.70825058,1.71668661 C3.4785522,2.16767276 3.59340139,2.71234647 3.74132715,3.227628 C3.67333643,2.79409345 4.2145058,2.70499843 4.20899304,2.33024822 C4.20715545,2.17869483 4.16948492,1.953661 4.42582831,1.97754214 C4.60774942,1.99040122 4.57559165,2.17961333 4.59212993,2.31647064 C4.60774942,2.44781691 4.55813457,2.61131088 4.80988399,2.66366568 C4.91462645,2.33943327 5.20588399,1.87834356 5.08460325,1.70199052 C4.86776798,1.38694317 4.96332251,1.13251717 4.9495406,0.845024975 C5.39515545,0.845024975 5.83893271,0.850536008 6.28822274,0.845024975 C6.35253828,0.845024975 6.42420418,0.845024975 6.4912761,0.850536008 C6.88176334,0.867069105 7.27408817,0.882683697 7.2557123,0.235137384 Z M2.85285383,11.1359596 C2.85285383,11.1818848 2.85285383,11.2287286 2.85285383,11.2718984 L33.1500696,11.2718984 L33.1500696,11.1359596 L2.85285383,11.1359596 Z M2.85928538,14.942246 L2.85928538,15.0221559 L33.1234246,15.0221559 C33.1270998,14.9982748 33.1335313,14.9688826 33.1344501,14.942246 L2.85928538,14.942246 Z M2.88041763,18.7760876 C2.88317401,18.7962947 2.88317401,18.8174203 2.88317401,18.8385459 L33.1445568,18.8385459 C33.1445568,18.8174203 33.1445568,18.7962947 33.1445568,18.7760876 L2.88041763,18.7760876 Z M2.85285383,22.5318562 C2.85285383,22.5695149 2.85285383,22.6053366 2.85469142,22.6439138 L33.1509884,22.6439138 C33.1500696,22.6053366 33.1500696,22.5695149 33.1463944,22.5318562 L2.85285383,22.5318562 Z M2.86663573,26.3758013 L33.1362877,26.3758013 L33.1362877,26.3041579 L2.86663573,26.3041579 L2.86663573,26.3758013 Z M2.91073782,30.1334069 C2.91165661,30.1646361 2.91165661,30.1949468 2.91165661,30.228013 L33.0940232,30.228013 C33.1013735,30.1949468 33.1123991,30.1646361 33.1206682,30.1334069 L2.91073782,30.1334069 Z M2.74443619,33.8588649 C2.7435174,33.9084642 2.7435174,33.9553079 2.74167981,34.0012332 L33.1509884,34.0012332 L33.1509884,33.8588649 L2.74443619,33.8588649 Z M2.85285383,37.7184246 L2.85285383,37.8304822 L33.1509884,37.8304822 L33.1500696,37.7184246 L2.85285383,37.7184246 Z M2.87214849,41.5522662 L33.1289374,41.5522662 L33.1289374,41.4861338 L2.87214849,41.4861338 L2.87214849,41.5522662 Z M2.88041763,45.3126273 L2.86663573,45.3925373 L33.1445568,45.3925373 L33.1445568,45.3126273 L2.88041763,45.3126273 Z M2.74076102,49.174024 L33.1546636,49.174024 L33.1546636,49.0316557 L2.74076102,49.0316557 L2.74076102,49.174024 Z M2.86663573,52.9224446 L33.1280186,52.9224446 L33.1280186,52.8526382 L2.86663573,52.8526382 L2.86663573,52.9224446 Z M8.05138747,1.61840653 C8.05506265,1.61656952 8.05873782,1.61656952 8.0614942,1.61656952 L8.05690023,1.6312656 C8.05506265,1.62667308 8.05414385,1.62299906 8.05138747,1.61840653 Z" id="path-11"></path>
        <path d="M0.515443155,3.75760562 C0.526468677,18.2121252 0.522793503,32.6684819 0.519118329,47.1230015 C0.519118329,47.5014257 0.48787935,47.8770944 0.467665893,48.2546001 C0.484204176,48.5090261 0.515443155,48.7652891 0.516361949,49.0233891 C0.519118329,51.2103505 0.518199536,53.3982304 0.518199536,55.5870288 C0.518199536,56.7223015 0.932575406,57.6362144 1.96070534,58.2185468 C3.40229234,58.3921443 4.8503109,58.3453005 6.29832947,58.3453005 C16.4868306,58.3453005 26.6780882,58.3434635 36.8675081,58.3517301 C37.8643991,58.3517301 38.7197958,58.1294518 39.3013921,57.2238054 C39.515471,56.890388 39.657884,56.5817702 39.6569652,56.1822203 C39.6505336,52.897645 39.6551276,49.6121511 39.6542088,46.3266573 C39.6542088,46.1420377 39.7019861,45.9418035 39.5696798,45.779228 C39.2334014,45.3594711 39.6615592,45.4669362 39.831536,45.3962113 C39.3611137,45.2455764 38.8851787,45.2676205 38.4101624,45.2915017 C38.1639258,45.3034422 37.9158515,45.3144643 37.6705336,45.3025237 C37.6613457,45.608386 37.6438886,45.9179224 37.642051,46.2210291 C37.6347007,49.2704671 37.6310255,52.3171495 37.6264316,55.365669 L37.6264316,55.5080373 C37.6209188,55.7395007 37.6172436,55.9709641 37.6135684,56.1996719 C37.5097448,56.4338908 37.3278237,56.4054171 37.1541717,56.3806175 C37.0981253,56.3714324 37.0439165,56.3631659 36.9915452,56.3631659 C25.7675638,56.3695954 14.5435824,56.3695954 3.31868213,56.3640844 C3.07520186,56.3640844 2.78761949,56.476142 2.59283527,56.2079384 C2.38059397,55.9884157 2.4743109,55.7156196 2.4743109,55.4648676 C2.46971694,37.6513737 2.46971694,19.8406353 2.47155452,2.02989695 C2.47155452,1.62942859 2.5027935,1.23263426 2.19683527,0.909320354 C0.932575406,1.45215705 0.514524362,2.45424645 0.515443155,3.75760562 Z" id="path-13"></path>
        <path d="M0.890310905,1.91600228 C0.889392111,10.5049464 0.889392111,19.0948089 0.890310905,27.6828345 C0.892148492,28.3919207 0.910524362,29.0973328 0.921549884,29.806419 C1.32490023,29.806419 1.73468213,29.7669233 2.13160093,29.8165226 C2.7867007,29.899188 2.91716937,29.6227179 2.91625058,29.0201784 C2.89603712,21.7189789 2.90246868,14.4223719 2.90246868,7.12209093 C2.90246868,6.08601683 2.85928538,5.0444317 2.91625058,4.0074391 C2.95483991,3.29376039 2.75913689,2.63611052 2.62131787,1.96009054 C2.22623666,1.33091434 1.66393503,0.948816087 0.91787471,0.853291524 C0.907767981,1.20875312 0.890310905,1.5632962 0.890310905,1.91600228 Z" id="path-15"></path>
        <path d="M0.758923434,0.864313589 C0.763517401,1.64412468 0.77362413,2.42393577 0.77362413,3.20374686 L0.77362413,55.0726658 C0.77362413,55.4520085 0.762598608,55.8313512 0.75524826,56.2079384 C0.950032483,56.476142 1.23669606,56.3640844 1.48109513,56.3640844 C12.7059954,56.3695954 23.9299768,56.3695954 35.1539582,56.3631659 C35.3606868,56.3631659 35.6372436,56.5110452 35.7750626,56.1996719 C35.6298933,56.2079384 35.4902367,56.2171235 35.3469049,56.2171235 C24.0990348,56.218042 12.8548399,56.2171235 1.60972622,56.2345751 C1.00975406,56.2345751 0.910524362,56.0132153 0.910524362,55.4896672 C0.924306265,47.8504577 0.92063109,40.2112483 0.916955916,32.5711203 C0.916037123,21.999123 0.910524362,11.4252888 0.906849188,0.853291524 C0.856315545,0.85604704 0.808538283,0.857884051 0.758923434,0.864313589 Z" id="path-17"></path>
        <path d="M1.99745708,2.16950977 C1.94141067,3.20650238 1.98367517,4.24900602 1.98367517,5.28599862 C1.98367517,12.5862796 1.97724362,19.8828866 1.99745708,27.1813305 C1.99837587,27.7857071 1.86790719,28.0621772 1.21280742,27.9776747 C0.815888631,27.9299124 0.405187935,27.9703267 0.00275638051,27.9703267 C0.00275638051,28.0566662 0.00459396752,28.1466797 0.00643155452,28.2284267 C0.164464037,28.2284267 0.3252529,28.2284267 0.484204176,28.2238342 C0.849883991,28.2164861 1.21556381,28.2109751 1.57481206,28.2449598 C2.15732715,28.2973146 2.27860789,28.0621772 2.2767703,27.5230146 C2.25931323,20.9428418 2.26482599,14.358995 2.26574478,7.77422977 C2.26574478,7.51980378 2.28320186,7.25986675 2.291471,6.99992972 C2.29698376,5.10229754 2.29790255,3.20374686 2.30341531,1.30427768 C2.21245476,0.855128535 2.02961485,0.453741672 1.70344316,0.122161219 C1.84126218,0.799099705 2.0369652,1.45674958 1.99745708,2.16950977 Z" id="path-19"></path>
        <path d="M0.35924826,0.909320354 C0.665206497,1.23263426 0.633967517,1.62942859 0.633967517,2.02989695 C0.63212993,19.8406353 0.63212993,37.6513737 0.636723898,55.4648676 C0.636723898,55.7165381 0.543006961,55.9902527 0.75524826,56.208857 C0.762598608,55.8322697 0.774542923,55.4520085 0.774542923,55.0717473 L0.774542923,3.20374686 C0.774542923,2.42393577 0.763517401,1.64596169 0.759842227,0.862476578 C0.692770302,0.857884051 0.624779582,0.845024975 0.554951276,0.845024975 C0.486041763,0.845024975 0.420807425,0.857884051 0.35924826,0.909320354 Z" id="path-21"></path>
        <path d="M0.453883991,6.08142431 C0.479610209,6.06856523 0.50349884,6.07040224 0.529225058,6.08417982 C0.552194896,6.06213569 0.576083527,6.03917306 0.600890951,6.01896594 C0.591703016,4.53190568 0.593540603,3.04576393 0.566895592,1.55962218 C0.560464037,1.16833888 0.682663573,0.759603973 0.464909513,0.385772271 C0.461234339,2.28524146 0.459396752,4.18379213 0.453883991,6.08142431 Z" id="path-23"></path>
        <path d="M37.7293364,0.772463048 C37.8616427,0.935957011 37.8147842,1.13619119 37.8147842,1.31989227 C37.8166218,4.60538612 37.811109,7.89087996 37.8175406,11.1754553 C37.820297,11.5750052 37.677884,11.883623 37.4619675,12.2170404 C36.8794524,13.1236053 36.0268121,13.3440466 35.0280835,13.3440466 C24.8405012,13.3366985 14.6492436,13.337617 4.45890487,13.337617 C3.0118051,13.337617 1.56470534,13.3862978 0.124037123,13.2127003 C0.620185615,13.6223537 1.21832019,13.6223537 1.81186079,13.6260277 C4.80988399,13.6278647 7.81066357,13.6260277 10.8105244,13.6260277 C18.9776798,13.6260277 27.1420789,13.6085761 35.3101531,13.6407238 C37.1210951,13.6480719 38.1758701,12.3805344 38.1418747,10.8374453 C38.0637773,7.36365786 38.1143109,3.88803339 38.1143109,0.414245939 C38.0729652,0.408734907 38.0325383,0.400468358 37.9921114,0.390364798 C37.8239722,0.46200822 37.3958144,0.353624582 37.7293364,0.772463048 Z" id="path-25"></path>
        <path d="M0.149763341,0.266366568 C0.149763341,0.687960551 0.147925754,1.10863603 0.147925754,1.53114852 C0.266450116,1.5449261 0.36200464,1.50083784 0.438264501,1.41174281 C0.441020882,1.06179225 0.444696056,0.710923186 0.44837123,0.357298604 C0.390487239,0.286573687 0.320658933,0.254425998 0.241642691,0.254425998 C0.212241299,0.254425998 0.18100232,0.257181514 0.149763341,0.266366568 Z" id="path-27"></path>
        <path d="M0.906849188,0.792670167 C0.905930394,0.841350954 0.905930394,0.88819473 0.905011601,0.935038505 L31.3134014,0.935038505 L31.3134014,0.792670167 L0.906849188,0.792670167 Z" id="path-29"></path>
        <polygon id="path-31" points="0.90225522 0.492318899 31.3179954 0.492318899 31.3179954 0.351787571 0.90225522 0.351787571"></polygon>
        <path d="M0.0973921114,0.485889361 C0.0973921114,0.523548083 0.0973921114,0.559369794 0.0983109049,0.598865526 L30.3964455,0.598865526 C30.3955267,0.559369794 30.3955267,0.523548083 30.3918515,0.485889361 L0.0973921114,0.485889361 Z" id="path-33"></path>
        <polygon id="path-35" points="0.0955545244 0.0606213569 0.0955545244 0.172679017 30.3973643 0.172679017 30.3936891 0.0606213569"></polygon>
        <path d="M0.0955545244,0.114813176 C0.0955545244,0.158901436 0.0955545244,0.204826706 0.0955545244,0.250751976 L30.3946079,0.250751976 L30.3946079,0.114813176 L0.0955545244,0.114813176 Z" id="path-37"></path>
        <polygon id="path-39" points="0.109336427 0.567636342 30.3725568 0.567636342 30.3725568 0.496911426 0.109336427 0.496911426"></polygon>
        <polygon id="path-41" points="0.124037123 0.305862301 0.109336427 0.383935261 30.3881763 0.383935261 30.3881763 0.305862301"></polygon>
        <polygon id="path-43" points="0.115767981 0.218604287 30.3707193 0.218604287 30.3707193 0.154308909 0.115767981 0.154308909"></polygon>
        <path d="M0.153438515,0.741233864 C0.155276102,0.772463048 0.155276102,0.803692232 0.155276102,0.835839921 L30.3385615,0.835839921 C30.3440742,0.803692232 30.3569374,0.772463048 30.3652065,0.741233864 L0.153438515,0.741233864 Z" id="path-45"></path>
        <polygon id="path-47" points="0.109336427 0.655812861 30.3799072 0.655812861 30.3799072 0.581413923 0.109336427 0.581413923"></polygon>
        <path d="M0.124955916,0.40414238 C0.126793503,0.424349499 0.126793503,0.446393628 0.126793503,0.468437758 L30.3900139,0.468437758 C30.3900139,0.446393628 30.3900139,0.424349499 30.3900139,0.40414238 L0.124955916,0.40414238 Z" id="path-49"></path>
        <path d="M0.102904872,0.247077955 L0.102904872,0.327906431 L30.3698005,0.327906431 C30.3716381,0.302188279 30.3789884,0.274633117 30.380826,0.247077955 L0.102904872,0.247077955 Z" id="path-51"></path>
        <path d="M2.0360464,0.340765506 C1.65934107,0.341684012 1.28263573,0.34995056 0.905011601,0.36005412 C0.909605568,0.736641337 0.914199536,1.11231005 0.91787471,1.49073428 C1.67220418,1.48981577 2.42285847,1.48706026 3.17443155,1.48706026 C3.20199536,0.412408928 3.20383295,0.338928496 2.25747564,0.338928496 C2.19040371,0.338928496 2.11598144,0.338928496 2.0360464,0.340765506 Z" id="path-53"></path>
        <path d="M0.914199536,1.52012645 L2.90430626,1.53206702 C2.90430626,1.10863603 2.90614385,0.687960551 2.90614385,0.267285074 C2.24553132,0.25993703 1.58308121,0.251670482 0.918793503,0.243403933 C0.91787471,0.668671937 0.915118329,1.09485845 0.914199536,1.52012645 Z" id="path-55"></path>
        <path d="M0.154357309,0.852373019 L0.154357309,3.73372448 C0.154357309,3.96059532 0.339953596,4.14613341 0.571489559,4.14613341 C0.801187935,4.14613341 0.985865429,3.96059532 0.985865429,3.73372448 L0.985865429,0.852373019 C0.985865429,0.623665172 0.801187935,0.439045585 0.571489559,0.439045585 C0.339953596,0.439045585 0.154357309,0.623665172 0.154357309,0.852373019 Z" id="path-57"></path>
        <path d="M0.523712297,0.852373019 L0.523712297,3.73372448 C0.523712297,3.96059532 0.711146172,4.14613341 0.939925754,4.14613341 C1.16043619,4.14613341 1.33960093,3.97620991 1.35430162,3.76127965 L1.35430162,0.825736362 C1.33960093,0.608969086 1.16043619,0.439045585 0.939925754,0.439045585 C0.711146172,0.439045585 0.523712297,0.623665172 0.523712297,0.852373019 Z" id="path-59"></path>
        <path d="M0.90225522,0.852373019 L0.90225522,3.73372448 C0.90225522,3.96059532 1.0896891,4.14613341 1.31754988,4.14613341 C1.54724826,4.14613341 1.73376334,3.96059532 1.73376334,3.73372448 L1.73376334,0.852373019 C1.73376334,0.623665172 1.54724826,0.439045585 1.31754988,0.439045585 C1.0896891,0.439045585 0.90225522,0.623665172 0.90225522,0.852373019 Z" id="path-61"></path>
        <path d="M0.351897912,0.852373019 L0.351897912,3.73372448 C0.351897912,3.96059532 0.5374942,4.14613341 0.769948956,4.14613341 C0.98862181,4.14613341 1.16962413,3.9743729 1.18524362,3.76127965 L1.18524362,0.825736362 C1.16962413,0.608969086 0.98862181,0.439045585 0.769948956,0.439045585 C0.5374942,0.439045585 0.351897912,0.623665172 0.351897912,0.852373019 Z" id="path-63"></path>
        <path d="M0.731359629,0.852373019 L0.731359629,3.73372448 C0.731359629,3.96059532 0.916955916,4.14613341 1.14941067,4.14613341 C1.37635267,4.14613341 1.56286775,3.96059532 1.56286775,3.73372448 L1.56286775,0.852373019 C1.56286775,0.623665172 1.37635267,0.439045585 1.14941067,0.439045585 C0.916955916,0.439045585 0.731359629,0.623665172 0.731359629,0.852373019 Z" id="path-65"></path>
        <path d="M0.18100232,0.852373019 L0.18100232,3.73372448 C0.18100232,3.96059532 0.368436195,4.14613341 0.598134571,4.14613341 C0.825076566,4.14613341 1.01251044,3.96059532 1.01251044,3.73372448 L1.01251044,0.852373019 C1.01251044,0.623665172 0.825076566,0.439045585 0.598134571,0.439045585 C0.368436195,0.439045585 0.18100232,0.623665172 0.18100232,0.852373019 Z" id="path-67"></path>
        <path d="M0.560464037,0.824817856 L0.560464037,3.76127965 C0.575164733,3.97620991 0.756167053,4.14613341 0.974839907,4.14613341 C1.20545708,4.14613341 1.39289095,3.96059532 1.39289095,3.73372448 L1.39289095,0.852373019 C1.39289095,0.623665172 1.20545708,0.439045585 0.974839907,0.439045585 C0.756167053,0.439045585 0.575164733,0.608969086 0.560464037,0.824817856 Z" id="path-69"></path>
        <path d="M0.0101067285,0.852373019 L0.0101067285,3.73372448 C0.0101067285,3.96059532 0.194784223,4.14613341 0.424482599,4.14613341 C0.654180974,4.14613341 0.839777262,3.96059532 0.839777262,3.73372448 L0.839777262,0.852373019 C0.839777262,0.623665172 0.654180974,0.439045585 0.424482599,0.439045585 C0.194784223,0.439045585 0.0101067285,0.623665172 0.0101067285,0.852373019 Z" id="path-71"></path>
        <path d="M0.388649652,0.852373019 L0.388649652,3.73372448 C0.388649652,3.96059532 0.575164733,4.14613341 0.804863109,4.14613341 C1.02353596,4.14613341 1.20453828,3.97620991 1.21923898,3.76127965 L1.21923898,0.825736362 C1.20453828,0.608969086 1.02353596,0.439045585 0.804863109,0.439045585 C0.575164733,0.439045585 0.388649652,0.623665172 0.388649652,0.852373019 Z" id="path-73"></path>
        <path d="M0.756167053,0.852373019 L0.756167053,3.73372448 C0.756167053,3.96059532 0.942682135,4.14613341 1.17238051,4.14613341 C1.40299768,4.14613341 1.58767517,3.96059532 1.58767517,3.73372448 L1.58767517,0.852373019 C1.58767517,0.623665172 1.40299768,0.439045585 1.17238051,0.439045585 C0.942682135,0.439045585 0.756167053,0.623665172 0.756167053,0.852373019 Z" id="path-75"></path>
        <path d="M0.361085847,0.852373019 L0.361085847,3.73372448 C0.361085847,3.96059532 0.548519722,4.14613341 0.778218097,4.14613341 C1.00791647,4.14613341 1.19351276,3.96059532 1.19351276,3.73372448 L1.19351276,0.852373019 C1.19351276,0.623665172 1.00791647,0.439045585 0.778218097,0.439045585 C0.548519722,0.439045585 0.361085847,0.623665172 0.361085847,0.852373019 Z" id="path-77"></path>
        <path d="M0.730440835,0.824817856 L0.730440835,3.76127965 C0.744222738,3.97620991 0.924306265,4.14613341 1.14389791,4.14613341 C1.37543387,4.14613341 1.56103016,3.96059532 1.56103016,3.73372448 L1.56103016,0.852373019 C1.56103016,0.623665172 1.37543387,0.439045585 1.14389791,0.439045585 C0.924306265,0.439045585 0.744222738,0.608969086 0.730440835,0.824817856 Z" id="path-79"></path>
        <path d="M0.893067285,0.852373019 L0.893067285,3.73372448 C0.893067285,3.96059532 1.07774478,4.14613341 1.30744316,4.14613341 C1.53897912,4.14613341 1.72641299,3.96059532 1.72641299,3.73372448 L1.72641299,0.852373019 C1.72641299,0.623665172 1.53897912,0.439045585 1.30744316,0.439045585 C1.07774478,0.439045585 0.893067285,0.623665172 0.893067285,0.852373019 Z" id="path-81"></path>
        <path d="M0.34362877,0.852373019 L0.34362877,3.73372448 C0.34362877,3.96059532 0.531062645,4.14613341 0.758923434,4.14613341 C0.980352668,4.14613341 1.16043619,3.97620991 1.1732993,3.76127965 L1.1732993,0.824817856 C1.16043619,0.608969086 0.980352668,0.439045585 0.758923434,0.439045585 C0.531062645,0.439045585 0.34362877,0.623665172 0.34362877,0.852373019 Z" id="path-83"></path>
        <path d="M0.509930394,0.852373019 L0.509930394,3.73372448 C0.509930394,3.96059532 0.694607889,4.14613341 0.922468677,4.14613341 C1.15216705,4.14613341 1.33868213,3.96059532 1.33868213,3.73372448 L1.33868213,0.852373019 C1.33868213,0.623665172 1.15216705,0.439045585 0.922468677,0.439045585 C0.694607889,0.439045585 0.509930394,0.623665172 0.509930394,0.852373019 Z" id="path-85"></path>
        <path d="M0.878366589,0.824817856 L0.878366589,3.76127965 C0.891229698,3.97620991 1.07406961,4.14613341 1.29366125,4.14613341 C1.5132529,4.14613341 1.69149884,3.97620991 1.70711833,3.76127965 L1.70711833,0.824817856 C1.69149884,0.608969086 1.5132529,0.439045585 1.29366125,0.439045585 C1.07406961,0.439045585 0.891229698,0.608969086 0.878366589,0.824817856 Z" id="path-87"></path>
        <path d="M0.123118329,0.852373019 L0.123118329,3.73372448 C0.123118329,3.96059532 0.308714617,4.14613341 0.539331787,4.14613341 C0.769030162,4.14613341 0.95462645,3.96059532 0.95462645,3.73372448 L0.95462645,0.852373019 C0.95462645,0.623665172 0.769030162,0.439045585 0.539331787,0.439045585 C0.308714617,0.439045585 0.123118329,0.623665172 0.123118329,0.852373019 Z" id="path-89"></path>
        <path d="M0.490635731,0.852373019 L0.490635731,3.73372448 C0.490635731,3.96059532 0.677150812,4.14613341 0.905930394,4.14613341 C1.13562877,4.14613341 1.32214385,3.96059532 1.32214385,3.73372448 L1.32214385,0.852373019 C1.32214385,0.623665172 1.13562877,0.439045585 0.905930394,0.439045585 C0.677150812,0.439045585 0.490635731,0.623665172 0.490635731,0.852373019 Z" id="path-91"></path>
        <polygon id="path-93" points="2.5735406 0.67418297 0.00643155452 0.67418297 0.00643155452 4.93421105 2.5735406 4.93421105 2.5735406 4.94982564 4.62980046 4.94982564 2.58180974 2.81521908 4.62980046 0.67418297"></polygon>
        <polygon id="path-95" points="2.57262181 0.572228869 0.00643155452 0.572228869 0.00643155452 4.8239904 2.57262181 4.8239904 2.57262181 4.84419752 4.62888167 4.84419752 2.58272854 2.70683544 4.62888167 0.572228869"></polygon>
        <polygon id="path-97" points="2.57262181 0.612643107 0.00643155452 0.612643107 0.00643155452 4.86624165 2.57262181 4.86624165 2.57262181 4.88461176 4.62980046 4.88461176 2.58272854 2.75000519 4.62980046 0.612643107"></polygon>
        <path d="M31.9665537,1.46810423 L2.90795315,25.3921182 C0.282206424,27.556855 -0.0375312891,31.3708486 2.19774568,33.9118789 C4.43085738,36.4536087 8.37452976,36.7620574 10.9995547,34.6001183 L40.0595988,10.6747055 C42.6860673,8.51206695 43.0065268,4.69737401 40.7698063,2.15634367 C39.5341608,0.748390439 37.776686,0.0251794914 36.0091066,0.0251794914 C34.5778653,0.0251794914 33.1422935,0.498693816 31.9665537,1.46810423 Z" id="path-99"></path>
        <path d="M34.278348,10.9917542 C34.1644176,9.78943064 35.3717123,8.7460085 34.6798608,7.42427921 C30.2209559,12.4641184 23.7443805,14.173457 17.8980974,14.5922954 C11.1164826,15.0809403 6.36080742,17.5976451 2.46879814,22.4528647 C-0.220510441,25.8063279 -0.224185615,29.7274275 1.93130394,33.4831961 C2.66817633,34.7718592 3.18637587,36.0384782 3.50335963,37.5108424 C3.81207425,38.9528959 2.97413457,41.4787857 5.48335963,41.5237925 C8.10743387,41.5706363 6.55651044,38.731536 7.61128538,37.5604417 C7.6801949,37.4814502 7.65998144,37.3253043 7.68111369,37.2022245 C8.49240835,32.6446007 8.48965197,32.6501117 12.8704594,33.8818275 C19.5565197,35.7629266 26.3289466,36.859622 33.5690394,36.2708601 C32.2799722,33.9470414 30.3459118,32.7933986 28.3760186,31.2686796 C32.5206961,30.9086255 36.3878979,31.2751091 39.5292529,32.9605666 C41.8436937,34.2042229 40.5132807,37.6826029 40.89458,40.1515454 C40.9129559,40.2737066 40.9120371,40.3967864 40.9267378,40.5189476 C41.1114153,41.951816 42.4308028,41.6358501 43.243935,41.8241438 C44.2399072,42.0592811 44.3492436,41.0020814 44.3152483,40.3297355 C44.1498654,36.8669701 45.6089095,33.9847001 47.1644269,31.0206831 C47.8011508,29.8091745 48.1530487,28.4672381 48.1567239,27.0885615 L48.1567239,27.0279401 C48.1530487,26.1011682 47.9913411,25.1532706 47.6504687,24.2228246 C47.4602784,23.6992765 47.7322413,23.0480562 47.0367146,22.6448323 C43.4607703,20.5745211 43.533355,20.5873802 45.0291508,17.4268031 C47.6366868,11.9120966 48.7337262,6.39187914 44.7672947,0.820225329 C38.7418469,9.78391961 37.8809374,10.6124115 34.278348,10.9917542 Z" id="path-101"></path>
        <path d="M4.85766125,0.18002706 C4.55721578,0.18002706 4.34497448,0.338928496 4.40285847,0.749500413 C4.86593039,3.96610635 1.78613457,2.6489696 0.529225058,3.96610635 L0.529225058,3.96702486 C3.31592575,5.55052818 4.86225522,3.13394045 6.6897355,2.26227882 C7.58555916,1.8342553 6.44533643,1.11414706 5.99053364,0.678775497 C5.69743852,0.401386863 5.2187471,0.18002706 4.86133643,0.18002706 L4.85766125,0.18002706 Z" id="path-103"></path>
        <path d="M6.98191183,0.271877601 L7.00304408,0.271877601 C12.7023202,0.271877601 14.0042506,1.11782108 13.9390162,4.78082065 C13.8664316,8.86357719 11.7440186,10.5811823 6.81285383,10.5407681 C2.08474246,10.4994353 0.446533643,8.9682868 0.473178654,4.6026306 C0.497986079,0.694390089 1.12827842,0.274633117 6.98191183,0.271877601 Z M6.65206497,5.44122604 C6.77702088,6.65916421 7.54605104,7.56021801 8.8681949,7.56021801 C8.94077958,7.56021801 9.01336427,7.55654399 9.08503016,7.55195147 C10.3042691,7.46469345 11.4270348,6.56088413 11.0503295,5.54134313 C10.6818933,4.54109074 9.33126682,3.9064035 8.39409745,3.09720024 C7.26030626,3.42694368 6.52986543,4.29217577 6.65206497,5.44122604 Z" id="path-105"></path>
        <path d="M0.794756381,4.78541318 C0.735034803,1.06362926 2.02318329,0.267285074 8.10283991,0.267285074 C13.4557309,0.267285074 14.2045476,0.799099705 14.2422181,4.62559324 C14.2854014,9.05738183 12.7372343,10.5077019 7.94756381,10.5398496 C3.0696891,10.5710787 0.861828306,8.79468928 0.794756381,4.78541318 Z M3.76980974,5.3337609 C3.81666821,6.80153255 4.66838979,7.54368492 6.05852436,7.558381 L6.08700696,7.558381 C7.3117587,7.558381 7.98431555,6.75101475 8.35183295,5.37141963 C7.49184223,4.64304484 6.65665893,3.4315362 5.59453364,3.17986572 C4.50943852,2.92360271 3.73122042,4.05244586 3.76980974,5.3337609 Z" id="path-107"></path>
        <path d="M0.220510441,2.68754682 C0.353735499,3.97069888 1.19994432,4.89930785 2.65347564,4.79643524 C3.87363341,4.71101424 4.99456148,3.80812342 4.61877494,2.7858269 C4.25217633,1.78649302 2.89603712,1.14996877 1.96254292,0.341684012 C0.827832947,0.671427453 0.0992296984,1.53482254 0.220510441,2.68754682 Z" id="path-109"></path>
        <path d="M0.0937169374,2.57824468 C0.1414942,4.04693483 0.99137819,4.79184271 2.38243155,4.80194627 C3.62464037,4.81847937 4.30546636,4.00927611 4.67757773,2.61682191 C3.81666821,1.8856916 2.98056613,0.676938486 1.91935963,0.426186509 C1.81369838,0.401386863 1.7117123,0.388527788 1.61340139,0.388527788 C0.689095128,0.388527788 0.0615591647,1.42184637 0.0937169374,2.57824468 Z" id="path-111"></path>
        <path d="M4.33762413,0.790833156 C5.90508585,0.545592212 7.49735499,0.457415693 9.06389791,0.298514258 C12.4487332,0.730211799 15.9732251,0.388527788 18.807703,2.91166214 C19.9185244,3.89538144 21.4042135,3.94314372 22.5710812,3.05954151 C27.1163527,-0.383016755 32.2468956,0.169923501 37.3517123,0.836758427 C40.9543016,1.30887021 42.2332622,3.64646647 40.3561671,6.66100122 C39.4392111,8.13428389 38.9586821,9.62226266 38.4404826,11.1873959 C37.1587657,15.0689997 33.7877123,15.1406431 30.6050116,15.1553392 C27.0207981,15.1672798 23.7526497,14.3608321 22.5233039,10.273483 C22.1907007,9.16760248 22.3900789,7.37284291 20.9558422,7.26629628 C19.0521021,7.11933542 19.5087425,9.18505408 19.0824223,10.2964456 C17.6794246,13.9438306 15.1793875,15.3868026 10.2362784,15.1562577 C5.42363805,14.9339794 3.68711833,13.7169598 2.78945708,9.71319469 C2.57170302,8.73866045 2.17294664,8.06631449 1.5987007,7.24241514 C-0.667962877,3.99274301 0.505336427,1.40163925 4.33762413,0.790833156 Z M30.4772993,13.3054693 C30.5333457,13.3063878 30.5893921,13.3063878 30.6426821,13.3063878 C35.3680371,13.3063878 36.823406,11.9240372 36.8261624,7.4904116 C36.8270812,3.56288248 36.1949513,3.10454828 30.7685568,3.09720024 C29.9177541,3.09260771 29.0614385,3.03474187 28.2143109,3.11740736 C25.05458,3.41775862 23.6763898,5.16475591 24.0788213,8.28583729 C24.5143295,11.6797148 26.5512947,13.2751587 30.4772993,13.3054693 Z M4.79242691,7.6943198 C4.81264037,12.0057842 6.20736891,13.2962843 10.8812715,13.2962843 L10.9428306,13.2962843 C15.4761578,13.2870992 17.5609002,11.4096742 17.5020974,7.39213152 C17.450645,4.00927611 16.0559165,3.08434116 11.0062274,3.09260771 C5.34186543,3.09903725 4.77496984,3.52063123 4.79242691,7.6943198 Z" id="path-113"></path>
        <path d="M1.93222274,1.53206702 C1.38278422,1.69280547 0.839777262,1.88109908 0.146088167,2.10337738 C2.30433411,3.74474655 2.82712761,7.10372083 6.32405568,6.51312185 C6.94607889,6.40657522 7.1702645,7.62175788 7.26581903,8.34370313 C7.5800464,10.7106916 7.97880278,13.083191 8.07987007,15.4676311 C8.19563805,18.2148807 9.89081206,20.6663717 10.0240371,23.0691818 C10.1526682,25.390245 8.15245476,27.8656171 8.0899768,30.6275628 C8.04128074,32.9192338 7.69857077,35.2136603 7.40180046,37.4943093 C7.18129002,39.2128329 6.54180974,40.58508 4.37988863,40.0137696 C3.42893735,39.7620991 2.99342923,40.2865657 2.73341067,41.0406586 C2.29330858,42.3155442 1.21372622,43.0733111 0.105661253,44.3096194 C1.46363805,44.6099707 2.52760093,44.8809298 3.60350812,45.0830009 C9.43968445,46.1778594 11.7568817,44.5989486 12.8557587,38.7333731 C13.072594,37.5622787 13.1038329,36.3562811 13.205819,35.1658981 C13.4171415,32.783295 13.5375035,30.3859959 14.2265986,28.0676883 C14.4645661,27.2630775 14.7291787,26.2361885 15.697587,26.317017 C19.7320093,26.658701 18.3859768,23.7406093 18.589949,21.7401045 C18.7121485,20.5552325 18.2371323,20.0114773 17.0215684,20.1630307 C14.9285568,20.4229677 14.2265986,19.0433726 13.9849559,17.3790408 C13.6303016,14.9192833 13.4116288,12.4411558 13.1773364,9.96578368 C12.676594,4.67427402 11.4628677,0.787159135 6.41225986,0.787159135 C5.16637587,0.787159135 3.68895592,1.02413353 1.93222274,1.53206702 Z" id="path-115"></path>
        <path d="M7.09400464,5.1298527 C6.62358237,6.52506242 6.41225986,7.97721947 6.2799536,9.46244271 C6.03096056,12.2978689 5.97858933,15.1608503 5.26560557,17.9503512 C4.93024594,19.2647324 4.29168445,20.2236521 2.84734107,20.125372 C-0.17824594,19.9205453 0.995053364,22.1561875 0.853559165,23.5339456 C0.713902552,24.8694524 0.447452436,26.4456077 2.74443619,26.2260849 C4.35691879,26.0690205 4.91646404,27.1409163 5.30787007,28.5398 C5.98685847,30.9692468 6.00982831,33.4675816 6.22850116,35.9328501 C7.04622738,45.0324831 9.90275638,47.0339064 18.6855035,44.4060625 C18.7553318,44.3849368 18.8049466,44.3013528 19.181652,43.9541578 C17.8925847,43.1173994 17.1887889,42.0601996 16.6338376,40.8863497 C16.405058,40.4041344 16.1918979,39.7933283 15.4651323,39.9522297 C11.8956195,40.7430629 12.1198051,38.0793972 11.8423295,35.9438721 C11.4628677,33.0257805 11.6852158,29.9028621 10.6901624,27.2245003 C9.59404176,24.2953865 9.75574942,21.9256426 10.714051,19.0387801 C11.6466265,16.21805 11.4977819,13.0446138 11.853355,10.0300791 C12.0968353,7.96895292 12.2309791,5.77923603 15.3070998,6.33309479 C16.1193132,6.47730014 16.4601856,5.86282002 16.7036659,5.25476944 C17.2135963,3.98631347 18.2720464,3.12016287 19.3286589,1.94355744 C17.3247703,1.52380047 15.6323527,1.05444421 13.9114524,0.833084405 C13.5457726,0.787159135 13.1911183,0.765115005 12.8465708,0.765115005 C10.0672204,0.765115005 8.05965661,2.28707847 7.09400464,5.1298527 Z" id="path-117"></path>
        <path d="M11.4536798,0.340765506 C12.0986729,0.253507493 12.7161021,0.208500728 13.3041299,0.208500728 C17.9881392,0.210337738 20.8079165,2.98514258 21.3417355,8.21694938 C21.5567332,10.3166527 21.757949,12.4282967 21.891174,14.5417776 C21.9701903,15.7734934 22.2127517,16.6837322 23.3796195,17.5416163 C24.756891,18.5565648 24.7274896,20.4000051 23.3768631,21.4002575 C22.313819,22.1855796 21.9968353,22.9635537 21.9104687,24.1043374 C21.7616241,26.1232123 21.531007,28.1356577 21.3830812,30.1554511 C20.9402227,36.2230978 18.6616148,38.4017926 12.4689466,38.6470336 C6.13110905,38.3237196 4.00410209,36.2185053 3.58421346,29.9092916 C3.45190719,27.8968463 3.23690951,25.8844009 3.04947564,23.8765481 C2.95392111,22.8524146 2.65255684,22.1258768 1.64647796,21.4434273 C0.192946636,20.459708 0.256343387,18.4454256 1.46455684,17.6426519 C2.93646404,16.6644436 2.98883527,15.5319265 3.10735963,14.178968 C3.26998608,12.3538977 3.46936427,10.529746 3.6062645,8.69732771 C4.03625986,3.00167567 5.77553596,1.14537624 11.4536798,0.340765506 Z M6.6897355,28.4158018 C7.33105336,33.4207378 7.36504872,33.4170638 12.4790534,34.309851 C17.5820325,33.292147 17.5673318,33.288473 18.1911926,28.0686068 C18.4502923,25.8871564 18.7975963,23.7167281 19.0796659,21.5407888 C19.1954339,20.6516756 19.9846775,19.9049307 19.6033782,18.9055968 C18.278478,15.4152763 18.331768,11.7136995 18.0395916,8.07274403 C17.8990162,6.33309479 17.1603063,5.36315308 15.3916288,5.17761499 C14.3919814,5.07566089 13.4042784,4.84603453 12.4101439,4.67335552 C7.3678051,5.44122604 7.25754988,5.43020397 6.70535499,10.607819 C6.37367053,13.7013452 5.27019954,16.8306931 5.45303944,19.7625624 C5.62669142,22.584211 6.31762413,25.5160802 6.6897355,28.4158018 Z" id="path-119"></path>
    </defs>
    <g id="survey" stroke="none" stroke-width="1" fill="none" fill-rule="evenodd">
        <g id="Introduction" transform="translate(-244.000000, -408.000000)">
            <g id="Group-7" transform="translate(341.000000, 559.000000)" font-family=".SFNSDisplay, .SF NS Display" font-weight="normal">
                <text id="Your-journey" fill="#5C5C5C" font-size="20">
                    <tspan x="81.0527344" y="19.5435778">Your</tspan>
                    <tspan x="102" y="42.5435778"></tspan>
                    <tspan x="68.7871094" y="65.5435778">journey</tspan>
                </text>
                <text id="FIT" fill="#6BC29F" font-size="30">
                    <tspan x="48.6350911" y="46.8362928">FIT </tspan>
                </text>
                <text id="FUN" fill="#49A0D8" font-size="30">
                    <tspan x="98.6005859" y="46.8362928">FUN</tspan>
                </text>
            </g>
            <g id="Group-2" transform="translate(244.000000, 408.000000)">
                <g id="Group-154" transform="translate(74.000000, 172.000000)">
                    <mask id="mask-2" fill="white">
                        <use xlink:href="#path-1"></use>
                    </mask>
                    <g id="Clip-153"></g>
                    <polygon id="Fill-152" fill="#F4C9A9" mask="url(#mask-2)" points="-7.26030626 8.48239744 8.95823666 8.48239744 8.95823666 -7.8302586 -7.26030626 -7.8302586"></polygon>
                </g>
                <g id="Group-3" transform="translate(17.000000, 34.000000)">
                    <mask id="mask-4" fill="white">
                        <use xlink:href="#path-3"></use>
                    </mask>
                    <g id="Clip-2"></g>
                    <polygon id="Fill-1" fill="#ECECEC" mask="url(#mask-4)" points="-4.24941995 206.125473 357.735007 206.125473 357.735007 -4.15531847 -4.24941995 -4.15531847"></polygon>
                </g>
                <g id="Group-6" transform="translate(18.000000, 107.000000)">
                    <mask id="mask-6" fill="white">
                        <use xlink:href="#path-5"></use>
                    </mask>
                    <g id="Clip-5"></g>
                    <polygon id="Fill-4" fill="#D9D8D8" mask="url(#mask-6)" points="-4.00777726 83.2863964 83.5918329 83.2863964 83.5918329 -4.28758325 -4.00777726 -4.28758325"></polygon>
                </g>
                <polygon id="Fill-7" fill="#4A4A4A" points="1 153 6.60188399 154.870996 9.08813921 154.434705 9.34356381 155.889618 6.91059861 156.314886 2.23945244 160.055959 1.97943387 158.57992 5.18877958 155.879514 1.25726218 154.465016"></polygon>
                <g id="Group-76" fill="#4A4A4A">
                    <path d="M1.97623295,149.571074 C2.21695684,149.969705 2.54037216,150.281079 2.94739768,150.507031 C3.35350441,150.732983 3.79820046,150.83953 4.28424223,150.826671 C4.7684464,150.815649 5.21130487,150.68614 5.60914246,150.437225 C6.00698005,150.189228 6.31936984,149.861322 6.54447425,149.456261 C6.77049745,149.049363 6.8761587,148.611236 6.86513318,148.140961 C6.85502645,147.678034 6.72639536,147.251848 6.48107749,146.860565 C6.23759722,146.469281 5.90958794,146.1625 5.49980603,145.942059 C5.09094292,145.720699 4.64257169,145.614153 4.15836752,145.626093 C3.67324455,145.638952 3.23314246,145.763869 2.83806125,146.006354 C2.44389884,146.247003 2.13426543,146.569398 1.91283619,146.971704 C1.69048817,147.373091 1.58574571,147.805707 1.59677123,148.268633 C1.60871555,148.738908 1.73459026,149.172443 1.97623295,149.571074 M0.742293271,146.222203 C1.07305893,145.585679 1.53521206,145.080501 2.12783387,144.705751 C2.72229327,144.331001 3.38658097,144.135359 4.12069698,144.116989 C4.85665058,144.099537 5.53104501,144.26395 6.14571787,144.609308 C6.76130951,144.954666 7.25286404,145.435963 7.62038144,146.055035 C7.98789884,146.674108 8.18176427,147.368498 8.20014014,148.130857 C8.21851601,148.895054 8.05864594,149.594955 7.72144872,150.231479 C7.38425151,150.868004 6.91658561,151.3741 6.31936984,151.74885 C5.72123527,152.1236 5.05510998,152.319242 4.32007517,152.337612 C3.58595916,152.355064 2.91248353,152.192488 2.30148585,151.846212 C1.68956937,151.501772 1.2044464,151.018638 0.843360557,150.397729 C0.483193503,149.778656 0.293003248,149.087022 0.274627378,148.322825 C0.256251508,147.558629 0.412446404,146.858727 0.742293271,146.222203" id="Fill-8"></path>
                    <path d="M6.6639174,140.937674 C7.05532343,140.644671 7.29237216,140.212055 7.37506357,139.637989 C7.45775499,139.062086 7.35301253,138.584463 7.05807981,138.204202 C6.76406589,137.824859 6.31569466,137.590641 5.71020974,137.503383 L1.21455313,136.855836 L1.42587564,135.394494 L5.92245104,136.042959 C6.58398237,136.137565 7.14077123,136.355251 7.59373643,136.696016 C8.04486404,137.034945 8.36736056,137.473072 8.55755081,138.009479 C8.74682227,138.545886 8.79368074,139.150263 8.69536984,139.827201 C8.59705893,140.511488 8.38022367,141.087391 8.04486404,141.553991 C7.7104232,142.022429 7.27767146,142.354928 6.7484464,142.553325 C6.21830255,142.752641 5.62292436,142.80224 4.96047425,142.707634 L0.464817633,142.060088 L0.675221346,140.597827 L5.17087796,141.245374 C5.77544408,141.33355 6.27251137,141.230677 6.6639174,140.937674" id="Fill-10"></path>
                    <path d="M6.43734292,132.613719 L6.95370487,130.950306 C7.1190877,130.416654 7.12919443,129.973934 6.98494385,129.621228 C6.83977448,129.268522 6.539329,129.023281 6.08268863,128.879994 C5.6343174,128.7413 5.25393689,128.777122 4.9415471,128.989297 C4.62915731,129.198716 4.39118979,129.571629 4.22580696,130.105281 L3.71036381,131.767775 L6.43734292,132.613719 Z M10.842039,130.470846 L8.26757958,131.069711 C8.25655406,131.127577 8.23266543,131.215754 8.19591369,131.335159 L7.68047053,132.998573 L9.849742,133.670919 L9.41147749,135.081743 L2.04091601,132.79742 L2.99370487,129.724101 C3.28955638,128.767937 3.7397652,128.101102 4.34341253,127.718085 C4.94614107,127.335068 5.65269327,127.268936 6.45847517,127.519688 C7.0345587,127.697878 7.4875239,127.975267 7.81737077,128.350017 C8.14721763,128.726604 8.34016427,129.184938 8.39621067,129.724101 L11.3418626,128.859787 L10.842039,130.470846 Z" id="Fill-12"></path>
                    <polygon id="Fill-14" points="6.07359258 121.920846 6.73144872 120.599117 13.6416947 124.034327 12.9838385 125.356057"></polygon>
                    <polygon id="Fill-16" points="10.8074923 113.78344 11.5893856 112.581116 18.0586107 116.791545 17.2941745 117.963558 10.6751861 118.3925 15.129497 121.289466 14.3411722 122.500056 7.87286589 118.291464 8.63638329 117.118533 15.2709912 116.687754"></polygon>
                    <path d="M19.0847193,109.644746 C19.1040139,109.262648 18.9349559,108.91086 18.5793828,108.59122 C18.2302413,108.276173 17.8673179,108.152175 17.4933689,108.214633 C17.11942,108.279847 16.7463898,108.519577 16.3724408,108.93566 L15.2965336,110.132472 L17.4207842,112.041127 L18.4966914,110.843396 C18.8706404,110.42915 19.0663434,110.028681 19.0847193,109.644746 M17.4887749,106.80289 C18.1888956,106.716551 18.8541021,106.955362 19.4825568,107.520243 C20.1385754,108.109005 20.4702599,108.765736 20.478529,109.4886 C20.4849606,110.211464 20.1652204,110.933409 19.5156334,111.655354 L18.3891926,112.910033 L20.077935,114.427404 L19.0911508,115.525018 L13.350529,110.368528 L15.4655916,108.016236 C16.1133411,107.294291 16.7877355,106.890148 17.4887749,106.80289" id="Fill-18"></path>
                    <path d="M24.2851824,107.72709 C24.7721429,107.775771 25.2398088,107.615033 25.68818,107.247631 C26.1374701,106.87931 26.3818691,106.455879 26.4213773,105.977338 C26.4618042,105.496959 26.2872334,105.022092 25.9013401,104.550899 L23.0218413,101.037616 L24.1648204,100.102577 L27.0434005,103.613105 C27.4678831,104.13206 27.7315768,104.668467 27.8363193,105.224163 C27.9401429,105.780778 27.8813401,106.320859 27.6589921,106.844407 C27.4375629,107.366118 27.0617763,107.845578 26.5343889,108.278194 C25.9987323,108.716321 25.4502125,108.994628 24.8879109,109.114952 C24.3246905,109.232521 23.7816835,109.187514 23.2561336,108.975339 C22.7315026,108.764083 22.2574051,108.399436 21.8329225,107.883236 L18.9543425,104.370872 L20.0964028,103.433996 L22.9759016,106.946361 C23.3627137,107.418473 23.7991406,107.67841 24.2851824,107.72709" id="Fill-20"></path>
                    <polygon id="Fill-22" points="25.5920742 99.1125201 30.9826357 95.862848 31.6597865 96.9852616 29.6016891 98.2261624 32.9111833 103.710558 31.6368167 104.478429 28.3282413 98.9958699 26.2701439 100.237689"></polygon>
                    <path d="M36.5099137,94.9110008 C36.0762432,94.9550891 35.7151573,95.0414286 35.4248186,95.1672638 C35.102322,95.3096322 34.8726237,95.4813927 34.737561,95.6862194 C34.6024984,95.8901276 34.5813661,96.0986283 34.6760019,96.3144771 C34.7614497,96.5101187 34.8983499,96.6442205 35.0876213,96.717701 C35.275974,96.7920999 35.4882153,96.8270031 35.7243452,96.8242476 C35.9586376,96.8214921 36.2710274,96.7957739 36.6587582,96.7461746 C37.1990088,96.6772867 37.651974,96.6478946 38.021329,96.6543241 C38.3888464,96.6616721 38.7416631,96.7553597 39.0779415,96.9381423 C39.41422,97.1190878 39.6806701,97.4350537 39.8791295,97.8869584 C40.0684009,98.3168189 40.1152594,98.7430054 40.02338,99.1645994 C39.9315007,99.5861934 39.7192594,99.9701286 39.3848186,100.317324 C39.0512965,100.664519 38.62222,100.952011 38.0975889,101.181637 C37.545394,101.423204 36.9619601,101.557306 36.3463684,101.581187 C35.7316956,101.606905 35.1528557,101.532506 34.6126051,101.359827 L34.6732455,99.9627806 C35.1749067,100.134541 35.6885123,100.219044 36.2158998,100.211696 C36.7432872,100.207103 37.19809,100.118926 37.5821457,99.9517585 C37.958851,99.787346 38.2234636,99.5843563 38.3750645,99.3446264 C38.5275842,99.105815 38.5487165,98.8633296 38.43938,98.6116591 C38.3511759,98.4114249 38.2124381,98.2736491 38.0231666,98.1992502 C37.8348139,98.1257698 37.6216538,98.0936221 37.3846051,98.1009701 C37.1466376,98.1073997 36.8314914,98.1386288 36.437329,98.1900651 C35.8970784,98.258953 35.4459508,98.2920192 35.0839462,98.2892637 C34.7219415,98.2874267 34.3737188,98.1983317 34.0383592,98.0201416 C33.7039183,97.8419516 33.4393058,97.5305783 33.2445216,97.0860216 C33.0644381,96.6763682 33.0166608,96.2694703 33.1021086,95.867165 C33.1857188,95.4657781 33.3915285,95.0919464 33.718619,94.7493439 C34.0457095,94.4049044 34.4711109,94.1174122 34.9966608,93.8877858 C35.45422,93.6875516 35.9365865,93.5562054 36.4437606,93.4946655 C36.9500158,93.4340441 37.4287072,93.4395552 37.878916,93.5148726 L37.8513522,94.9358005 C37.3901179,94.8724236 36.9435842,94.8641571 36.5099137,94.9110008" id="Fill-24"></path>
                    <path d="M155.406203,18.3019551 C155.266547,18.7465117 155.247252,19.1956608 155.3474,19.6494025 C155.44663,20.1031442 155.661628,20.506368 155.991475,20.8618296 C156.321322,21.2191282 156.71089,21.4625322 157.161099,21.5975525 C157.610389,21.7298172 158.063354,21.7481874 158.517238,21.6499073 C158.970203,21.5488717 159.369878,21.3394524 159.714426,21.0198126 C160.05438,20.7056837 160.289591,20.3254225 160.420978,19.8845399 C160.552366,19.4409018 160.565229,18.9945081 160.459568,18.5407665 C160.354825,18.0870248 160.13799,17.6810454 159.808143,17.3265023 C159.478296,16.9692037 159.092403,16.7248813 158.649544,16.5871055 C158.208523,16.4502482 157.76199,16.4346336 157.314537,16.5329136 C156.865247,16.6339492 156.471085,16.8415315 156.13205,17.1556603 C155.786584,17.4753002 155.544941,17.8573984 155.406203,18.3019551 M157.101377,15.1606666 C157.796904,14.987069 158.481405,14.9971726 159.1558,15.1946513 C159.829275,15.3921299 160.415465,15.7595321 160.916208,16.2996133 C161.416032,16.8378574 161.739447,17.4514191 161.887373,18.1421351 C162.035298,18.8310142 161.999465,19.5180562 161.778955,20.2032613 C161.556607,20.8903033 161.16612,21.4937614 160.605656,22.0136354 C160.045192,22.5316725 159.413981,22.876112 158.71386,23.04328 C158.011902,23.214122 157.324644,23.1975889 156.647493,22.9964362 C155.971261,22.798039 155.384152,22.4278814 154.884329,21.8896372 C154.383586,21.349556 154.062008,20.7359944 153.91592,20.0507894 C153.769832,19.3637473 153.810259,18.6803793 154.036282,18.0006853 C154.262305,17.3209913 154.655549,16.7193702 155.216013,16.2013332 C155.776477,15.6805406 156.404932,15.3351826 157.101377,15.1606666" id="Fill-26"></path>
                    <path d="M164.975897,16.1007569 C165.454588,16.1990369 165.936036,16.0897348 166.422078,15.7710134 C166.907201,15.4532105 167.194783,15.0564162 167.283906,14.5852229 C167.373948,14.1131111 167.251748,13.6217108 166.917308,13.1119403 L164.423702,9.3157574 L165.658561,8.50471713 L168.151247,12.3009 C168.518765,12.8593513 168.725493,13.4205581 168.769595,13.9854389 C168.815535,14.5494012 168.699767,15.0802973 168.424129,15.5772088 C168.148491,16.0759572 167.724927,16.5113288 167.154356,16.8851605 C166.576435,17.2654217 166.001271,17.484026 165.428862,17.5428103 C164.856454,17.6025132 164.320797,17.4996406 163.821892,17.2341925 C163.32115,16.9687445 162.888398,16.5563355 162.520881,15.9988028 L160.028194,12.2026199 L161.262134,11.3915796 L163.755739,15.1877625 C164.091099,15.697533 164.497206,16.0024768 164.975897,16.1007569" id="Fill-28"></path>
                    <path d="M171.079534,10.4067581 L172.668128,9.69307942 C173.17714,9.46345307 173.517093,9.17779789 173.685232,8.83703238 C173.853372,8.49442986 173.83959,8.10682058 173.643887,7.67053051 C173.45094,7.24250699 173.172546,6.98073295 172.807785,6.8870454 C172.443024,6.79152084 172.005678,6.86040874 171.496666,7.0900351 L169.908072,7.8037138 L171.079534,10.4067581 Z M175.601836,12.2887757 L173.448184,10.7567087 C173.39765,10.7870194 173.315877,10.8283521 173.201947,10.8788699 L171.613353,11.5925486 L172.54501,13.6646968 L171.19714,14.2709104 L168.031896,7.23332194 L170.967441,5.91251116 C171.878884,5.50377626 172.677316,5.39814813 173.363655,5.59746381 C174.049994,5.79586098 174.566355,6.28083183 174.912741,7.05237637 C175.160815,7.6007241 175.252694,8.12335368 175.189297,8.62026511 C175.126819,9.11533952 174.910903,9.56173315 174.542467,9.96220151 L177.139896,11.5980596 L175.601836,12.2887757 Z" id="Fill-30"></path>
                    <polygon id="Fill-32" points="179.009549 2.97439606 184.192463 1.75094686 184.478208 3.00838076 180.744231 3.88922745 181.222923 5.91636889 184.624296 5.11451366 184.921066 6.37011056 181.518774 7.17196578 182.221651 10.1451678 180.78282 10.4840963"></polygon>
                    <polygon id="Fill-34" points="185.855571 1.55356005 187.319209 1.35057035 188.377659 8.99345385 186.914021 9.19552504"></polygon>
                    <polygon id="Fill-36" points="188.891449 1.09256218 195.18059 0.821603088 195.237555 2.1313918 192.836748 2.23518291 193.114224 8.63257308 191.627616 8.69686846 191.349221 2.29947829 188.948414 2.40418791"></polygon>
                    <polygon id="Fill-38" points="205.42523 1.8944174 206.842009 2.1148587 205.654928 9.73937209 204.272144 9.52444183 201.166622 3.66345882 200.349814 8.91455424 198.922928 8.69135742 200.10909 1.06776254 201.492794 1.2826928 204.606585 7.15653489"></polygon>
                    <polygon id="Fill-40" points="209.54951 2.80934064 214.939153 4.52419024 214.547747 5.75315047 210.565696 4.48469451 209.986856 6.30241671 213.559125 7.4395264 213.167719 8.66848664 209.59545 7.53137694 209.006503 9.37849132 213.11351 10.686443 212.723023 11.9154033 207.207505 10.1610579"></polygon>
                    <path d="M216.77922,9.83085523 L218.343007,10.5987258 C218.844668,10.8448852 219.280176,10.9229582 219.65045,10.8357002 C220.021643,10.7475236 220.3129,10.4894236 220.523304,10.0604816 C220.730032,9.6388876 220.753921,9.25678935 220.594051,8.91602385 C220.434181,8.57525834 220.102497,8.28225512 219.601754,8.03517716 L218.038886,7.26730664 L216.77922,9.83085523 Z M218.213457,14.5133958 L218.021429,11.8782038 C217.965383,11.8579967 217.880854,11.8203379 217.76968,11.7661461 L216.204974,10.9982756 L215.204408,13.0346021 L213.878589,12.3852188 L217.279963,5.45876949 L220.170487,6.87786035 C221.06723,7.31966145 221.658014,7.86617217 221.94284,8.52106652 C222.226747,9.17596088 222.182645,9.88504705 221.809615,10.6418955 C221.544084,11.1838137 221.200455,11.5870376 220.77781,11.8543226 C220.355165,12.1234447 219.872798,12.2419319 219.33071,12.2134583 L219.72671,15.2555482 L218.213457,14.5133958 Z" id="Fill-42"></path>
                    <path d="M225.355606,17.1502411 C225.789277,17.1934109 226.204572,17.1180934 226.602409,16.9261258 C226.999328,16.7341582 227.339282,16.4383994 227.624108,16.0360941 C227.908934,15.6347072 228.074316,15.2094392 228.122094,14.7602901 C228.168952,14.3120594 228.098205,13.8886284 227.908934,13.4890786 C227.718743,13.0886102 227.429323,12.7515187 227.039755,12.4750486 L225.645026,11.4867368 L222.688349,15.6613439 L224.128098,16.6799664 C224.512154,16.9527625 224.921017,17.1089084 225.355606,17.1502411 M229.218214,13.0243148 C229.526929,13.6433875 229.651885,14.2927708 229.594001,14.9724648 C229.536117,15.6521588 229.292637,16.2941941 228.86356,16.8994892 C228.434484,17.5057027 227.908934,17.9447483 227.285992,18.2212184 C226.66305,18.4958516 226.005194,18.5904576 225.309667,18.5031996 C224.615059,18.4168601 223.945258,18.145901 223.303941,17.6921593 L220.731319,15.8689261 L225.191142,9.57257151 L227.809704,11.4261154 C228.439077,11.8725091 228.9095,12.4052422 229.218214,13.0243148" id="Fill-44"></path>
                    <path d="M234.335894,18.7432969 C234.126409,18.3611987 233.908655,18.0617659 233.679876,17.8431616 C233.424451,17.5988392 233.177296,17.4537153 232.93749,17.4068715 C232.696767,17.3600278 232.495551,17.4215676 232.332924,17.5914911 C232.185917,17.7458 232.114252,17.9230716 232.118845,18.1260613 C232.122521,18.329051 232.172135,18.5384702 232.264934,18.754319 C232.357732,18.9710863 232.501982,19.2493934 232.696767,19.5864849 C232.966892,20.0604337 233.169945,20.4654945 233.305008,20.8080971 C233.440071,21.1525366 233.487848,21.5135092 233.450177,21.8937705 C233.411588,22.2740317 233.222316,22.6414339 232.881444,22.9968955 C232.556191,23.337661 232.182242,23.5461617 231.75776,23.6223976 C231.332358,23.6995521 230.895931,23.6517898 230.448479,23.4754368 C229.999189,23.3018392 229.568275,23.0161841 229.153899,22.6203082 C228.718391,22.2042253 228.371087,21.7155804 228.111987,21.1580476 C227.851968,20.5995963 227.697611,20.0383895 227.648915,19.4735087 L228.964627,18.9912934 C228.996785,19.5203525 229.116228,20.0273675 229.325713,20.5123383 C229.534279,20.9963907 229.788785,21.3821629 230.091987,21.6724107 C230.389676,21.9562288 230.678177,22.1215598 230.956572,22.1711591 C231.235885,22.2198399 231.469258,22.1445224 231.657611,21.9488808 C231.810131,21.7890608 231.884553,21.6081153 231.87904,21.4051256 C231.875365,21.2030544 231.823913,20.9945537 231.725602,20.7777864 C231.626372,20.5619376 231.477528,20.282712 231.277231,19.9382724 C231.007105,19.4661607 230.803133,19.0629368 230.666233,18.7286008 C230.528414,18.3933463 230.47788,18.0360477 230.513713,17.6594605 C230.549546,17.2810363 230.735142,16.9173082 231.069583,16.5673576 C231.380135,16.2422067 231.736627,16.0438095 232.140897,15.9666551 C232.545166,15.8895006 232.967811,15.9354259 233.411588,16.1062679 C233.854446,16.2743544 234.282604,16.5581725 234.697899,16.9549669 C235.058066,17.2994064 235.364943,17.6934452 235.616692,18.1389204 C235.867523,18.58164 236.04485,19.0271151 236.149593,19.4716717 L234.827449,19.9915458 C234.708006,19.5414781 234.54446,19.1253952 234.335894,18.7432969" id="Fill-46"></path>
                    <polygon id="Fill-48" points="334.448461 88.3218267 340.744953 88.3539744 340.737603 89.6656001 338.334039 89.6536596 338.300962 96.0574793 336.812517 96.0501312 336.845594 89.645393 334.442948 89.634371"></polygon>
                    <polygon id="Fill-50" points="342.646764 88.4833 344.107645 88.7055783 343.611497 91.963517 347.414383 92.5430939 347.911451 89.2851552 349.372332 89.5074335 348.210977 97.1337839 346.750096 96.9115056 347.221437 93.8170609 343.416713 93.239321 342.945372 96.3328472 341.48449 96.1114874"></polygon>
                    <polygon id="Fill-52" points="351.897452 90.2036606 353.321582 90.5958624 351.272673 98.0339192 349.848543 97.6435544"></polygon>
                    <path d="M358.590128,93.9261793 C358.250174,93.6524647 357.933191,93.4586601 357.639177,93.3447654 C357.308411,93.2180117 357.025423,93.1794344 356.784699,93.2281152 C356.543975,93.2777145 356.384105,93.4118163 356.298657,93.6322576 C356.221478,93.8306548 356.224235,94.0226224 356.306926,94.2081605 C356.388699,94.3927801 356.513655,94.5663776 356.683632,94.7317086 C356.851771,94.8952025 357.092495,95.0954367 357.401209,95.3333296 C357.833042,95.6658286 358.17759,95.9634243 358.433933,96.2279539 C358.689358,96.4924834 358.873116,96.8075308 358.985209,97.173096 C359.095465,97.5395796 359.062388,97.9519885 358.884142,98.4112412 C358.715084,98.8484498 358.449553,99.1864598 358.08571,99.4188417 C357.724625,99.6539791 357.302898,99.7770588 356.820532,99.7889994 C356.340003,99.8000214 355.832829,99.7026598 355.298091,99.4950776 C354.735789,99.2783103 354.227697,98.961426 353.772894,98.5462615 C353.319929,98.1310971 352.96068,97.6718444 352.698824,97.1675849 L353.726035,96.2187688 C353.961246,96.6954731 354.266286,97.1161486 354.644829,97.4835508 C355.023372,97.8491159 355.408346,98.109053 355.798833,98.2596878 C356.18197,98.4075672 356.512736,98.450737 356.789293,98.3873601 C357.06585,98.3249017 357.253284,98.1669188 357.350676,97.9134113 C357.430611,97.7076661 357.428773,97.5120244 357.346082,97.3264864 C357.264309,97.1418668 357.136597,96.9682692 356.962945,96.8066123 C356.789293,96.6440368 356.543975,96.4428842 356.226991,96.2031542 C355.795158,95.8706553 355.452448,95.5776521 355.197024,95.321389 C354.94068,95.065126 354.756922,94.7555897 354.644829,94.3927801 C354.532736,94.0299704 354.564894,93.6230725 354.738546,93.1711679 C354.900253,92.7532479 355.152003,92.431771 355.49655,92.2058187 C355.838342,91.9798664 356.249042,91.8595422 356.722221,91.8448461 C357.196318,91.831987 357.699817,91.9275116 358.234555,92.1350938 C358.702221,92.3151208 359.13681,92.5612803 359.539242,92.8735721 C359.943511,93.1867825 360.277952,93.529385 360.544402,93.9004612 L359.52546,94.888773 C359.241553,94.5195338 358.930082,94.1989754 358.590128,93.9261793" id="Fill-54"></path>
                    <polygon id="Fill-56" points="364.75073 95.1872873 370.119241 98.4773736 369.431983 99.5961132 367.383993 98.3395978 364.03499 103.799194 362.766136 103.02122 366.11422 97.5625422 364.06531 96.3060268"></polygon>
                    <polygon id="Fill-58" points="371.573507 99.5430236 375.96534 103.105906 375.152208 104.107077 371.907029 101.475559 370.706166 102.95619 373.616904 105.316749 372.803772 106.318838 369.893034 103.958279 368.67012 105.462791 372.018203 108.178811 371.205071 109.179982 366.710333 105.534434"></polygon>
                    <path d="M379.825559,109.223244 C379.70336,108.830124 379.513169,108.493032 379.25407,108.212888 C378.929735,107.862019 378.548436,107.618615 378.112928,107.481758 C377.675582,107.343982 377.232724,107.328367 376.783434,107.433077 C376.335063,107.536868 375.935387,107.749961 375.584408,108.075112 C375.233429,108.400263 374.987193,108.780524 374.848455,109.21957 C374.708798,109.658616 374.688585,110.102254 374.787814,110.550484 C374.887044,110.999633 375.097448,111.399183 375.421782,111.749134 C375.671694,112.020093 375.981327,112.23686 376.35252,112.398517 C376.721875,112.56293 377.111443,112.651106 377.515712,112.667639 L377.394432,113.966406 C376.817429,113.948954 376.258803,113.823119 375.719471,113.591656 C375.180139,113.358355 374.723499,113.040552 374.34955,112.635492 C373.846051,112.089899 373.515285,111.470827 373.355415,110.778274 C373.194626,110.085721 373.218515,109.40419 373.423406,108.733681 C373.630135,108.063172 374.003165,107.479921 374.543415,106.981172 C375.083666,106.482424 375.69742,106.160947 376.383759,106.016742 C377.071016,105.872536 377.751842,105.912032 378.428074,106.133392 C379.102469,106.354752 379.696009,106.744198 380.210534,107.298975 C380.585401,107.704955 380.870227,108.175229 381.067768,108.713473 C381.26439,109.251718 381.347081,109.791799 381.314923,110.330961 L379.937652,110.431997 C379.985429,110.017751 379.948677,109.615446 379.825559,109.223244" id="Fill-60"></path>
                    <polygon id="Fill-62" points="383.47565 111.246803 384.297052 112.474845 381.554453 114.303589 383.691567 117.503662 386.433246 115.673999 387.25281 116.90296 380.834119 121.185032 380.013636 119.95699 382.617497 118.220096 380.482221 115.019105 377.877441 116.757836 377.057877 115.528875"></polygon>
                    <polygon id="Fill-64" points="390.860085 124.374083 391.444438 125.682953 384.397292 128.827915 383.826721 127.548437 387.060874 121.760016 382.207807 123.92677 381.61886 122.607797 388.666925 119.462834 389.237496 120.740475 385.996911 126.543592"></polygon>
                    <path d="M391.435158,130.978504 C391.110824,130.643249 390.726768,130.411786 390.280235,130.281358 C389.83462,130.153686 389.377061,130.148175 388.90572,130.266662 C388.435297,130.386068 388.033785,130.611102 387.701181,130.941764 C387.367659,131.272426 387.135205,131.661872 387.008411,132.107347 C386.877942,132.553741 386.870592,133.003808 386.987279,133.459387 C387.101209,133.908536 387.319882,134.296145 387.646054,134.624052 C387.971307,134.950121 388.359038,135.176074 388.808328,135.30099 C389.256699,135.425907 389.716096,135.429581 390.187437,135.309257 C390.656021,135.189851 391.056615,134.96941 391.389219,134.646096 C391.720903,134.3237 391.948764,133.940684 392.075557,133.498883 C392.202351,133.058 392.208782,132.612525 392.094852,132.164294 C391.980003,131.707797 391.760411,131.31284 391.435158,130.978504 M393.383,133.969157 C393.203836,134.663547 392.864801,135.258739 392.369571,135.75565 C391.87526,136.252562 391.269775,136.59149 390.558629,136.773354 C389.845645,136.9543 389.151956,136.943278 388.474806,136.743962 C387.798574,136.544647 387.211465,136.183674 386.715316,135.661044 C386.218249,135.138415 385.876458,134.507402 385.688105,133.767086 C385.499752,133.025852 385.499752,132.307581 385.687186,131.612273 C385.87462,130.917882 386.21733,130.319935 386.717154,129.821187 C387.216058,129.323357 387.820625,128.98351 388.534527,128.803483 C389.246592,128.623456 389.939362,128.631722 390.611919,128.832875 C391.284476,129.034028 391.866991,129.395919 392.355789,129.920386 C392.844587,130.443934 393.183622,131.075865 393.371056,131.817099 C393.560328,132.557415 393.564003,133.274767 393.383,133.969157" id="Fill-66"></path>
                    <polygon id="Fill-68" points="394.51817 137.960615 394.674365 139.430223 388.32642 140.102569 388.6774 143.412863 387.349743 143.553394 386.842569 138.77441"></polygon>
                    <path d="M393.497115,146.880129 C393.282117,146.46772 392.977077,146.137976 392.584753,145.888143 C392.192428,145.638309 391.754163,145.506045 391.269959,145.488593 C390.784836,145.47206 390.335546,145.574932 389.923008,145.799048 C389.51047,146.024082 389.179704,146.331781 388.930711,146.723983 C388.681718,147.115266 388.547574,147.546964 388.531955,148.01632 C388.515416,148.479247 388.616484,148.912781 388.837913,149.317842 C389.059342,149.723821 389.368057,150.048054 389.764057,150.294213 C390.159138,150.539454 390.59924,150.6708 391.084363,150.688252 C391.568567,150.704785 392.016019,150.605587 392.423964,150.387901 C392.832827,150.172052 393.159917,149.868945 393.406154,149.480417 C393.650553,149.09189 393.781941,148.666622 393.79756,148.203695 C393.815017,147.734339 393.714869,147.292538 393.497115,146.880129 M394.52892,150.297887 C394.162321,150.913286 393.670767,151.38999 393.056094,151.728919 C392.440502,152.066929 391.765189,152.223075 391.031073,152.197356 C390.296957,152.171638 389.63175,151.96773 389.039129,151.585632 C388.445588,151.204452 387.984354,150.693763 387.653588,150.053565 C387.323741,149.413367 387.171221,148.709791 387.199704,147.947432 C387.227268,147.183235 387.428484,146.493438 387.803351,145.878039 C388.1773,145.263559 388.674368,144.786855 389.293634,144.448845 C389.911982,144.109916 390.589133,143.95377 391.324168,143.980407 C392.058284,144.006125 392.718897,144.210033 393.3106,144.591213 C393.898627,144.972393 394.355268,145.483082 394.677764,146.12328 C395.00118,146.763478 395.149105,147.465217 395.121542,148.228495 C395.093978,148.992691 394.896437,149.682489 394.52892,150.297887" id="Fill-70"></path>
                    <path d="M389.742924,158.705886 L389.491175,159.970668 L386.615351,159.398439 C386.397597,158.94286 386.25059,158.425742 386.17433,157.84892 C386.098989,157.272099 386.111852,156.72467 386.215676,156.204796 C386.363602,155.463562 386.670479,154.821526 387.138145,154.282364 C387.605811,153.742283 388.171787,153.354673 388.836994,153.119536 C389.501282,152.884399 390.194052,152.838473 390.914386,152.983597 C391.636558,153.125047 392.253987,153.435502 392.770349,153.914043 C393.284873,154.390747 393.65331,154.974917 393.871982,155.666551 C394.089736,156.357267 394.123732,157.081968 393.97305,157.839735 C393.865551,158.379816 393.662497,158.892342 393.362052,159.380069 C393.062525,159.867795 392.706033,160.268264 392.291658,160.583311 L391.38389,159.549074 C391.714655,159.314855 391.994887,159.023689 392.22091,158.675575 C392.447852,158.327462 392.599453,157.962815 392.674794,157.580717 C392.76943,157.104931 392.743704,156.64476 392.595778,156.199285 C392.448771,155.754728 392.199778,155.376304 391.849718,155.067686 C391.49782,154.757231 391.088957,154.556078 390.620372,154.463309 C390.144437,154.368703 389.68504,154.399014 389.242182,154.554241 C388.799323,154.70855 388.422618,154.962058 388.113903,155.313845 C387.803351,155.662877 387.601217,156.079879 387.504743,156.563013 C387.453291,156.822031 387.440428,157.102175 387.466154,157.403445 C387.492799,157.704715 387.555277,157.999555 387.656344,158.289803 L389.742924,158.705886 Z" id="Fill-72"></path>
                    <polygon id="Fill-74" points="390.44819 169.040909 386.514835 164.637594 384.139754 163.782465 384.640497 162.393685 386.963206 163.229525 392.87748 162.299079 392.368469 163.708985 388.242167 164.463078 390.952608 167.641106"></polygon>
                </g>
                <g id="Group-79" transform="translate(298.000000, 107.000000)">
                    <mask id="mask-8" fill="white">
                        <use xlink:href="#path-7"></use>
                    </mask>
                    <g id="Clip-78"></g>
                    <polygon id="Fill-77" fill="#D9D8D8" mask="url(#mask-8)" points="-4.2282877 83.3598768 83.3713225 83.3598768 83.3713225 -4.21410281 -4.2282877 -4.21410281"></polygon>
                </g>
                <g id="Group-82" transform="translate(155.000000, 19.000000)">
                    <mask id="mask-10" fill="white">
                        <use xlink:href="#path-9"></use>
                    </mask>
                    <g id="Clip-81"></g>
                    <polygon id="Fill-80" fill="#D9D8D8" mask="url(#mask-10)" points="-4.53332715 83.1816868 83.0662831 83.1816868 83.0662831 -4.39229286 -4.53332715 -4.39229286"></polygon>
                </g>
                <g id="Group-85" transform="translate(39.000000, 117.000000)">
                    <mask id="mask-12" fill="white">
                        <use xlink:href="#path-11"></use>
                    </mask>
                    <g id="Clip-84"></g>
                    <polygon id="Fill-83" fill="#ECECEC" mask="url(#mask-12)" points="-7.18037123 64.3155857 43.9265986 64.3155857 43.9265986 -8.04243335 -7.18037123 -8.04243335"></polygon>
                </g>
                <g id="Group-88" transform="translate(37.000000, 117.000000)">
                    <mask id="mask-14" fill="white">
                        <use xlink:href="#path-13"></use>
                    </mask>
                    <g id="Clip-87"></g>
                    <polygon id="Fill-86" fill="#567BA7" mask="url(#mask-14)" points="-7.61679814 66.4327407 47.916 66.4327407 47.916 -7.17536425 -7.61679814 -7.17536425"></polygon>
                </g>
                <g id="Group-91" transform="translate(74.000000, 117.000000)">
                    <mask id="mask-16" fill="white">
                        <use xlink:href="#path-15"></use>
                    </mask>
                    <g id="Clip-90"></g>
                    <polygon id="Fill-89" fill="#567BA7" mask="url(#mask-16)" points="-7.19690951 37.9131477 11.0071462 37.9131477 11.0071462 -7.23139308 -7.19690951 -7.23139308"></polygon>
                </g>
                <g id="Group-94" transform="translate(39.000000, 117.000000)">
                    <mask id="mask-18" fill="white">
                        <use xlink:href="#path-17"></use>
                    </mask>
                    <g id="Clip-93"></g>
                    <polygon id="Fill-92" fill="#518E73" mask="url(#mask-18)" points="-7.33013457 64.4799982 43.8595267 64.4799982 43.8595267 -7.23139308 -7.33013457 -7.23139308"></polygon>
                </g>
                <g id="Group-97" transform="translate(74.000000, 119.000000)">
                    <mask id="mask-20" fill="white">
                        <use xlink:href="#path-19"></use>
                    </mask>
                    <g id="Clip-96"></g>
                    <polygon id="Fill-95" fill="#406085" mask="url(#mask-20)" points="-8.08446404 36.3333184 10.3887981 36.3333184 10.3887981 -7.96252338 -8.08446404 -7.96252338"></polygon>
                </g>
                <g id="Group-100" transform="translate(39.000000, 117.000000)">
                    <mask id="mask-22" fill="white">
                        <use xlink:href="#path-21"></use>
                    </mask>
                    <g id="Clip-99"></g>
                    <polygon id="Fill-98" fill="#518E73" mask="url(#mask-22)" points="-7.72980974 64.290786 8.85992575 64.290786 8.85992575 -7.23874112 -7.72980974 -7.23874112"></polygon>
                </g>
                <g id="Group-103" transform="translate(76.000000, 119.000000)">
                    <mask id="mask-24" fill="white">
                        <use xlink:href="#path-23"></use>
                    </mask>
                    <g id="Clip-102"></g>
                    <polygon id="Fill-101" fill="#B5DDD6" mask="url(#mask-24)" points="-7.63058005 14.1651904 8.68535499 14.1651904 8.68535499 -7.69799383 -7.63058005 -7.69799383"></polygon>
                </g>
                <g id="Group-106" transform="translate(39.000000, 162.000000)">
                    <mask id="mask-26" fill="white">
                        <use xlink:href="#path-25"></use>
                    </mask>
                    <g id="Clip-105"></g>
                    <polygon id="Fill-104" fill="#406085" mask="url(#mask-26)" points="-7.96318329 21.7226529 46.2290951 21.7226529 46.2290951 -7.6934013 -7.96318329 -7.6934013"></polygon>
                </g>
                <g id="Group-109" transform="translate(76.000000, 156.000000)">
                    <mask id="mask-28" fill="white">
                        <use xlink:href="#path-27"></use>
                    </mask>
                    <g id="Clip-108"></g>
                    <polygon id="Fill-107" fill="#406085" mask="url(#mask-28)" points="-7.93929466 9.61399611 8.53559165 9.61399611 8.53559165 -7.83117711 -7.93929466 -7.83117711"></polygon>
                </g>
                <g id="Group-112" transform="translate(40.000000, 150.000000)">
                    <mask id="mask-30" fill="white">
                        <use xlink:href="#path-29"></use>
                    </mask>
                    <g id="Clip-111"></g>
                    <polygon id="Fill-110" fill="#B5B0A2" mask="url(#mask-30)" points="-7.18037123 9.0178861 39.4015406 9.0178861 39.4015406 -7.29385145 -7.18037123 -7.29385145"></polygon>
                </g>
                <g id="Group-115" transform="translate(40.000000, 165.000000)">
                    <mask id="mask-32" fill="white">
                        <use xlink:href="#path-31"></use>
                    </mask>
                    <g id="Clip-114"></g>
                    <polygon id="Fill-113" fill="#B5B0A2" mask="url(#mask-32)" points="-7.18220882 8.57516649 39.4070534 8.57516649 39.4070534 -7.73289703 -7.18220882 -7.73289703"></polygon>
                </g>
                <g id="Group-118" transform="translate(41.000000, 139.000000)">
                    <mask id="mask-34" fill="white">
                        <use xlink:href="#path-33"></use>
                    </mask>
                    <g id="Clip-117"></g>
                    <polygon id="Fill-116" fill="#B5B0A2" mask="url(#mask-34)" points="-7.98982831 8.68079461 38.4827471 8.68079461 38.4827471 -7.60063225 -7.98982831 -7.60063225"></polygon>
                </g>
                <g id="Group-121" transform="translate(41.000000, 154.000000)">
                    <mask id="mask-36" fill="white">
                        <use xlink:href="#path-35"></use>
                    </mask>
                    <g id="Clip-120"></g>
                    <polygon id="Fill-119" fill="#B5B0A2" mask="url(#mask-36)" points="-7.9907471 8.25552661 38.4827471 8.25552661 38.4827471 -8.02590026 -7.9907471 -8.02590026"></polygon>
                </g>
                <g id="Group-124" transform="translate(41.000000, 128.000000)">
                    <mask id="mask-38" fill="white">
                        <use xlink:href="#path-37"></use>
                    </mask>
                    <g id="Clip-123"></g>
                    <polygon id="Fill-122" fill="#B5B0A2" mask="url(#mask-38)" points="-7.9907471 8.33268106 38.4790719 8.33268106 38.4790719 -7.96987143 -7.9907471 -7.96987143"></polygon>
                </g>
                <g id="Group-127" transform="translate(41.000000, 169.000000)">
                    <mask id="mask-40" fill="white">
                        <use xlink:href="#path-39"></use>
                    </mask>
                    <g id="Clip-126"></g>
                    <polygon id="Fill-125" fill="#888375" mask="url(#mask-40)" points="-7.9769652 8.64956543 38.4606961 8.64956543 38.4606961 -7.58777318 -7.9769652 -7.58777318"></polygon>
                </g>
                <g id="Group-130" transform="translate(41.000000, 162.000000)">
                    <mask id="mask-42" fill="white">
                        <use xlink:href="#path-41"></use>
                    </mask>
                    <g id="Clip-129"></g>
                    <polygon id="Fill-128" fill="#888375" mask="url(#mask-42)" points="-7.9769652 8.46770136 38.4772343 8.46770136 38.4772343 -7.7779038 -7.9769652 -7.7779038"></polygon>
                </g>
                <g id="Group-133" transform="translate(41.000000, 158.000000)">
                    <mask id="mask-44" fill="white">
                        <use xlink:href="#path-43"></use>
                    </mask>
                    <g id="Clip-132"></g>
                    <polygon id="Fill-131" fill="#888375" mask="url(#mask-44)" points="-7.97145244 8.30237038 38.4606961 8.30237038 38.4606961 -7.9322127 -7.97145244 -7.9322127"></polygon>
                </g>
                <g id="Group-136" transform="translate(41.000000, 146.000000)">
                    <mask id="mask-46" fill="white">
                        <use xlink:href="#path-45"></use>
                    </mask>
                    <g id="Clip-135"></g>
                    <polygon id="Fill-134" fill="#B5B0A2" mask="url(#mask-46)" points="-7.93102552 8.9168505 38.4533457 8.9168505 38.4533457 -7.34345074 -7.93102552 -7.34345074"></polygon>
                </g>
                <g id="Group-139" transform="translate(41.000000, 142.000000)">
                    <mask id="mask-48" fill="white">
                        <use xlink:href="#path-47"></use>
                    </mask>
                    <g id="Clip-138"></g>
                    <polygon id="Fill-137" fill="#888375" mask="url(#mask-48)" points="-7.9769652 8.73774195 38.4680464 8.73774195 38.4680464 -7.50235217 -7.9769652 -7.50235217"></polygon>
                </g>
                <g id="Group-142" transform="translate(41.000000, 135.000000)">
                    <mask id="mask-50" fill="white">
                        <use xlink:href="#path-49"></use>
                    </mask>
                    <g id="Clip-141"></g>
                    <polygon id="Fill-140" fill="#888375" mask="url(#mask-50)" points="-7.96042691 8.54944834 38.4763155 8.54944834 38.4763155 -7.67962372 -7.96042691 -7.67962372"></polygon>
                </g>
                <g id="Group-145" transform="translate(41.000000, 131.000000)">
                    <mask id="mask-52" fill="white">
                        <use xlink:href="#path-51"></use>
                    </mask>
                    <g id="Clip-144"></g>
                    <polygon id="Fill-143" fill="#888375" mask="url(#mask-52)" points="-7.98523434 8.40983552 38.4662088 8.40983552 38.4662088 -7.83852515 -7.98523434 -7.83852515"></polygon>
                </g>
                <g id="Group-148" transform="translate(74.000000, 151.000000)">
                    <mask id="mask-54" fill="white">
                        <use xlink:href="#path-53"></use>
                    </mask>
                    <g id="Clip-147"></g>
                    <polygon id="Fill-146" fill="#567BA7" mask="url(#mask-54)" points="-7.18129002 9.57082635 11.2699211 9.57082635 11.2699211 -7.74667461 -7.18129002 -7.74667461"></polygon>
                </g>
                <g id="Group-151" transform="translate(74.000000, 156.000000)">
                    <mask id="mask-56" fill="white">
                        <use xlink:href="#path-55"></use>
                    </mask>
                    <g id="Clip-150"></g>
                    <polygon id="Fill-149" fill="#567BA7" mask="url(#mask-56)" points="-7.17210209 9.61032209 10.9933643 9.61032209 10.9933643 -7.84219917 -7.17210209 -7.84219917"></polygon>
                </g>
                <g id="Group-157" transform="translate(41.000000, 116.000000)">
                    <mask id="mask-58" fill="white">
                        <use xlink:href="#path-57"></use>
                    </mask>
                    <g id="Clip-156"></g>
                    <polygon id="Fill-155" fill="#606060" mask="url(#mask-58)" points="-7.93102552 12.2280625 9.07308585 12.2280625 9.07308585 -7.64839453 -7.93102552 -7.64839453"></polygon>
                </g>
                <g id="Group-160" transform="translate(42.000000, 116.000000)">
                    <mask id="mask-60" fill="white">
                        <use xlink:href="#path-59"></use>
                    </mask>
                    <g id="Clip-159"></g>
                    <polygon id="Fill-158" fill="#606060" mask="url(#mask-60)" points="-7.56167053 12.2280625 9.44152204 12.2280625 9.44152204 -7.64839453 -7.56167053 -7.64839453"></polygon>
                </g>
                <g id="Group-163" transform="translate(44.000000, 116.000000)">
                    <mask id="mask-62" fill="white">
                        <use xlink:href="#path-61"></use>
                    </mask>
                    <g id="Clip-162"></g>
                    <polygon id="Fill-161" fill="#606060" mask="url(#mask-62)" points="-7.18312761 12.2280625 9.82098376 12.2280625 9.82098376 -7.64839453 -7.18312761 -7.64839453"></polygon>
                </g>
                <g id="Group-166" transform="translate(46.000000, 116.000000)">
                    <mask id="mask-64" fill="white">
                        <use xlink:href="#path-63"></use>
                    </mask>
                    <g id="Clip-165"></g>
                    <polygon id="Fill-164" fill="#606060" mask="url(#mask-64)" points="-7.73348492 12.2280625 9.27062645 12.2280625 9.27062645 -7.64839453 -7.73348492 -7.64839453"></polygon>
                </g>
                <g id="Group-169" transform="translate(48.000000, 116.000000)">
                    <mask id="mask-66" fill="white">
                        <use xlink:href="#path-65"></use>
                    </mask>
                    <g id="Clip-168"></g>
                    <polygon id="Fill-167" fill="#606060" mask="url(#mask-66)" points="-7.354942 12.2280625 9.64825058 12.2280625 9.64825058 -7.64839453 -7.354942 -7.64839453"></polygon>
                </g>
                <g id="Group-172" transform="translate(50.000000, 116.000000)">
                    <mask id="mask-68" fill="white">
                        <use xlink:href="#path-67"></use>
                    </mask>
                    <g id="Clip-171"></g>
                    <polygon id="Fill-170" fill="#606060" mask="url(#mask-68)" points="-7.9052993 12.2280625 9.09789327 12.2280625 9.09789327 -7.64839453 -7.9052993 -7.64839453"></polygon>
                </g>
                <g id="Group-175" transform="translate(51.000000, 116.000000)">
                    <mask id="mask-70" fill="white">
                        <use xlink:href="#path-69"></use>
                    </mask>
                    <g id="Clip-174"></g>
                    <polygon id="Fill-173" fill="#606060" mask="url(#mask-70)" points="-7.52583759 12.2280625 9.47735499 12.2280625 9.47735499 -7.64839453 -7.52583759 -7.64839453"></polygon>
                </g>
                <g id="Group-178" transform="translate(53.000000, 116.000000)">
                    <mask id="mask-72" fill="white">
                        <use xlink:href="#path-71"></use>
                    </mask>
                    <g id="Clip-177"></g>
                    <polygon id="Fill-176" fill="#606060" mask="url(#mask-72)" points="-8.0761949 12.2280625 8.92699768 12.2280625 8.92699768 -7.64839453 -8.0761949 -7.64839453"></polygon>
                </g>
                <g id="Group-181" transform="translate(55.000000, 116.000000)">
                    <mask id="mask-74" fill="white">
                        <use xlink:href="#path-73"></use>
                    </mask>
                    <g id="Clip-180"></g>
                    <polygon id="Fill-179" fill="#606060" mask="url(#mask-74)" points="-7.69673318 12.2280625 9.3064594 12.2280625 9.3064594 -7.64839453 -7.69673318 -7.64839453"></polygon>
                </g>
                <g id="Group-184" transform="translate(56.000000, 116.000000)">
                    <mask id="mask-76" fill="white">
                        <use xlink:href="#path-75"></use>
                    </mask>
                    <g id="Clip-183"></g>
                    <polygon id="Fill-182" fill="#606060" mask="url(#mask-76)" points="-7.32829698 12.2280625 9.67489559 12.2280625 9.67489559 -7.64839453 -7.32829698 -7.64839453"></polygon>
                </g>
                <g id="Group-187" transform="translate(59.000000, 116.000000)">
                    <mask id="mask-78" fill="white">
                        <use xlink:href="#path-77"></use>
                    </mask>
                    <g id="Clip-186"></g>
                    <polygon id="Fill-185" fill="#606060" mask="url(#mask-78)" points="-7.72613457 12.2280625 9.27889559 12.2280625 9.27889559 -7.64839453 -7.72613457 -7.64839453"></polygon>
                </g>
                <g id="Group-190" transform="translate(60.000000, 116.000000)">
                    <mask id="mask-80" fill="white">
                        <use xlink:href="#path-79"></use>
                    </mask>
                    <g id="Clip-189"></g>
                    <polygon id="Fill-188" fill="#606060" mask="url(#mask-80)" points="-7.35677958 12.2280625 9.64641299 12.2280625 9.64641299 -7.64839453 -7.35677958 -7.64839453"></polygon>
                </g>
                <g id="Group-193" transform="translate(62.000000, 116.000000)">
                    <mask id="mask-82" fill="white">
                        <use xlink:href="#path-81"></use>
                    </mask>
                    <g id="Clip-192"></g>
                    <polygon id="Fill-191" fill="#606060" mask="url(#mask-82)" points="-7.19231555 12.2280625 9.81179582 12.2280625 9.81179582 -7.64839453 -7.19231555 -7.64839453"></polygon>
                </g>
                <g id="Group-196" transform="translate(63.000000, 116.000000)">
                    <mask id="mask-84" fill="white">
                        <use xlink:href="#path-83"></use>
                    </mask>
                    <g id="Clip-195"></g>
                    <polygon id="Fill-194" fill="#606060" mask="url(#mask-84)" points="-7.74267285 12.2280625 9.26051972 12.2280625 9.26051972 -7.64839453 -7.74267285 -7.64839453"></polygon>
                </g>
                <g id="Group-199" transform="translate(65.000000, 116.000000)">
                    <mask id="mask-86" fill="white">
                        <use xlink:href="#path-85"></use>
                    </mask>
                    <g id="Clip-198"></g>
                    <polygon id="Fill-197" fill="#606060" mask="url(#mask-86)" points="-7.57820882 12.2280625 9.42498376 12.2280625 9.42498376 -7.64839453 -7.57820882 -7.64839453"></polygon>
                </g>
                <g id="Group-202" transform="translate(66.000000, 116.000000)">
                    <mask id="mask-88" fill="white">
                        <use xlink:href="#path-87"></use>
                    </mask>
                    <g id="Clip-201"></g>
                    <polygon id="Fill-200" fill="#606060" mask="url(#mask-88)" points="-7.20977262 12.2280625 9.79433875 12.2280625 9.79433875 -7.64839453 -7.20977262 -7.64839453"></polygon>
                </g>
                <g id="Group-205" transform="translate(69.000000, 116.000000)">
                    <mask id="mask-90" fill="white">
                        <use xlink:href="#path-89"></use>
                    </mask>
                    <g id="Clip-204"></g>
                    <polygon id="Fill-203" fill="#606060" mask="url(#mask-90)" points="-7.96318329 12.2280625 9.04000928 12.2280625 9.04000928 -7.64839453 -7.96318329 -7.64839453"></polygon>
                </g>
                <g id="Group-208" transform="translate(70.000000, 116.000000)">
                    <mask id="mask-92" fill="white">
                        <use xlink:href="#path-91"></use>
                    </mask>
                    <g id="Clip-207"></g>
                    <polygon id="Fill-206" fill="#606060" mask="url(#mask-92)" points="-7.5947471 12.2280625 9.40844548 12.2280625 9.40844548 -7.64839453 -7.5947471 -7.64839453"></polygon>
                </g>
                <g id="Group-211" transform="translate(74.000000, 146.000000)">
                    <mask id="mask-94" fill="white">
                        <use xlink:href="#path-93"></use>
                    </mask>
                    <g id="Clip-210"></g>
                    <polygon id="Fill-209" fill="#49A0D8" mask="url(#mask-94)" points="-8.07803248 13.0317547 12.7161021 13.0317547 12.7161021 -7.40958313 -8.07803248 -7.40958313"></polygon>
                </g>
                <g id="Group-214" transform="translate(74.000000, 152.000000)">
                    <mask id="mask-96" fill="white">
                        <use xlink:href="#path-95"></use>
                    </mask>
                    <g id="Clip-213"></g>
                    <polygon id="Fill-212" fill="#49A0D8" mask="url(#mask-96)" points="-8.07803248 12.9252081 12.7161021 12.9252081 12.7161021 -7.51429274 -8.07803248 -7.51429274"></polygon>
                </g>
                <g id="Group-217" transform="translate(74.000000, 157.000000)">
                    <mask id="mask-98" fill="white">
                        <use xlink:href="#path-97"></use>
                    </mask>
                    <g id="Clip-216"></g>
                    <polygon id="Fill-215" fill="#49A0D8" mask="url(#mask-98)" points="-8.07803248 12.9656223 12.7161021 12.9656223 12.7161021 -7.47387851 -8.07803248 -7.47387851"></polygon>
                </g>
                <g id="Group-226" transform="translate(198.000000, 128.000000)">
                    <mask id="mask-100" fill="white">
                        <use xlink:href="#path-99"></use>
                    </mask>
                    <g id="Clip-225"></g>
                </g>
                <g id="Group-280" transform="translate(169.000000, 27.000000)">
                    <mask id="mask-102" fill="white">
                        <use xlink:href="#path-101"></use>
                    </mask>
                    <g id="Clip-279"></g>
                    <polygon id="Fill-278" fill="#363636" mask="url(#mask-102)" points="-7.33472854 49.5662258 55.8690766 49.5662258 55.8690766 -6.89338309 -7.33472854 -6.89338309"></polygon>
                </g>
                <g id="Group-283" transform="translate(194.000000, 85.000000)">
                    <mask id="mask-104" fill="white">
                        <use xlink:href="#path-103"></use>
                    </mask>
                    <g id="Clip-282"></g>
                    <polygon id="Fill-281" fill="#474645" mask="url(#mask-104)" points="-7.18312761 12.2032629 14.736529 12.2032629 14.736529 -7.53174435 -7.18312761 -7.53174435"></polygon>
                </g>
                <g id="Group-286" transform="translate(175.000000, 72.000000)">
                    <mask id="mask-106" fill="white">
                        <use xlink:href="#path-105"></use>
                    </mask>
                    <g id="Clip-285"></g>
                    <polygon id="Fill-284" fill="#EDEFF1" mask="url(#mask-106)" points="-7.23917401 18.249784 21.6541253 18.249784 21.6541253 -7.4389753 -7.23917401 -7.4389753"></polygon>
                </g>
                <g id="Group-289" transform="translate(196.000000, 72.000000)">
                    <mask id="mask-108" fill="white">
                        <use xlink:href="#path-107"></use>
                    </mask>
                    <g id="Clip-288"></g>
                    <polygon id="Fill-287" fill="#EDEFF1" mask="url(#mask-108)" points="-6.91851508 18.2479469 21.9545708 18.2479469 21.9545708 -7.44632334 -6.91851508 -7.44632334"></polygon>
                </g>
                <g id="Group-292" transform="translate(182.000000, 74.000000)">
                    <mask id="mask-110" fill="white">
                        <use xlink:href="#path-109"></use>
                    </mask>
                    <g id="Clip-291"></g>
                    <polygon id="Fill-290" fill="#3D3F3D" mask="url(#mask-110)" points="-7.50470534 12.5127992 12.4055499 12.5127992 12.4055499 -7.37008739 -7.50470534 -7.37008739"></polygon>
                </g>
                <g id="Group-295" transform="translate(199.000000, 74.000000)">
                    <mask id="mask-112" fill="white">
                        <use xlink:href="#path-111"></use>
                    </mask>
                    <g id="Clip-294"></g>
                    <polygon id="Fill-293" fill="#474645" mask="url(#mask-112)" points="-7.61679814 12.5118807 12.3890116 12.5118807 12.3890116 -7.32232511 -7.61679814 -7.32232511"></polygon>
                </g>
                <g id="Group-298" transform="translate(173.000000, 69.000000)">
                    <mask id="mask-114" fill="white">
                        <use xlink:href="#path-113"></use>
                    </mask>
                    <g id="Clip-297"></g>
                    <polygon id="Fill-296" fill="#5BA2D7" mask="url(#mask-114)" points="-7.26306265 22.8882363 48.9294292 22.8882363 48.9294292 -7.41142014 -7.26306265 -7.41142014"></polygon>
                </g>
                <g id="Group-301" transform="translate(347.000000, 124.000000)">
                    <mask id="mask-116" fill="white">
                        <use xlink:href="#path-115"></use>
                    </mask>
                    <g id="Clip-300"></g>
                    <polygon id="Fill-299" fill="#49A0D8" mask="url(#mask-116)" points="-7.25938747 52.7681357 26.0138005 52.7681357 26.0138005 -6.57466171 -7.25938747 -6.57466171"></polygon>
                </g>
                <g id="Group-304" transform="translate(309.000000, 124.000000)">
                    <mask id="mask-118" fill="white">
                        <use xlink:href="#path-117"></use>
                    </mask>
                    <g id="Clip-303"></g>
                    <polygon id="Fill-302" fill="#49A0D8" mask="url(#mask-118)" points="-6.61990719 52.8351866 26.6946265 52.8351866 26.6946265 -6.60037986 -6.61990719 -6.60037986"></polygon>
                </g>
                <g id="Group-307" transform="translate(325.000000, 128.000000)">
                    <mask id="mask-120" fill="white">
                        <use xlink:href="#path-119"></use>
                    </mask>
                    <g id="Clip-306"></g>
                    <polygon id="Fill-305" fill="#6BC29F" mask="url(#mask-120)" points="-6.80642227 46.0060989 31.7654478 46.0060989 31.7654478 -7.15240161 -6.80642227 -7.15240161"></polygon>
                </g>
                <g id="Group-316" transform="translate(102.000000, 71.000000)" fill="#4A4A4A">
                    <path d="M13.7832807,21.1659468 C13.7832807,22.0366899 13.0767285,22.7430206 12.2066311,22.7430206 C11.3356148,22.7430206 10.6290626,22.0366899 10.6290626,21.1659468 L10.6290626,1.74598693 C10.6290626,0.875243803 11.3356148,0.16983165 12.2066311,0.16983165 C13.0767285,0.16983165 13.7832807,0.875243803 13.7832807,1.74598693 L13.7832807,21.1659468 Z" id="Fill-308"></path>
                    <path d="M21.9195647,9.88017897 C22.790581,9.88017897 23.4962144,10.5855911 23.4962144,11.4563343 C23.4962144,12.3270774 22.790581,13.033408 21.9195647,13.033408 L2.4925949,13.033408 C1.62249745,13.033408 0.915945244,12.3270774 0.915945244,11.4563343 C0.915945244,10.5855911 1.62249745,9.88017897 2.4925949,9.88017897 L21.9195647,9.88017897 Z" id="Fill-310"></path>
                    <path d="M179.166111,21.1659468 C179.166111,22.0366899 178.459559,22.7430206 177.589462,22.7430206 C176.718445,22.7430206 176.011893,22.0366899 176.011893,21.1659468 L176.011893,1.74598693 C176.011893,0.875243803 176.718445,0.16983165 177.589462,0.16983165 C178.459559,0.16983165 179.166111,0.875243803 179.166111,1.74598693 L179.166111,21.1659468 Z" id="Fill-312"></path>
                    <path d="M187.302395,9.88017897 C188.173412,9.88017897 188.879045,10.5855911 188.879045,11.4563343 C188.879045,12.3270774 188.173412,13.033408 187.302395,13.033408 L167.875426,13.033408 C167.005328,13.033408 166.298776,12.3270774 166.298776,11.4563343 C166.298776,10.5855911 167.005328,9.88017897 167.875426,9.88017897 L187.302395,9.88017897 Z" id="Fill-314"></path>
                </g>
            </g>
            <g id="Group" transform="translate(429.000000, 524.000000)" fill="#4A4A4A">
                <rect id="Rectangle-11" x="0" y="0" width="27" height="4" rx="2"></rect>
                <rect id="Rectangle-11-Copy" x="0" y="10" width="27" height="4" rx="2"></rect>
            </g>
        </g>
    </g>
</svg>