<?xml version="1.0" encoding="UTF-8"?>
<svg width="30px" height="14px" viewBox="0 0 30 14" version="1.1" xmlns="http://www.w3.org/2000/svg" xmlns:xlink="http://www.w3.org/1999/xlink">
    <!-- Generator: sketchtool 45.2 (43514) - http://www.bohemiancoding.com/sketch -->
    <title>1A4F3D9E-DDBB-4735-8A17-A1DEDC567F40</title>
    <desc>Created with sketchtool.</desc>
    <defs>
        <rect id="path-1" x="1" y="211" width="339" height="54.3063815" rx="4"></rect>
        <polygon id="path-2" points="0.009 13.8496129 29.8653 13.8496129 29.8653 0.114860215 0.009 0.114860215"></polygon>
    </defs>
    <g id="survey" stroke="none" stroke-width="1" fill="none" fill-rule="evenodd">
        <g id="login" transform="translate(-568.000000, -530.000000)">
            <polygon id="Rectangle-4" fill="#D9D9D9" points="0 0 387.532414 0 1440 0 1440 1024 0 1024"></polygon>
            <rect id="Rectangle-3" fill="#FFFFFF" x="462" y="193" width="516" height="644" rx="8"></rect>
            <g id="Group-4" transform="translate(549.000000, 296.000000)">
                <g id="Rectangle-2">
                    <use fill="#FFFFFF" fill-rule="evenodd" xlink:href="#path-1"></use>
                    <rect stroke="#979797" stroke-width="2" x="2" y="212" width="337" height="52.3063815" rx="4"></rect>
                </g>
                <g id="keyIcon" transform="translate(19.000000, 234.000000)">
                    <g id="Group-3">
                        <mask id="mask-3" fill="white">
                            <use xlink:href="#path-2"></use>
                        </mask>
                        <g id="Clip-2"></g>
                        <path d="M28.56615,5.04737634 C28.5492,5.03849462 28.53225,5.03036559 28.5153,5.02329032 L24.972,3.49021505 C24.76875,3.402 24.5385,3.39853763 24.33165,3.47967742 L22.20585,4.32058065 L20.08005,3.47967742 C19.88205,3.40139785 19.6623,3.40139785 19.4643,3.47967742 L17.3379,4.32058065 L15.2121,3.47967742 C15.0141,3.40139785 14.79435,3.40139785 14.59635,3.47967742 L13.0524,4.08995699 C11.94495,1.67969892 9.5496,0.114860215 6.84255,0.114860215 C3.06975,0.114860215 0,3.1956129 0,6.98193548 C0,10.7690108 3.06975,13.8496129 6.84255,13.8496129 C9.6633,13.8496129 12.1359,12.1584731 13.17825,9.58111828 L27.4746,9.58111828 C28.79295,9.58111828 29.8653,8.50507527 29.8653,7.182 C29.8653,6.27817204 29.36775,5.45954839 28.56615,5.04737634 L28.56615,5.04737634 Z M27.4746,7.89524731 L12.5859,7.89524731 C12.21615,7.89524731 11.8899,8.13806452 11.78205,8.49273118 C11.11635,10.6883226 9.13125,12.1637419 6.84255,12.1637419 C3.99615,12.1637419 1.67985,9.83929032 1.67985,6.98193548 C1.67985,4.12533333 3.99615,1.80073118 6.84255,1.80073118 C9.1149,1.80073118 11.09595,3.262 11.772,5.43606452 C11.84175,5.66006452 12.0006,5.84417204 12.2109,5.94533333 C12.4218,6.04694624 12.6645,6.05522581 12.88185,5.96941935 L14.90385,5.17021505 L17.03025,6.01051613 C17.2278,6.0887957 17.448,6.0887957 17.64555,6.01051613 L19.7718,5.17021505 L21.8982,6.01051613 C22.09575,6.0887957 22.31595,6.0887957 22.5141,6.01051613 L24.6252,5.17608602 L27.81915,6.55802151 C28.04595,6.68387097 28.1853,6.9208172 28.1853,7.182 C28.1853,7.57535484 27.86655,7.89524731 27.4746,7.89524731 L27.4746,7.89524731 Z" id="Fill-1" fill="#9B9B9B" mask="url(#mask-3)"></path>
                    </g>
                </g>
            </g>
        </g>
    </g>
</svg>