<?xml version="1.0" encoding="UTF-8"?>
<svg width="340px" height="69px" viewBox="0 0 340 69" version="1.1" xmlns="http://www.w3.org/2000/svg" xmlns:xlink="http://www.w3.org/1999/xlink">
    <!-- Generator: sketchtool 45.2 (43514) - http://www.bohemiancoding.com/sketch -->
    <title>9CDF3B41-7FAE-41B3-9978-81248921D704</title>
    <desc>Created with sketchtool.</desc>
    <defs>
        <polygon id="path-1" points="107.779727 69 0 69 0 0.199 107.779727 0.199 107.779727 69"></polygon>
        <polygon id="path-3" points="0 69.8013 339.38 69.8013 339.38 1.0003 0 1.0003"></polygon>
    </defs>
    <g id="survey" stroke="none" stroke-width="1" fill="none" fill-rule="evenodd">
        <g id="Introduction" transform="translate(-263.000000, -309.000000)">
            <g id="textlogo" transform="translate(263.000000, 308.000000)">
                <g id="Group-3" transform="translate(0.000000, 0.801300)">
                    <mask id="mask-2" fill="white">
                        <use xlink:href="#path-1"></use>
                    </mask>
                    <g id="Clip-2"></g>
                    <path d="M106.7217,43.0374 C102.1337,61.1874 83.6497,72.3964 65.4357,68.0734 C59.1137,66.5724 53.6207,63.4204 49.3037,59.1864 C47.6917,57.6054 47.7287,54.9994 49.4027,53.4854 L49.5317,53.3694 C51.0737,51.9754 53.4207,52.0514 54.9087,53.5024 C58.1617,56.6764 62.2777,59.0484 67.0107,60.2124 C81.1457,63.6874 95.4207,55.0604 98.8917,40.9424 C102.3627,26.8244 93.7157,12.5624 79.5807,9.0864 C69.7807,6.6774 58.9537,10.2704 52.7197,18.2454 C50.3707,21.2504 48.3297,24.6804 47.7157,28.4444 C46.9467,33.1634 46.9307,36.4344 45.8657,40.3144 C44.3537,45.8284 40.6947,50.5474 35.8467,53.5484 C30.5117,56.8494 23.9737,57.8804 17.8817,56.3824 C5.2877,53.2854 -2.4123,40.5684 0.6847,27.9724 C3.7797,15.3824 16.5007,7.6784 29.0947,10.7754 C30.3017,11.0724 31.4627,11.4574 32.5747,11.9214 C34.7957,12.8504 35.6657,15.5464 34.4427,17.6204 C33.4217,19.3524 31.2837,20.0274 29.4257,19.2604 C28.6187,18.9264 27.7727,18.6564 26.8907,18.4584 C18.9897,16.6764 10.9427,21.3724 8.6327,29.1344 C6.0857,37.6864 11.2247,46.5314 19.7857,48.6364 C24.0987,49.6964 28.7357,48.8284 32.3757,46.2844 C34.1787,45.0244 35.8147,43.4424 36.8287,41.4904 C38.8887,37.5264 39.2277,32.9824 39.6037,28.8804 C40.3387,20.8634 44.6487,14.0094 50.7357,8.7004 C57.2817,2.9894 65.9167,-0.0986 74.6027,0.2214 C76.9557,0.3084 79.2987,0.6394 81.5857,1.2014 C100.1087,5.7554 111.4027,24.5184 106.7217,43.0374" id="Fill-1" fill="#40A2E6" mask="url(#mask-2)"></path>
                </g>
                <path d="M74.3583,32.2973 L74.3583,32.2973 C74.3223,33.4233 75.2063,34.3663 76.3323,34.4023 L88.7903,34.8033 C89.9173,34.8393 90.8593,33.9553 90.8953,32.8293 L90.8953,32.8293 C90.9323,31.7033 90.0483,30.7603 88.9213,30.7243 L76.4633,30.3233 C75.3373,30.2873 74.3943,31.1713 74.3583,32.2973" id="Fill-4" fill="#40A2E6"></path>
                <path d="M73.3678,32.2973 L73.3678,32.2973 C73.4038,33.4233 72.5208,34.3663 71.3938,34.4023 L58.9358,34.8033 C57.8088,34.8393 56.8668,33.9553 56.8308,32.8293 L56.8308,32.8293 C56.7938,31.7033 57.6778,30.7603 58.8048,30.7243 L71.2628,30.3233 C72.3888,30.2873 73.3318,31.1713 73.3678,32.2973" id="Fill-6" fill="#40A2E6"></path>
                <path d="M74.5067,31.6413 L74.5067,31.6413 C75.2367,32.4993 76.5247,32.6033 77.3827,31.8733 L86.8767,23.7963 C87.7357,23.0663 87.8397,21.7783 87.1087,20.9203 L87.1087,20.9203 C86.3787,20.0613 85.0907,19.9573 84.2327,20.6883 L74.7387,28.7653 C73.8807,29.4953 73.7767,30.7833 74.5067,31.6413" id="Fill-8" fill="#63CBA2"></path>
                <path d="M73.1234,31.6413 L73.1234,31.6413 C72.3934,32.4993 71.1054,32.6033 70.2474,31.8733 L60.7534,23.7963 C59.8944,23.0663 59.7904,21.7783 60.5214,20.9203 L60.5214,20.9203 C61.2514,20.0613 62.5394,19.9573 63.3974,20.6883 L72.8914,28.7653 C73.7494,29.4953 73.8534,30.7833 73.1234,31.6413" id="Fill-10" fill="#63CBA2"></path>
                <path d="M72.6941,39.0637 L72.6941,39.0637 C71.8651,38.3007 70.5741,38.3547 69.8111,39.1837 L61.3721,48.3577 C60.6091,49.1877 60.6631,50.4787 61.4931,51.2417 L61.4931,51.2417 C62.3221,52.0047 63.6131,51.9507 64.3761,51.1207 L72.8141,41.9467 C73.5771,41.1177 73.5231,39.8267 72.6941,39.0637" id="Fill-12" fill="#40A2E6"></path>
                <path d="M74.8982,39.0637 L74.8982,39.0637 C75.7272,38.3007 77.0182,38.3547 77.7812,39.1837 L86.2202,48.3577 C86.9832,49.1877 86.9292,50.4787 86.0992,51.2417 L86.0992,51.2417 C85.2702,52.0047 83.9792,51.9507 83.2162,51.1207 L74.7782,41.9467 C74.0152,41.1177 74.0692,39.8267 74.8982,39.0637" id="Fill-14" fill="#40A2E6"></path>
                <path d="M78.2089,21.3938 C78.2089,23.8208 76.2419,25.7878 73.8149,25.7878 C71.3889,25.7878 69.4209,23.8208 69.4209,21.3938 C69.4209,18.9668 71.3889,16.9998 73.8149,16.9998 C76.2419,16.9998 78.2089,18.9668 78.2089,21.3938" id="Fill-16" fill="#63CBA2"></path>
                <path d="M73.8151,44.032 L73.8151,44.032 C71.3881,44.032 69.4211,42.065 69.4211,39.638 L69.4211,31.706 C69.4211,29.279 71.3881,27.312 73.8151,27.312 L73.8151,27.312 C76.2421,27.312 78.2091,29.279 78.2091,31.706 L78.2091,39.638 C78.2091,42.065 76.2421,44.032 73.8151,44.032" id="Fill-18" fill="#63CBA2"></path>
                <path d="M71.667,39.2906 L71.667,39.2906 C70.546,39.1786 69.546,39.9966 69.433,41.1176 L68.192,53.5206 C68.08,54.6416 68.898,55.6416 70.019,55.7546 L70.019,55.7546 C71.14,55.8666 72.14,55.0486 72.253,53.9266 L73.494,41.5246 C73.606,40.4026 72.788,39.4026 71.667,39.2906" id="Fill-20" fill="#63CBA2"></path>
                <path d="M76.1947,39.2906 L76.1947,39.2906 C77.3157,39.1786 78.3157,39.9966 78.4287,41.1176 L79.6697,53.5206 C79.7817,54.6416 78.9637,55.6416 77.8427,55.7546 L77.8427,55.7546 C76.7217,55.8666 75.7217,55.0486 75.6087,53.9266 L74.3677,41.5246 C74.2557,40.4026 75.0737,39.4026 76.1947,39.2906" id="Fill-22" fill="#63CBA2"></path>
                <path d="M130.2381,25.0219 L126.6851,25.0219 L126.6851,19.4119 L130.2381,19.4119 L130.2381,17.9779 C130.2381,9.6879 135.5361,6.9449 141.3331,6.9449 C142.6421,6.9449 143.7641,7.0699 143.7641,7.0699 L143.7641,12.8669 C143.7641,12.8669 142.8911,12.7419 142.1431,12.7419 C138.8391,12.7419 137.0321,14.4249 137.0321,18.1029 L137.0321,19.4119 L143.3271,19.4119 L143.3271,25.0219 L137.0321,25.0219 L137.0321,51.9499 L130.2381,51.9499 L130.2381,25.0219 Z" id="Fill-24" fill="#63CBA2"></path>
                <mask id="mask-4" fill="white">
                    <use xlink:href="#path-3"></use>
                </mask>
                <g id="Clip-27"></g>
                <path d="M148.316,51.9503 L155.111,51.9503 L155.111,19.4123 L148.316,19.4123 L148.316,51.9503 Z M151.682,7.1323 C154.05,7.1323 155.921,9.0023 155.921,11.3713 C155.921,13.7393 154.05,15.6093 151.682,15.6093 C149.313,15.6093 147.444,13.7393 147.444,11.3713 C147.444,9.0023 149.313,7.1323 151.682,7.1323 L151.682,7.1323 Z" id="Fill-26" fill="#63CBA2" mask="url(#mask-4)"></path>
                <path d="M163.2763,12.6176 L170.0083,12.6176 L170.0083,19.4116 L176.6153,19.4116 L176.6153,25.0216 L170.0083,25.0216 L170.0083,40.1686 C170.0083,45.2186 171.9413,46.3406 175.5553,46.3406 C176.1173,46.3406 176.8653,46.2786 176.8653,46.2786 L176.8653,52.1366 C176.8653,52.1366 175.6813,52.3866 173.5613,52.3866 C165.6453,52.3866 163.2763,47.0886 163.2763,39.1096 L163.2763,25.0216 L159.6613,25.0216 L159.6613,19.4116 L163.2763,19.4116 L163.2763,12.6176 Z" id="Fill-28" fill="#63CBA2" mask="url(#mask-4)"></path>
                <path d="M197.4985,46.7143 C203.5455,46.7143 207.9705,42.0393 207.9705,35.6813 C207.9705,29.3233 203.5455,24.6483 197.4985,24.6483 C191.3905,24.6483 187.1515,29.3853 187.1515,35.7433 C187.1515,42.1633 191.4525,46.7143 197.4985,46.7143 M197.4985,18.6013 C207.5345,18.6013 214.7655,25.8943 214.7655,35.6813 C214.7655,45.4673 207.4095,52.7613 197.4985,52.7613 C187.5255,52.7613 180.2945,45.5923 180.2945,35.7433 C180.2945,25.8943 187.7125,18.6013 197.4985,18.6013" id="Fill-29" fill="#40A2E6" mask="url(#mask-4)"></path>
                <polygon id="Fill-30" fill="#40A2E6" mask="url(#mask-4)" points="220.379 51.9503 227.173 51.9503 227.173 6.8833 220.379 6.8833"></polygon>
                <path d="M249.987,46.7143 C256.034,46.7143 260.459,42.0393 260.459,35.6813 C260.459,29.3233 256.034,24.6483 249.987,24.6483 C243.879,24.6483 239.64,29.3853 239.64,35.7433 C239.64,42.1633 243.941,46.7143 249.987,46.7143 M249.987,18.6013 C260.023,18.6013 267.254,25.8943 267.254,35.6813 C267.254,45.4673 259.898,52.7613 249.987,52.7613 C240.014,52.7613 232.783,45.5923 232.783,35.7433 C232.783,25.8943 240.201,18.6013 249.987,18.6013" id="Fill-31" fill="#40A2E6" mask="url(#mask-4)"></path>
                <path d="M287.3288,24.6479 C281.7178,24.6479 277.6668,29.1359 277.6668,35.6809 C277.6668,42.3509 281.8438,46.7139 287.3908,46.7139 C293.2498,46.7139 297.0528,42.1019 297.0528,35.6809 C297.0528,29.0109 292.9378,24.6479 287.3288,24.6479 L287.3288,24.6479 Z M277.1058,55.5659 C278.2898,56.2519 282.0928,58.0589 286.6428,58.0589 C292.0658,58.0589 296.8658,56.0639 296.8658,49.8929 L296.8658,47.7119 C296.1178,48.7719 292.8758,52.7609 286.4558,52.7609 C277.1058,52.7609 270.8728,45.7169 270.8728,35.7439 C270.8728,25.7079 277.3558,18.6019 286.5808,18.6019 C292.6888,18.6019 296.1798,22.2789 297.1768,23.7749 L297.1768,19.4119 L303.5978,19.4119 L303.5978,47.6489 C303.5978,59.8659 296.1798,63.9179 286.7048,63.9179 C282.3418,63.9179 277.7918,62.4849 274.9238,60.8019 L277.1058,55.5659 Z" id="Fill-32" fill="#40A2E6" mask="url(#mask-4)"></path>
                <polygon id="Fill-33" fill="#40A2E6" mask="url(#mask-4)" points="315.817 63.1077 320.43 51.3887 307.527 19.4117 314.82 19.4117 323.609 43.0987 332.273 19.4117 339.38 19.4117 322.362 63.1077"></polygon>
            </g>
        </g>
    </g>
</svg>