<?xml version="1.0" encoding="UTF-8"?>
<svg width="52px" height="102px" viewBox="0 0 52 102" version="1.1" xmlns="http://www.w3.org/2000/svg" xmlns:xlink="http://www.w3.org/1999/xlink">
    <!-- Generator: sketchtool 45.2 (43514) - http://www.bohemiancoding.com/sketch -->
    <title>CB90C8CA-D681-4790-B261-C8E458BB0989</title>
    <desc>Created with sketchtool.</desc>
    <defs>
        <polygon id="path-1" points="1.69004546e-20 0.0580909936 1.69004546e-20 86.6732837 51.2193719 86.6732837 51.2193719 0.0580909936"></polygon>
    </defs>
    <g id="survey" stroke="none" stroke-width="1" fill="none" fill-rule="evenodd">
        <g id="Body-" transform="translate(-210.000000, -4859.000000)">
            <g id="Group-93" transform="translate(176.000000, 4786.000000)">
                <g id="Group-74">
                    <g id="Group-68" transform="translate(0.000000, 34.000000)">
                        <g id="alone" transform="translate(34.000000, 39.000000)">
                            <g id="Group-3" transform="translate(0.000000, 14.545787)">
                                <mask id="mask-2" fill="white">
                                    <use xlink:href="#path-1"></use>
                                </mask>
                                <g id="Clip-2"></g>
                                <path d="M51.0959732,13.4471464 C50.9485738,7.39684877 46.8356081,3.68070033 40.9027218,3.66562671 C35.7158109,3.65281414 30.5189238,3.85856898 25.3442338,3.59905158 C21.3856508,3.40083355 18.6129967,5.12977714 16.2802959,7.99250777 C15.307111,9.18658927 14.4763373,10.4984962 13.4622498,11.9237064 C11.1412711,8.50802539 9.00161113,5.30186757 6.8003477,2.13866956 C5.31438265,0.00349205404 3.44557834,-0.490671277 1.66705924,0.667233548 C-0.23940548,1.90854571 -0.552909687,3.90429227 0.944777476,6.15603906 C4.10875072,10.9125181 7.30464803,15.6481454 10.5421962,20.3538766 C12.4843261,23.1764109 14.9202813,23.2078143 17.0843831,20.486022 C18.4818088,18.7284385 19.8079041,16.914329 21.1656741,15.1253422 C21.4612211,15.1597603 21.756768,15.1944296 22.0523149,15.2290989 C22.0957117,16.1631605 22.1772677,17.0972222 22.1772677,18.0315351 C22.1760206,38.7635333 22.1593104,59.4952803 22.1757712,80.2272785 C22.1765194,81.3876956 22.2495956,82.6144366 22.6229574,83.6924513 C23.2928638,85.627401 24.8042683,86.6169838 26.867111,86.6109543 C28.9249656,86.6051761 30.4281397,85.6258936 31.1020366,83.6813973 C31.4492107,82.6805093 31.5310161,81.5452149 31.5337596,80.4699637 C31.5629402,69.0084897 31.5519663,57.5470156 31.5522157,46.0852903 L31.5522157,43.3547051 C33.7652012,42.8082865 33.5033242,44.2154085 33.503823,45.3381415 C33.5083123,53.1759186 33.4965902,61.0134445 33.4953432,68.8512216 C33.494595,73.2336238 33.4190247,77.6180359 33.5362459,81.9971721 C33.6232888,85.2540778 36.4465725,87.326951 39.3643814,86.4855921 C41.5087801,85.8668202 42.6660271,84.0532131 42.6677729,81.1774187 C42.6802433,60.276596 42.6809915,39.3760245 42.6857302,18.4757042 C42.6857302,17.8014112 42.519376,17.0620504 42.7408491,16.4716672 C42.9565859,15.8978649 43.5726204,15.4768086 44.0128232,14.988926 C44.2387857,15.1404158 44.4649975,15.2921568 44.6912094,15.4433954 C44.6912094,16.3561028 44.69096,17.2688102 44.6912094,18.1810151 C44.6927058,25.3447504 44.667017,32.5084857 44.7114113,39.6714674 C44.7256275,41.9232141 46.1150722,43.4871016 47.8940901,43.510717 C49.6626329,43.5345835 51.1373747,41.9649178 51.1478498,39.7395498 C51.1897501,30.9749967 51.3097147,22.2066751 51.0959732,13.4471464" id="Fill-1" fill="#1F6DA3" mask="url(#mask-2)"></path>
                            </g>
                            <path d="M32.52565,16.544322 C37.0611106,16.544322 40.737864,12.8407349 40.737864,8.27217356 C40.737864,3.70361222 37.0611106,2.51226909e-05 32.52565,2.51226909e-05 C27.9899399,2.51226909e-05 24.3131865,3.70361222 24.3131865,8.27217356 C24.3131865,12.8407349 27.9899399,16.544322 32.52565,16.544322" id="Fill-4" fill="#1F6DA3"></path>
                        </g>
                    </g>
                </g>
            </g>
        </g>
    </g>
</svg>