<?xml version="1.0" encoding="UTF-8"?>
<svg width="68px" height="51px" viewBox="0 0 68 51" version="1.1" xmlns="http://www.w3.org/2000/svg" xmlns:xlink="http://www.w3.org/1999/xlink">
    <!-- Generator: sketchtool 45.2 (43514) - http://www.bohemiancoding.com/sketch -->
    <title>C1DAB043-EC1D-4955-A1A8-1E7703873834</title>
    <desc>Created with sketchtool.</desc>
    <defs></defs>
    <g id="survey" stroke="none" stroke-width="1" fill="none" fill-rule="evenodd">
        <g id="Body-" transform="translate(-175.000000, -927.000000)">
            <g id="Group-96" transform="translate(175.000000, 885.000000)">
                <g id="Group-54">
                    <g id="Group-78" transform="translate(0.000000, 0.400000)">
                        <g id="calendarIcon" transform="translate(0.000000, 42.000000)">
                            <rect id="Rectangle-16" fill="#EEEEEE" x="0" y="0" width="68" height="50" rx="4"></rect>
                            <path d="M20.9968,37.99875 L46.8793778,37.99875 L46.8793778,17.50125 L20.9968,17.50125 L20.9968,37.99875 Z M20.9968,12.000625 L23.9809778,12.000625 L23.9809778,13.499375 C23.9809778,13.775625 24.2049778,14 24.4793778,14 L27.9650667,14 C28.2394667,14 28.4634667,13.775625 28.4634667,13.499375 L28.4634667,12.000625 L39.4127111,12.000625 L39.4127111,13.499375 C39.4127111,13.775625 39.6367111,14 39.9111111,14 L43.3968,14 C43.6712,14 43.8920889,13.775625 43.8920889,13.499375 L43.8920889,12.000625 L46.8793778,12.000625 L46.8793778,16.5 L20.9968,16.5 L20.9968,12.000625 Z M24.9777778,12.99875 L27.4666667,12.99875 L27.4666667,10.00125 L24.9777778,10.00125 L24.9777778,12.99875 Z M40.4095111,12.99875 L42.8984,12.99875 L42.8984,10.00125 L40.4095111,10.00125 L40.4095111,12.99875 Z M43.8920889,10.999375 L43.8920889,9.500625 C43.8920889,9.224375 43.6712,9 43.3968,9 L39.9111111,9 C39.6367111,9 39.4127111,9.224375 39.4127111,9.500625 L39.4127111,10.999375 L28.4634667,10.999375 L28.4634667,9.500625 C28.4634667,9.224375 28.2394667,9 27.9650667,9 L24.4793778,9 C24.2049778,9 23.9809778,9.224375 23.9809778,9.500625 L23.9809778,10.999375 L20.4984,10.999375 C20.2233778,10.999375 20,11.224375 20,11.5 L20,38.499375 C20,38.775625 20.2233778,39 20.4984,39 L47.3777778,39 C47.6521778,39 47.8761778,38.775625 47.8761778,38.499375 L47.8761778,11.5 C47.8761778,11.224375 47.6521778,10.999375 47.3777778,10.999375 L43.8920889,10.999375 Z" id="Fill-1" fill="#31729F"></path>
                            <path d="M38.4793778,25 L41.9650667,25 L41.9650667,21.49875 L38.4793778,21.49875 L38.4793778,25 Z M38.4793778,29 L41.9650667,29 L41.9650667,25.49875 L38.4793778,25.49875 L38.4793778,29 Z M38.4793778,34 L41.9650667,34 L41.9650667,30.49875 L38.4793778,30.49875 L38.4793778,34 Z M34.4793778,34 L37.9650667,34 L37.9650667,30.49875 L34.4793778,30.49875 L34.4793778,34 Z M29.4793778,34 L32.9650667,34 L32.9650667,30.49875 L29.4793778,30.49875 L29.4793778,34 Z M25.4793778,34 L28.9619556,34 L28.9619556,30.49875 L25.4793778,30.49875 L25.4793778,34 Z M25.4793778,29 L28.9619556,29 L28.9619556,25.49875 L25.4793778,25.49875 L25.4793778,29 Z M25.4793778,25 L28.9619556,25 L28.9619556,21.49875 L25.4793778,21.49875 L25.4793778,25 Z M29.4793778,25 L32.9650667,25 L32.9650667,21.49875 L29.4793778,21.49875 L29.4793778,25 Z M29.4793778,29 L32.9650667,29 L32.9650667,25.49875 L29.4793778,25.49875 L29.4793778,29 Z M34.4793778,29 L37.9650667,29 L37.9650667,25.49875 L34.4793778,25.49875 L34.4793778,29 Z M34.4793778,25 L37.9650667,25 L37.9650667,21.49875 L34.4793778,21.49875 L34.4793778,25 Z M37.9206222,20.49875 L24.4793778,20.49875 L24.4793778,35.00125 L43.3968,35.00125 L43.3968,20.49875 L37.9206222,20.49875 Z" id="Fill-3" fill="#31729F"></path>
                        </g>
                    </g>
                </g>
            </g>
        </g>
    </g>
</svg>