<?xml version="1.0" encoding="UTF-8"?>
<svg width="45px" height="62px" viewBox="0 0 45 62" version="1.1" xmlns="http://www.w3.org/2000/svg" xmlns:xlink="http://www.w3.org/1999/xlink">
    <!-- Generator: sketchtool 45.2 (43514) - http://www.bohemiancoding.com/sketch -->
    <title>F5EA57A5-ADAD-4D36-9AC8-5A1058810E9F</title>
    <desc>Created with sketchtool.</desc>
    <defs></defs>
    <g id="survey" stroke="none" stroke-width="1" fill="none" fill-rule="evenodd">
        <g id="Body-" transform="translate(-369.000000, -466.000000)" fill="#C55E96">
            <g id="Group-97" transform="translate(154.000000, 376.000000)">
                <g id="Group-83">
                    <g id="Group-37" transform="translate(22.000000, 36.000000)">
                        <g id="Group-32" transform="translate(150.000000, 1.000000)">
                            <path d="M65.494218,61.7237333 C72.8899509,61.7237333 78.9039018,67.7479507 78.9039018,75.1524473 C78.9039018,82.5582428 72.8899509,88.5807284 65.494218,88.5807284 C58.1006469,88.5807284 52.0849666,82.5582428 52.0849666,75.1524473 C52.086696,67.7479507 58.1006469,61.7237333 65.494218,61.7237333 M61.1218898,96.7801411 L61.1218898,102.530294 L57.6631114,102.530294 L57.6631114,109.80447 L61.1218898,109.80447 L61.1218898,115 L69.7688358,115 L69.7688358,109.80447 L73.5739243,109.80447 L73.5739243,102.530294 L69.7688358,102.530294 L69.7688358,96.8407556 C79.7988607,94.8876692 87.6100793,85.9084939 87.6100793,75.1524473 C87.6100793,62.9736913 77.6859795,53.0645161 65.5249147,53.0645161 C53.3616882,53.0645161 43.510655,62.9736913 43.510655,75.1524473 C43.510655,85.7920275 51.0918649,94.6963005 61.1218898,96.7801411" id="femaleIcon"></path>
                        </g>
                    </g>
                </g>
            </g>
        </g>
    </g>
</svg>