<?xml version="1.0" encoding="UTF-8"?>
<svg width="52px" height="56px" viewBox="0 0 52 56" version="1.1" xmlns="http://www.w3.org/2000/svg" xmlns:xlink="http://www.w3.org/1999/xlink">
    <!-- Generator: sketchtool 45.2 (43514) - http://www.bohemiancoding.com/sketch -->
    <title>72159201-403E-449B-94B8-70E6A81025F2</title>
    <desc>Created with sketchtool.</desc>
    <defs></defs>
    <g id="survey" stroke="none" stroke-width="1" fill="none" fill-rule="evenodd">
        <g id="Body-" transform="translate(-216.000000, -465.000000)" fill="#1F6DA3">
            <g id="Group-97" transform="translate(154.000000, 376.000000)">
                <g id="Group-83">
                    <g id="Group-37" transform="translate(22.000000, 36.000000)">
                        <g id="Group-36">
                            <path d="M71.5539888,94.9947918 C66.9970757,100.587144 58.7536995,101.420739 53.1751552,96.8503226 C47.5987164,92.281173 46.7686937,84.0132082 51.3251857,78.4208563 C55.8816777,72.8285044 64.1267384,71.996176 69.7031771,76.5653255 C75.2817214,81.1357419 76.1104808,89.4024399 71.5539888,94.9947918 M44.8467132,73.1127038 C37.3516629,82.3109677 38.6950279,95.8925748 47.8682317,103.408446 C57.0426988,110.925161 70.6359525,109.581865 78.1310028,100.383601 C84.7534976,92.2554135 84.3677539,80.6264633 78.0004564,72.9577243 L83.9676922,65.6344164 L84.5985263,69.229349 L91.5313847,67.9139238 L88.7536933,53.0105572 L73.3909036,53 L73.4275408,60.1273666 L77.5485972,60.1641056 L71.4369181,67.6647742 C62.5871326,63.0428387 51.3900378,65.0816422 44.8467132,73.1127038" id="maleIcon"></path>
                        </g>
                    </g>
                </g>
            </g>
        </g>
    </g>
</svg>