<?xml version="1.0" encoding="UTF-8"?>
<svg width="47px" height="111px" viewBox="0 0 47 111" version="1.1" xmlns="http://www.w3.org/2000/svg" xmlns:xlink="http://www.w3.org/1999/xlink">
    <!-- Generator: sketchtool 45.2 (43514) - http://www.bohemiancoding.com/sketch -->
    <title>798E8D90-5C43-40B2-81EE-CCC3AC567660</title>
    <desc>Created with sketchtool.</desc>
    <defs>
        <polygon id="path-1" points="0 0.139517199 0 86.9012228 46.866707 86.9012228 46.866707 0.139517199"></polygon>
    </defs>
    <g id="survey" stroke="none" stroke-width="1" fill="none" fill-rule="evenodd">
        <g id="Body-" transform="translate(-370.000000, -5363.000000)">
            <g id="Group-92" transform="translate(176.000000, 5308.000000)">
                <g id="Group-73" transform="translate(0.000000, 0.400000)">
                    <g id="Group-71" transform="translate(153.000000, 34.000000)">
                        <g id="standMove" transform="translate(41.000000, 21.000000)">
                            <g id="Group-3" transform="translate(0.000000, 23.407125)">
                                <mask id="mask-2" fill="white">
                                    <use xlink:href="#path-1"></use>
                                </mask>
                                <g id="Clip-2"></g>
                                <path d="M11.2235078,17.1018072 C11.1407971,17.0713685 11.0578559,17.0409298 10.9751451,17.0102587 C10.3111549,17.9322492 9.6473951,18.8540072 8.84747353,19.9649035 C9.81581176,20.1419591 10.4834882,20.2641786 11.2235078,20.3996424 L11.2235078,17.1018072 Z M16.7328755,29.5077833 C17.03515,29.6799594 17.2639294,29.8321529 17.5092971,29.9471693 C19.5063363,30.8812423 21.5038363,31.8146182 23.5066353,32.7359115 C25.4407775,33.6253721 26.6512578,33.1699534 27.5530127,31.2011971 C30.1589784,25.5128786 32.7582627,19.8217719 35.3538608,14.1285739 C36.3254245,11.9976328 35.8835324,10.7779938 33.7830471,9.79721717 C30.5932676,8.30827697 27.3889735,6.8507049 24.2120961,5.33457901 C23.663302,5.07248092 23.2195667,4.58639121 22.8011745,4.26132452 C22.6845961,4.29524856 22.4288608,4.45952458 22.2095275,4.41979163 C20.3986451,4.09077488 19.5701549,4.48810443 18.7999539,6.1671122 C16.7434735,10.6520566 14.6985127,15.1423452 12.6528608,19.6324014 C12.5307529,19.9007731 12.4429735,20.1854097 12.3238608,20.502344 L13.9329196,20.502344 C13.9845275,19.9574681 13.9110324,19.4404749 14.0907382,19.0387306 C15.8440225,15.1228272 17.6254147,11.2194711 19.4305373,7.32750036 C20.0786304,5.93034097 21.1193118,5.51628176 22.5012039,6.14271477 C26.0957824,7.77199827 29.6763069,9.43334695 33.2420863,11.125599 C34.6011696,11.7706206 34.9815471,12.853634 34.3551108,14.2377815 C31.8788559,19.7104731 29.3830176,25.1741029 26.8666745,30.6277414 C26.2388559,31.9888855 25.1836598,32.3476439 23.7713559,31.7374758 C22.4664147,31.1737791 21.1778314,30.5689552 19.8993853,29.9460075 C19.4045029,29.7045892 18.9573118,29.3634899 18.4442284,29.0402821 C17.9742284,29.1685428 17.404699,29.324454 16.7328755,29.5077833 L16.7328755,29.5077833 Z M19.8496206,28.0332492 C21.3407186,28.7310156 22.7345912,29.3507103 24.0971304,30.0340706 C24.8267824,30.3997997 25.2018608,30.2931481 25.5587382,29.4963978 C27.8958363,24.2790658 30.2700275,19.0779989 32.6693314,13.8894791 C32.9992529,13.1759124 32.9384294,12.8385309 32.1965667,12.5023111 C28.8312284,10.9766586 25.4834,9.41080837 22.1431745,7.82939031 C21.4920863,7.52128565 21.1446549,7.58890138 20.8287873,8.29270909 C19.0043118,12.3601089 17.1409,16.4096173 15.2447725,20.5657773 C17.2782137,20.3891864 19.0994637,20.713556 20.2629441,22.5287246 C21.4480814,24.3771203 21.2229882,26.1936831 19.8496206,28.0332492 L19.8496206,28.0332492 Z M15.9147529,86.9012228 C15.841949,86.83291 15.7804343,86.7339262 15.6940373,86.7006992 C13.0495961,85.6855339 11.8831206,84.0062937 11.8817382,81.1359944 C11.875748,68.4974295 11.8769,55.8593293 11.8775912,43.2212291 C11.8775912,41.7132357 11.9865667,40.1980392 11.8762088,38.6991077 C11.6513461,35.6417614 11.311748,32.5932447 11.0115471,29.458059 C9.66651765,29.1643604 8.08510588,28.9315392 6.57442451,28.4656645 C3.53923824,27.5297327 1.08924804,25.8288834 0.250390196,22.5280276 C-0.434104902,19.8347839 0.361439216,17.3585611 1.70370392,15.0352288 C3.82008627,11.3711998 6.81311078,8.49369743 10.1074882,5.96542679 C12.4183216,4.19184994 14.8975716,2.62042321 17.4040078,1.13380658 C19.8841794,-0.336777452 19.9413167,-0.241046591 21.9031059,1.85759695 C22.2164392,2.19265496 22.5191745,2.53770431 22.9451696,3.00915556 C23.6702137,2.22704372 24.3643853,1.55437177 24.9659392,0.806416328 C25.4686549,0.181377452 25.9626157,0.0677551435 26.7007922,0.377021591 C33.2943853,3.13834575 38.3349049,7.60377219 41.5408118,14.0830321 C44.0921745,19.239719 45.2397578,24.8120916 46.2306745,30.4269854 C46.4237431,31.5199902 46.5912382,32.6178745 46.7877627,33.7101822 C47.2416353,36.2328763 45.6929392,38.6180153 43.3116059,39.0476424 C40.8240618,39.4963227 38.6491598,37.9557994 38.1270912,35.4119609 C37.2928412,31.3475817 36.4546745,27.2838996 35.5743461,23.2297441 C35.3798951,22.3326158 35.0048167,21.4754528 34.547949,20.5997013 C34.5306696,20.8864292 34.4981843,21.1729247 34.4979539,21.4596526 C34.4949588,25.9478499 34.5587775,30.4372091 34.4578657,34.9228505 C34.4272235,36.28353 33.9362578,37.6321269 33.6701549,38.9890886 C33.5683216,39.5077082 33.4365373,40.0339956 33.4360765,40.5567976 C33.4229441,53.7335001 33.3653461,66.9108996 33.4685618,80.0866726 C33.4941353,83.3661517 32.5497578,85.7345611 29.3731108,86.9012228 L27.0233412,86.9012228 C23.7996941,85.6945958 22.9262775,83.2225554 22.9550765,79.9523706 C23.0532235,68.8350434 22.9944735,57.7160898 22.9953951,46.5980656 C22.9953951,46.3111053 23.0317971,46.0157803 22.9744294,45.7404379 C22.9414833,45.5824355 22.7541745,45.4571953 22.6359833,45.3170844 C22.5297725,45.4662572 22.3613559,45.6038123 22.3309441,45.7676236 C22.2791059,46.0448248 22.3136647,46.3387557 22.3136647,46.625716 C22.3134343,58.066948 22.3155078,69.5077154 22.3076745,80.9484827 C22.3072137,81.5544684 22.2864784,82.1725365 22.168748,82.763419 C21.7319245,84.9566316 20.1864539,86.1165551 18.2647529,86.9012228 L15.9147529,86.9012228 Z" id="Fill-1" fill="#1F6DA3" mask="url(#mask-2)"></path>
                            </g>
                            <path d="M24.6735716,4.64712919e-05 C26.6425029,0.589302452 28.5333314,1.2870689 30.1559833,2.66099264 C34.6069294,6.43004677 35.5978461,13.1300453 32.3198265,17.7813569 C28.7379196,22.863225 22.2774931,24.3384562 17.1436647,21.2464888 C13.1482039,18.8402053 10.9500324,14.1273192 11.713552,9.60426836 C12.5118608,4.87720855 16.0615127,1.16136406 20.6748853,0.214976196 C20.8746353,0.174081459 21.0621745,0.0730063995 21.2554735,4.64712919e-05 L24.6735716,4.64712919e-05 Z" id="Fill-4" fill="#1F6DA3"></path>
                            <path d="M18.2648681,110.308441 C20.1865691,109.523773 21.7320397,108.36385 22.1686328,106.170405 C22.2863632,105.579522 22.3073289,104.961454 22.3077897,104.355701 C22.3153926,92.9149333 22.3133191,81.4739336 22.3135495,70.0327016 C22.3135495,69.7459737 22.2792211,69.4520428 22.3308289,69.1746092 C22.3612407,69.0110302 22.5298877,68.8734752 22.6360985,68.7243023 C22.7540593,68.8644133 22.9415985,68.9896534 22.9743142,69.1476558 C23.0316819,69.4229982 22.9952799,69.7183233 22.9952799,70.0050511 C22.9943583,81.1233077 23.0531083,92.2422614 22.9549613,103.359589 C22.9261623,106.629773 23.7995789,109.101814 27.0234564,110.308441 L18.2648681,110.308441 Z" id="Fill-6" fill="#FEFEFE"></path>
                            <path d="M19.8497358,51.4403509 C21.2231034,49.6007848 21.4479662,47.784222 20.2630593,45.9360588 C19.0993485,44.1206577 17.2783289,43.7965205 15.2448877,43.972879 C17.1407848,39.816719 19.004427,35.7672107 20.8289025,31.6998109 C21.1445397,30.9960031 21.4922015,30.9283874 22.1430593,31.2364921 C25.4832848,32.8179101 28.8311132,34.3837603 32.1966819,35.9094128 C32.9385446,36.2456326 32.9991377,36.5832466 32.6694466,37.2965809 C30.2701426,42.4851006 27.8959515,47.6861676 25.558623,52.9034996 C25.2017456,53.7002499 24.8268975,53.8069015 24.0972456,53.4411724 C22.734476,52.7578121 21.3408338,52.1381174 19.8497358,51.4403509" id="Fill-8" fill="#FEFEFE"></path>
                            <path d="M16.7328985,52.9149315 C17.4047221,52.7313699 17.9742515,52.5756911 18.4442515,52.4474303 C18.9573348,52.7706381 19.404526,53.1117374 19.8994083,53.3531558 C21.1778544,53.9761034 22.4664377,54.5809273 23.7713789,55.1446241 C25.1836828,55.7547921 26.2388789,55.3960338 26.8666975,54.0348896 C29.3830407,48.5812512 31.8788789,43.117389 34.3551338,37.6449297 C34.9815701,36.2607823 34.6011926,35.1777688 33.2421093,34.5327473 C29.6763299,32.8404952 26.0958054,31.1791465 22.501227,29.549863 C21.1193348,28.92343 20.078423,29.3374892 19.4305603,30.7346486 C17.6254377,34.6266193 15.8440456,38.5299754 14.0907613,42.4458789 C13.9110554,42.8476232 13.9845505,43.3646163 13.9329426,43.9094922 L12.3238838,43.9094922 C12.4429966,43.5923256 12.530776,43.3079213 12.6528838,43.0395496 C14.6985358,38.5494934 16.7434966,34.0592048 18.799977,29.5742604 C19.5699475,27.8952527 20.3986681,27.4979231 22.2095505,27.8269399 C22.4288838,27.8666728 22.6846191,27.7023968 22.8011975,27.6684728 C23.2195897,27.9935394 23.663325,28.4796292 24.2121191,28.7417272 C27.3889966,30.2578531 30.5932907,31.7154252 33.7830701,33.2043654 C35.8835554,34.185142 36.3254475,35.4047811 35.3538838,37.5357222 C32.7582858,43.2286878 30.1587711,48.9200269 27.5530358,54.6083454 C26.6512809,56.5771016 25.4408005,57.0325203 23.5066583,56.1430598 C21.5038593,55.2217664 19.5063593,54.2883905 17.5093201,53.3543176 C17.2639525,53.2393011 17.035173,53.0871076 16.7328985,52.9149315" id="Fill-10" fill="#FEFEFE"></path>
                            <path d="M11.2235078,40.5089322 L11.2235078,43.8067674 C10.4834882,43.6713036 9.81581176,43.5490841 8.84747353,43.3720285 C9.6473951,42.2611322 10.3111549,41.3393742 10.9751451,40.4173837 C11.0578559,40.4480548 11.1407971,40.4784935 11.2235078,40.5089322" id="Fill-12" fill="#FEFEFE"></path>
                        </g>
                    </g>
                </g>
            </g>
        </g>
    </g>
</svg>