<?xml version="1.0" encoding="UTF-8"?>
<svg width="100px" height="81px" viewBox="0 0 100 81" version="1.1" xmlns="http://www.w3.org/2000/svg" xmlns:xlink="http://www.w3.org/1999/xlink">
    <!-- Generator: sketchtool 45.2 (43514) - http://www.bohemiancoding.com/sketch -->
    <title>4A43C7F7-159C-4EBF-AA68-A038A45A91D4</title>
    <desc>Created with sketchtool.</desc>
    <defs>
        <polygon id="path-1" points="1.45731352e-15 43.3026705 1.45731352e-15 0.0936642857 34.3856508 0.0936642857 34.3856508 43.3026705"></polygon>
        <polygon id="path-3" points="34.4580399 0.0936642857 34.4580399 43.3026705 0.0724372083 43.3026705 0.0724372083 0.0936642857 34.4580399 0.0936642857"></polygon>
    </defs>
    <g id="survey" stroke="none" stroke-width="1" fill="none" fill-rule="evenodd">
        <g id="Body-" transform="translate(-345.000000, -4880.000000)">
            <g id="Group-93" transform="translate(176.000000, 4786.000000)">
                <g id="Group-74">
                    <g id="Group-60" transform="translate(153.000000, 34.000000)">
                        <g id="withFriends" transform="translate(16.000000, 60.000000)">
                            <path d="M17.8596856,19.1425179 C12.6370207,19.0798393 8.33297369,14.7051964 8.3847833,9.51203571 C8.4365929,4.28817857 12.8006299,-0.036 17.9843174,0.000321428571 C23.2268721,0.0368035714 27.5498464,4.43426786 27.4962724,9.67548214 C27.4426984,14.8856786 23.0464207,19.2047143 17.8596856,19.1425179" id="Fill-1" fill="#1F6DA3"></path>
                            <g id="Group-5" transform="translate(0.000000, 34.838839)">
                                <mask id="mask-2" fill="white">
                                    <use xlink:href="#path-1"></use>
                                </mask>
                                <g id="Clip-4"></g>
                                <path d="M10.8740344,15.2321464 C10.4786453,13.6645393 10.0941635,12.0938786 9.71288968,10.5227357 C9.40524006,9.2547 9.10176088,7.99711071 8.79940451,6.73936071 C7.02360218,1.42727143 4.19909642,0.634146429 4.19909642,0.634146429 C3.8524693,0.287003571 2.92695404,0.145575 2.03287743,0.0936642857 L-4.81203775e-05,0.0936642857 L-4.81203775e-05,43.2501107 C0.284182909,43.2640929 0.519972759,43.28595 0.755602208,43.28595 C10.9930521,43.2877179 21.2303416,43.2806464 31.4677915,43.3026643 C32.1466097,43.3041107 32.3124646,43.0538786 32.3769459,42.4383429 C32.9349818,37.1158071 33.5241357,31.796325 34.0993346,26.4755571 C34.2045578,25.5035571 34.2886081,24.5291464 34.3856508,23.52195 C34.1309336,23.4975214 33.9753444,23.4832179 33.8197552,23.4676286 C28.6639775,22.9486821 23.5019442,22.4850214 18.3548283,21.891825 C14.652286,21.4649679 11.78768,18.8549679 10.8740344,15.2321464 Z" id="Fill-3" fill="#967674" mask="url(#mask-2)"></path>
                            </g>
                            <path d="M34.2500476,33.4669661 C38.9066565,31.9813232 42.7789033,29.0791446 46.7510801,26.3865375 C48.3315137,25.3152161 48.4940001,22.9564125 47.3500184,21.4172518 C46.1235903,19.7673589 44.0778327,19.4088054 42.2128473,20.5704482 C40.5801229,21.5874482 39.0014537,22.6920375 37.3624736,23.6981089 C35.5217088,24.8284125 33.6939364,26.0032339 31.5686198,26.5601089 C29.3716037,27.1356268 27.9793208,26.5466089 26.8653341,24.5908768 C26.5875191,24.1031089 26.3263858,23.5987875 25.9897036,23.1532875 C24.1579212,20.7292339 21.805316,19.4192518 18.6789351,19.7069304 C16.4371671,19.9132875 14.3784169,20.7175018 12.3151755,21.5233232 C9.10281953,22.7778589 5.92623301,24.0933054 3.20775248,26.3037696 C0.660099298,28.3752161 0.517181777,31.7537518 3.28041425,33.6310554 L9.71282551,37.1021625 L9.71282551,37.1023232 C11.5195853,37.8743946 13.3205706,38.6609304 15.1550798,39.3600375 C17.1408474,40.1168411 19.2342442,39.1287696 19.9627867,37.2283232 C20.6781763,35.3625911 19.769824,33.3076982 17.8344224,32.4655554 C16.9050575,32.0610375 15.9522741,31.7116446 15.0187387,31.3162875 C13.9507872,30.8637161 12.8926201,30.3876804 11.8299617,29.9216089 L11.8496911,29.6863232 C12.2410701,29.6361804 12.6885897,29.4372161 13.0150062,29.5601625 C14.9112699,30.2753411 16.8102604,30.9985554 18.6478172,31.8500196 C20.5837,32.7471268 21.533917,34.5603054 21.2557813,36.4710375 C20.9423572,38.6246089 19.442445,40.2669482 17.4542714,40.6039661 C16.248856,40.8087161 15.1292552,40.4519304 14.0269778,40.0188054 C13.2033173,39.6951268 12.3788548,39.3741804 11.4960063,39.0288054 C11.4960063,39.2695554 11.4825326,39.3764304 11.4979311,39.4786446 C11.9865134,42.7046625 12.4949853,45.9276268 12.9636778,49.1563768 C13.3625957,51.9049125 14.8864077,53.6751804 17.5035146,54.5096089 C18.2896412,54.7600018 19.0916475,55.0259839 19.9047215,55.1148589 C24.0727482,55.5706446 28.2460681,55.9758054 32.418586,56.3878768 C33.7908188,56.5233589 35.1660992,56.6265375 36.5933496,56.7488411 C36.2064618,60.7898411 35.8306416,64.7286268 35.4516134,68.6669304 C35.21839,71.0903411 34.8728857,73.5087696 34.7731161,75.9374839 C34.6606748,78.6725196 36.8246482,80.7904125 39.6566928,80.9562696 C42.1002456,81.0994661 44.395748,79.1729839 44.7321094,76.6486446 C44.9226661,75.2170018 45.06013,73.7778054 45.1870074,72.3389304 C45.7609231,65.8332161 46.3099766,59.3250911 46.8947996,52.8201804 C47.125617,50.2498768 45.642547,47.7623411 43.1563275,47.0442696 C41.5009865,46.5663054 39.7717005,46.2786268 38.0552467,46.0958946 C35.6926965,45.8448589 33.3117002,45.7577518 30.93712,45.6367339 C30.405069,45.6097339 30.1375197,45.5186089 30.0701512,44.9000196 C29.9200156,43.5191625 29.6598448,42.1501982 29.4489171,40.7759304 C29.1133577,38.5868411 28.7813271,36.3971089 28.4253967,34.0608054 C30.5210392,34.3748411 32.4054331,34.0551804 34.2500476,33.4669661" id="Fill-6" fill="#1F6DA3"></path>
                            <path d="M81.2401095,19.1425179 C86.4627745,19.0798393 90.7668214,14.7051964 90.7150118,9.51203571 C90.6632022,4.28817857 86.2991652,-0.036 81.1154777,0.000321428571 C75.872923,0.0368035714 71.5499487,4.43426786 71.6035227,9.67548214 C71.6570967,14.8856786 76.0533744,19.2047143 81.2401095,19.1425179" id="Fill-8" fill="#1F6DA3"></path>
                            <g id="Group-12" transform="translate(64.641707, 34.838839)">
                                <mask id="mask-4" fill="white">
                                    <use xlink:href="#path-3"></use>
                                </mask>
                                <g id="Clip-11"></g>
                                <path d="M16.1032598,21.891825 C19.805802,21.4649679 22.6704081,18.8549679 23.5840537,15.2321464 C23.9794428,13.6645393 24.3637642,12.0938786 24.7451984,10.5227357 L24.7451984,10.5272357 C24.7460004,10.5220929 24.7469628,10.5171107 24.7479252,10.5116464 C25.0530084,9.2547 25.3563272,7.99711071 25.6586835,6.73936071 C27.4344859,1.42727143 30.259152,0.634146429 30.259152,0.634146429 C30.6056187,0.287003571 31.531134,0.145575 32.4252106,0.0936642857 L34.4581362,0.0936642857 L34.4581362,43.2501107 C34.1739051,43.2640929 33.9381153,43.28595 33.7024858,43.28595 C23.4650359,43.2877179 13.2277464,43.2806464 2.9902965,43.3026643 C2.31147837,43.3041107 2.14562347,43.0538786 2.08114217,42.4383429 C1.52310619,37.1158071 0.933952367,31.796325 0.358753454,26.4755571 C0.253530229,25.5035571 0.16947997,24.5291464 0.0724372083,23.52195 C0.327154406,23.4975214 0.482743627,23.4832179 0.638332848,23.4676286 C5.79411049,22.9486821 10.9561438,22.4850214 16.1032598,21.891825" id="Fill-10" fill="#967674" mask="url(#mask-4)"></path>
                            </g>
                            <path d="M64.8497315,33.4669661 C60.1931226,31.9813232 56.3208758,29.0791446 52.348699,26.3865375 C50.7682654,25.3152161 50.605779,22.9564125 51.7497607,21.4172518 C52.9761887,19.7673589 55.0219464,19.4088054 56.8869318,20.5704482 C58.5196562,21.5874482 60.0983254,22.6920375 61.7373055,23.6981089 C63.5780703,24.8284125 65.4058427,26.0032339 67.5311593,26.5601089 C69.7281754,27.1356268 71.1204583,26.5466089 72.234445,24.5908768 C72.51226,24.1031089 72.7733933,23.5987875 73.1100755,23.1532875 C74.9418579,20.7292339 77.2944631,19.4192518 80.420844,19.7069304 C82.662612,19.9132875 84.7213622,20.7175018 86.7846036,21.5233232 C89.9969596,22.7778589 93.1735461,24.0933054 95.8920266,26.3037696 C98.4396798,28.3752161 98.5825973,31.7537518 95.8193648,33.6310554 L89.3869536,37.1021625 L89.3869536,37.1023232 C87.5801938,37.8743946 85.7792085,38.6609304 83.9446993,39.3600375 C81.9589317,40.1168411 79.8655349,39.1287696 79.1369924,37.2283232 C78.4216028,35.3625911 79.3299551,33.3076982 81.2653567,32.4655554 C82.1947216,32.0610375 83.147505,31.7116446 84.0810404,31.3162875 C85.1489919,30.8637161 86.207159,30.3876804 87.2698174,29.9216089 L87.250088,29.6863232 C86.8587089,29.6361804 86.4111894,29.4372161 86.0847729,29.5601625 C84.1885092,30.2753411 82.2895187,30.9985554 80.4519619,31.8500196 C78.5160791,32.7471268 77.565862,34.5603054 77.8439978,36.4710375 C78.1574219,38.6246089 79.6573341,40.2669482 81.6455077,40.6039661 C82.8509231,40.8087161 83.9705239,40.4519304 85.0728013,40.0188054 C85.8964618,39.6951268 86.7209243,39.3741804 87.6037728,39.0288054 C87.6037728,39.2695554 87.6172465,39.3764304 87.601848,39.4786446 C87.1132657,42.7046625 86.6047938,45.9276268 86.1361013,49.1563768 C85.7371833,51.9049125 84.2133714,53.6751804 81.5962645,54.5096089 C80.8101379,54.7600018 80.0081316,55.0259839 79.1950576,55.1148589 C75.0270309,55.5706446 70.853711,55.9758054 66.6811931,56.3878768 C65.3089603,56.5233589 63.9336799,56.6265375 62.5064295,56.7488411 C62.8933173,60.7898411 63.2691375,64.7286268 63.6481657,68.6669304 C63.8813891,71.0903411 64.2268934,73.5087696 64.326663,75.9374839 C64.4391043,78.6725196 62.2751309,80.7904125 59.4430863,80.9562696 C56.9995335,81.0994661 54.7040311,79.1729839 54.3676697,76.6486446 C54.177113,75.2170018 54.0396491,73.7778054 53.9127717,72.3389304 C53.338856,65.8332161 52.7898025,59.3250911 52.2049795,52.8201804 C51.9741621,50.2498768 53.4572321,47.7623411 55.9434516,47.0442696 C57.5987926,46.5663054 59.3280786,46.2786268 61.0445324,46.0958946 C63.4070826,45.8448589 65.7880789,45.7577518 68.1626591,45.6367339 C68.6947101,45.6097339 68.9622594,45.5186089 69.0296279,44.9000196 C69.1797635,43.5191625 69.4399343,42.1501982 69.650862,40.7759304 C69.9864214,38.5868411 70.318452,36.3971089 70.6743824,34.0608054 C68.5787399,34.3748411 66.694346,34.0551804 64.8497315,33.4669661" id="Fill-13" fill="#1F6DA3"></path>
                        </g>
                    </g>
                </g>
            </g>
        </g>
    </g>
</svg>