<?xml version="1.0" encoding="UTF-8"?>
<svg width="53px" height="53px" viewBox="0 0 53 53" version="1.1" xmlns="http://www.w3.org/2000/svg" xmlns:xlink="http://www.w3.org/1999/xlink">
    <!-- Generator: sketchtool 45.2 (43514) - http://www.bohemiancoding.com/sketch -->
    <title>061A0150-A642-48C3-8E59-0FC1E58B6F18</title>
    <desc>Created with sketchtool.</desc>
    <defs>
        <polygon id="path-1" points="0.145823311 0.209288372 13.9976435 0.209288372 13.9976435 16.5383172 0.145823311 16.5383172 0.145823311 0.209288372"></polygon>
    </defs>
    <g id="survey" stroke="none" stroke-width="1" fill="none" fill-rule="evenodd">
        <g id="Mind" transform="translate(-174.000000, -457.000000)">
            <g id="Page-1" transform="translate(174.000000, 457.000000)">
                <path d="M8.88257917,26.7373907 C9.45650046,26.3745256 9.97938472,26.5956465 10.3329634,27.1724837 C12.1455144,30.1296372 16.7312412,30.1757349 18.569556,27.1554744 C18.9255884,26.5707488 19.4806162,26.3720605 20.0285282,26.7435535 C20.6635468,27.1747023 20.5182875,27.7961581 20.1256949,28.3601767 C18.741806,30.348786 16.8406764,31.3523349 14.4549403,31.3880791 C12.0056532,31.3471581 10.1177736,30.3209302 8.73879213,28.3318279 C8.3390838,27.7552372 8.2156625,27.1586791 8.88257917,26.7373907 M25.6892227,2.60217674 C26.2974958,2.61499535 26.6078894,3.04367907 26.6817458,3.63727907 C26.5578338,4.23531628 26.2091625,4.61445116 25.5959819,4.57180465 C25.0495421,4.53384186 24.6699542,4.15372093 24.6809958,3.60646512 C24.693019,3.01508372 25.0762875,2.58935814 25.6892227,2.60217674 M31.4488014,13.8396558 C30.7504773,13.8399023 30.2033014,13.5938837 30.2256301,12.8070186 C30.2467319,12.0894233 30.786056,11.8690419 31.4208292,11.8665767 C33.051806,11.8606605 34.6825375,11.8722465 36.3135144,11.8594279 C36.8481764,11.8549907 37.3021116,11.9900791 37.5148477,12.5116977 C37.724394,13.0249349 37.5023338,13.4506605 37.1615144,13.8534605 C35.9277921,15.3120698 34.7110005,16.7849767 33.270431,18.5132698 C34.4305421,18.5132698 35.3008708,18.5093256 36.1707088,18.5147488 C36.8489125,18.5189395 37.5734912,18.5458093 37.5693199,19.4704744 C37.565394,20.3337581 36.9318477,20.4989209 36.2050606,20.4937442 C34.6965236,20.4828977 33.1877412,20.4843767 31.6792042,20.4942372 C31.1290838,20.4979349 30.5846069,20.4735302 30.3053755,19.9117302 C29.9903199,19.2781953 30.4076949,18.8169721 30.7723153,18.3764558 C31.7621394,17.1811209 32.7647227,15.996386 33.7643616,14.809186 C33.9694912,14.5656326 34.2043106,14.3405674 34.2693338,13.8396558 C33.2876069,13.8396558 32.3682042,13.8394093 31.4488014,13.8396558 M40.8881995,27.3282791 C41.3386995,26.7462651 41.8080931,26.2815907 42.4953755,26.7672186 C43.2839958,27.3240884 42.8727551,27.9807953 42.4342782,28.5692186 C41.3386995,30.0389209 39.9528477,30.9285814 38.2408986,31.2488 L34.5196116,30.9813349 C33.2797551,30.5326837 32.2096949,29.7137721 31.3280792,28.5258326 C30.9099681,27.963293 30.5922134,27.3174326 31.2608477,26.7938419 C31.920894,26.2776465 32.4305282,26.6949907 32.8869171,27.2816884 C35.1197875,30.1500977 38.6857551,30.1747488 40.8881995,27.3282791 M49.1125236,16.5747023 C48.6306162,16.5737163 48.1487088,16.5722372 47.6670468,16.5710047 C49.0563338,19.5288977 49.7816486,22.6549116 50.0083708,25.906893 C50.0226023,26.1107581 50.0125421,26.3163488 50.0221116,26.5209535 C50.0594079,27.2999302 49.8525606,28.005693 48.9667736,28.0002698 C48.1533708,27.9953395 47.9504495,27.3004233 47.9502042,26.5848 C47.9492227,23.0360186 47.0266301,19.7216698 45.4381023,16.5754419 C43.8508014,16.5621302 42.2632551,16.5480791 40.6754634,16.535507 C40.0247412,16.5305767 39.3168477,16.6175953 38.9941856,15.856614 C38.7149542,15.1986744 39.2312134,14.8022837 39.5791486,14.363 C40.3123153,13.4373488 41.0442551,12.5107116 41.776931,11.5843209 C38.4840606,7.98155349 34.3792597,5.8788093 29.6367412,4.95611628 C29.4367644,4.91692093 29.2274634,4.9119907 29.0338662,4.85332093 C28.4400699,4.67336744 27.9363245,4.35512093 28.1142181,3.64097674 C28.2756718,2.99265116 28.7646949,2.76364186 29.4401995,2.87161395 C31.4652412,3.1947907 33.4083292,3.78444651 35.2954727,4.58413023 C38.2710792,5.84553023 40.8057551,7.75328372 43.1487968,9.9469907 C43.4172319,9.61493953 43.6856671,9.28288837 43.9543477,8.95108372 C37.8446255,3.04515814 30.6042366,0.403539535 22.1546625,1.54217674 C15.9860514,2.37390698 10.7697227,5.12670233 6.65780602,9.88265116 C6.58149583,9.97016279 6.50543102,10.0579209 6.42912083,10.1454326 L6.42225046,10.154307 C5.92218565,12.2644465 4.9007088,14.2113953 4.48725972,16.3474186 C3.16029676,23.2001953 4.02130139,29.7048977 7.55438935,35.7873256 C8.26277361,37.0075581 9.12255139,38.1124233 9.99876898,39.2044698 L11.2975144,44.5113721 C11.2975144,44.5113721 16.2201347,45.6810698 16.7108755,45.8585581 C16.8215375,45.898493 17.4894356,45.9554372 18.4596301,46.0192837 C21.7532366,47.7460977 25.2995745,48.7020698 29.1253894,48.8504698 C33.3469866,49.0144 37.4105653,48.4052698 41.2842273,46.6572558 C41.6473755,46.4933256 42.0686764,46.4578279 42.4629866,46.3629209 L42.4718199,46.3560186 C42.5589264,46.279107 42.6462782,46.2026884 42.7333847,46.1260233 C43.042306,45.8642279 43.3691394,45.6209209 43.6569588,45.3374326 C51.2543616,37.8565442 53.3351023,26.8746977 49.1125236,16.5747023" id="Fill-1" fill="#E9BC6B"></path>
                <path d="M6.42215231,10.154307 C5.9220875,12.2644465 4.90085602,14.2113953 4.48716157,16.3474186 C3.16019861,23.2001953 4.02144861,29.7048977 7.5542912,35.7873256 C8.56521713,37.5284372 9.88310139,39.0356093 11.1202588,40.6046558 C11.375444,40.9283256 14.1505829,43.768386 15.7474532,44.3886093 C19.7845319,47.1527442 24.2269625,48.6604093 29.1252912,48.8504698 C33.3468884,49.0144 37.4104671,48.4052698 41.2841292,46.6572558 C41.6475227,46.4933256 42.0685782,46.4578279 42.4631338,46.3629209 C38.8304255,49.7689721 34.4736292,51.707293 29.6270736,52.4741907 C16.7640227,54.5098837 4.43735139,46.5374512 0.995541204,33.8795721 C-1.33793102,25.2975163 0.474129167,17.5038047 5.97852269,10.5605581 C6.10169861,10.4055023 6.27345787,10.2889023 6.42215231,10.154307" id="Fill-3" fill="#C39953"></path>
                <g id="Group-7" transform="translate(38.768519, 0.037223)">
                    <mask id="mask-2" fill="white">
                        <use xlink:href="#path-1"></use>
                    </mask>
                    <g id="Clip-6"></g>
                    <path d="M6.66968194,16.5383172 C5.08213565,16.5247591 3.49483472,16.5107079 1.90704306,16.4983823 C1.25632083,16.4932056 0.548427315,16.5804707 0.225519907,15.8194893 C-0.0534662037,15.1615498 0.462547685,14.7651591 0.81048287,14.3256288 C1.54364954,13.4002242 2.27583472,12.4733405 3.00801991,11.5469498 C3.60255231,11.1175265 4.00618657,10.5258986 4.38037639,9.90961953 C4.64881157,9.57781488 4.91700139,9.24576372 5.18568194,8.91371256 C5.72230694,8.51830791 6.08251065,7.97179163 6.44983009,7.4306986 C7.88451065,5.75639163 9.31894583,4.08208465 10.7509273,2.4104893 C10.5271495,1.96652186 10.1556588,2.16299163 9.87520046,2.16101953 C7.13760324,2.14351721 4.39951528,2.15091256 1.66167269,2.14992651 C0.927524537,2.14968 0.186506019,2.09396837 0.210061574,1.10175907 C0.233126389,0.149977674 0.965556944,0.20988 1.63615417,0.210866047 C5.27327917,0.215549767 8.9101588,0.216289302 12.5470384,0.209633488 C13.0880801,0.208647442 13.6090014,0.177833488 13.8985384,0.787456744 C14.2008347,1.42394977 13.7446912,1.79815442 13.4288995,2.19208 C11.5905847,4.48537767 9.57167731,6.63052186 7.86880694,9.03524279 C7.36260787,9.47181488 6.89051528,9.93698233 6.60833935,10.5606567 C6.26089491,10.8165358 5.97135787,11.1202381 5.81947361,11.5358567 C5.19795046,11.9711963 4.72634861,12.5302847 4.42871435,13.2335823 C4.00078843,13.4796009 3.4933625,13.8661312 3.61874676,14.2980195 C3.75296435,14.7594893 4.39362639,14.4491312 4.80683009,14.5105126 C5.00042731,14.5393544 5.20555694,14.4917777 5.4055338,14.4789591 C6.1723162,14.4824102 6.93909861,14.4856149 7.70588102,14.489066 C8.23391806,14.4841358 8.76244583,14.4789591 9.29072824,14.4737823 C10.0315014,14.4757544 10.7722745,14.4777265 11.5128023,14.4796986 C11.9117745,14.4935033 12.3127097,14.5398474 12.7089829,14.5134707 C13.4158949,14.4666335 13.941969,14.7422335 13.9804921,15.4546521 C14.0165616,16.1217126 13.4902421,16.4037219 12.8704366,16.4742242 C12.7519227,16.4875358 12.6343903,16.5094753 12.5163671,16.5274707 C11.7922792,16.5306753 11.0681912,16.5341265 10.3441032,16.5375777 C9.86219583,16.5363451 9.38028843,16.5351126 8.89838102,16.5336335 C8.15539954,16.4365079 7.41217269,16.4337963 6.66968194,16.5383172" id="Fill-5" fill="#363533" mask="url(#mask-2)"></path>
                </g>
                <path d="M6.89502269,9.88265116 C6.73952269,10.0491615 6.58452269,10.2161408 6.42902269,10.3826512 C6.58452269,10.2161408 6.73952269,10.0491615 6.89502269,9.88265116" id="Fill-8" fill="#DF9B2B"></path>
                <path d="M42.4717218,46.5925233 C42.6382321,46.4365233 42.8052114,46.2815233 42.9717218,46.1260233 C42.8052114,46.2815233 42.6382321,46.4365233 42.4717218,46.5925233" id="Fill-10" fill="#DF9B2B"></path>
                <path d="M34.2693093,13.8395819 C33.2875824,13.8395819 32.3681796,13.8393353 31.4487769,13.8395819 C30.7504528,13.8398284 30.2032769,13.5938098 30.2258509,12.8069447 C30.2467074,12.0893493 30.7860315,11.8689679 31.4208046,11.8667493 C33.0517815,11.860833 34.6827583,11.8724191 36.3134898,11.859354 C36.8481519,11.8551633 37.302087,11.9900051 37.5150685,12.5118702 C37.7243694,13.0248609 37.5023093,13.4505865 37.1614898,13.8533865 C35.9277676,15.3119958 34.7109759,16.7849028 33.2704065,18.5131958 C34.4305176,18.5131958 35.3008463,18.5092516 36.1706843,18.5146749 C36.848888,18.5188656 37.5734667,18.5457353 37.5692954,19.470647 C37.5653694,20.3336842 36.9320685,20.4990935 36.2050361,20.4939167 C34.6964991,20.4828237 33.1877167,20.4843028 31.6791796,20.4944098 C31.1290593,20.4978609 30.5845824,20.4737028 30.3053509,19.9116563 C29.9905407,19.2781214 30.4076704,18.8168981 30.7722907,18.3763819 C31.7621148,17.181047 32.7646981,15.9965586 33.764337,14.8091121 C33.9694667,14.5655586 34.2042861,14.3404935 34.2693093,13.8395819" id="Fill-12" fill="#363533"></path>
                <path d="M43.1488949,9.94691674 C42.7747051,10.5631958 42.3710708,11.1545772 41.7765384,11.584247 C38.4839134,7.98147953 34.3793579,5.87873535 29.6368394,4.95604233 C29.4366171,4.91709349 29.2275616,4.91191674 29.0339644,4.85324698 C28.4401681,4.67329349 27.9364227,4.35504698 28.1143162,3.64090279 C28.2757699,2.99282372 28.7647931,2.76356791 29.4402977,2.87154 C31.4653394,3.19471674 33.4084273,3.78437256 35.2953255,4.58430279 C38.2711773,5.84545628 40.8056079,7.75345628 43.1488949,9.94691674" id="Fill-14" fill="#FEF9F3"></path>
                <path d="M36.7937042,31.3857372 C34.5534727,31.348514 32.7104958,30.3883512 31.3280792,28.5259558 C30.9099681,27.9631698 30.5922134,27.3175558 31.2608477,26.7939651 C31.920894,26.2775233 32.4305282,26.695114 32.8869171,27.2815651 C35.1197875,30.1502209 38.6857551,30.1746256 40.8881995,27.3284023 C41.3386995,26.7461419 41.8080931,26.2814674 42.4953755,26.7673419 C43.2839958,27.3242116 42.8727551,27.9806721 42.4342782,28.5693419 C41.0447458,30.4329698 39.1912181,31.3682349 36.7937042,31.3857372" id="Fill-16" fill="#363533"></path>
                <path d="M14.4549157,31.3880051 C12.0056287,31.3470842 10.1177491,30.3208563 8.73876759,28.331754 C8.33905926,27.7551633 8.21563796,27.1588516 8.88255463,26.7373167 C9.45647593,26.3746981 9.97936019,26.5958191 10.3329389,27.1724098 C12.1454898,30.1298098 16.7312167,30.1756609 18.5697769,27.155647 C18.9255639,26.5706749 19.4805917,26.3719865 20.0285037,26.743726 C20.6635222,27.1746284 20.518263,27.7960842 20.1256704,28.3601028 C18.7417815,30.3487121 16.8406519,31.3522609 14.4549157,31.3880051" id="Fill-18" fill="#363533"></path>
                <path d="M45.4382005,16.5755405 C46.1806912,16.4710195 46.9239181,16.4737312 47.6668995,16.5708567 C49.0561866,19.5287498 49.7815014,22.6550102 50.008469,25.9069916 C50.0227005,26.1108567 50.0126403,26.3164474 50.0222097,26.5210521 C50.059506,27.3000288 49.8524134,28.0055451 48.9668718,28.0003684 C48.1532236,27.9954381 47.9503023,27.3005219 47.9500569,26.5848986 C47.9490755,23.0361172 47.0267282,19.7217684 45.4382005,16.5755405" id="Fill-20" fill="#FEF9F3"></path>
                <path d="M26.6817458,3.63715581 C26.5578338,4.23519302 26.2091625,4.61457442 25.5959819,4.57192791 C25.0495421,4.53396512 24.6699542,4.15384419 24.6809958,3.60634186 C24.693019,3.01520698 25.0762875,2.58923488 25.6892227,2.6023 C26.2974958,2.6151186 26.6078894,3.04355581 26.6817458,3.63715581" id="Fill-22" fill="#FEF9F3"></path>
                <path d="M43.1972819,13.2707316 C43.4949162,12.567434 43.9665181,12.0083456 44.5885319,11.5732526 C45.1541106,12.5987409 46.0590366,13.4045874 46.4742032,14.5264619 C45.7074208,14.5230107 44.9406384,14.5195595 44.1741014,14.5163549 C43.877694,14.0780572 43.643856,13.5902107 43.1972819,13.2707316" id="Fill-24" fill="#FEF9F3"></path>
                <path d="M46.4743259,14.5264126 C46.0591593,13.4047847 45.153988,12.5986916 44.5884093,11.5732033 C44.7400481,11.1573381 45.0293398,10.8538823 45.3767843,10.5977567 C46.4115111,11.8049242 47.3039231,13.1109428 48.0594185,14.5111288 C47.5311361,14.5160591 47.002363,14.5212358 46.4743259,14.5264126" id="Fill-26" fill="#F2AE38"></path>
                <path d="M43.1972819,13.2707316 C43.643856,13.5902107 43.877694,14.0780572 44.1741014,14.5163549 C43.9741245,14.528927 43.7689949,14.5765037 43.5753977,14.5476619 C43.1619486,14.486527 42.5215319,14.7966386 42.3873144,14.3351688 C42.2616847,13.9032805 42.769356,13.5167502 43.1972819,13.2707316" id="Fill-28" fill="#F2AE38"></path>
                <path d="M25.7744398,38.8764121 C28.8494213,38.7933377 31.8758194,39.1759237 34.8676204,39.8651702 C35.7273981,40.0631191 36.4568843,40.4784912 37.0003796,41.2037284 C37.3657361,41.6910819 37.3986157,42.1375144 37.0401296,42.658147 C36.638213,43.24164 36.3371435,43.4393423 35.739912,42.808026 C33.0715093,39.9862074 18.3829028,40.0009981 15.6909444,42.7279098 C15.4465556,42.9754074 15.2181157,43.5736912 14.735963,43.0851051 C14.3220231,42.6660353 13.8109167,42.2210819 14.2211759,41.491654 C14.7423426,40.5657563 15.5658056,40.0877702 16.557838,39.8590074 C19.5906157,39.1603935 22.6582361,38.7852028 25.7744398,38.8764121" id="Fill-30" fill="#363533"></path>
                <path d="M23.3472116,35.3565281 C23.5042116,35.2745281 23.6627116,35.2700281 23.8237116,35.3430281 C23.6707116,35.5605281 23.5122116,35.5620281 23.3472116,35.3565281" id="Fill-32" fill="#202020"></path>
                <path d="M27.7629213,35.3430527 C27.9239213,35.2700527 28.0824213,35.2745527 28.2389213,35.3565527 C28.0744213,35.5615527 27.9159213,35.5605527 27.7629213,35.3430527" id="Fill-34" fill="#202020"></path>
            </g>
        </g>
    </g>
</svg>