<?xml version="1.0" encoding="UTF-8"?>
<svg width="72px" height="68px" viewBox="0 0 72 68" version="1.1" xmlns="http://www.w3.org/2000/svg" xmlns:xlink="http://www.w3.org/1999/xlink">
    <!-- Generator: sketchtool 45.2 (43514) - http://www.bohemiancoding.com/sketch -->
    <title>E5C12022-A6B2-4E41-8DBF-36EC72EB2C59</title>
    <desc>Created with sketchtool.</desc>
    <defs>
        <polygon id="path-1" points="72.6110199 72.7362429 0.143605914 72.7362429 0.143605914 0.127819203 72.6110199 0.127819203"></polygon>
    </defs>
    <g id="survey" stroke="none" stroke-width="1" fill="none" fill-rule="evenodd">
        <g id="Mind" transform="translate(-354.000000, -2652.000000)">
            <g id="Group-31" transform="translate(174.000000, 2577.000000)">
                <g id="Group-30">
                    <g id="Page-1" transform="translate(180.000000, 70.000000)">
                        <g id="Group-3" transform="translate(0.000000, 0.026342)">
                            <mask id="mask-2" fill="white">
                                <use xlink:href="#path-1"></use>
                            </mask>
                            <g id="Clip-2"></g>
                            <path d="M53.1168801,21.9754276 C52.8001543,21.6746534 52.6133371,21.5051976 52.4351543,21.3266989 C47.8640199,16.7482473 43.2948478,12.1674367 38.7221435,7.59055772 C37.1553909,6.02181389 35.6172887,6.0229934 34.0536758,7.58937822 C23.3941059,18.267845 12.735321,28.9470981 2.07967581,39.6291035 C1.83124032,39.8783725 1.60164355,40.1520181 1.39873495,40.4394245 C0.787261828,41.3055756 0.726428495,42.2318814 1.18365968,43.1798116 C1.65462742,44.1560499 2.45527258,44.673067 3.52947151,44.7402989 C4.55657366,44.8047786 5.30737473,44.2728211 5.99812742,43.5800575 C15.9198478,33.6336712 25.8470629,23.6935756 35.773493,13.7523004 C35.9677672,13.5572887 36.1706758,13.3713198 36.4987833,13.057571 C36.7071866,13.3390799 36.8508317,13.5918875 37.0490306,13.7904378 C46.9542672,23.720311 56.863821,33.6462526 66.7776919,43.5674761 C67.0924554,43.8824044 67.4366543,44.1796401 67.806364,44.4257638 C69.0897511,45.2789403 71.0085522,44.7174951 71.6573102,43.3197797 C72.2350306,42.0742207 72.0042565,40.941108 70.9190683,39.8504575 C67.9543263,36.8714169 64.9891919,33.8923763 62.0052188,30.9329942 C61.6021489,30.5331414 61.4463371,30.1281775 61.4486919,29.5651596 C61.4687081,25.0040074 61.4600737,20.4428553 61.4596812,15.8817031 C61.4596812,13.4475945 61.4773425,11.0130928 61.4502618,8.57898429 C61.4322081,6.93711104 60.3419177,5.84016987 58.7002027,5.77451066 C57.8285199,5.7399118 56.9544823,5.74816835 56.0820145,5.76625412 C54.2185522,5.80596417 53.1278694,6.930034 53.1192349,8.81842414 C53.1102081,10.7563535 53.1168801,12.694283 53.1168801,14.6322124 C53.1168801,17.017568 53.1168801,19.4025304 53.1168801,21.9754276" id="Fill-1" fill="#FEFEFE" mask="url(#mask-2)"></path>
                        </g>
                        <path d="M44.7570849,56.0218081 C44.7570849,53.3529778 44.7598323,50.6841474 44.7563,48.015317 C44.7535527,45.9417444 43.6369667,44.8172814 41.5694183,44.8145292 C38.127429,44.809418 34.6850473,44.8102043 31.2430581,44.814136 C29.1280204,44.816495 28.0200688,45.929163 28.0192839,48.0491296 C28.016929,53.3632002 28.016929,58.6772707 28.0192839,63.9913413 C28.0200688,66.0425034 29.1025097,67.1736502 31.135128,67.1850521 C34.6481548,67.2039243 38.1611817,67.2066764 41.6738161,67.1834795 C43.6667946,67.1705049 44.7531602,66.0311015 44.7563,64.0282992 C44.7602247,61.3594688 44.7570849,58.6906385 44.7570849,56.0218081 L44.7570849,56.0218081 Z M13.0260258,72.7625459 C12.2893538,72.5352943 11.5177516,72.3858901 10.8222892,72.0682096 C7.48587527,70.5454666 5.77351505,67.8864654 5.72484839,64.2453284 C5.6589129,59.3543076 5.70208495,54.4613208 5.72249355,49.5691205 C5.72367097,49.2766028 5.85868172,48.9078104 6.06159032,48.7041489 C16.074757,38.6484616 26.1028376,28.6065353 36.1297409,18.5638225 C36.1952839,18.4981633 36.2710312,18.4431197 36.3974075,18.3365709 C36.5838323,18.5150696 36.7686871,18.6857049 36.9464774,18.8634172 C46.8061871,28.7394263 56.6631495,38.6181876 66.5311011,48.4859402 C66.9090527,48.8637755 67.0825258,49.2361064 67.0797785,49.7810385 C67.0589774,54.5552882 67.0994022,59.3295379 67.0574075,64.1033945 C67.0252247,67.8035068 65.3458323,70.5147994 61.9536871,72.0682096 C61.2586172,72.3866764 60.4862301,72.5352943 59.7495581,72.7625459 L13.0260258,72.7625459 Z" id="Fill-4" fill="#BCBBBB"></path>
                        <path d="M53.1168801,14.6585547 C53.1168801,12.7206253 53.1102081,10.7826959 53.1192349,8.84476645 C53.1278694,6.95637632 54.2185522,5.83230649 56.0820145,5.79259643 C56.9544823,5.77451066 57.8285199,5.76625412 58.7002027,5.80085298 C60.3419177,5.86651218 61.4322081,6.96345336 61.4502618,8.6053266 C61.4773425,11.0394351 61.4596812,13.4739369 61.4596812,15.9080454 C61.4600737,20.4691976 61.4687081,25.0303498 61.4486919,29.5915019 C61.4463371,30.1545198 61.6021489,30.5594837 62.0052188,30.9593365 C64.9891919,33.9187186 67.9543263,36.8977592 70.9190683,39.8767998 C72.0042565,40.9674503 72.2350306,42.100563 71.6573102,43.346122 C71.0085522,44.7438374 69.0897511,45.3052826 67.806364,44.4521061 C67.4366543,44.2059824 67.0924554,43.9087467 66.7776919,43.5938184 C56.863821,33.6725949 46.9542672,23.7466534 37.0490306,13.8167801 C36.8508317,13.6182298 36.7071866,13.3654222 36.4987833,13.0839133 C36.1706758,13.3976621 35.9677672,13.583631 35.773493,13.7786427 C25.8470629,23.7199179 15.9198478,33.6600135 5.99812742,43.6063998 C5.30737473,44.2991634 4.55657366,44.8311209 3.52947151,44.7666412 C2.45527258,44.6994093 1.65462742,44.1823923 1.18365968,43.2061539 C0.726428495,42.2582238 0.787261828,41.3319179 1.39873495,40.4657668 C1.60164355,40.1783604 1.83124032,39.9047148 2.07967581,39.6554458 C12.735321,28.9734405 23.3941059,18.2941873 34.0536758,7.61572053 C35.6172887,6.04933571 37.1553909,6.0481562 38.7221435,7.61690004 C43.2948478,12.193779 47.8640199,16.7745896 52.4351543,21.3530412 C52.6133371,21.5315399 52.8001543,21.7009957 53.1168801,22.0017699 C53.1168801,19.4288727 53.1168801,17.0439103 53.1168801,14.6585547 Z" id="Fill-6" fill="#8C7979"></path>
                    </g>
                </g>
            </g>
        </g>
    </g>
</svg>