<?xml version="1.0" encoding="UTF-8"?>
<svg width="49px" height="49px" viewBox="0 0 49 49" version="1.1" xmlns="http://www.w3.org/2000/svg" xmlns:xlink="http://www.w3.org/1999/xlink">
    <!-- Generator: sketchtool 45.2 (43514) - http://www.bohemiancoding.com/sketch -->
    <title>A081EBB8-432B-4416-8811-ECDCA9E4098B</title>
    <desc>Created with sketchtool.</desc>
    <defs></defs>
    <g id="survey" stroke="none" stroke-width="1" fill="none" fill-rule="evenodd">
        <g id="Mind" transform="translate(-810.000000, -461.000000)">
            <g id="Group-24" transform="translate(810.000000, 461.000000)">
                <g id="Group-3" transform="translate(3.516746, 0.220500)" fill="#E9BC6B">
                    <path d="M44.5971976,18.00302 L44.5986043,18.0025533 C43.5827335,13.2812867 40.5454368,9.48845333 38.4356234,7.32638667 C38.4508627,7.30795333 38.4661019,7.28905333 38.4813411,7.27062 C37.8469201,6.66302 37.198901,6.09438667 36.5386904,5.56052 C36.3722311,5.42215333 36.2763411,5.34818667 36.2763411,5.34818667 L36.2761067,5.34818667 C30.9226809,1.11972 24.7318005,-0.687213333 17.6518866,0.25802 C11.7578196,1.04505333 6.77365215,3.65092 2.84474306,8.15238667 C2.77182919,8.23545333 2.69914976,8.31828667 2.62623589,8.40112 L2.61967129,8.40952 C2.14186268,10.4068533 1.16584833,12.24972 0.770800478,14.2715533 C-0.497103828,20.7579867 0.325580383,26.9149533 3.70142249,32.6724533 C4.37827895,33.82722 5.19979091,34.87302 6.037011,35.9066867 L7.27795359,40.9298867 C7.27795359,40.9298867 11.9814847,42.0370533 12.4503842,42.2050533 C12.5561211,42.2430867 13.1942933,42.2967533 14.1213077,42.3571867 C17.2683268,43.9916867 20.6568292,44.8965533 24.3123699,45.03702 C28.346078,45.1921867 32.2288005,44.6158533 35.9300589,42.9610533 C36.2770445,42.8058867 36.6795947,42.7722867 37.0563555,42.6826867 L37.0647957,42.67592 C37.1480254,42.6033533 37.2314895,42.5307867 37.3147191,42.4584533 C37.6098914,42.21042 37.9221785,41.98012 38.197188,41.7117867 C44.5887574,35.47712 46.891523,26.67322 44.5971976,18.00302" id="Fill-1"></path>
                </g>
                <path d="M6.13632392,8.63006667 C5.65851531,10.6274 4.68273541,12.4702667 4.28745311,14.4921 C3.0195488,20.9785333 3.84246746,27.1355 7.21807512,32.8927667 C8.18400813,34.5408 9.4432378,35.9674 10.6253335,37.4525667 C10.8691612,37.7589333 13.520788,40.4471667 15.0465871,41.0342333 C18.903989,43.6506 23.1487019,45.0776667 27.8290225,45.2575667 C31.8627306,45.4127333 35.7454531,44.8361667 39.4467115,43.1816 C39.7939316,43.0264333 40.1962474,42.9928333 40.5732426,42.903 C37.1022139,46.1269667 32.9393239,47.9616667 28.3084722,48.6875667 C16.0179124,50.6144333 4.23985981,43.0682 0.951233014,31.087 C-1.27838421,22.9637333 0.453027273,15.5866667 5.71243876,9.0146 C5.83013254,8.86783333 5.99424737,8.75746667 6.13632392,8.63006667" id="Fill-4" fill="#C39953"></path>
                <path d="M6.60888852,8.37293333 C6.45338852,8.53944365 6.29838852,8.70642301 6.14288852,8.87293333 C6.29838852,8.70642301 6.45338852,8.53944365 6.60888852,8.37293333" id="Fill-6" fill="#DF9B2B"></path>
                <path d="M40.5814483,43.1452667 C40.7479586,42.9892667 40.914938,42.8342667 41.0814483,42.6787667 C40.914938,42.8342667 40.7479586,42.9892667 40.5814483,43.1452667" id="Fill-8" fill="#DF9B2B"></path>
                <path d="M34.1376201,20.47367 C36.2781464,20.5089033 38.0390986,21.4177367 39.3599885,23.18057 C39.7594909,23.71327 40.0631033,24.32437 39.4242278,24.81997 C38.7935579,25.3088033 38.3066057,24.9135367 37.8705292,24.3584367 C35.7370364,21.6431367 32.329778,21.6200367 30.2253569,24.3141033 C29.7949072,24.8652367 29.3464048,25.30507 28.689711,24.84517 C27.9361895,24.31807 28.3291273,23.6967033 28.748089,23.1395033 C30.075778,21.3755033 31.8468115,20.4902367 34.1376201,20.47367" id="Fill-10" fill="#363533"></path>
                <path d="M16.0010789,20.47367 C18.1416053,20.5089033 19.9025574,21.4177367 21.2234474,23.18057 C21.6229498,23.71327 21.9265622,24.32437 21.2876866,24.81997 C20.6570167,25.3088033 20.1700646,24.9135367 19.733988,24.3584367 C17.6004952,21.6431367 14.1932368,21.6200367 12.0888158,24.3141033 C11.658366,24.8652367 11.2098636,25.30507 10.5531699,24.84517 C9.79964833,24.31807 10.1925861,23.6967033 10.6115478,23.1395033 C11.9392368,21.3755033 13.7102703,20.4902367 16.0010789,20.47367" id="Fill-12" fill="#363533"></path>
                <path d="M21.9774847,3.16131667 C21.8590876,3.72738333 21.5259344,4.08648333 20.9400445,4.04611667 C20.4179249,4.01018333 20.0552311,3.65038333 20.0657813,3.13215 C20.0772694,2.57261667 20.4434799,2.16941667 21.0291354,2.18178333 C21.6103364,2.19391667 21.9069153,2.59945 21.9774847,3.16131667" id="Fill-14" fill="#FEF9F3"></path>
                <path d="M44.40591,12.7684433 C44.0092211,11.7067767 43.1443359,10.9437767 42.6039292,9.97311 C42.7488191,9.57947667 43.0252354,9.29224333 43.3572163,9.04981 C44.3458909,10.1924433 45.1985847,11.4286433 45.9204555,12.7539767 C45.4156852,12.7586433 44.9104459,12.7635433 44.40591,12.7684433" id="Fill-16" fill="#F2AE38"></path>
                <path d="M41.2747163,11.57989 C41.7014148,11.88229 41.9248455,12.3440567 42.2080608,12.7589233 C42.0169842,12.7708233 41.8209842,12.8158567 41.6360033,12.7885567 C41.2409555,12.73069 40.6290416,13.0242233 40.5007976,12.5874233 C40.3807593,12.1786233 40.8658359,11.8127567 41.2747163,11.57989" id="Fill-18" fill="#F2AE38"></path>
                <path d="M15.7606976,39.0280567 C14.9391856,38.84069 14.2421665,38.4475233 13.7228603,37.7610567 C13.3737646,37.2997567 13.3423483,36.87719 13.6848794,36.38439 C14.0689081,35.83209 14.356578,35.6449567 14.9272287,36.2425233 C17.4768699,38.91349 28.0606642,35.0274224 30.6328125,32.4462891 C33.2049608,29.8651557 35.8802383,36.79809 35.4882383,37.4885233 C34.990267,38.3649233 34.2034536,38.8173567 33.2555732,39.03389 C30.3577742,39.6951567 27.4266833,40.05029 24.4491713,39.9639567 C21.5110469,40.04259 18.6193435,39.6804567 15.7606976,39.0280567 Z" id="Fill-20" fill="#363533"></path>
                <path d="M24.4314357,35.7744235 C27.1141771,34.8154616 29.5645104,33.5183229 30.6328125,32.4462891 C31.9998611,31.0744651 33.3960407,32.3901018 34.3453824,34.0276854 L25.5163889,35.9043459 C25.1354247,35.9853224 24.7571635,35.9312282 24.4314357,35.7744235 Z" id="Combined-Shape" fill="#FFFFFF"></path>
                <path d="M46.6674124,19.6868467 C46.6397474,19.5207133 46.632245,19.35108 46.5970775,19.18658 C44.1974842,7.77214667 36.2081397,4.27238 32.4297474,3.16708 C30.7984459,2.69014667 29.1380727,2.39708 27.4373742,2.32614667 C26.8700057,2.30211333 26.4887904,2.53614667 26.4170488,3.08121333 C26.3387426,3.68158 26.7841971,3.89344667 27.2910775,3.98421333 C27.4563646,4.01338 27.629623,3.99774667 27.7981923,4.01058 C31.7979053,4.31251333 42.8322833,7.79338 44.9641349,19.9367467 C45.0661206,20.51658 45.2665751,21.06958 45.9382737,20.9963133 C46.6688191,20.9160467 46.7722115,20.3201133 46.6674124,19.6868467" id="Fill-22" fill="#FEF9F3"></path>
            </g>
        </g>
    </g>
</svg>