<?xml version="1.0" encoding="UTF-8"?>
<svg width="79px" height="93px" viewBox="0 0 79 93" version="1.1" xmlns="http://www.w3.org/2000/svg" xmlns:xlink="http://www.w3.org/1999/xlink">
    <!-- Generator: sketchtool 45.2 (43514) - http://www.bohemiancoding.com/sketch -->
    <title>F6EC7B47-FC71-407D-958A-212EA5639D25</title>
    <desc>Created with sketchtool.</desc>
    <defs></defs>
    <g id="survey" stroke="none" stroke-width="1" fill="none" fill-rule="evenodd">
        <g id="Mind" transform="translate(-201.000000, -2627.000000)">
            <g id="Group-31" transform="translate(174.000000, 2577.000000)">
                <g id="Group-30">
                    <polyline id="Path-6" stroke="#FFFFFF" stroke-width="2" stroke-linecap="round" stroke-linejoin="round" points="26 66.1275459 29.2808716 69.5360789 36.8169504 62"></polyline>
                    <g id="Page-1" transform="translate(27.000000, 50.000000)">
                        <path d="M76.4317532,63.4168218 C74.8856092,61.9953373 73.459254,60.6842047 72.0332033,59.3730722 C72.0602966,59.3353242 72.0875421,59.2975763 72.1147876,59.2596761 C73.5444913,60.1785648 74.9781525,61.0913651 76.4023768,62.0187776 C77.1442458,62.5021949 78.1593309,62.8595828 78.5217417,63.5510705 C78.900439,64.2734568 78.644727,65.3288774 78.663601,66.2387858 C78.6687761,66.4899314 78.664362,66.7412293 78.664362,67.0756336 L71.4322802,67.0756336 L71.4322802,88.9269805 L73.1117597,88.9269805 C73.1434193,89.6405386 73.1720347,90.2819494 73.2030854,90.9825697 L75.8114995,90.9825697 L75.8114995,92.9434846 L2.83755025,92.9434846 L2.83755025,91.0366041 L5.49999869,91.0366041 C5.49999869,90.5005223 5.52983175,90.0521131 5.49238822,89.6097923 C5.44672537,89.0708185 5.65936203,88.9070411 6.18692013,88.9170869 C7.38191686,88.9402227 7.32225074,89.1283537 7.32240295,87.7816041 C7.32316399,81.237357 7.32270736,74.6929576 7.32270736,68.1488627 L7.32270736,67.1133815 L0.00432274959,67.1133815 C0.00432274959,65.9354322 -0.0133335516,64.8270427 0.0227400982,63.7200231 C0.0283718494,63.5480264 0.248010147,63.3367596 0.42107234,63.2236679 C2.45474337,61.8936614 4.49861244,60.5787236 6.63639476,59.3675926 C5.20897414,60.6813128 3.78155352,61.9950329 2.23693159,63.4168218 L76.4317532,63.4168218 Z" id="Fill-1" fill="#8C7979"></path>
                        <path d="M41.1731092,43.7735475 L37.4658948,43.7735475 C37.7238899,44.0698993 37.9541828,44.378428 38.2295298,44.6391628 C38.5727622,44.9641301 38.6092925,45.2738764 38.4219226,45.7155884 C37.3938997,48.1384591 36.4132139,50.5817259 35.3787982,53.0018568 C35.1523105,53.5315458 35.2310028,53.8545344 35.6451648,54.2447995 C36.837574,55.369171 37.9849291,56.5411841 39.3102172,57.85323 C38.4430797,57.85323 37.8021255,57.8657111 37.1617802,57.8512512 C33.910281,57.7771252 30.6870928,57.4751416 27.5427491,56.5898912 C27.082011,56.4602087 26.6342106,56.275883 26.1918899,56.089883 C24.3005347,55.2945884 23.8964185,54.4359746 24.5061697,52.5085458 C25.4037491,49.6722741 27.2045396,47.4905033 29.5201026,45.7063036 C31.3017147,44.3335262 33.285461,43.3353363 35.4518588,42.7281727 C34.7404316,41.9729092 33.9792319,41.2707668 33.3442139,40.4686227 C32.0426705,38.8243036 31.2831452,36.9349272 31.0727917,34.8393069 C30.5315347,29.4513953 35.2037573,25.0012463 40.5654889,25.7939534 C44.2723989,26.3422119 47.2185658,29.3888372 47.5459684,33.0700237 C47.8768718,36.7929157 46.3975478,39.7681547 43.6675183,42.20168 C43.5028277,42.34841 43.3396591,42.4971187 43.1189553,42.6960565 C45.3556738,43.3370106 47.3455085,44.3122169 49.113574,45.689865 C51.6060044,47.6320581 53.5778784,49.96132 54.2804774,53.1481301 C54.5973776,54.5857488 54.2410552,55.4280761 52.8384447,55.9064705 C51.076011,56.5080025 49.2680666,57.0853331 47.4334856,57.3395229 C44.9305527,57.6867128 42.3837835,57.7198944 39.8555838,57.8836718 C39.7662368,57.8894558 39.6741501,57.8507946 39.3946935,57.7956948 C40.6030846,56.6045033 41.6831632,55.4786097 42.834628,54.4311039 C43.4099799,53.9078077 43.5084594,53.4819255 43.1815134,52.7472103 C42.1842368,50.5047079 41.3166427,48.2049746 40.333826,45.955775 C40.0543694,45.3163429 40.0854201,44.8772185 40.609173,44.4338322 C40.8285069,44.2482889 40.9892401,43.9930336 41.1731092,43.7735475" id="Fill-3" fill="#1F6DA3"></path>
                        <g id="Group-7" transform="translate(28.006547, 0.095740)" fill="#A4A2A2">
                            <path d="M16.3757475,19.0765831 C17.2628244,18.192246 18.2331599,17.2249547 19.1088211,16.3521854 C18.8366705,15.9132133 18.6837,15.666025 18.530425,15.4188368 C18.8228195,15.4471478 19.1152139,15.475611 19.4487049,15.5078794 C20.0470404,14.2819841 20.5053432,13.0000758 20.4612025,11.5906159 C20.1374529,11.5184686 19.9047245,11.4664129 19.671844,11.4145095 C19.6561664,11.3549956 19.6404889,11.2954817 19.6249635,11.2359678 C19.9019848,11.1167877 20.1788538,10.9976077 20.627263,10.8049105 C20.2706362,9.52269771 19.9112696,8.2301347 19.5318113,6.86588101 C19.1182581,7.07486465 18.8998375,7.18521653 18.6814169,7.29556841 C18.6155101,7.24640475 18.5494512,7.19739329 18.4833923,7.14822962 C18.664065,6.89799722 18.8448899,6.64791702 19.1439815,6.23375499 C18.2200699,5.31806268 17.2523219,4.35914288 16.284574,3.40022308 C16.246065,3.47724108 16.2077082,3.55441129 16.169047,3.6314293 C15.9287082,3.79322799 15.6883694,3.95502668 15.4480306,4.11682537 C15.4052597,4.05259296 15.3624889,3.98866498 15.319718,3.92458478 C15.4191108,3.68181064 15.5186558,3.43934092 15.6865429,3.0302018 C14.3143743,2.65698412 13.0204414,2.30492357 11.7263563,1.95286301 C11.6350306,2.03551277 11.5434005,2.11816252 11.4520748,2.20096448 C11.5835838,2.77479427 11.664407,3.36673699 11.8606051,3.91758314 C12.0673056,4.49750131 12.3845101,5.03799722 12.6660977,5.62187283 C12.3301714,5.67362406 12.0902892,5.71061097 11.8088538,5.75399067 C11.8088538,7.49085319 11.8062663,9.18692357 11.8134201,10.8829939 C11.814029,11.0292673 11.8493416,11.1922836 11.9202712,11.3184653 C12.4530044,12.2644473 12.9986755,13.2031232 13.5470863,14.1558025 C13.8263907,14.0506257 14.0709913,13.958539 14.3547098,13.8515357 C14.4200077,14.8437894 14.4805871,15.7649612 14.5527344,16.8620872 C13.6242565,16.2473131 12.843574,15.7304097 12.0091615,15.177737 C12.2896836,14.9644915 12.4843596,14.8166961 12.714957,14.6413507 C12.2577196,13.8501658 11.7536018,13.1152984 11.3965183,12.3151331 C11.1184316,11.6919874 10.9053383,10.9931936 10.8710912,10.3175357 C10.7943776,8.80381227 10.8470421,7.28369607 10.8470421,5.74409705 C10.5420142,5.70254386 10.3021321,5.66981882 10.056466,5.63633273 C10.2447491,4.41941784 11.6073285,3.53097103 10.9496313,2.10248494 C9.53560507,2.16884828 8.22508134,2.51405941 7.01242831,3.22168134 C7.14013208,3.51666334 7.23587185,3.73812815 7.33161162,3.95944075 C7.26661817,4.02321653 7.20162471,4.08699231 7.13663126,4.15076809 C6.91105679,3.95259133 6.68548232,3.75456678 6.30602406,3.42107578 C5.3589766,4.37679918 4.40036121,5.34409051 3.44174583,6.31153404 C3.51495859,6.35126072 3.58832357,6.3909874 3.66168854,6.43056187 L4.17128592,7.13300867 C4.10690131,7.18217234 4.04236448,7.23133601 3.97797987,7.28049967 C3.74022864,7.17562733 3.50262962,7.07075499 3.08801097,6.88764697 C2.71631538,8.27214452 2.36912553,9.565773 2.03411244,10.8134342 C2.49241522,11.0135897 2.74767054,11.125007 3.00292586,11.2365766 C2.97918118,11.3046142 2.9554365,11.3726519 2.93169182,11.4406895 C2.69272291,11.4883311 2.4536018,11.5358205 1.99392913,11.6269939 C2.36714681,12.9874424 2.72681784,14.2978139 3.08648887,15.6083376 C3.15604861,15.5675455 3.22560835,15.5267534 3.29516809,15.4861134 C3.56610098,15.4617599 3.83718609,15.4377108 4.10811899,15.4135095 C3.96154124,15.6605455 3.81511571,15.9077337 3.61633011,16.242899 C4.29137921,17.3582902 5.26795532,18.3327354 6.38958707,18.9986519 C6.71409771,18.7825144 6.93891113,18.6325881 7.16387676,18.4826617 C7.14698151,18.7685111 7.12993404,19.0542083 7.10892913,19.4087043 C8.28352979,20.049354 9.58903061,20.4108516 10.9534365,20.4391625 C11.0674414,20.0822313 11.1488735,19.8271282 11.2304578,19.5718728 C11.4566411,19.7147975 11.5214823,19.8359563 11.5592303,19.9648777 C11.5995658,20.1032362 11.6143301,20.2490529 11.6485773,20.4370316 C13.0921321,20.3986748 14.3994594,20.0446355 15.5207867,19.4178368 C15.4981075,19.0230054 15.4828866,18.7563344 15.4675134,18.4896633 C15.7099831,18.6462869 15.9523007,18.8030627 16.3757475,19.0765831 M11.3347213,22.5076895 C5.19793895,22.524737 0.0696967267,17.4006044 0.0829389525,11.2656486 C0.0961811784,5.13602013 5.15455925,0.0698793781 11.2749029,0.0564849427 C17.4571959,0.0430905074 22.5361223,5.07604959 22.5648899,11.2443393 C22.5936574,17.3797517 17.4976836,22.4907943 11.3347213,22.5076895" id="Fill-5"></path>
                        </g>
                    </g>
                </g>
            </g>
        </g>
    </g>
</svg>