<?xml version="1.0" encoding="UTF-8"?>
<svg width="95px" height="306px" viewBox="0 0 95 306" version="1.1" xmlns="http://www.w3.org/2000/svg" xmlns:xlink="http://www.w3.org/1999/xlink">
    <!-- Generator: sketchtool 45.2 (43514) - http://www.bohemiancoding.com/sketch -->
    <title>D9C5A2BA-76AA-424C-A8C2-D8C61F6A5E88</title>
    <desc>Created with sketchtool.</desc>
    <defs>
        <path d="M3.366,1.306 C3.366,1.306 5.518,10.419 5.857,13.89 C5.857,13.881 5.902,13.628 5.946,13.373 C5.991,13.112 6.036,12.851 6.034,12.857 L6.256,11.112 C6.094,11.497 5.252,8.537 4.475,5.574 C3.742,2.789 3.066,0.001 3.059,0.001 C3.057,0.001 3.15,0.388 3.366,1.306 Z M0.447,44.494 C1.786,51.034 2.265,46.22 2.265,46.22 C1.918,43.762 5.02,23.544 5.02,23.544 L5.857,13.89 C4.094,23.807 -0.174,41.464 0.447,44.494 Z" id="path-1"></path>
        <path d="M0.709,5.982 L0.471,0.839 C0.306,1.592 0.426,3.462 0.709,5.982 Z M0.76,7.07 L1.666,19.148 C1.666,19.148 3.057,33.484 2.658,35.788 C2.658,35.788 2.881,42.695 4.361,36.586 C5.07,33.657 1.763,15.348 0.709,5.982 L0.76,7.07 Z" id="path-3"></path>
        <path d="M2.219,5.574 C1.441,8.537 0.599,11.497 0.439,11.112 L0.659,12.857 C0.657,12.851 0.702,13.112 0.748,13.373 C0.793,13.628 0.838,13.881 0.838,13.89 L1.675,23.544 C1.675,23.544 4.778,43.762 4.43,46.22 C4.43,46.22 4.909,51.034 6.248,44.494 C6.87,41.464 2.601,23.807 0.838,13.89 C1.177,10.419 3.329,1.306 3.329,1.306 C3.545,0.388 3.636,0.001 3.634,0.001 C3.628,0.001 2.951,2.789 2.219,5.574 Z" id="path-5"></path>
        <path d="M3.986,5.982 C4.269,3.464 4.389,1.59 4.225,0.839 L3.986,5.982 Z M0.335,36.586 C1.815,42.695 2.036,35.788 2.036,35.788 C1.639,33.484 3.029,19.148 3.029,19.148 L3.934,7.07 L3.986,5.982 C2.932,15.348 -0.374,33.657 0.335,36.586 Z" id="path-7"></path>
    </defs>
    <g id="survey" stroke="none" stroke-width="1" fill="none" fill-rule="evenodd">
        <g id="female-body-" transform="translate(-241.000000, -857.000000)">
            <g id="Group-14" transform="translate(241.000000, 857.000000)">
                <path d="M43.876,140.3301 C43.876,138.6331 45.555,137.2561 47.625,137.2561 C49.696,137.2561 51.375,138.6331 51.375,140.3301 C51.375,142.0271 49.696,138.6231 47.625,138.6231 C45.555,138.6231 43.876,142.0271 43.876,140.3301" id="Fill-42" fill="#B2E0F3"></path>
                <path d="M29.5029,137.9482 L29.6869,138.2332" id="Fill-44" fill="#231F20"></path>
                <g id="Group-49" transform="translate(40.000000, 195.000000)">
                    <mask id="mask-2" fill="white">
                        <use xlink:href="#path-1"></use>
                    </mask>
                    <g id="Clip-48"></g>
                    <polygon id="Fill-47" fill="#B2E0F3" mask="url(#mask-2)" points="-4.615 52.928 11.256 52.928 11.256 -5 -4.615 -5"></polygon>
                </g>
                <g id="Group-52" transform="translate(26.000000, 201.000000)">
                    <mask id="mask-4" fill="white">
                        <use xlink:href="#path-3"></use>
                    </mask>
                    <g id="Clip-51"></g>
                    <polygon id="Fill-50" fill="#B2E0F3" mask="url(#mask-4)" points="8.9531 43.7021 -7.2669 42.6571 -4.2769 -3.6969 11.9431 -2.6519"></polygon>
                </g>
                <g id="Group-69">
                    <path d="M27.2266,124.4863 C27.2266,124.4863 26.5056,132.1473 28.6016,134.6233 C28.6016,134.6233 30.3406,135.0983 29.4146,132.5983 C29.4146,132.5983 27.2266,128.6243 27.2266,124.4863" id="Fill-53" fill="#B2E0F3"></path>
                    <path d="M94.1748,190.6875 C91.0018,182.1615 90.6668,176.5755 88.5018,168.9115 C83.2568,150.3425 83.0848,136.0775 78.0378,120.9885 C77.0048,117.8985 76.8268,114.8845 75.5018,111.9115 C72.6048,105.4115 67.6448,102.5945 66.8278,102.6315 C64.1408,101.4885 57.6458,99.2455 56.0988,96.3125 C55.9768,93.6395 55.8548,90.9685 55.7338,88.2985 L55.6958,88.2985 C55.6968,88.1345 55.6978,87.9705 55.6988,87.8065 C64.9188,83.5355 72.7038,77.4305 78.1038,68.3575 C79.5918,65.8565 80.5148,62.9055 83.9818,62.5355 C84.6538,62.4625 85.3108,61.5645 85.8528,60.9325 C88.1518,58.2525 88.7608,55.0475 88.3788,51.5615 C89.8778,51.0795 91.6328,51.3605 93.0088,49.8845 C91.3828,49.3735 89.8948,48.9525 88.4378,48.4355 C84.8098,47.1495 82.0708,45.0265 81.6548,40.6265 C81.3248,37.1335 79.9228,33.9755 78.3138,30.9885 C77.4638,29.4105 77.4988,28.4655 78.6778,27.1765 C81.8368,23.7265 82.3408,19.5455 81.0118,15.1665 C78.8718,8.1145 73.8898,4.0425 67.4228,1.7715 C59.3278,-1.0725 50.4698,1.8355 48.0998,10.1665 C47.8238,11.1335 47.1458,11.2005 46.3818,11.2825 C42.2798,11.7265 38.2428,12.4855 34.4208,14.1795 C23.3878,19.0715 16.3818,27.7325 13.5188,39.7805 C12.7828,42.8725 11.3998,44.3225 8.9228,45.4165 C6.1608,46.6365 3.2358,47.2505 0.0268,47.9545 C2.3708,49.8125 5.0078,49.3195 7.1148,50.5085 C5.4478,56.8495 7.6578,61.2685 13.6888,63.4845 C14.5108,63.7875 14.8398,64.3705 15.1708,65.0535 C20.4698,75.9815 28.9538,83.1675 39.5768,87.8435 C39.5698,88.0165 39.5618,88.1885 39.5538,88.3615 C39.4328,91.0315 39.3108,93.7025 39.1888,96.3745 C37.6418,99.3075 30.1468,101.5505 27.4588,102.6945 C26.6428,102.6575 22.6828,105.4735 19.7848,111.9735 C18.4598,114.9475 18.2818,117.9605 17.2488,121.0505 C12.2018,136.1395 12.0298,150.4055 6.7848,168.9735 C4.6198,176.6375 4.2848,182.2235 1.1118,190.7495 C0.4078,192.6405 -0.5402,195.6265 3.1408,196.2475 C3.3248,196.2775 3.5208,196.7805 3.5668,197.0865 C3.8368,198.8935 4.9878,198.9525 6.3318,198.6695 C7.3248,196.2095 6.6448,193.5645 7.2138,190.8285 L7.2138,198.6965 C8.2558,200.4975 9.3118,200.6425 10.3858,198.7265 L10.3858,188.9455 C11.2788,192.3045 11.0828,195.7205 11.2338,199.1125 C13.4328,200.3915 14.2218,199.9655 14.2688,197.4565 C14.2808,196.7665 14.1978,196.0755 14.2218,195.3865 C14.3508,191.6505 13.8008,187.8915 14.3508,183.9745 C15.8378,184.7885 16.0128,186.3335 16.9128,187.2835 C17.6828,188.0945 18.5298,188.5835 19.5478,187.9645 C20.7158,187.2575 20.0128,186.3395 19.6358,185.5075 C18.4378,182.8615 17.3038,180.1785 15.9958,177.5935 C15.2408,176.0995 13.9698,173.6085 14.1598,171.9735 C15.0348,164.4735 16.5778,159.8835 18.5348,153.1475 C20.0818,147.8235 23.2628,139.1995 25.5348,135.2555 C26.3868,133.7775 25.5568,134.4525 27.1078,133.2235 C27.1078,133.2235 28.2748,135.4165 28.3458,135.4695 C28.3458,135.4695 29.4128,137.6385 29.7878,139.1335 C32.7018,149.0005 31.7668,152.8105 28.9508,159.2285 C26.3788,165.0905 24.8198,171.3315 24.6848,177.7925 C24.6728,178.6895 24.5518,182.3815 24.5698,183.3295 C24.8498,198.2885 25.0568,209.3275 26.7598,224.1405 C27.6458,231.8435 28.3468,243.9315 29.2018,251.6395 C29.2018,251.6395 30.2388,261.4855 30.4868,263.6295 C30.5468,264.8105 33.1958,277.8015 33.6088,283.6535 C34.0788,286.2835 33.5338,289.9125 32.2818,292.4615 C31.1688,295.1195 24.3588,298.4895 23.2828,299.1015 C21.4658,300.1375 19.6548,301.1915 18.3738,302.9235 C17.9188,303.5385 16.9718,304.2095 17.4478,305.1245 C17.8408,305.8755 18.7988,305.5205 19.5028,305.5225 C26.6708,305.5415 33.8388,305.5365 41.0088,305.5265 C44.5788,305.5225 44.5798,305.5125 44.5798,301.6385 C44.5788,288.3325 42.3688,268.9735 44.0348,251.4735 C44.9168,242.2085 47.0218,209.7535 47.5348,198.1405 C48.0488,209.7535 50.3698,242.1455 51.2518,251.4115 C52.9178,268.9115 50.7078,288.2695 50.7068,301.5765 C50.7068,305.4505 50.7078,305.4595 54.2788,305.4635 C61.4478,305.4735 68.6158,305.4795 75.7838,305.4595 C76.4878,305.4585 77.4458,305.8135 77.8388,305.0615 C78.3158,304.1475 77.3678,303.4755 76.9128,302.8615 C75.6318,301.1285 73.8208,300.0755 72.0038,299.0395 C70.9288,298.4265 64.1178,295.0565 63.0048,292.3995 C61.7528,289.8495 61.2078,286.2205 61.6788,283.5905 C62.0908,277.7395 64.7398,264.7485 64.7998,263.5675 C65.0478,261.4225 66.0848,251.5775 66.0848,251.5775 C66.9408,243.8695 67.6418,231.7815 68.5278,224.0785 C70.2308,209.2645 70.4378,198.2255 70.7178,183.2665 C70.7358,182.3195 70.6138,178.6265 70.6028,177.7305 C70.4678,171.2685 68.9078,165.0285 66.3358,159.1665 C63.5208,152.7485 62.5848,148.9385 65.4988,139.0715 C65.8738,137.5765 66.9418,135.4075 66.9418,135.4075 C67.0128,135.3545 68.1798,133.1615 68.1798,133.1615 C69.7308,134.3895 68.9008,133.7145 69.7518,135.1935 C72.0248,139.1365 75.2048,147.7605 76.7518,153.0845 C78.7088,159.8215 80.2518,164.4115 81.1268,171.9115 C81.3178,173.5455 80.0458,176.0375 79.2908,177.5315 C77.9838,180.1165 76.8498,182.7985 75.6518,185.4455 C75.2748,186.2775 74.5708,187.1955 75.7388,187.9025 C76.7568,188.5205 77.6048,188.0325 78.3738,187.2205 C79.2748,186.2715 79.4488,184.7255 80.9368,183.9125 C81.4868,187.8295 80.9368,191.5875 81.0658,195.3245 C81.0888,196.0125 81.0058,196.7045 81.0188,197.3935 C81.0658,199.9035 81.8548,200.3295 84.0538,199.0495 C84.2038,195.6585 84.0088,192.2425 84.9018,188.8825 L84.9018,198.6645 C85.9758,200.5805 87.0308,200.4345 88.0728,198.6335 L88.0728,190.7655 C88.6428,193.5015 87.9618,196.1475 88.9548,198.6075 C90.2988,198.8895 91.4498,198.8315 91.7208,197.0245 C91.7668,196.7175 91.9618,196.2145 92.1468,196.1845 C95.8268,195.5645 94.8788,192.5785 94.1748,190.6875" id="Fill-55" fill="#7EB5D6"></path>
                    <path d="M54.0127,99.6211 C54.0127,101.3181 51.1537,102.6941 47.6247,102.6941 C44.0967,102.6941 41.2377,101.3181 41.2377,99.6211 C41.2377,97.9241 44.0967,101.3281 47.6247,101.3281 C51.1537,101.3281 54.0127,97.9241 54.0127,99.6211" id="Fill-57" fill="#B2E0F3"></path>
                    <path d="M38.4531,247.9443 C38.4531,248.9083 36.8291,249.6903 34.8241,249.6903 C32.8201,249.6903 31.1961,248.9083 31.1961,247.9443 C31.1961,246.9803 32.8201,248.9143 34.8241,248.9143 C36.8291,248.9143 38.4531,246.9803 38.4531,247.9443" id="Fill-59" fill="#B2E0F3"></path>
                    <path d="M36.7539,162.8027 C36.7539,152.6907 34.7299,144.4927 35.7809,144.4927 C36.8319,144.4927 37.6849,152.6907 37.6849,162.8027 C37.6849,172.9147 37.0059,175.0337 35.9539,175.0337 C34.9019,175.0337 36.7539,172.9147 36.7539,162.8027" id="Fill-61" fill="#B2E0F3"></path>
                    <path d="M44.6143,132.9365 C44.4523,132.8205 44.2243,132.8475 44.0933,132.9965 C44.0713,133.0195 42.0023,135.3175 38.5453,136.3245 C36.1343,137.0275 33.6353,136.9405 31.1193,136.0665 C30.9333,136.0015 30.7243,136.0865 30.6373,136.2635 C30.5513,136.4405 30.6153,136.6515 30.7863,136.7495 C30.9523,136.8465 34.9073,139.0985 39.1433,137.8645 C41.3603,137.2175 43.2323,135.7295 44.7093,133.4415 C44.8163,133.2735 44.7763,133.0525 44.6143,132.9365" id="Fill-63" fill="#B2E0F3"></path>
                    <path d="M50.0801,132.9365 C50.2421,132.8205 50.4701,132.8475 50.6011,132.9965 C50.6231,133.0195 52.6921,135.3175 56.1491,136.3245 C58.5601,137.0275 61.0591,136.9405 63.5751,136.0665 C63.7611,136.0015 63.9701,136.0865 64.0571,136.2635 C64.1431,136.4405 64.0791,136.6515 63.9081,136.7495 C63.7421,136.8465 59.7871,139.0985 55.5511,137.8645 C53.3341,137.2175 51.4621,135.7295 49.9851,133.4415 C49.8781,133.2735 49.9181,133.0525 50.0801,132.9365" id="Fill-65" fill="#B2E0F3"></path>
                    <path d="M65.1924,137.9482 L65.0084,138.2332" id="Fill-67" fill="#231F20"></path>
                </g>
                <g id="Group-72" transform="translate(48.000000, 195.000000)">
                    <mask id="mask-6" fill="white">
                        <use xlink:href="#path-5"></use>
                    </mask>
                    <g id="Clip-71"></g>
                    <polygon id="Fill-70" fill="#B2E0F3" mask="url(#mask-6)" points="-4.56 52.928 11.311 52.928 11.311 -5 -4.56 -5"></polygon>
                </g>
                <g id="Group-75" transform="translate(64.000000, 201.000000)">
                    <mask id="mask-8" fill="white">
                        <use xlink:href="#path-7"></use>
                    </mask>
                    <g id="Clip-74"></g>
                    <polygon id="Fill-73" fill="#B2E0F3" mask="url(#mask-8)" points="-4.2578 43.7021 11.9622 42.6571 8.9722 -3.6969 -7.2478 -2.6519"></polygon>
                </g>
                <path d="M67.4688,124.4863 C67.4688,124.4863 68.1898,132.1473 66.0938,134.6233 C66.0938,134.6233 64.3548,135.0983 65.2808,132.5983 C65.2808,132.5983 67.4688,128.6243 67.4688,124.4863" id="Fill-76" fill="#B2E0F3"></path>
                <path d="M56.2422,247.9443 C56.2422,248.9083 57.8662,249.6903 59.8712,249.6903 C61.8752,249.6903 63.4992,248.9083 63.4992,247.9443 C63.4992,246.9803 61.8752,248.9143 59.8712,248.9143 C57.8662,248.9143 56.2422,246.9803 56.2422,247.9443" id="Fill-78" fill="#B2E0F3"></path>
                <path d="M57.9414,162.8027 C57.9414,152.6907 59.9654,144.4927 58.9144,144.4927 C57.8634,144.4927 57.0104,152.6907 57.0104,162.8027 C57.0104,172.9147 57.6894,175.0337 58.7414,175.0337 C59.7934,175.0337 57.9414,172.9147 57.9414,162.8027" id="Fill-80" fill="#B2E0F3"></path>
                <path d="M48.3467,161.8604 C48.3467,169.3714 48.0327,175.4604 47.6437,175.4604 C47.2547,175.4604 46.9407,169.3714 46.9407,161.8604 C46.9407,154.3494 47.2547,148.2614 47.6437,148.2614 C48.0327,148.2614 48.3467,154.3494 48.3467,161.8604" id="Fill-82" fill="#B2E0F3"></path>
            </g>
        </g>
    </g>
</svg>