<?xml version="1.0" encoding="UTF-8"?>
<svg width="95px" height="306px" viewBox="0 0 95 306" version="1.1" xmlns="http://www.w3.org/2000/svg" xmlns:xlink="http://www.w3.org/1999/xlink">
    <!-- Generator: sketchtool 45.2 (43514) - http://www.bohemiancoding.com/sketch -->
    <title>6987EFAB-9FC5-4CA5-ACB4-9ECB730373EE</title>
    <desc>Created with sketchtool.</desc>
    <defs></defs>
    <g id="survey" stroke="none" stroke-width="1" fill="none" fill-rule="evenodd">
        <g id="female-body-" transform="translate(-522.000000, -857.000000)">
            <g id="Group-10" transform="translate(522.000000, 857.000000)">
                <path d="M29.6987,138.2334 L29.5147,137.9484 C29.5757,138.0404 29.6367,138.1374 29.6987,138.2334 M60.0407,100.0374 L60.0367,100.0364 L60.0367,100.0354 C60.0387,100.0364 60.0387,100.0374 60.0407,100.0374 M94.3227,193.3544 C93.7527,188.6584 93.3297,183.8974 92.2237,179.3294 C86.8847,157.2974 81.1107,135.3794 76.0037,113.2924 C74.6777,107.5504 73.7357,104.5434 69.2847,102.9184 L67.2187,101.6964 L55.6627,95.4804 L55.6627,95.4814 C55.7067,95.6424 55.7607,95.7924 55.8127,95.9424 L55.5207,95.6594 L55.6627,95.4814 L55.6627,95.4804 C55.6787,92.9234 55.6947,90.3654 55.7117,87.8064 C64.9307,83.5354 72.7167,77.4304 78.1157,68.3574 C79.6037,65.8564 80.5267,62.9054 83.9937,62.5354 C84.6657,62.4624 85.3227,61.5644 85.8647,60.9324 C88.1637,58.2534 88.7727,55.0474 88.3907,51.5614 C89.8897,51.0794 91.6447,51.3604 93.0207,49.8844 C91.3947,49.3734 89.9067,48.9524 88.4497,48.4354 C84.8217,47.1494 82.0837,45.0264 81.6677,40.6274 C81.3377,37.1334 79.9347,33.9754 78.3257,30.9884 C77.4757,29.4104 77.5117,28.4654 78.6897,27.1764 C81.8487,23.7264 82.3527,19.5454 81.0237,15.1664 C78.8847,8.1144 73.9017,4.0434 67.4347,1.7714 C59.3407,-1.0726 50.4817,1.8364 48.1117,10.1674 C47.8367,11.1334 47.1577,11.2004 46.3937,11.2824 C42.2927,11.7264 38.2557,12.4854 34.4327,14.1794 C23.3997,19.0714 16.3937,27.7324 13.5307,39.7804 C12.7957,42.8724 11.4117,44.3224 8.9347,45.4164 C6.1737,46.6364 3.2477,47.2514 0.0387,47.9544 C2.3837,49.8124 5.0197,49.3194 7.1277,50.5084 C5.4607,56.8494 7.6707,61.2684 13.7007,63.4844 C14.5227,63.7874 14.8517,64.3704 15.1827,65.0534 C20.4817,75.9814 28.9667,83.1684 39.5897,87.8434 C39.4607,90.6864 39.3307,93.5294 39.2007,96.3754 C37.6537,99.3074 32.7927,100.1744 30.1047,101.3184 C29.2887,101.2814 28.6297,101.6684 28.0167,102.1764 C22.9917,103.4204 20.6417,105.4094 19.5227,111.5434 C18.9387,114.7464 18.0287,117.8844 17.2607,121.0504 C13.4337,136.8134 9.6067,152.5764 5.7757,168.3374 C3.9727,175.7524 1.6327,183.0554 1.1247,190.7504 C0.9917,192.7634 -0.5283,195.6274 3.1527,196.2474 C3.3377,196.2774 3.5327,196.7804 3.5787,197.0874 C3.8487,198.8934 5.0007,198.9524 6.3447,198.6704 C7.3377,196.2104 6.6567,193.5644 7.2257,190.8284 L7.2257,198.6964 C8.2677,200.4974 9.3237,200.6424 10.3977,198.7264 L10.3977,188.9454 C11.2907,192.3044 11.0947,195.7204 11.2457,199.1124 C13.4447,200.3914 14.2337,199.9654 14.2807,197.4564 C14.2937,196.7664 14.2107,196.0754 14.2337,195.3864 C14.3627,191.6504 13.8127,187.8914 14.3627,183.9744 C15.8497,184.7884 16.0247,186.3344 16.9257,187.2834 C17.6947,188.0944 18.5427,188.5834 19.5597,187.9644 C20.7277,187.2574 20.0247,186.3394 19.6477,185.5074 C18.4497,182.8614 17.3157,180.1784 16.0087,177.5934 C15.2537,176.0994 15.2457,174.7314 15.6387,173.1334 C18.5567,161.2884 21.3597,149.4104 24.3167,137.5744 C24.7297,135.9194 24.5777,133.9314 26.1287,132.7034 L26.2997,132.4884 C26.3607,132.7564 26.4237,133.0134 26.4867,133.2584 L26.1287,132.7054 C26.2067,133.6924 26.6157,134.4704 27.1367,135.1794 C27.2127,135.3154 27.2867,135.4174 27.3577,135.4694 L27.3587,135.4694 C28.2757,136.6274 29.4257,137.6384 29.8007,139.1334 C30.3967,146.1684 29.1297,152.8104 26.3137,159.2284 C23.7417,165.0904 22.5127,171.3314 22.3787,177.7934 C22.3667,178.6894 22.3547,179.5874 22.3447,180.4844 C22.3157,181.4324 22.2457,182.3814 22.2627,183.3294 C22.5437,198.2884 24.7537,213.0464 26.4567,227.8604 C27.3427,235.5634 28.1737,243.2724 29.0287,250.9804 L29.7027,257.1914 C30.3257,259.2914 30.2517,261.4854 30.4997,263.6294 C30.5587,264.8104 30.4717,266.0294 30.7047,267.1764 C31.8747,272.9434 32.2087,278.8014 32.6207,284.6534 C33.0917,287.2834 33.5467,289.9124 32.2947,292.4624 C31.1807,295.1194 29.0167,296.4364 26.5577,297.3694 C25.6637,298.3334 24.3707,298.4894 23.2957,299.1014 C21.4777,300.1374 19.6677,301.1914 18.3857,302.9234 C17.9307,303.5384 16.9837,304.2104 17.4607,305.1244 C17.8527,305.8764 18.8107,305.5204 19.5147,305.5224 C26.6827,305.5424 33.8507,305.5364 41.0207,305.5264 C44.5917,305.5224 44.5927,305.5124 44.5927,301.6384 C44.5897,268.0894 45.9067,194.0234 46.5297,194.0294 L46.5297,194.0304 C46.5297,194.0304 46.5307,194.0304 46.5307,194.0294 C47.2287,194.0384 50.4647,269.2834 50.4667,305.3164 C59.1147,305.8094 67.7707,305.3974 76.4237,305.5234 C78.1697,305.5484 77.8727,304.6644 77.1677,303.6004 C75.9567,301.7754 74.2737,300.5364 72.4467,299.5244 C70.4127,298.3974 68.2617,297.4974 66.2537,296.3244 C63.3877,294.6504 61.6597,292.2244 62.0037,288.5424 C62.3547,284.7654 62.4897,280.9644 62.9127,277.1994 C65.6067,253.2184 68.4097,229.2534 71.0527,205.2664 C71.9577,197.0464 72.7107,188.7954 72.5507,180.4954 C72.5367,179.6004 72.5227,178.7054 72.5107,177.8114 C72.2847,172.4744 71.8197,167.1784 69.8977,162.1574 C66.9997,154.5814 63.8357,147.0804 64.3437,138.6244 C66.2597,137.0074 68.3937,135.5744 68.8317,132.7274 C69.7517,132.5224 69.6617,133.2904 69.7977,133.8314 C73.0407,146.8124 76.2787,159.7954 79.5257,172.7754 C79.9807,174.5934 79.8727,176.2574 78.9777,177.9894 C77.6537,180.5534 76.5777,183.2584 75.4057,185.9094 C75.1107,186.5754 74.4667,187.2904 75.3997,187.9264 C76.1657,188.4504 76.9787,188.3634 77.7017,187.7944 C78.5787,187.1044 79.1017,186.1204 79.5947,185.1224 C79.8197,184.6654 80.0477,184.0864 80.6367,184.2674 C81.2287,184.4494 81.1027,185.1184 81.0917,185.5954 C81.0097,189.3814 80.9077,193.1694 80.7867,196.9544 C80.7067,199.4674 81.2407,199.9924 83.6097,199.6214 C84.5387,196.0874 83.7597,192.4334 84.3007,188.9094 C84.9607,192.7244 84.0077,196.7674 85.5817,200.5054 C86.8737,200.8254 87.1847,199.6594 87.7847,198.9214 C87.9987,198.6574 87.8877,197.9014 88.5097,198.2254 C91.6917,199.8834 91.5037,197.5874 91.4897,195.4774 C91.6467,195.4334 91.8027,195.3844 91.9567,195.3334 C93.8527,196.1604 94.6027,195.6614 94.3227,193.3544" id="Fill-1" fill="#567BA7"></path>
                <path d="M53.5972,99.6211 C53.5972,101.3181 50.7382,102.6941 47.2082,102.6941 C43.6812,102.6941 40.8222,101.3181 40.8222,99.6211 C40.8222,97.9241 43.6812,101.3281 47.2082,101.3281 C50.7382,101.3281 53.5972,97.9241 53.5972,99.6211" id="Fill-3" fill="#B2E0F3"></path>
                <path d="M40.8218,138.3301 C40.8218,136.6331 43.6808,135.2561 47.2088,135.2561 C50.7378,135.2561 53.5968,136.6331 53.5968,138.3301 C53.5968,140.0271 50.7378,136.6231 47.2088,136.6231 C43.6808,136.6231 40.8218,140.0271 40.8218,138.3301" id="Fill-5" fill="#B2E0F3"></path>
                <path d="M37.9067,247.96 C37.9067,248.924 36.2827,249.706 34.2777,249.706 C32.2737,249.706 30.6497,248.924 30.6497,247.96 C30.6497,246.996 32.2737,248.93 34.2777,248.93 C36.2827,248.93 37.9067,246.996 37.9067,247.96" id="Fill-7" fill="#B2E0F3"></path>
                <path d="M63.7681,247.96 C63.7681,248.924 62.1441,249.706 60.1391,249.706 C58.1351,249.706 56.5111,248.924 56.5111,247.96 C56.5111,246.996 58.1351,248.93 60.1391,248.93 C62.1441,248.93 63.7681,246.996 63.7681,247.96" id="Fill-9" fill="#B2E0F3"></path>
            </g>
        </g>
    </g>
</svg>