<?xml version="1.0" encoding="UTF-8"?>
<svg width="96px" height="306px" viewBox="0 0 96 306" version="1.1" xmlns="http://www.w3.org/2000/svg" xmlns:xlink="http://www.w3.org/1999/xlink">
    <!-- Generator: sketchtool 45.2 (43514) - http://www.bohemiancoding.com/sketch -->
    <title>0EB194B1-FCFD-493D-8A3F-3C28E758655A</title>
    <desc>Created with sketchtool.</desc>
    <defs>
        <path d="M2.402,5.574 C1.623,8.537 0.783,11.497 0.623,11.112 L0.843,12.857 C0.841,12.851 0.886,13.112 0.932,13.373 C0.977,13.636 1.022,13.897 1.022,13.89 L1.859,23.544 C1.859,23.544 4.959,43.762 4.612,46.22 C4.612,46.22 5.093,51.034 6.432,44.494 C7.052,41.464 2.785,23.807 1.022,13.89 C1.362,10.419 3.513,1.306 3.513,1.306 C3.729,0.388 3.82,0.001 3.818,0.001 C3.812,0.001 3.135,2.789 2.402,5.574 Z" id="path-1"></path>
        <path d="M4.17,5.982 C4.453,3.464 4.573,1.59 4.408,0.839 L4.17,5.982 Z M0.519,36.586 C1.999,42.695 2.219,35.788 2.219,35.788 C1.82,33.484 3.211,19.148 3.211,19.148 L4.12,7.07 L4.17,5.982 C3.116,15.348 -0.19,33.657 0.519,36.586 Z" id="path-3"></path>
        <path d="M2.995,1.306 C2.995,1.306 5.146,10.419 5.486,13.89 C5.486,13.881 5.531,13.628 5.574,13.373 C5.62,13.112 5.665,12.851 5.663,12.857 L5.885,11.112 C5.722,11.497 4.881,8.537 4.103,5.574 C3.371,2.789 2.692,0.001 2.688,0.001 C2.686,0.001 2.779,0.388 2.995,1.306 Z M0.075,44.494 C1.413,51.034 1.894,46.22 1.894,46.22 C1.546,43.762 4.649,23.544 4.649,23.544 L5.486,13.89 C3.723,23.807 -0.546,41.464 0.075,44.494 Z" id="path-5"></path>
        <path d="M0.339,5.982 L0.099,0.839 C-0.066,1.592 0.054,3.462 0.339,5.982 Z M0.389,7.07 L1.294,19.148 C1.294,19.148 2.685,33.484 2.286,35.788 C2.286,35.788 2.51,42.695 3.988,36.586 C4.697,33.657 1.393,15.348 0.339,5.982 L0.389,7.07 Z" id="path-7"></path>
    </defs>
    <g id="survey" stroke="none" stroke-width="1" fill="none" fill-rule="evenodd">
        <g id="female-body-" transform="translate(-100.000000, -857.000000)">
            <g id="Group-16" transform="translate(100.000000, 857.000000)">
                <path d="M94.7661,190.75 C91.5931,182.224 91.2581,176.638 89.0931,168.974 C86.1711,158.63 85.8441,148.808 84.0101,140.307 C82.5531,133.554 80.8651,127.734 78.6291,121.051 C77.5961,117.961 77.8351,113.447 76.5101,110.474 C73.6131,103.974 66.2361,102.657 65.4191,102.694 C62.7321,101.551 58.2371,99.308 56.6901,96.375 C56.5681,93.702 56.4461,91.031 56.3251,88.361 L56.3241,88.361 C56.3261,88.177 56.3271,87.991 56.3281,87.807 C65.5471,83.535 73.3321,77.431 78.7321,68.357 C80.2201,65.856 81.1431,62.905 84.6101,62.535 C85.2821,62.463 85.9391,61.564 86.4811,60.933 C88.7801,58.253 89.3891,55.048 89.0071,51.562 C90.5061,51.079 92.2611,51.36 93.6371,49.885 C92.0111,49.373 90.5231,48.952 89.0661,48.436 C85.4381,47.149 82.7001,45.026 82.2841,40.627 C81.9531,37.134 80.5511,33.976 78.9421,30.988 C78.0921,29.41 78.1271,28.466 79.3061,27.177 C82.4651,23.727 82.9691,19.546 81.6401,15.166 C79.5001,8.114 74.5181,4.043 68.0511,1.771 C59.9561,-1.072 51.0981,1.836 48.7281,10.167 C48.4531,11.134 47.7741,11.2 47.0101,11.282 C42.9091,11.727 38.8711,12.485 35.0491,14.18 C24.0161,19.071 17.0101,27.732 14.1471,39.78 C13.4121,42.872 12.0281,44.322 9.5511,45.416 C6.7891,46.637 3.8641,47.251 0.6551,47.954 C2.9991,49.813 5.6361,49.319 7.7441,50.509 C6.0771,56.85 8.2871,61.269 14.3171,63.484 C15.1391,63.787 15.4681,64.37 15.7991,65.054 C21.0981,75.981 29.5821,83.168 40.2051,87.844 C40.1981,88.017 40.1901,88.188 40.1821,88.361 C40.0611,91.031 39.9391,93.702 39.8171,96.375 C38.2701,99.308 33.7751,101.551 31.0871,102.694 C30.2711,102.657 22.8941,103.974 19.9961,110.474 C18.6711,113.447 18.9111,117.961 17.8771,121.051 C15.6421,127.734 13.9531,133.554 12.4961,140.307 C10.6621,148.808 10.3351,158.63 7.4131,168.974 C5.2481,176.638 4.9131,182.224 1.7411,190.75 C1.0371,192.641 0.0881,195.627 3.7691,196.247 C3.9531,196.277 4.1491,196.78 4.1951,197.087 C4.4651,198.894 5.6171,198.952 6.9601,198.67 C7.9531,196.21 7.2731,193.564 7.8421,190.828 L7.8421,198.696 C8.8841,200.497 9.9401,200.643 11.0141,198.727 L11.0141,188.945 C11.9071,192.305 11.7111,195.721 11.8621,199.112 C14.0611,200.392 14.8501,199.966 14.8971,197.456 C14.9101,196.767 14.8271,196.075 14.8501,195.387 C14.9791,191.65 14.4291,187.892 14.9791,183.975 C16.4661,184.788 16.6411,186.334 17.5411,187.283 C18.3111,188.095 19.1591,188.583 20.1761,187.965 C21.3441,187.258 20.6411,186.34 20.2641,185.508 C19.0661,182.861 17.9321,180.179 16.6241,177.594 C15.8701,176.1 14.4081,175.243 14.5981,173.608 C15.4561,166.249 16.7971,159.764 19.1631,153.147 C23.4581,141.138 25.4731,130.802 27.0241,129.573 C27.0241,129.573 28.9031,135.417 28.9741,135.47 C28.9741,135.47 30.0411,137.639 30.4161,139.134 C33.3301,149.001 31.0871,152.309 29.5791,159.229 C28.2161,165.483 24.6681,172.642 24.6121,183.329 C24.5331,198.29 24.2101,208.91 25.9131,223.724 C26.7991,231.427 29.4591,239.967 30.3151,247.675 C30.3151,247.675 32.6651,261.829 32.9131,263.974 C32.9731,265.154 33.8251,277.802 34.2371,283.653 C34.7071,286.283 34.1621,289.912 32.9111,292.462 C31.7971,295.119 24.9871,298.489 23.9121,299.102 C22.0941,300.138 20.2841,301.191 19.0021,302.924 C18.5471,303.538 17.6001,304.21 18.0771,305.124 C18.4691,305.876 19.4271,305.521 20.1311,305.522 C27.2991,305.542 34.4671,305.536 41.6371,305.526 C45.2071,305.522 45.2081,305.513 45.2081,301.639 C45.2071,288.332 42.9971,268.974 44.6631,251.474 C45.5451,242.208 47.6501,209.754 48.1631,198.141 C48.1891,198.713 48.2201,199.349 48.2531,200.016 C48.2871,199.349 48.3181,198.713 48.3431,198.141 C48.8571,209.754 50.9611,242.208 51.8431,251.474 C53.5091,268.974 51.2991,288.332 51.2981,301.639 C51.2981,305.513 51.2991,305.522 54.8701,305.526 C62.0391,305.536 69.2071,305.542 76.3751,305.522 C77.0791,305.521 78.0371,305.876 78.4301,305.124 C78.9071,304.21 77.9591,303.538 77.5041,302.924 C76.2231,301.191 74.4121,300.138 72.5951,299.102 C71.5201,298.489 64.7091,295.119 63.5961,292.462 C62.3441,289.912 61.7991,286.283 62.2701,283.653 C62.6821,277.802 63.5341,265.154 63.5931,263.974 C63.8411,261.829 66.1921,247.675 66.1921,247.675 C67.0471,239.967 69.7071,231.427 70.5931,223.724 C72.2961,208.91 71.9741,198.29 71.8951,183.329 C71.8381,172.642 68.2901,165.483 66.9271,159.229 C65.4191,152.309 63.1761,149.001 66.0901,139.134 C66.4651,137.639 67.5331,135.47 67.5331,135.47 C67.6041,135.417 69.4831,129.573 69.4831,129.573 C71.0341,130.802 73.0481,141.138 77.3431,153.147 C79.7091,159.764 81.0501,166.249 81.9091,173.608 C82.0991,175.243 80.6371,176.1 79.8821,177.594 C78.5751,180.179 77.4411,182.861 76.2431,185.508 C75.8661,186.34 75.1621,187.258 76.3301,187.965 C77.3481,188.583 78.1961,188.095 78.9651,187.283 C79.8661,186.334 80.0401,184.788 81.5281,183.975 C82.0781,187.892 81.5281,191.65 81.6571,195.387 C81.6801,196.075 81.5971,196.767 81.6101,197.456 C81.6571,199.966 82.4461,200.392 84.6451,199.112 C84.7951,195.721 84.6001,192.305 85.4931,188.945 L85.4931,198.727 C86.5671,200.643 87.6221,200.497 88.6641,198.696 L88.6641,190.828 C89.2341,193.564 88.5531,196.21 89.5461,198.67 C90.8901,198.952 92.0411,198.894 92.3121,197.087 C92.3581,196.78 92.5531,196.277 92.7381,196.247 C96.4181,195.627 95.4701,192.641 94.7661,190.75" id="Fill-84" fill="#7EB5D6"></path>
                <path d="M66.3755,137.9482 L66.1915,138.2332" id="Fill-86" fill="#231F20"></path>
                <g id="Group-91" transform="translate(49.000000, 195.000000)">
                    <mask id="mask-2" fill="white">
                        <use xlink:href="#path-1"></use>
                    </mask>
                    <g id="Clip-90"></g>
                    <polygon id="Fill-89" fill="#B2E0F3" mask="url(#mask-2)" points="-4.377 52.928 11.494 52.928 11.494 -5 -4.377 -5"></polygon>
                </g>
                <g id="Group-94" transform="translate(65.000000, 201.000000)">
                    <mask id="mask-4" fill="white">
                        <use xlink:href="#path-3"></use>
                    </mask>
                    <g id="Clip-93"></g>
                    <polygon id="Fill-92" fill="#B2E0F3" mask="url(#mask-4)" points="-4.0747 43.7021 12.1453 42.6571 9.1553 -3.6969 -7.0647 -2.6519"></polygon>
                </g>
                <g id="Group-109" transform="translate(30.000000, 99.000000)">
                    <path d="M38.6519,25.4863 C38.6519,25.4863 39.3729,33.1473 37.2769,35.6233 C37.2769,35.6233 35.5379,36.0983 36.4639,33.5983 C36.4639,33.5983 38.6519,29.6243 38.6519,25.4863" id="Fill-95" fill="#B2E0F3"></path>
                    <path d="M11.8657,0.6211 C11.8657,2.3181 14.7247,3.6941 18.2537,3.6941 C21.7817,3.6941 24.6407,2.3181 24.6407,0.6211 C24.6407,-1.0759 21.7817,2.3281 18.2537,2.3281 C14.7247,2.3281 11.8657,-1.0759 11.8657,0.6211" id="Fill-97" fill="#B2E0F3"></path>
                    <path d="M27.4253,148.9443 C27.4253,149.9083 29.0493,150.6903 31.0543,150.6903 C33.0583,150.6903 34.6823,149.9083 34.6823,148.9443 C34.6823,147.9803 33.0583,149.9143 31.0543,149.9143 C29.0493,149.9143 27.4253,147.9803 27.4253,148.9443" id="Fill-99" fill="#B2E0F3"></path>
                    <path d="M30.228,63.8027 C30.228,53.6907 32.252,45.4927 31.201,45.4927 C30.15,45.4927 29.297,53.6907 29.297,63.8027 C29.297,73.9147 29.976,76.0337 31.028,76.0337 C32.08,76.0337 30.228,73.9147 30.228,63.8027" id="Fill-101" fill="#B2E0F3"></path>
                    <path d="M21.2642,33.9365 C21.4262,33.8205 21.6542,33.8475 21.7852,33.9965 C21.8072,34.0195 23.8762,36.3175 27.3332,37.3245 C29.7442,38.0275 32.2432,37.9405 34.7592,37.0665 C34.9452,37.0015 35.1542,37.0865 35.2412,37.2635 C35.3272,37.4405 35.2632,37.6515 35.0922,37.7495 C34.9262,37.8465 30.9712,40.0985 26.7352,38.8645 C24.5182,38.2175 22.6462,36.7295 21.1692,34.4415 C21.0622,34.2735 21.1022,34.0525 21.2642,33.9365" id="Fill-103" fill="#B2E0F3"></path>
                    <path d="M14.5034,41.3301 C14.5034,39.6331 16.1824,38.2561 18.2524,38.2561 C20.3234,38.2561 22.0024,39.6331 22.0024,41.3301 C22.0024,43.0271 20.3234,39.6231 18.2524,39.6231 C16.1824,39.6231 14.5034,43.0271 14.5034,41.3301" id="Fill-105" fill="#B2E0F3"></path>
                    <path d="M0.1313,38.9482 L0.3153,39.2332" id="Fill-107" fill="#231F20"></path>
                </g>
                <g id="Group-112" transform="translate(41.000000, 195.000000)">
                    <mask id="mask-6" fill="white">
                        <use xlink:href="#path-5"></use>
                    </mask>
                    <g id="Clip-111"></g>
                    <polygon id="Fill-110" fill="#B2E0F3" mask="url(#mask-6)" points="-4.987 52.928 10.884 52.928 10.884 -5 -4.987 -5"></polygon>
                </g>
                <g id="Group-115" transform="translate(27.000000, 201.000000)">
                    <mask id="mask-8" fill="white">
                        <use xlink:href="#path-7"></use>
                    </mask>
                    <g id="Clip-114"></g>
                    <polygon id="Fill-113" fill="#B2E0F3" mask="url(#mask-8)" points="8.5815 43.7021 -7.6385 42.6571 -4.6485 -3.6969 11.5715 -2.6519"></polygon>
                </g>
                <path d="M27.855,124.4863 C27.855,124.4863 27.134,132.1473 29.23,134.6233 C29.23,134.6233 30.969,135.0983 30.043,132.5983 C30.043,132.5983 27.855,128.6243 27.855,124.4863" id="Fill-116" fill="#B2E0F3"></path>
                <path d="M39.0815,247.9443 C39.0815,248.9083 37.4575,249.6903 35.4525,249.6903 C33.4485,249.6903 31.8245,248.9083 31.8245,247.9443 C31.8245,246.9803 33.4485,248.9143 35.4525,248.9143 C37.4575,248.9143 39.0815,246.9803 39.0815,247.9443" id="Fill-118" fill="#B2E0F3"></path>
                <path d="M35.1763,162.8027 C35.1763,152.6907 33.1523,144.4927 34.2033,144.4927 C35.2543,144.4927 36.1073,152.6907 36.1073,162.8027 C36.1073,172.9147 35.4283,175.0337 34.3763,175.0337 C33.3243,175.0337 35.1763,172.9147 35.1763,162.8027" id="Fill-120" fill="#B2E0F3"></path>
                <path d="M45.2427,132.9365 C45.0807,132.8205 44.8527,132.8475 44.7217,132.9965 C44.6997,133.0195 42.6307,135.3175 39.1737,136.3245 C36.7627,137.0275 34.2637,136.9405 31.7477,136.0665 C31.5617,136.0015 31.3527,136.0865 31.2657,136.2635 C31.1797,136.4405 31.2437,136.6515 31.4147,136.7495 C31.5807,136.8465 35.5357,139.0985 39.7717,137.8645 C41.9887,137.2175 43.8607,135.7295 45.3377,133.4415 C45.4447,133.2735 45.4047,133.0525 45.2427,132.9365" id="Fill-122" fill="#B2E0F3"></path>
                <path d="M18.9976,114.4512 C18.9976,114.4512 17.1636,125.9992 22.1636,124.4862 C22.1636,124.4862 19.3316,122.6792 18.9976,114.4512" id="Fill-124" fill="#B2E0F3"></path>
                <path d="M76.9624,114.4512 C76.9624,114.4512 78.7964,125.9992 73.7964,124.4862 C73.7964,124.4862 76.6284,122.6792 76.9624,114.4512" id="Fill-126" fill="#B2E0F3"></path>
                <path d="M48.9565,161.8604 C48.9565,169.3714 48.6425,175.4604 48.2535,175.4604 C47.8645,175.4604 47.5505,169.3714 47.5505,161.8604 C47.5505,154.3494 47.8645,148.2614 48.2535,148.2614 C48.6425,148.2614 48.9565,154.3494 48.9565,161.8604" id="Fill-128" fill="#B2E0F3"></path>
                <path d="M48.2534,154.1572 C51.7814,154.1572 54.6414,154.4712 54.6414,154.8602 C54.6414,155.2492 51.7814,155.5632 48.2534,155.5632 C44.7264,155.5632 41.8664,155.2492 41.8664,154.8602 C41.8664,154.4712 44.7264,154.1572 48.2534,154.1572" id="Fill-130" fill="#B2E0F3"></path>
                <path d="M48.2534,161.1572 C51.7814,161.1572 54.6414,161.4712 54.6414,161.8602 C54.6414,162.2492 51.7814,162.5632 48.2534,162.5632 C44.7264,162.5632 41.8664,162.2492 41.8664,161.8602 C41.8664,161.4712 44.7264,161.1572 48.2534,161.1572" id="Fill-132" fill="#B2E0F3"></path>
                <path d="M48.2534,168.9424 C51.7814,168.9424 54.6414,169.2564 54.6414,169.6454 C54.6414,170.0344 51.7814,170.3484 48.2534,170.3484 C44.7264,170.3484 41.8664,170.0344 41.8664,169.6454 C41.8664,169.2564 44.7264,168.9424 48.2534,168.9424" id="Fill-134" fill="#B2E0F3"></path>
            </g>
        </g>
    </g>
</svg>