<?xml version="1.0" encoding="UTF-8"?>
<svg width="96px" height="306px" viewBox="0 0 96 306" version="1.1" xmlns="http://www.w3.org/2000/svg" xmlns:xlink="http://www.w3.org/1999/xlink">
    <!-- Generator: sketchtool 45.2 (43514) - http://www.bohemiancoding.com/sketch -->
    <title>66D61075-F2F4-41AF-A131-BACB70CCA1D4</title>
    <desc>Created with sketchtool.</desc>
    <defs>
        <path d="M6.488,5.118 C6.933,2.623 7.175,0.76 7.058,0 L6.488,5.118 Z M0.875,35.421 C1.96,41.613 2.626,34.734 2.626,34.734 C2.376,32.411 4.685,18.193 4.685,18.193 L6.367,6.2 L6.488,5.118 C4.833,14.396 0.355,32.453 0.875,35.421 Z" id="path-1"></path>
        <path d="M1.431,5.124 L0.861,0 C0.746,0.762 0.986,2.625 1.431,5.124 Z M1.552,6.2 L3.234,18.193 C3.234,18.193 5.543,32.411 5.293,34.734 C5.293,34.734 5.961,41.613 7.042,35.421 C7.562,32.455 3.086,14.402 1.431,5.124 L1.552,6.2 Z" id="path-3"></path>
    </defs>
    <g id="survey" stroke="none" stroke-width="1" fill="none" fill-rule="evenodd">
        <g id="female-body-" transform="translate(-381.000000, -857.000000)">
            <g id="Group-13" transform="translate(381.000000, 857.000000)">
                <g id="Group-12">
                    <path d="M94.6147,190.75 C94.1067,183.056 92.3787,175.576 89.9637,168.337 C83.8577,150.033 83.5247,136.14 78.4777,121.051 C77.4447,117.961 76.8007,114.746 76.2167,111.543 C75.0967,105.409 72.0087,101.604 71.1917,101.641 C68.5047,100.497 58.0857,99.308 56.5387,96.375 C56.4167,93.702 56.2947,91.031 56.1737,88.361 L56.2697,88.361 C56.2717,88.177 56.2727,87.991 56.2737,87.807 C65.4937,83.535 73.2787,77.431 78.6777,68.357 C80.1667,65.856 81.0897,62.905 84.5557,62.535 C85.2277,62.463 85.8857,61.564 86.4267,60.933 C88.7257,58.253 89.3357,55.048 88.9537,51.562 C90.4527,51.079 92.2077,51.36 93.5837,49.885 C91.9577,49.373 90.4687,48.952 89.0117,48.436 C85.3847,47.149 82.6457,45.026 82.2297,40.627 C81.8997,37.134 80.4977,33.976 78.8877,30.988 C78.0387,29.41 78.0737,28.466 79.2527,27.177 C82.4117,23.727 82.9157,19.546 81.5867,15.166 C79.4467,8.114 74.4647,4.043 67.9977,1.771 C59.9027,-1.072 51.0447,1.836 48.6747,10.167 C48.3987,11.134 47.7197,11.2 46.9567,11.282 C42.8547,11.727 38.8177,12.485 34.9957,14.18 C23.9627,19.071 16.9567,27.732 14.0937,39.78 C13.3577,42.872 11.9737,44.322 9.4977,45.416 C6.7357,46.637 3.8097,47.251 0.6007,47.954 C2.9457,49.813 5.5827,49.319 7.6897,50.509 C6.0227,56.85 8.2327,61.269 14.2627,63.484 C15.0857,63.787 15.4147,64.37 15.7457,65.054 C21.0447,75.981 29.5287,83.168 40.1517,87.844 C40.1437,88.017 40.1357,88.188 40.1287,88.361 C40.0077,91.031 39.8857,93.702 39.7627,96.375 C38.2167,99.308 28.7977,100.497 26.1097,101.641 C25.2937,101.604 21.2047,105.409 20.0857,111.543 C19.5017,114.746 18.8567,117.961 17.8237,121.051 C12.7767,136.14 12.4437,150.033 6.3387,168.337 C3.9237,175.576 2.1947,183.056 1.6867,190.75 C1.5537,192.764 0.0347,195.627 3.7157,196.247 C3.8997,196.277 4.0947,196.78 4.1407,197.087 C4.4117,198.894 5.5627,198.952 6.9067,198.67 C7.8997,196.21 7.2187,193.564 7.7887,190.828 L7.7887,198.696 C8.8307,200.497 9.8857,200.643 10.9607,198.727 L10.9607,188.945 C11.8527,192.305 11.6577,195.721 11.8077,199.112 C14.0077,200.392 14.7967,199.966 14.8437,197.456 C14.8557,196.767 14.7727,196.075 14.7967,195.387 C14.9257,191.65 14.3757,187.892 14.9257,183.975 C16.4127,184.788 16.5877,186.334 17.4877,187.283 C18.2577,188.095 19.1047,188.583 20.1227,187.965 C21.2907,187.258 20.5877,186.34 20.2107,185.508 C19.0117,182.861 17.8787,180.179 16.5707,177.594 C15.8157,176.1 14.8847,173.934 15.2777,172.336 C16.8407,165.993 17.1597,159.869 18.9427,153.73 C20.4897,148.406 23.5057,143.072 24.8797,137.574 C25.2927,135.919 25.1397,133.932 26.6907,132.703 C26.6907,132.703 27.1777,134.471 27.6997,135.18 C27.7747,135.315 27.8487,135.417 27.9207,135.47 L27.9217,135.47 C28.8387,136.627 29.9877,137.639 30.3627,139.134 C33.2767,149.001 29.6917,152.811 26.8767,159.229 C24.3037,165.091 23.7447,171.331 23.6097,177.793 C23.5977,178.689 23.4767,182.382 23.4947,183.329 C23.7747,198.288 22.9807,209.327 24.6837,224.141 C25.5697,231.844 28.9217,243.932 29.7767,251.64 C29.7767,251.64 30.8137,261.485 31.0617,263.63 C31.1217,264.811 33.7707,277.802 34.1827,283.653 C34.6537,286.283 34.1087,289.912 32.8567,292.462 C31.7437,295.119 24.9327,298.489 23.8577,299.102 C22.0407,300.138 20.2297,301.191 18.9487,302.924 C18.4937,303.538 17.5467,304.21 18.0227,305.124 C18.4157,305.876 19.3737,305.521 20.0777,305.522 C27.2457,305.542 34.4137,305.536 41.5837,305.526 C45.1537,305.522 45.1547,305.513 45.1547,301.639 C45.1537,288.332 42.9437,268.974 44.6097,251.474 C45.6907,240.119 47.6687,194.002 47.6677,194.002 C47.6667,194.002 50.6107,240.119 51.6917,251.474 C53.3577,268.974 51.1477,288.332 51.1467,301.639 C51.1467,305.513 51.1477,305.522 54.7187,305.526 C61.8877,305.536 69.0557,305.542 76.2237,305.522 C76.9277,305.521 77.8857,305.876 78.2787,305.124 C78.7557,304.21 77.8077,303.538 77.3527,302.924 C76.0717,301.191 74.2607,300.138 72.4437,299.102 C71.3687,298.489 64.5577,295.119 63.4447,292.462 C62.1927,289.912 61.6477,286.283 62.1187,283.653 C62.5307,277.802 65.1797,264.811 65.2397,263.63 C65.4877,261.485 66.5247,251.64 66.5247,251.64 C67.3807,243.932 70.7317,231.844 71.6177,224.141 C73.3207,209.327 72.5267,198.288 72.8067,183.329 C72.8247,182.382 72.7037,178.689 72.6917,177.793 C72.5567,171.331 71.9977,165.091 69.4257,159.229 C66.6097,152.811 63.0247,149.001 65.9387,139.134 C66.3137,137.639 67.4637,136.627 68.3807,135.47 L68.3817,135.47 C68.4527,135.417 68.5267,135.315 68.6017,135.18 C69.1237,134.471 69.6107,132.703 69.6107,132.703 C71.1617,133.932 71.0097,135.919 71.4227,137.574 C72.7967,143.072 75.8117,148.406 77.3587,153.73 C79.1417,159.869 79.4617,165.993 81.0237,172.336 C81.4177,173.934 80.4857,176.1 79.7307,177.594 C78.4237,180.179 77.2897,182.861 76.0917,185.508 C75.7147,186.34 75.0107,187.258 76.1787,187.965 C77.1967,188.583 78.0447,188.095 78.8137,187.283 C79.7147,186.334 79.8887,184.788 81.3767,183.975 C81.9267,187.892 81.3767,191.65 81.5057,195.387 C81.5287,196.075 81.4457,196.767 81.4587,197.456 C81.5057,199.966 82.2947,200.392 84.4937,199.112 C84.6437,195.721 84.4487,192.305 85.3417,188.945 L85.3417,198.727 C86.4157,200.643 87.4707,200.497 88.5127,198.696 L88.5127,190.828 C89.0827,193.564 88.4017,196.21 89.3947,198.67 C90.7387,198.952 91.8897,198.894 92.1607,197.087 C92.2067,196.78 92.4017,196.277 92.5867,196.247 C96.2667,195.627 94.7477,192.764 94.6147,190.75" id="Fill-11" fill="#7EB5D6"></path>
                    <path d="M30.0776,137.9482 L30.2616,138.2332" id="Fill-13" fill="#231F20"></path>
                    <g id="Group-18" transform="translate(65.000000, 202.000000)">
                        <mask id="mask-2" fill="white">
                            <use xlink:href="#path-1"></use>
                        </mask>
                        <g id="Clip-17"></g>
                        <polygon id="Fill-16" fill="#B2E0F3" mask="url(#mask-2)" points="-4.167 42.228 12.087 42.228 12.087 -4.222 -4.167 -4.222"></polygon>
                    </g>
                    <g id="Group-21" transform="translate(23.000000, 202.000000)">
                        <mask id="mask-4" fill="white">
                            <use xlink:href="#path-3"></use>
                        </mask>
                        <g id="Clip-20"></g>
                        <polygon id="Fill-19" fill="#B2E0F3" mask="url(#mask-4)" points="-4.169 42.228 12.085 42.228 12.085 -4.222 -4.169 -4.222"></polygon>
                    </g>
                </g>
                <path d="M69.1147,124.3154 C69.1147,124.3154 69.8357,131.9764 67.7397,134.4524 C67.7397,134.4524 66.0007,134.9274 66.9267,132.4274 C66.9267,132.4274 69.1147,128.4534 69.1147,124.3154" id="Fill-22" fill="#B2E0F3"></path>
                <path d="M27.4536,125.083 C27.4536,125.083 26.7326,132.744 28.8286,135.22 C28.8286,135.22 30.5676,135.695 29.6416,133.195 C29.6416,133.195 27.4536,129.221 27.4536,125.083" id="Fill-24" fill="#B2E0F3"></path>
                <path d="M54.5874,99.6211 C54.5874,101.3181 51.7284,102.6941 48.1994,102.6941 C44.6714,102.6941 41.8124,101.3181 41.8124,99.6211 C41.8124,97.9241 44.6714,101.3281 48.1994,101.3281 C51.7284,101.3281 54.5874,97.9241 54.5874,99.6211" id="Fill-26" fill="#B2E0F3"></path>
                <path d="M41.812,138.3301 C41.812,136.6331 44.671,135.2561 48.2,135.2561 C51.728,135.2561 54.587,136.6331 54.587,138.3301 C54.587,140.0271 51.728,136.6231 48.2,136.6231 C44.671,136.6231 41.812,140.0271 41.812,138.3301" id="Fill-28" fill="#B2E0F3"></path>
                <path d="M38.0278,250.96 C38.0278,251.924 36.4038,252.706 34.3988,252.706 C32.3948,252.706 30.7708,251.924 30.7708,250.96 C30.7708,249.996 32.3948,251.93 34.3988,251.93 C36.4038,251.93 38.0278,249.996 38.0278,250.96" id="Fill-30" fill="#B2E0F3"></path>
                <path d="M63.8892,250.96 C63.8892,251.924 62.2652,252.706 60.2602,252.706 C58.2562,252.706 56.6322,251.924 56.6322,250.96 C56.6322,249.996 58.2562,251.93 60.2602,251.93 C62.2652,251.93 63.8892,249.996 63.8892,250.96" id="Fill-32" fill="#B2E0F3"></path>
                <path d="M37.3286,162.8027 C37.3286,152.6907 35.3046,144.4927 36.3556,144.4927 C37.4066,144.4927 38.2596,152.6907 38.2596,162.8027 C38.2596,172.9147 37.5806,175.0337 36.5286,175.0337 C35.4766,175.0337 37.3286,172.9147 37.3286,162.8027" id="Fill-34" fill="#B2E0F3"></path>
                <path d="M58.9849,162.8027 C58.9849,152.6907 61.0089,144.4927 59.9579,144.4927 C58.9069,144.4927 58.0539,152.6907 58.0539,162.8027 C58.0539,172.9147 58.7329,175.0337 59.7849,175.0337 C60.8369,175.0337 58.9849,172.9147 58.9849,162.8027" id="Fill-36" fill="#B2E0F3"></path>
                <path d="M20.9624,146.002 C20.9624,146.002 17.0194,153.648 16.0854,155.285 C16.0854,155.285 20.2244,152.228 20.9624,146.002" id="Fill-38" fill="#B2E0F3"></path>
                <path d="M75.0854,146.002 C75.0854,146.002 79.0284,153.648 79.9624,155.285 C79.9624,155.285 75.8234,152.228 75.0854,146.002" id="Fill-40" fill="#B2E0F3"></path>
            </g>
        </g>
    </g>
</svg>