<?xml version="1.0" encoding="UTF-8"?>
<svg width="95px" height="306px" viewBox="0 0 95 306" version="1.1" xmlns="http://www.w3.org/2000/svg" xmlns:xlink="http://www.w3.org/1999/xlink">
    <!-- Generator: sketchtool 45.2 (43514) - http://www.bohemiancoding.com/sketch -->
    <title>96BC5A74-CA8A-4E67-B0A0-01346A9CB0B9</title>
    <desc>Created with sketchtool.</desc>
    <defs></defs>
    <g id="survey" stroke="none" stroke-width="1" fill="none" fill-rule="evenodd">
        <g id="female-body-" transform="translate(-662.000000, -858.000000)">
            <g id="Group-9" transform="translate(662.000000, 858.000000)">
                <path d="M94.3726,190.4951 C93.8476,182.8031 91.4896,175.5041 89.6696,168.0931 C87.2306,158.1591 85.8446,140.5991 83.3466,127.4741 C81.8836,119.7841 80.1106,112.2641 79.6796,111.1411 C74.6796,98.1471 57.6326,99.1381 56.0796,96.2081 C55.9426,93.3631 55.8066,90.5201 55.6706,87.6781 L55.9776,87.6781 C65.2066,83.4281 73.0056,77.3411 78.4276,68.2801 C79.9216,65.7821 80.8496,62.8341 84.3166,62.4721 C84.9896,62.4011 85.6496,61.5041 86.1916,60.8731 C88.4966,58.1991 89.1136,54.9951 88.7406,51.5081 C90.2396,51.0291 91.9956,51.3141 93.3736,49.8421 C91.7496,49.3261 90.2626,48.9021 88.8066,48.3821 C85.1816,47.0881 82.4476,44.9581 82.0416,40.5581 C81.7196,37.0641 80.3246,33.9021 78.7226,30.9121 C77.8756,29.3321 77.9136,28.3881 79.0966,27.1001 C82.2626,23.6581 82.7756,19.4781 81.4576,15.0961 C79.3336,8.0391 74.3596,3.9561 67.8976,1.6701 C59.8106,-1.1919 50.9456,1.6951 48.5566,10.0211 C48.2786,10.9871 47.6006,11.0521 46.8356,11.1321 C42.7336,11.5671 38.6946,12.3161 34.8686,14.0021 C23.8246,18.8681 16.7986,27.5141 13.9076,39.5551 C13.1646,42.6441 11.7776,44.0921 9.2986,45.1801 C6.5346,46.3941 3.6066,47.0021 0.3966,47.6971 C2.7366,49.5611 5.3746,49.0741 7.4796,50.2681 C5.7976,56.6051 7.9976,61.0291 14.0226,63.2591 C14.8446,63.5631 15.1716,64.1471 15.5016,64.8321 C20.7756,75.7711 29.2436,82.9771 39.8556,87.6781 C39.7196,90.5201 39.5836,93.3631 39.4466,96.2081 C37.8936,99.1381 20.8476,98.1471 15.8476,111.1411 C15.4156,112.2641 13.6436,119.7841 12.1806,127.4741 C9.6826,140.5991 8.2956,158.1591 5.8566,168.0931 C4.0376,175.5041 1.6796,182.8031 1.1536,190.4951 C1.0166,192.5091 -0.5094,195.3681 3.1696,195.9971 C3.3536,196.0281 3.5486,196.5311 3.5936,196.8381 C3.8596,198.6451 5.0116,198.7061 6.3556,198.4281 C7.3536,195.9701 6.6796,193.3221 7.2556,190.5881 L7.2376,198.4561 C8.2746,200.2591 9.3306,200.4071 10.4096,198.4931 L10.4316,188.7121 C11.3166,192.0731 11.1136,195.4891 11.2556,198.8811 C13.4526,200.1651 14.2426,199.7411 14.2946,197.2311 C14.3096,196.5421 14.2276,195.8501 14.2526,195.1621 C14.3906,191.4271 13.8496,187.6661 14.4076,183.7511 C15.8936,184.5671 16.0646,186.1141 16.9626,187.0651 C17.7306,187.8781 18.5766,188.3681 19.5956,187.7531 C20.7656,187.0491 20.0646,186.1291 19.6896,185.2961 C18.4976,182.6461 17.3696,179.9621 16.0676,177.3741 C15.3166,175.8781 15.3116,174.5101 15.7086,172.9131 C18.6546,161.0731 21.4846,149.2021 24.4686,137.3731 C24.8856,135.7191 24.7376,133.7311 26.2916,132.5061 L26.4626,132.2921 C26.5236,132.5601 26.5856,132.8171 26.6486,133.0621 L26.2916,132.5081 C26.3676,133.4961 27.6106,148.4151 25.0136,159.2241 C24.4376,161.6171 22.4146,170.3491 22.5136,180.7241 C22.6696,197.3321 26.9856,218.3531 28.0136,227.4741 C28.4476,231.3261 28.3156,245.1691 29.2636,257.7241 C30.2096,270.2781 32.2346,281.5441 32.4346,284.4711 C32.8986,287.1011 33.3476,289.7311 32.0896,292.2791 C30.9706,294.9331 28.8036,296.2461 26.3426,297.1731 C25.4456,298.1351 24.1526,298.2881 23.0756,298.8971 C21.2556,299.9301 19.4426,300.9791 18.1576,302.7091 C17.7016,303.3221 16.7526,303.9911 17.2266,304.9071 C17.6176,305.6591 18.5766,305.3071 19.2806,305.3091 C26.4486,305.3461 33.6166,305.3561 40.7866,305.3631 C44.3566,305.3671 44.3576,305.3571 44.3666,301.4831 C44.4016,285.5901 46.7636,260.7241 45.5136,238.4741 C45.0426,230.1021 45.6636,222.3541 46.2636,215.7241 C47.3386,203.8401 47.5496,195.6591 47.7636,194.7241 C47.9766,195.6591 48.1876,203.8401 49.2636,215.7241 C49.8636,222.3541 50.4836,230.1021 50.0136,238.4741 C48.7636,260.7241 51.1246,285.5901 51.1596,301.4831 C51.1686,305.3571 51.1696,305.3671 54.7396,305.3631 C61.9096,305.3561 69.0776,305.3461 76.2456,305.3091 C76.9496,305.3071 77.9086,305.6591 78.2996,304.9071 C78.7736,303.9911 77.8256,303.3221 77.3686,302.7091 C76.0836,300.9791 74.2706,299.9301 72.4506,298.8971 C71.3736,298.2881 70.0806,298.1351 69.1846,297.1731 C66.7236,296.2461 64.5566,294.9331 63.4366,292.2791 C62.1786,289.7311 62.6276,287.1011 63.0926,284.4711 C63.2916,281.5441 65.3166,270.2781 66.2636,257.7241 C67.2106,245.1691 67.0796,231.3261 67.5136,227.4741 C68.5406,218.3531 72.8566,197.3321 73.0136,180.7241 C73.1116,170.3491 71.0886,161.6171 70.5136,159.2241 C67.9156,148.4151 69.1596,133.4961 69.2346,132.5081 L68.8776,133.0621 C68.9406,132.8171 69.0026,132.5601 69.0636,132.2921 L69.2346,132.5061 C70.7886,133.7311 70.6416,135.7191 71.0586,137.3731 C74.0416,149.2021 76.8726,161.0731 79.8176,172.9131 C80.2146,174.5101 80.2096,175.8781 79.4586,177.3741 C78.1566,179.9621 77.0296,182.6461 75.8366,185.2961 C75.4616,186.1291 74.7606,187.0491 75.9306,187.7531 C76.9496,188.3681 77.7956,187.8781 78.5636,187.0651 C79.4616,186.1141 79.6336,184.5671 81.1186,183.7511 C81.6776,187.6661 81.1366,191.4271 81.2736,195.1621 C81.2986,195.8501 81.2176,196.5421 81.2316,197.2311 C81.2846,199.7411 82.0746,200.1651 84.2706,198.8811 C84.4136,195.4891 84.2096,192.0731 85.0946,188.7121 L85.1176,198.4931 C86.1956,200.4071 87.2516,200.2591 88.2896,198.4561 L88.2706,190.5881 C88.8466,193.3221 88.1726,195.9701 89.1706,198.4281 C90.5156,198.7061 91.6666,198.6451 91.9336,196.8381 C91.9776,196.5311 92.1726,196.0281 92.3566,195.9971 C96.0366,195.3681 94.5096,192.5091 94.3726,190.4951" id="Fill-136" fill="#7EB5D6"></path>
                <path d="M53.2729,98.6211 C53.2729,100.3181 50.4139,101.6941 46.8839,101.6941 C43.3569,101.6941 40.4979,100.3181 40.4979,98.6211 C40.4979,96.9241 43.3569,100.3281 46.8839,100.3281 C50.4139,100.3281 53.2729,96.9241 53.2729,98.6211" id="Fill-138" fill="#B2E0F3"></path>
                <path d="M38.5825,243.96 C38.5825,244.924 36.9585,245.706 34.9535,245.706 C32.9495,245.706 31.3255,244.924 31.3255,243.96 C31.3255,242.996 32.9495,244.93 34.9535,244.93 C36.9585,244.93 38.5825,242.996 38.5825,243.96" id="Fill-140" fill="#B2E0F3"></path>
                <path d="M64.4438,243.96 C64.4438,244.924 62.8198,245.706 60.8148,245.706 C58.8108,245.706 57.1868,244.924 57.1868,243.96 C57.1868,242.996 58.8108,244.93 60.8148,244.93 C62.8198,244.93 64.4438,242.996 64.4438,243.96" id="Fill-142" fill="#B2E0F3"></path>
                <path d="M44.9893,141.0342 C44.9893,139.7232 46.2853,138.6602 47.8843,138.6602 C49.4843,138.6602 50.7803,139.7232 50.7803,141.0342 C50.7803,142.3452 49.4843,139.7162 47.8843,139.7162 C46.2853,139.7162 44.9893,142.3452 44.9893,141.0342" id="Fill-144" fill="#B2E0F3"></path>
                <path d="M66.2983,134.9297 C66.1163,134.7717 65.8543,134.7817 65.6963,134.9477 C65.6713,134.9737 63.1993,137.5517 59.1883,138.4157 C56.3893,139.0217 53.5253,138.6577 50.6713,137.3347 C50.4613,137.2377 50.2173,137.3197 50.1103,137.5247 C50.0033,137.7317 50.0683,137.9927 50.2603,138.1317 C50.4463,138.2657 54.8953,141.4107 59.8113,140.3507 C62.3843,139.7937 64.5953,138.1807 66.3863,135.5527 C66.5163,135.3607 66.4793,135.0867 66.2983,134.9297" id="Fill-146" fill="#B2E0F3"></path>
                <path d="M28.645,134.9297 C28.827,134.7717 29.089,134.7817 29.247,134.9477 C29.272,134.9737 31.744,137.5517 35.755,138.4157 C38.554,139.0217 41.418,138.6577 44.272,137.3347 C44.482,137.2377 44.726,137.3197 44.833,137.5247 C44.94,137.7317 44.875,137.9927 44.683,138.1317 C44.497,138.2657 40.048,141.4107 35.132,140.3507 C32.559,139.7937 30.348,138.1807 28.557,135.5527 C28.427,135.3607 28.464,135.0867 28.645,134.9297" id="Fill-148" fill="#B2E0F3"></path>
                <path d="M67.978,121.3154 C67.978,121.3154 67.257,128.9764 69.353,131.4524 C69.353,131.4524 71.092,131.9274 70.166,129.4274 C70.166,129.4274 67.978,125.4534 67.978,121.3154" id="Fill-150" fill="#B2E0F3"></path>
                <path d="M28.6499,121.3154 C28.6499,121.3154 29.3709,128.9764 27.2749,131.4524 C27.2749,131.4524 25.5359,131.9274 26.4619,129.4274 C26.4619,129.4274 28.6499,125.4534 28.6499,121.3154" id="Fill-152" fill="#B2E0F3"></path>
                <path d="M60.2744,99.916 L60.2744,99.917 L60.2784,99.918 C60.2764,99.918 60.2764,99.917 60.2744,99.916" id="Fill-154" fill="#7EB5D6"></path>
                <path d="M55.9111,95.3525 L55.7691,95.5305 L56.0601,95.8135 C56.0081,95.6635 55.9541,95.5135 55.9111,95.3525" id="Fill-156" fill="#7EB5D6"></path>
                <path d="M69.1479,207.4736 C69.1479,207.4736 67.3799,231.8076 65.7829,235.1406 C65.7829,235.1406 64.1859,237.4726 64.8189,233.8066 C64.8189,233.8066 68.0299,217.1406 67.5859,207.4736 C67.5859,207.4736 68.8959,203.4896 69.1479,207.4736" id="Fill-158" fill="#B2E0F3"></path>
                <path d="M26.6714,207.4736 C26.6714,207.4736 28.4394,231.8076 30.0364,235.1406 C30.0364,235.1406 31.6334,237.4726 31.0004,233.8066 C31.0004,233.8066 27.7894,217.1406 28.2334,207.4736 C28.2334,207.4736 26.9234,203.4896 26.6714,207.4736" id="Fill-160" fill="#B2E0F3"></path>
                <path d="M19.1807,144.9316 L22.3237,144.9316 L21.8097,147.0156 L20.1807,147.0156 C20.1807,147.0156 14.1807,144.9316 19.1807,144.9316" id="Fill-162" fill="#B2E0F3"></path>
                <path d="M76,144.9316 L72.857,144.9316 L73.371,147.0156 L75,147.0156 C75,147.0156 81,144.9316 76,144.9316" id="Fill-164" fill="#B2E0F3"></path>
            </g>
        </g>
    </g>
</svg>