<?xml version="1.0" encoding="UTF-8"?>
<svg width="95px" height="306px" viewBox="0 0 95 306" version="1.1" xmlns="http://www.w3.org/2000/svg" xmlns:xlink="http://www.w3.org/1999/xlink">
    <!-- Generator: sketchtool 45.2 (43514) - http://www.bohemiancoding.com/sketch -->
    <title>BF312EAC-7EBB-404F-BFB4-D6E859E00992</title>
    <desc>Created with sketchtool.</desc>
    <defs></defs>
    <g id="survey" stroke="none" stroke-width="1" fill="none" fill-rule="evenodd">
        <g id="female-body-" transform="translate(-943.000000, -858.000000)">
            <g id="Group-5" transform="translate(943.000000, 858.000000)">
                <path d="M89.5748,168.2181 C89.4188,157.2241 88.9168,139.6521 86.4188,126.5261 C84.9558,118.8371 80.4238,112.4871 79.7778,111.4741 C72.4188,99.9161 57.4188,101.8191 55.9848,96.3331 C55.8798,94.1461 55.7748,90.5161 55.6708,87.6601 C64.8828,83.4111 72.6688,77.3281 78.0828,68.2801 C79.5768,65.7821 80.5048,62.8341 83.9718,62.4721 C84.6448,62.4011 85.3048,61.5041 85.8468,60.8731 C88.1518,58.1991 88.7688,54.9951 88.3958,51.5081 C89.8948,51.0291 91.6508,51.3141 93.0288,49.8421 C91.4048,49.3261 89.9178,48.9021 88.4618,48.3821 C84.8368,47.0881 82.1028,44.9581 81.6968,40.5581 C81.3748,37.0641 79.9798,33.9021 78.3778,30.9121 C77.5308,29.3321 77.5688,28.3881 78.7518,27.1001 C81.9178,23.6581 82.4308,19.4781 81.1128,15.0961 C78.9888,8.0391 74.0148,3.9561 67.5528,1.6701 C59.4648,-1.1919 50.6008,1.6951 48.2118,10.0211 C47.9338,10.9871 47.2558,11.0521 46.4908,11.1321 C42.3888,11.5671 38.3498,12.3161 34.5238,14.0021 C23.4788,18.8681 16.4538,27.5141 13.5628,39.5551 C12.8208,42.6441 11.4328,44.0921 8.9538,45.1801 C6.1898,46.3941 3.2618,47.0021 0.0508,47.6971 C2.3918,49.5611 5.0298,49.0741 7.1348,50.2681 C5.4538,56.6051 7.6528,61.0291 13.6778,63.2591 C14.4998,63.5631 14.8268,64.1471 15.1568,64.8321 C20.4298,75.7711 28.8988,82.9771 39.5098,87.6781 C39.3758,90.5201 39.2388,93.3631 39.1018,96.2081 C37.6688,101.6941 23.6408,99.9211 16.5028,111.1411 C15.8568,112.1561 10.1318,118.7121 8.6688,126.4011 C6.2498,139.1141 5.9188,157.4741 5.5118,168.0931 C5.2198,175.7181 1.3348,182.8031 0.8088,190.4951 C0.6728,192.5091 -0.8552,195.3681 2.8248,195.9971 C3.0088,196.0281 3.2038,196.5311 3.2488,196.8381 C3.5148,198.6451 4.6668,198.7061 6.0098,198.4281 C7.0088,195.9701 6.3348,193.3221 6.9108,190.5881 L6.8928,198.4561 C7.9298,200.2591 8.9858,200.4071 10.0648,198.4931 L10.0868,188.7121 C10.9708,192.0731 10.7678,195.4891 10.9108,198.8811 C13.1078,200.1651 13.8968,199.7411 13.9498,197.2311 C13.9648,196.5421 13.8828,195.8501 13.9078,195.1621 C14.0458,191.4271 13.5048,187.6661 14.0628,183.7511 C15.5488,184.5671 15.7188,186.1141 16.6178,187.0651 C17.3848,187.8781 18.2318,188.3681 19.2508,187.7531 C20.4208,187.0491 19.7188,186.1291 19.3438,185.2961 C18.1528,182.6461 17.0248,179.9621 15.7228,177.3741 C14.9708,175.8781 14.9668,174.5101 15.3638,172.9131 C18.3088,161.0731 21.1388,149.2021 24.1238,137.3731 C24.5408,135.7191 20.0188,150.2381 19.0018,161.3081 C18.5028,166.7371 17.5218,172.1361 17.7738,181.7601 C18.2088,198.3631 23.6408,218.3531 24.6688,227.4741 C25.1018,231.3261 26.9708,245.1691 27.9188,257.7241 C28.8658,270.2781 31.8898,281.5441 32.0898,284.4711 C32.5538,287.1011 33.0028,289.7311 31.7448,292.2791 C30.6258,294.9331 28.4588,296.2461 25.9978,297.1731 C25.0998,298.1351 23.8068,298.2881 22.7308,298.8971 C20.9108,299.9301 19.0978,300.9791 17.8128,302.7091 C17.3558,303.3221 16.4078,303.9911 16.8818,304.9071 C17.2728,305.6591 18.2318,305.3071 18.9358,305.3091 C26.1038,305.3461 33.2718,305.3561 40.4418,305.3631 C44.0118,305.3671 44.0128,305.3571 44.0218,301.4831 C44.0568,285.5901 46.9048,260.6291 47.3798,238.3491 C47.5531333,230.1851 47.5528809,223.893433 47.3790426,219.4741 C47.3790426,226.177734 46.8778,230.0131 47.3798,238.3491 C48.7188,260.5941 51.0298,285.7151 51.0648,301.6081 C51.0738,305.4821 51.0748,305.4921 54.6448,305.4881 C61.8148,305.4811 68.9828,305.4711 76.1508,305.4341 C76.8548,305.4321 77.8138,305.7841 78.2048,305.0321 C78.6788,304.1161 77.7308,303.4471 77.2738,302.8341 C75.9888,301.1041 74.1758,300.0551 72.3558,299.0221 C71.2798,298.4131 69.9868,298.2601 69.0898,297.2981 C66.6288,296.3711 64.4618,295.0581 63.3418,292.4041 C62.0848,289.8561 62.5328,287.2261 62.9978,284.5961 C63.1968,281.6691 66.2208,270.4031 67.1688,257.8491 C68.1158,245.2941 69.7928,231.8261 70.2258,227.9741 C71.2538,218.8531 76.8728,198.5001 77.3068,181.8961 C77.5588,172.2721 76.4598,167.2501 75.9608,161.8201 C74.9428,150.7511 70.5468,135.8441 70.9638,137.4981 C73.9478,149.3271 76.7778,161.1981 79.7228,173.0381 C80.1198,174.6351 80.1158,176.0031 79.3638,177.4991 C78.0618,180.0871 76.9338,182.7711 75.7428,185.4211 C75.3678,186.2541 74.6668,187.1741 75.8368,187.8781 C76.8548,188.4931 77.7018,188.0031 78.4688,187.1901 C79.3678,186.2391 79.5388,184.6921 81.0238,183.8761 C81.5828,187.7911 81.0418,191.5521 81.1788,195.2871 C81.2038,195.9751 81.1228,196.6671 81.1368,197.3561 C81.1898,199.8661 81.9788,200.2901 84.1758,199.0061 C84.3188,195.6141 84.1158,192.1981 85.0008,188.8371 L85.0218,198.6181 C86.1008,200.5321 87.1568,200.3841 88.1938,198.5811 L88.1758,190.7131 C88.7528,193.4471 88.0778,196.0951 89.0768,198.5531 C90.4208,198.8311 91.5718,198.7701 91.8388,196.9631 C91.8828,196.6561 92.0778,196.1531 92.2618,196.1221 C95.9418,195.4931 94.4148,192.6341 94.2778,190.6201 C93.7528,182.9281 89.6828,175.8491 89.5748,168.2181 Z" id="Fill-166" fill="#7EB5D6"></path>
                <path d="M53.061,100.3945 C53.061,102.0915 50.202,103.4675 46.672,103.4675 C43.145,103.4675 40.286,102.0915 40.286,100.3945 C40.286,98.6975 43.145,102.1015 46.672,102.1015 C50.202,102.1015 53.061,98.6975 53.061,100.3945" id="Fill-168" fill="#B2E0F3"></path>
                <path d="M38.7319,243.6836 C38.7319,245.0086 36.4979,246.0836 33.7429,246.0836 C30.9869,246.0836 28.7529,245.0086 28.7529,243.6836 C28.7529,242.3586 30.9869,245.0166 33.7429,245.0166 C36.4979,245.0166 38.7319,242.3586 38.7319,243.6836" id="Fill-170" fill="#B2E0F3"></path>
                <path d="M54.061,243.6836 C54.061,245.0086 56.295,246.0836 59.05,246.0836 C61.806,246.0836 64.04,245.0086 64.04,243.6836 C64.04,242.3586 61.806,245.0166 59.05,245.0166 C56.295,245.0166 54.061,242.3586 54.061,243.6836" id="Fill-172" fill="#B2E0F3"></path>
                <path d="M23.5903,136.6943 C23.8333,136.5073 24.1673,136.5383 24.3573,136.7613 C24.3893,136.7983 27.3533,140.2783 32.4153,141.6833 C35.9473,142.6673 39.6373,142.4163 43.3833,140.9403 C43.6593,140.8313 43.9643,140.9533 44.0863,141.2233 C44.2083,141.4963 44.1063,141.8263 43.8493,141.9893 C43.6023,142.1463 37.6793,145.8333 31.4753,144.1083 C28.2273,143.2053 25.5233,140.9773 23.4313,137.4843 C23.2783,137.2273 23.3453,136.8813 23.5903,136.6943" id="Fill-174" fill="#B2E0F3"></path>
                <path d="M69.7563,136.6943 C69.5133,136.5073 69.1793,136.5383 68.9893,136.7613 C68.9573,136.7983 65.9933,140.2783 60.9313,141.6833 C57.3993,142.6673 53.7093,142.4163 49.9633,140.9403 C49.6873,140.8313 49.3823,140.9533 49.2603,141.2233 C49.1383,141.4963 49.2403,141.8263 49.4973,141.9893 C49.7443,142.1463 55.6673,145.8333 61.8713,144.1083 C65.1193,143.2053 67.8233,140.9773 69.9153,137.4843 C70.0683,137.2273 70.0013,136.8813 69.7563,136.6943" id="Fill-176" fill="#B2E0F3"></path>
                <path d="M69.7661,126.4023 C69.7661,126.4023 69.0451,134.0633 71.1411,136.5393 C71.1411,136.5393 72.8811,137.0143 71.9541,134.5143 C71.9541,134.5143 69.7661,130.5403 69.7661,126.4023" id="Fill-178" fill="#B2E0F3"></path>
                <path d="M23.811,126.4023 C23.811,126.4023 24.532,134.0633 22.436,136.5393 C22.436,136.5393 20.698,137.0143 21.623,134.5143 C21.623,134.5143 23.811,130.5403 23.811,126.4023" id="Fill-180" fill="#B2E0F3"></path>
                <path d="M69.936,207.4736 C69.936,207.4776 68.169,231.8046 66.572,235.1406 C66.572,235.1406 64.974,237.4726 65.608,233.8066 C65.608,233.8066 68.819,217.1406 68.375,207.4736 C68.375,207.4736 69.684,203.4896 69.936,207.4736" id="Fill-182" fill="#B2E0F3"></path>
                <path d="M24.4595,207.4736 C24.4595,207.4736 26.2275,231.8076 27.8245,235.1406 C27.8245,235.1406 29.4225,237.4726 28.7885,233.8066 C28.7885,233.8066 25.5785,217.1406 26.0215,207.4736 C26.0215,207.4736 24.7125,203.4896 24.4595,207.4736" id="Fill-184" fill="#B2E0F3"></path>
                <path d="M18.9692,144.9316 L22.1122,144.9316 L21.5982,147.0156 L19.9692,147.0156 C19.9692,147.0156 13.9692,144.9316 18.9692,144.9316" id="Fill-186" fill="#B2E0F3"></path>
                <path d="M75.7886,144.9316 L72.6446,144.9316 L73.1586,147.0156 L74.7886,147.0156 C74.7886,147.0156 80.7886,144.9316 75.7886,144.9316" id="Fill-188" fill="#B2E0F3"></path>
                <path d="M45.6274,165.707 C45.6274,164.75 46.4834,163.973 47.5404,163.973 C48.5944,163.973 49.4504,164.75 49.4504,165.707 C49.4504,166.666 48.5944,164.745 47.5404,164.745 C46.4834,164.745 45.6274,166.666 45.6274,165.707" id="Fill-190" fill="#B2E0F3"></path>
                <path d="M18.4243,165.4453 C18.4243,165.4453 18.9183,169.9733 20.9183,170.7233 C20.9183,170.7233 27.3033,172.7243 22.7293,173.4733 C22.7293,173.4733 17.5483,174.7393 18.4243,165.4453" id="Fill-192" fill="#B2E0F3"></path>
                <path d="M75.5737,165.4453 C75.5737,165.4453 75.0797,169.9733 73.0797,170.7233 C73.0797,170.7233 66.6947,172.7243 71.2687,173.4733 C71.2687,173.4733 76.4497,174.7393 75.5737,165.4453" id="Fill-194" fill="#B2E0F3"></path>
                <path d="M47.8472,145.9736 C47.8472,148.0216 47.5832,149.6816 47.2582,149.6816 C46.9332,149.6816 46.6692,148.0216 46.6692,145.9736 C46.6692,143.9256 46.9332,142.2656 47.2582,142.2656 C47.5832,142.2656 47.8472,143.9256 47.8472,145.9736" id="Fill-196" fill="#B2E0F3"></path>
            </g>
        </g>
    </g>
</svg>