<?xml version="1.0" encoding="UTF-8"?>
<svg width="96px" height="306px" viewBox="0 0 96 306" version="1.1" xmlns="http://www.w3.org/2000/svg" xmlns:xlink="http://www.w3.org/1999/xlink">
    <!-- Generator: sketchtool 45.2 (43514) - http://www.bohemiancoding.com/sketch -->
    <title>14C98757-A3A5-4CB2-8A3C-DB76A09EBFE2</title>
    <desc>Created with sketchtool.</desc>
    <defs></defs>
    <g id="survey" stroke="none" stroke-width="1" fill="none" fill-rule="evenodd">
        <g id="female-body-" transform="translate(-799.000000, -859.000000)">
            <g id="Group-4" transform="translate(799.000000, 859.000000)">
                <path d="M94.8872,190.6201 C94.3622,182.9281 93.0552,175.2881 90.1842,168.2181 C86.2782,158.5991 87.5262,139.6521 85.0282,126.5261 C83.5652,118.8371 80.6252,112.3891 80.1942,111.2661 C75.1942,98.2721 58.0282,101.8191 56.5942,96.3331 C56.4892,94.1461 56.3852,90.5161 56.2802,87.6601 C65.4922,83.4111 73.2782,77.3281 78.6922,68.2801 C80.1862,65.7821 81.1142,62.8341 84.5822,62.4721 C85.2542,62.4011 85.9142,61.5041 86.4572,60.8731 C88.7622,58.1991 89.3792,54.9951 89.0062,51.5081 C90.5042,51.0291 92.2602,51.3141 93.6392,49.8421 C92.0142,49.3261 90.5282,48.9021 89.0712,48.3821 C85.4462,47.0881 82.7132,44.9581 82.3072,40.5581 C81.9852,37.0641 80.5902,33.9021 78.9872,30.9121 C78.1412,29.3321 78.1782,28.3881 79.3622,27.1001 C82.5282,23.6581 83.0412,19.4781 81.7232,15.0961 C79.5982,8.0391 74.6252,3.9561 68.1622,1.6701 C60.0742,-1.1919 51.2112,1.6951 48.8212,10.0211 C48.5432,10.9871 47.8662,11.0521 47.1002,11.1321 C42.9982,11.5671 38.9592,12.3161 35.1332,14.0021 C24.0882,18.8681 17.0632,27.5141 14.1722,39.5551 C13.4302,42.6441 12.0432,44.0921 9.5632,45.1801 C6.8002,46.3941 3.8722,47.0021 0.6612,47.6971 C3.0022,49.5611 5.6392,49.0741 7.7452,50.2681 C6.0632,56.6051 8.2622,61.0291 14.2872,63.2591 C15.1102,63.5631 15.4362,64.1471 15.7662,64.8321 C21.0392,75.7711 29.5082,82.9771 40.1192,87.6781 C39.9852,90.5201 39.8482,93.3631 39.7112,96.2081 C38.2782,101.6941 21.1122,98.1471 16.1122,111.1411 C15.6802,112.2641 12.7412,118.7121 11.2782,126.4011 C8.7802,139.5271 10.0282,158.4741 6.1222,168.0931 C3.2512,175.1631 1.9442,182.8031 1.4192,190.4951 C1.2822,192.5091 -0.2448,195.3681 3.4342,195.9971 C3.6192,196.0281 3.8132,196.5311 3.8582,196.8381 C4.1252,198.6451 5.2762,198.7061 6.6202,198.4281 C7.6192,195.9701 6.9442,193.3221 7.5202,190.5881 L7.5032,198.4561 C8.5402,200.2591 9.5952,200.4071 10.6752,198.4931 L10.6962,188.7121 C11.5812,192.0731 11.3782,195.4891 11.5202,198.8811 C13.7182,200.1651 14.5062,199.7411 14.5592,197.2311 C14.5742,196.5421 14.4922,195.8501 14.5182,195.1621 C14.6552,191.4271 14.1142,187.6661 14.6722,183.7511 C16.1582,184.5671 16.3282,186.1141 17.2272,187.0651 C17.9942,187.8781 18.8422,188.3681 19.8602,187.7531 C21.0302,187.0491 20.3282,186.1291 19.9532,185.2961 C18.7622,182.6461 17.6352,179.9621 16.3322,177.3741 C15.5802,175.8781 15.5762,174.5101 15.9732,172.9131 C18.9182,161.0731 21.7482,149.2021 24.7332,137.3731 C25.1512,135.7191 25.0022,133.7311 26.5572,132.5061 C26.5572,132.5061 23.6292,150.2381 22.6122,161.3081 C22.1122,166.7371 21.8602,171.8491 22.1122,181.4741 C22.5472,198.0771 26.2502,218.3531 27.2782,227.4741 C27.7112,231.3261 27.5802,245.1691 28.5282,257.7241 C29.4752,270.2781 32.5002,281.5441 32.6992,284.4711 C33.1642,287.1011 33.6122,289.7311 32.3542,292.2791 C31.2352,294.9331 29.0692,296.2461 26.6082,297.1731 C25.7092,298.1351 24.4162,298.2881 23.3402,298.8971 C21.5202,299.9301 19.7072,300.9791 18.4222,302.7091 C17.9652,303.3221 17.0182,303.9911 17.4922,304.9071 C17.8832,305.6591 18.8422,305.3071 19.5452,305.3091 C26.7132,305.3461 33.8812,305.3561 41.0512,305.3631 C44.6212,305.3671 44.6232,305.3571 44.6312,301.4831 C44.6662,285.5901 47.0282,260.7241 45.7782,238.4741 C45.3072,230.1021 45.9282,222.3541 46.5282,215.7241 C47.6042,203.8401 47.8152,195.6591 48.0282,194.7241 L47.9222,185.5951 L48.2782,194.8491 C48.4922,195.7841 48.7012,203.9651 49.7782,215.8491 C50.3772,222.4791 50.9982,230.2271 50.5282,238.5991 C49.2782,260.8491 51.6392,285.7151 51.6742,301.6081 C51.6842,305.4821 51.6842,305.4921 55.2542,305.4881 C62.4242,305.4811 69.5922,305.4711 76.7602,305.4341 C77.4652,305.4321 78.4242,305.7841 78.8152,305.0321 C79.2892,304.1161 78.3402,303.4471 77.8832,302.8341 C76.5982,301.1041 74.7852,300.0551 72.9652,299.0221 C71.8892,298.4131 70.5962,298.2601 69.7002,297.2981 C67.2392,296.3711 65.0712,295.0581 63.9512,292.4041 C62.6942,289.8561 63.1432,287.2261 63.6082,284.5961 C63.8072,281.6691 66.8302,270.4031 67.7782,257.8491 C68.7252,245.2941 68.5942,231.4511 69.0282,227.5991 C70.0552,218.4781 73.7602,198.2021 74.1942,181.5991 C74.4462,171.9741 74.1942,166.8621 73.6962,161.4331 C72.6782,150.3631 69.7502,132.6311 69.7502,132.6311 C71.3032,133.8561 71.1572,135.8441 71.5732,137.4981 C74.5572,149.3271 77.3872,161.1981 80.3322,173.0381 C80.7292,174.6351 80.7252,176.0031 79.9732,177.4991 C78.6722,180.0871 77.5432,182.7711 76.3522,185.4211 C75.9772,186.2541 75.2762,187.1741 76.4462,187.8781 C77.4652,188.4931 78.3112,188.0031 79.0782,187.1901 C79.9772,186.2391 80.1492,184.6921 81.6332,183.8761 C82.1922,187.7911 81.6512,191.5521 81.7892,195.2871 C81.8132,195.9751 81.7332,196.6671 81.7462,197.3561 C81.7992,199.8661 82.5882,200.2901 84.7852,199.0061 C84.9282,195.6141 84.7252,192.1981 85.6102,188.8371 L85.6312,198.6181 C86.7112,200.5321 87.7662,200.3841 88.8032,198.5811 L88.7852,190.7131 C89.3622,193.4471 88.6882,196.0951 89.6862,198.5531 C91.0302,198.8311 92.1822,198.7701 92.4482,196.9631 C92.4922,196.6561 92.6882,196.1531 92.8712,196.1221 C96.5512,195.4931 95.0242,192.6341 94.8872,190.6201" id="Fill-198" fill="#7EB5D6"></path>
                <path d="M53.6704,100.6211 C53.6704,102.3181 50.8114,103.6941 47.2814,103.6941 C43.7544,103.6941 40.8954,102.3181 40.8954,100.6211 C40.8954,98.9241 43.7544,102.3281 47.2814,102.3281 C50.8114,102.3281 53.6704,98.9241 53.6704,100.6211" id="Fill-200" fill="#B2E0F3"></path>
                <path d="M38.981,243.96 C38.981,244.924 37.356,245.706 35.352,245.706 C33.348,245.706 31.723,244.924 31.723,243.96 C31.723,242.996 33.348,244.93 35.352,244.93 C37.356,244.93 38.981,242.996 38.981,243.96" id="Fill-202" fill="#B2E0F3"></path>
                <path d="M64.8423,243.96 C64.8423,244.924 63.2173,245.706 61.2133,245.706 C59.2093,245.706 57.5843,244.924 57.5843,243.96 C57.5843,242.996 59.2093,244.93 61.2133,244.93 C63.2173,244.93 64.8423,242.996 64.8423,243.96" id="Fill-204" fill="#B2E0F3"></path>
                <path d="M66.6958,134.9297 C66.5138,134.7717 66.2528,134.7817 66.0938,134.9477 C66.0688,134.9737 63.5978,137.5517 59.5868,138.4157 C56.7878,139.0217 53.9228,138.6577 51.0688,137.3347 C50.8598,137.2377 50.6158,137.3197 50.5088,137.5247 C50.4008,137.7317 50.4658,137.9927 50.6588,138.1317 C50.8438,138.2657 55.2938,141.4107 60.2098,140.3507 C62.7818,139.7937 64.9948,138.1807 66.7838,135.5527 C66.9148,135.3607 66.8778,135.0867 66.6958,134.9297" id="Fill-206" fill="#B2E0F3"></path>
                <path d="M29.0435,134.9297 C29.2255,134.7717 29.4865,134.7817 29.6455,134.9477 C29.6705,134.9737 32.1415,137.5517 36.1525,138.4157 C38.9515,139.0217 41.8165,138.6577 44.6705,137.3347 C44.8815,137.2377 45.1235,137.3197 45.2305,137.5247 C45.3385,137.7317 45.2735,137.9927 45.0805,138.1317 C44.8955,138.2657 40.4455,141.4107 35.5295,140.3507 C32.9575,139.7937 30.7465,138.1807 28.9555,135.5527 C28.8245,135.3607 28.8615,135.0867 29.0435,134.9297" id="Fill-208" fill="#B2E0F3"></path>
                <path d="M68.3755,121.3154 C68.3755,121.3154 67.6545,128.9764 69.7505,131.4524 C69.7505,131.4524 71.4905,131.9274 70.5635,129.4274 C70.5635,129.4274 68.3755,125.4534 68.3755,121.3154" id="Fill-210" fill="#B2E0F3"></path>
                <path d="M29.0474,121.3154 C29.0474,121.3154 29.7684,128.9764 27.6724,131.4524 C27.6724,131.4524 25.9344,131.9274 26.8594,129.4274 C26.8594,129.4274 29.0474,125.4534 29.0474,121.3154" id="Fill-212" fill="#B2E0F3"></path>
                <path d="M69.5454,207.4736 C69.5454,207.4736 67.7774,231.8076 66.1824,235.1406 C66.1824,235.1406 64.5844,237.4726 65.2174,233.8066 C65.2174,233.8066 68.4284,217.1406 67.9844,207.4736 C67.9844,207.4736 69.2934,203.4896 69.5454,207.4736" id="Fill-214" fill="#B2E0F3"></path>
                <path d="M27.0688,207.4736 C27.0688,207.4736 28.8368,231.8076 30.4338,235.1406 C30.4338,235.1406 32.0318,237.4726 31.3988,233.8066 C31.3988,233.8066 28.1878,217.1406 28.6308,207.4736 C28.6308,207.4736 27.3228,203.4896 27.0688,207.4736" id="Fill-216" fill="#B2E0F3"></path>
                <path d="M19.5786,144.9316 L22.7216,144.9316 L22.2076,147.0156 L20.5786,147.0156 C20.5786,147.0156 14.5786,144.9316 19.5786,144.9316" id="Fill-218" fill="#B2E0F3"></path>
                <path d="M76.3989,144.9316 L73.2539,144.9316 L73.7679,147.0156 L75.3989,147.0156 C75.3989,147.0156 81.3989,144.9316 76.3989,144.9316" id="Fill-220" fill="#B2E0F3"></path>
                <path d="M22.2837,165.4453 C22.2837,165.4453 22.7777,169.9733 24.7777,170.7233 C24.7777,170.7233 31.1627,172.7243 26.5887,173.4733 C26.5887,173.4733 21.4087,174.7393 22.2837,165.4453" id="Fill-222" fill="#B2E0F3"></path>
                <path d="M73.7642,165.4453 C73.7642,165.4453 73.2702,169.9733 71.2702,170.7233 C71.2702,170.7233 64.8852,172.7243 69.4592,173.4733 C69.4592,173.4733 74.6392,174.7393 73.7642,165.4453" id="Fill-224" fill="#B2E0F3"></path>
                <path d="M44.5298,164.9092 C44.5298,163.6882 45.7618,162.6972 47.2838,162.6972 C48.8028,162.6972 50.0358,163.6882 50.0358,164.9092 C50.0358,166.1312 48.8028,163.6822 47.2838,163.6822 C45.7618,163.6822 44.5298,166.1312 44.5298,164.9092" id="Fill-226" fill="#B2E0F3"></path>
                <path d="M45.0942,141.0342 C45.0942,139.7232 46.3892,138.6602 47.9892,138.6602 C49.5882,138.6602 50.8852,139.7232 50.8852,141.0342 C50.8852,142.3452 49.5882,139.7162 47.9892,139.7162 C46.3892,139.7162 45.0942,142.3452 45.0942,141.0342" id="Fill-228" fill="#B2E0F3"></path>
            </g>
        </g>
    </g>
</svg>