<?xml version="1.0" encoding="UTF-8"?>
<svg width="104px" height="301px" viewBox="0 0 104 301" version="1.1" xmlns="http://www.w3.org/2000/svg" xmlns:xlink="http://www.w3.org/1999/xlink">
    <!-- Generator: sketchtool 45.2 (43514) - http://www.bohemiancoding.com/sketch -->
    <title>E188D9BC-CFE6-4562-A3D0-A15C32BC2D58</title>
    <desc>Created with sketchtool.</desc>
    <defs></defs>
    <g id="survey" stroke="none" stroke-width="1" fill="none" fill-rule="evenodd">
        <g id="Body-" transform="translate(-324.000000, -3332.000000)">
            <g id="Group-81" transform="translate(174.000000, 3270.000000)">
                <g id="Group-75">
                    <g id="Group-45">
                        <g id="Group-46" transform="translate(6.000000, 59.000000)">
                            <g id="Group-40" transform="translate(144.000000, 3.000000)">
                                <path d="M53.399,200.888211 C53.402,200.903211 53.217,199.842211 53.22,199.856211 L53,198.112211 C53.368,198.992211 57.305,182.306211 55.89,188.304211 C55.89,188.304211 53.738,197.418211 53.399,200.888211 C55.161,210.806211 59.429,228.463211 58.809,231.493211 C57.47,238.034211 56.99,233.221211 56.99,233.221211 C57.337,230.762211 54.236,210.544211 54.236,210.544211 L53.399,200.888211 Z" id="Fill-184" fill="#B1E1F5"></path>
                                <path d="M49.4710177,200.888211 C49.4680177,200.903211 49.6530177,199.842211 49.6500177,199.856211 L49.8700177,198.112211 C49.5020177,198.992211 45.5650177,182.306211 46.9800177,188.304211 C46.9800177,188.304211 49.1320177,197.418211 49.4710177,200.888211 C47.7090177,210.806211 43.4410177,228.463211 44.0610177,231.493211 C45.4000177,238.034211 45.8800177,233.221211 45.8800177,233.221211 C45.5330177,230.762211 48.6340177,210.544211 48.6340177,210.544211 L49.4710177,200.888211 Z" id="Fill-186" fill="#B1E1F5"></path>
                                <path d="M103.266593,173.71057 C101.961593,166.31957 103.740593,139.76657 100.780593,133.08557 C99.0225932,129.11757 99.8835932,122.06057 98.3175932,108.26657 C97.4845932,100.93257 94.4005932,94.3495696 93.3895932,90.7835696 C90.7335932,81.4155696 87.6415932,74.4745696 82.6325932,72.3805696 C76.6635932,69.8855696 71.0255932,71.1005696 64.7215932,68.2955696 C62.9585932,67.5115696 61.8295932,65.8065696 61.2435932,63.4865696 L61.2365932,63.4865696 C61.1715932,63.2255696 61.1075932,62.9625696 61.0535932,62.6915696 C68.4635932,59.3035696 72.2435932,51.5765696 74.1455932,45.1875696 C74.5105932,44.1035696 74.8235932,42.9835696 75.0865932,41.8365696 C75.2165932,41.8955696 75.3505932,41.9415696 75.4905932,41.9615696 C77.1625932,42.2095696 78.9165932,39.6475696 79.4135932,36.2405696 C79.9095932,32.8345696 78.9545932,29.8735696 77.2865932,29.6275696 C76.9995932,29.5845696 76.7115932,29.6315696 76.4275932,29.7425696 C76.6925932,25.2835696 76.8685932,20.5205696 76.8685932,20.5205696 C76.8685932,20.5205696 75.8415932,2.76856963 56.7145932,0.348569629 C37.5865932,-2.07243037 31.2115932,8.85656963 30.4795932,10.3975696 C29.7455932,11.9385696 31.9445932,15.3125696 31.9445932,15.3125696 C31.9445932,15.3125696 30.9915932,14.7255696 29.2335932,16.5595696 C28.1665932,17.6685696 28.6005932,24.3195696 29.1085932,29.3965696 C28.8675932,29.2835696 28.6205932,29.2295696 28.3715932,29.2525696 C26.8405932,29.4025696 25.8605932,32.2485696 26.1825932,35.6115696 C26.5065932,38.9755696 28.0125932,41.5785696 29.5435932,41.4285696 C29.9405932,41.3915696 30.2975932,41.1685696 30.6065932,40.8095696 C31.8655932,47.0225696 35.0415932,56.9165696 42.8625932,61.6865696 C42.7695932,62.3045696 42.6435932,62.9045696 42.4965932,63.4865696 C41.9105932,65.8065696 40.7815932,67.5115696 39.0185932,68.2955696 C32.7145932,71.1005696 27.0765932,69.8855696 21.1075932,72.3805696 C16.0985932,74.4745696 13.0065932,81.4155696 10.3505932,90.7835696 C9.33959325,94.3495696 6.25559325,100.93257 5.42259325,108.26657 C3.85659325,122.06057 4.71759325,129.11757 2.95959325,133.08557 C-0.000406751389,139.76657 1.77859325,166.31957 0.473593249,173.71057 C-0.829406751,181.10357 0.787593249,190.05057 2.52559325,193.52857 C4.26259325,197.00757 6.12759325,199.92557 7.30359325,200.48557 C9.70159325,201.62657 11.4115932,199.78657 9.91159325,197.44257 C7.07659325,193.00957 7.30359325,189.61457 7.73959325,187.44057 C8.17259325,185.26757 10.3445932,184.83157 10.3445932,184.83157 C10.3445932,184.83157 10.5845932,190.89657 12.0825932,191.35557 C14.0585932,191.95857 14.8605932,189.88657 14.4265932,184.23357 C13.9915932,178.58157 11.4515932,178.84957 9.80559325,172.98757 C7.82559325,165.93457 17.9225932,149.43357 15.5585932,132.65157 C15.5585932,132.65157 26.2315932,115.85057 25.9855932,102.83457 C26.2155932,107.02857 27.0555932,119.00557 29.2975932,123.05857 C30.7035932,125.60057 32.3955932,139.65957 29.4225932,150.80857 C28.4225932,154.55857 29.3015932,156.56457 28.9225932,159.43457 C28.5945932,161.92257 27.4945932,164.56057 27.2555932,165.76757 C23.2975932,185.80857 29.8525932,220.96057 30.1595932,225.26757 C30.3585932,228.05357 24.9135932,241.17057 28.4925932,254.26757 C32.5895932,269.26757 32.6355932,287.58357 32.1645932,289.47057 C32.1645932,289.47057 14.5455932,293.56557 14.5455932,297.82757 C14.5455932,302.51157 22.5095932,299.66957 27.7225932,300.10557 C32.9365932,300.54057 41.7815932,301.48957 45.6905932,299.74957 C49.6005932,298.01157 43.4925932,288.60157 43.4925932,288.60157 C43.4925932,288.60157 44.4915932,266.93457 47.4925932,249.93457 C49.1815932,240.36257 46.1255932,231.36057 45.9675932,229.62057 C45.6235932,225.83757 51.2955932,193.57457 51.8705932,179.82657 C52.4445932,193.57457 58.1165932,225.83757 57.7725932,229.62057 C57.6145932,231.36057 54.5585932,240.36257 56.2475932,249.93457 C59.2485932,266.93457 60.2475932,288.60157 60.2475932,288.60157 C60.2475932,288.60157 54.1395932,298.01157 58.0495932,299.74957 C61.9585932,301.48957 70.8035932,300.54057 76.0175932,300.10557 C81.2305932,299.66957 89.1945932,302.51157 89.1945932,297.82757 C89.1945932,293.56557 71.5755932,289.47057 71.5755932,289.47057 C71.1045932,287.58357 71.1505932,269.26757 75.2475932,254.26757 C78.8265932,241.17057 73.3815932,228.05357 73.5805932,225.26757 C73.8875932,220.96057 80.4425932,185.80857 76.4845932,165.76757 C76.2455932,164.56057 75.1455932,161.92257 74.8175932,159.43457 C74.4385932,156.56457 75.3175932,154.55857 74.3175932,150.80857 C71.3445932,139.65957 73.0365932,125.60057 74.4425932,123.05857 C76.6845932,119.00557 77.5245932,107.02857 77.7545932,102.83457 C77.5085932,115.85057 88.1815932,132.65157 88.1815932,132.65157 C85.8175932,149.43357 95.9145932,165.93457 93.9345932,172.98757 C92.2885932,178.84957 89.7485932,178.58157 89.3135932,184.23357 C88.8795932,189.88657 89.6815932,191.95857 91.6575932,191.35557 C93.1555932,190.89657 93.3955932,184.83157 93.3955932,184.83157 C93.3955932,184.83157 95.5675932,185.26757 96.0005932,187.44057 C96.4365932,189.61457 96.6635932,193.00957 93.8285932,197.44257 C92.3285932,199.78657 94.0385932,201.62657 96.4365932,200.48557 C97.6125932,199.92557 99.4775932,197.00757 101.214593,193.52857 C102.952593,190.05057 104.569593,181.10357 103.266593,173.71057" id="Fill-188" fill="#7DB5D7"></path>
                                <path d="M28.4026731,215.543 C28.4026731,215.543 30.7116731,232.38 30.4616731,235.13 C30.4616731,235.13 31.1286731,243.277 32.2116731,235.944 C32.8696731,231.485 25.4846731,198.25 26.0286731,194 L26.7196731,201.343 L28.4026731,215.543 Z" id="Fill-190" fill="#B1E1F5"></path>
                                <path d="M74.8505391,215.543 C74.8505391,215.543 72.5415391,232.38 72.7915391,235.13 C72.7915391,235.13 72.1245391,243.277 71.0415391,235.944 C70.3835391,231.485 77.7685391,198.25 77.2245391,194 L76.5335391,201.343 L74.8505391,215.543 Z" id="Fill-192" fill="#B1E1F5"></path>
                                <path d="M39.552,110.404304 C37.949,110.404304 33.807,109.673304 33.258,109.555304 C30.292,108.642304 25.804,107.227304 25.096,100.569304 C24.88,98.5283043 25.096,102.631304 25.096,102.631304 C25.096,102.631304 26.408,109.383304 32.662,111.085304 C34.095,111.501304 36.641,111.780304 39.552,111.780304 C44.034,111.780304 47.668,111.933304 47.668,111.121304 C47.668,110.309304 44.034,110.404304 39.552,110.404304" id="Fill-194" fill="#B1E1F5"></path>
                                <path d="M62.116,111.400422 C63.719,111.400422 65.208,111.240422 66.468,111.062422 L66.467,111.062422 L66.47,111.062422 C67.205,110.958422 67.861,110.849422 68.41,110.761422 C71.376,110.074422 75.864,108.440422 76.572,103.428422 C76.788,101.892422 76.572,104.980422 76.572,104.980422 C76.572,104.980422 75.26,110.062422 69.006,111.343422 C67.573,111.657422 65.027,111.867422 62.116,111.867422 C57.634,111.867422 54,111.982422 54,111.371422 C54,110.759422 57.634,111.400422 62.116,111.400422" id="Fill-196" fill="#B1E1F5"></path>
                                <path d="M23.8256268,97.610545 C23.8256268,97.610545 24.8516268,100.087545 25.2846268,102.797545 C25.6376268,105.015545 25.4616268,107.391545 25.1026268,108.689545 C25.1026268,108.689545 24.3706268,113.016545 24.5186268,107.860545 C24.5186268,107.860545 25.0166268,102.861545 23.1636268,98.777545 C23.1636268,98.777545 22.5066268,95.735545 23.8256268,97.610545" id="Fill-198" fill="#B1E1F5"></path>
                                <path d="M28.2824773,122.098178 C28.2824773,122.098178 31.8834773,130.438178 33.0084773,134.063178 C33.0084773,134.063178 34.1334773,135.657178 33.0084773,131.610178 C33.0084773,131.610178 26.5964773,116.943178 28.2824773,122.098178" id="Fill-200" fill="#B1E1F5"></path>
                                <path d="M11.1631571,84.9987988 C11.1631571,84.9987988 8.2771571,92.8117988 9.1721571,98.6247988 C9.1721571,98.6247988 10.6351571,87.4657988 12.2541571,85.1537988 C12.2541571,85.1537988 13.4841571,80.4127988 11.1631571,84.9987988" id="Fill-202" fill="#B1E1F5"></path>
                                <path d="M91.4166401,84.9987988 C91.4166401,84.9987988 94.3026401,92.8117988 93.4076401,98.6247988 C93.4076401,98.6247988 91.9446401,87.4657988 90.3256401,85.1537988 C90.3256401,85.1537988 89.0956401,80.4127988 91.4166401,84.9987988" id="Fill-204" fill="#B1E1F5"></path>
                                <path d="M75.226,122.098178 C75.226,122.098178 71.625,130.438178 70.5,134.063178 C70.5,134.063178 69.375,135.657178 70.5,131.610178 C70.5,131.610178 76.912,116.943178 75.226,122.098178" id="Fill-206" fill="#B1E1F5"></path>
                                <path d="M28.6866614,160 C28.6866614,160 28.1096614,162.96 28.0016614,163.382 C27.8956614,163.805 32.8886614,165.54 35.2926614,167.504 C37.6976614,169.468 40.3506614,170.94 40.6816614,170.94 C40.6816614,170.94 44.4946614,172.216 40.6816614,169.762 C40.6816614,169.762 38.1116614,168.094 35.6256614,166.522 C35.6256614,166.522 29.4086614,162.792 28.6866614,160" id="Fill-208" fill="#B1E1F5"></path>
                                <path d="M74.342,160 C74.342,160 74.946,163.009 75.059,163.438 C75.171,163.867 69.939,165.632 67.419,167.627 C64.901,169.623 62.121,171.12 61.776,171.12 C61.776,171.12 57.78,172.417 61.776,169.923 C61.776,169.923 64.467,168.228 67.071,166.63 C67.071,166.63 73.586,162.838 74.342,160" id="Fill-210" fill="#B1E1F5"></path>
                                <path d="M52.976,116.161 L51.221,113.12 C51.178,113.045 51.098,113 51.012,113 C50.926,113 50.846,113.045 50.803,113.12 L49.033,116.186 C48.989,116.263 48.989,116.353 49.033,116.429 C49.075,116.503 49.155,116.549 49.241,116.549 L51.013,114.515 L52.782,116.549 L52.785,116.549 C52.918,116.549 53.027,116.442 53.027,116.307 C53.027,116.252 53.008,116.201 52.976,116.161" id="Fill-212" fill="#B1E1F5"></path>
                                <path d="M51.807,130.998 C51.807,138.728 51.623,144.996 51.404,144.996 C51.18,144.996 51,138.728 51,130.998 C51,123.268 51.18,117 51.404,117 C51.623,117 51.807,123.268 51.807,130.998" id="Fill-214" fill="#B1E1F5"></path>
                                <path d="M51.807,103.64 C51.807,107.307 51.623,110.28 51.404,110.28 C51.18,110.28 51,107.307 51,103.64 C51,99.973 51.18,97 51.404,97 C51.623,97 51.807,99.973 51.807,103.64" id="Fill-216" fill="#B1E1F5"></path>
                                <path d="M52,126.702199 C52,127.936199 52.895,128.936199 53.998,128.936199 L59.77,128.936199 C60.874,128.936199 61.768,127.936199 61.768,126.702199 L61.768,126.293199 C61.768,125.058199 60.874,128.124199 59.77,128.124199 L53.998,128.124199 C52.895,128.124199 52,125.058199 52,126.293199 L52,126.702199 Z" id="Fill-218" fill="#B1E1F5"></path>
                                <path d="M53,135.702273 C53,136.936273 54.099,137.936273 55.455,137.936273 L62.547,137.936273 C63.903,137.936273 65.002,136.936273 65.002,135.702273 L65.002,135.293273 C65.002,134.058273 63.903,137.123273 62.547,137.123273 L55.455,137.123273 C54.099,137.123273 53,134.058273 53,135.293273 L53,135.702273 Z" id="Fill-220" fill="#B1E1F5"></path>
                                <path d="M49.768,127.702199 C49.768,128.936199 48.873,129.936199 47.77,129.936199 L41.998,129.936199 C40.894,129.936199 40,128.936199 40,127.702199 L40,127.293199 C40,126.058199 40.894,129.124199 41.998,129.124199 L47.77,129.124199 C48.873,129.124199 49.768,126.058199 49.768,127.293199 L49.768,127.702199 Z" id="Fill-222" fill="#B1E1F5"></path>
                                <path d="M49.002,135.702273 C49.002,136.936273 47.903,137.936273 46.547,137.936273 L39.455,137.936273 C38.099,137.936273 37,136.936273 37,135.702273 L37,135.293273 C37,134.058273 38.099,137.123273 39.455,137.123273 L46.547,137.123273 C47.903,137.123273 49.002,134.058273 49.002,135.293273 L49.002,135.702273 Z" id="Fill-224" fill="#B1E1F5"></path>
                                <path d="M42.6901838,76.4824379 C42.4631838,75.2654379 41.3651838,74.8314379 40.1491838,75.0574379 L31.5271838,76.6584379 C23.9371838,79.1394379 30.7751838,77.6834379 31.9901838,77.4564379 L40.4531838,76.0124379 C41.6691838,75.7864379 44.7611838,80.1394379 44.5371838,78.9234379 L42.6901838,76.4824379 Z" id="Fill-226" fill="#B1E1F5"></path>
                                <path d="M59.858557,76.4824379 C60.084557,75.2654379 61.183557,74.8314379 62.399557,75.0574379 L71.021557,76.6584379 C78.611557,79.1394379 71.773557,77.6834379 70.558557,77.4564379 L62.095557,76.0124379 C60.879557,75.7864379 57.787557,80.1394379 58.011557,78.9234379 L59.858557,76.4824379 Z" id="Fill-228" fill="#B1E1F5"></path>
                                <path d="M93.2342771,127 C93.2342771,127 87.4142771,131.209 88.0482771,137.127 L93.2342771,127 Z" id="Fill-230" fill="#B1E1F5"></path>
                                <path d="M10,127 C10,127 15.82,131.209 15.186,137.127 L10,127 Z" id="Fill-232" fill="#B1E1F5"></path>
                            </g>
                        </g>
                    </g>
                </g>
            </g>
        </g>
    </g>
</svg>