<?xml version="1.0" encoding="UTF-8"?>
<svg width="104px" height="301px" viewBox="0 0 104 301" version="1.1" xmlns="http://www.w3.org/2000/svg" xmlns:xlink="http://www.w3.org/1999/xlink">
    <!-- Generator: sketchtool 45.2 (43514) - http://www.bohemiancoding.com/sketch -->
    <title>9CC10413-F5C8-4B4E-BABB-C82B5E04C4B2</title>
    <desc>Created with sketchtool.</desc>
    <defs></defs>
    <g id="survey" stroke="none" stroke-width="1" fill="none" fill-rule="evenodd">
        <g id="Body-" transform="translate(-602.000000, -3330.000000)">
            <g id="Group-81" transform="translate(174.000000, 3270.000000)">
                <g id="Group-75">
                    <g id="Group-45">
                        <g id="Group-46" transform="translate(6.000000, 59.000000)">
                            <g id="Group-31" transform="translate(422.000000, 1.000000)">
                                <path d="M100.743593,133.085543 C99.4405932,127.868543 98.1455932,112.647543 93.8005932,92.6475431 C89.4555932,72.6435431 70.3585932,70.0335431 64.7095932,68.2955431 C62.6575932,67.6625431 61.5865932,65.3615431 61.0535932,62.6915431 C68.4635932,59.3035431 72.2435932,51.5765431 74.1455932,45.1875431 C74.5105932,44.1035431 74.8235932,42.9835431 75.0865932,41.8365431 C75.2165932,41.8955431 75.3505932,41.9415431 75.4905932,41.9615431 C77.1635932,42.2095431 78.9165932,39.6475431 79.4135932,36.2405431 C79.9095932,32.8345431 78.9545932,29.8735431 77.2865932,29.6275431 C76.9995932,29.5845431 76.7115932,29.6315431 76.4275932,29.7425431 C76.6925932,25.2835431 76.8685932,20.5205431 76.8685932,20.5205431 C76.8685932,20.5205431 75.8415932,2.76854313 56.7145932,0.348543127 C37.5865932,-2.07245687 31.2115932,8.85754313 30.4795932,10.3975431 C29.7465932,11.9385431 31.9445932,15.3125431 31.9445932,15.3125431 C31.9445932,15.3125431 30.9915932,14.7255431 29.2335932,16.5595431 C28.1665932,17.6695431 28.6005932,24.3205431 29.1085932,29.3965431 C28.8675932,29.2835431 28.6205932,29.2295431 28.3715932,29.2525431 C26.8405932,29.4025431 25.8605932,32.2485431 26.1825932,35.6115431 C26.5065932,38.9755431 28.0125932,41.5785431 29.5435932,41.4285431 C29.9405932,41.3915431 30.2975932,41.1685431 30.6065932,40.8095431 C31.8655932,47.0225431 35.0415932,56.9165431 42.8625932,61.6865431 C42.3995932,64.7685431 41.3255932,67.5845431 39.0185932,68.2955431 C33.3705932,70.0335431 14.2545932,72.6435431 9.91159325,92.6475431 C5.56659325,112.647543 4.26259325,127.868543 2.95959325,133.085543 C1.65659325,138.304543 1.77859325,166.319543 0.473593249,173.710543 C-0.829406751,181.103543 0.787593249,190.050543 2.52559325,193.528543 C4.26259325,197.007543 6.12759325,199.925543 7.30359325,200.485543 C9.70159325,201.626543 11.4115932,199.786543 9.91159325,197.442543 C7.07659325,193.009543 7.30359325,189.614543 7.73959325,187.440543 C8.17259325,185.267543 10.3445932,184.831543 10.3445932,184.831543 C10.3445932,184.831543 10.5845932,190.896543 12.0825932,191.355543 C14.0585932,191.958543 14.8605932,189.886543 14.4265932,184.233543 C13.9915932,178.581543 9.80559325,179.075543 9.80559325,172.987543 C9.80559325,166.899543 17.7315932,140.042543 15.5585932,132.651543 C15.5585932,132.651543 24.4395932,109.690543 25.7435932,98.8195431 C25.7435932,98.8195431 26.8545932,117.866543 29.0265932,123.085543 C30.5435932,126.731543 29.5165932,143.105543 28.7605932,152.646543 C28.6932599,152.642543 28.4922599,154.963876 28.1575932,159.610543 C28.1575932,159.628543 27.2215932,217.937543 27.6555932,224.023543 C28.0895932,230.110543 33.0335932,285.991543 32.1645932,289.470543 C32.1645932,289.470543 14.5455932,293.565543 14.5455932,297.827543 C14.5455932,302.511543 22.5095932,299.669543 27.7225932,300.105543 C32.9365932,300.540543 41.7815932,301.489543 45.6905932,299.749543 C49.6005932,298.011543 45.1005932,287.929543 45.1005932,287.929543 C45.1005932,287.929543 46.4035932,234.403543 45.9675932,229.620543 C45.5805932,225.358543 50.6535932,185.216543 51.8255932,175.577543 C53.0455932,185.187543 58.1785932,225.357543 57.7915932,229.620543 C57.3585932,234.403543 58.5945932,287.929543 58.5945932,287.929543 C58.5945932,287.929543 54.0945932,298.011543 58.0045932,299.749543 C61.9135932,301.489543 70.7585932,300.540543 75.9715932,300.105543 C81.1855932,299.669543 89.1495932,302.511543 89.1495932,297.827543 C89.1495932,293.565543 71.5305932,289.470543 71.5305932,289.470543 C70.6625932,285.991543 75.6055932,230.110543 76.0395932,224.023543 C76.4505932,218.275543 75.6375932,165.960543 75.5455932,160.145543 C75.6129266,160.09221 75.4892599,157.588543 75.1745932,152.634543 C74.1785932,143.111543 73.1515932,126.731543 74.6685932,123.085543 C76.8405932,117.866543 77.9165932,98.4835431 77.9165932,98.4835431 C79.2195932,109.355543 88.1365932,132.651543 88.1365932,132.651543 C85.9635932,140.042543 93.8895932,166.899543 93.8895932,172.987543 C93.8895932,179.075543 89.7045932,178.581543 89.2685932,184.233543 C88.8345932,189.886543 89.6365932,191.958543 91.6125932,191.355543 C93.1105932,190.896543 93.3505932,184.831543 93.3505932,184.831543 C93.3505932,184.831543 95.5225932,185.267543 95.9555932,187.440543 C96.3905932,189.614543 96.6205932,193.009543 93.7845932,197.442543 C92.2855932,199.786543 93.9955932,201.626543 96.3915932,200.485543 C97.5695932,199.925543 99.4345932,197.007543 101.171593,193.528543 C102.909593,190.050543 104.528593,181.103543 103.225593,173.710543 C101.920593,166.319543 102.046593,138.304543 100.743593,133.085543 Z" id="Fill-29" fill="#567CA8"></path>
                                <path d="M70.303,114.271916 C70.303,115.261916 66.878,116.064916 62.652,116.064916 C58.425,116.064916 55,115.261916 55,114.271916 C55,113.282916 58.425,115.309916 62.652,115.309916 C66.878,115.309916 70.303,113.282916 70.303,114.271916" id="Fill-31" fill="#B1E1F5"></path>
                                <path d="M48.303,114.271916 C48.303,115.261916 44.878,116.064916 40.652,116.064916 C36.425,116.064916 33,115.261916 33,114.271916 C33,113.282916 36.425,115.309916 40.652,115.309916 C44.878,115.309916 48.303,113.282916 48.303,114.271916" id="Fill-33" fill="#B1E1F5"></path>
                                <path d="M26,94.3177631 C26,94.3177631 26.518,95.3887631 26.245,98.0997631 C26.079,99.7547631 26.358,104.002763 26.686,105.883763 C26.686,105.883763 26.937,100.912763 26.937,99.4777631 C26.937,99.4777631 26.831,92.4427631 26,94.3177631" id="Fill-35" fill="#B1E1F5"></path>
                                <path d="M77.937,94.3177631 C77.937,94.3177631 77.419,95.3887631 77.692,98.0997631 C77.858,99.7547631 77.579,104.002763 77.251,105.883763 C77.251,105.883763 77,100.912763 77,99.4777631 C77,99.4777631 77.106,92.4427631 77.937,94.3177631" id="Fill-37" fill="#B1E1F5"></path>
                                <path d="M73.899,124.739 C73.899,124.739 69.663,133.95 69,136.117 C69,136.117 72.862,120.549 75.35,120 L73.899,124.739 Z" id="Fill-39" fill="#B1E1F5"></path>
                                <path d="M29.451,124.739 C29.451,124.739 33.687,133.95 34.35,136.117 C34.35,136.117 30.488,120.549 28,120 L29.451,124.739 Z" id="Fill-41" fill="#B1E1F5"></path>
                                <path d="M28,217 C28,217 28.666,231.121 30.561,238.311 C30.561,238.311 32.351,239.98 30.561,233.5 C28.771,227.02 28.31,215.001 28.165,212 L28,217 Z" id="Fill-43" fill="#B1E1F5"></path>
                                <path d="M46.3565556,217 C46.3565556,217 45.6905556,231.121 43.7955556,238.311 C43.7955556,238.311 42.0055556,239.98 43.7955556,233.5 C45.5855556,227.02 46.0465556,215.001 46.1915556,212 L46.3565556,217 Z" id="Fill-45" fill="#B1E1F5"></path>
                                <path d="M57,217 C57,217 57.666,231.121 59.561,238.311 C59.561,238.311 61.351,239.98 59.561,233.5 C57.771,227.02 57.31,215.001 57.165,212 L57,217 Z" id="Fill-47" fill="#B1E1F5"></path>
                                <path d="M76.3565556,217 C76.3565556,217 75.6905556,231.121 73.7955556,238.311 C73.7955556,238.311 72.0055556,239.98 73.7955556,233.5 C75.5855556,227.02 76.0465556,215.001 76.1915556,212 L76.3565556,217 Z" id="Fill-49" fill="#B1E1F5"></path>
                                <path d="M51.85,132.454 C51.85,138.78 51.657,143.908 51.425,143.908 C51.188,143.908 51,138.78 51,132.454 C51,126.128 51.188,121 51.425,121 C51.657,121 51.85,126.128 51.85,132.454" id="Fill-51" fill="#B1E1F5"></path>
                                <path d="M45.0687025,74.4198674 C44.8517025,73.2538674 43.7987025,72.8388674 42.6337025,73.0548674 L34.3787025,74.5878674 C27.1087025,76.9648674 33.6577025,75.5698674 34.8207025,75.3518674 L42.9247025,73.9698674 C44.0897025,73.7528674 47.0527025,77.9228674 46.8377025,76.7588674 L45.0687025,74.4198674 Z" id="Fill-53" fill="#B1E1F5"></path>
                                <path d="M57.7801097,74.4198674 C57.9971097,73.2538674 59.0501097,72.8388674 60.2151097,73.0548674 L68.4701097,74.5878674 C75.7401097,76.9648674 69.1911097,75.5698674 68.0281097,75.3518674 L59.9241097,73.9698674 C58.7591097,73.7528674 55.7961097,77.9228674 56.0111097,76.7588674 L57.7801097,74.4198674 Z" id="Fill-55" fill="#B1E1F5"></path>
                            </g>
                        </g>
                    </g>
                </g>
            </g>
        </g>
    </g>
</svg>