<?xml version="1.0" encoding="UTF-8"?>
<svg width="105px" height="301px" viewBox="0 0 105 301" version="1.1" xmlns="http://www.w3.org/2000/svg" xmlns:xlink="http://www.w3.org/1999/xlink">
    <!-- Generator: sketchtool 45.2 (43514) - http://www.bohemiancoding.com/sketch -->
    <title>CD939373-D69E-4FBE-9AE7-74C4CE4BFDDE</title>
    <desc>Created with sketchtool.</desc>
    <defs></defs>
    <g id="survey" stroke="none" stroke-width="1" fill="none" fill-rule="evenodd">
        <g id="Body-" transform="translate(-180.000000, -3333.000000)">
            <g id="Group-81" transform="translate(174.000000, 3270.000000)">
                <g id="Group-75">
                    <g id="Group-45">
                        <g id="Group-46" transform="translate(6.000000, 59.000000)">
                            <g id="Group-41" transform="translate(0.000000, 4.000000)">
                                <g id="Group-59" fill="#7DB5D7">
                                    <path d="M104.1826,173.9531 C102.8776,166.5621 104.6566,140.0091 101.6966,133.3281 C99.9386,129.3601 102.2336,122.0091 99.2336,108.5091 C97.6316,101.3041 95.3166,94.5921 94.3056,91.0261 C91.6496,81.6581 93.3086,77.8941 83.5486,72.6231 C80.2526,70.8431 72.0366,72.8141 65.7336,70.0101 C63.9706,69.2251 62.7456,66.0491 62.1596,63.7291 L62.1936,63.7291 C62.1286,63.4681 62.0646,63.2051 62.0106,62.9341 C69.4206,59.5461 73.2006,51.8191 75.1026,45.4301 C75.4676,44.3461 75.7806,43.2261 76.0436,42.0791 C76.1736,42.1381 76.3076,42.1841 76.4476,42.2041 C78.1206,42.4521 79.8736,39.8901 80.3706,36.4831 C80.8666,33.0771 79.9116,30.1161 78.2436,29.8701 C77.9566,29.8271 77.6686,29.8741 77.3846,29.9851 C77.6496,25.5261 77.8256,20.7631 77.8256,20.7631 C77.8256,20.7631 76.7986,3.0111 57.6716,0.5911 C38.5436,-1.8299 32.1686,9.1001 31.4366,10.6401 C30.7036,12.1811 32.9016,15.5551 32.9016,15.5551 C32.9016,15.5551 31.9486,14.9681 30.1906,16.8021 C29.1236,17.9121 29.5576,24.5621 30.0656,29.6391 C29.8246,29.5261 29.5776,29.4721 29.3286,29.4951 C27.7976,29.6451 26.8176,32.4911 27.1396,35.8541 C27.4636,39.2181 28.9696,41.8211 30.5006,41.6711 C30.8976,41.6341 31.2546,41.4111 31.5636,41.0521 C32.8226,47.2651 35.9986,57.1591 43.8196,61.9291 C43.7266,62.5471 43.6006,63.1471 43.4536,63.7291 C42.8676,66.0491 41.6426,69.2251 39.8796,70.0101 C33.5766,72.8141 25.3606,70.8431 22.0646,72.6231 C12.3046,77.8941 13.9636,81.6581 11.3076,91.0261 C10.2966,94.5921 7.9816,101.3041 6.3796,108.5091 C3.3796,122.0091 5.6746,129.3601 3.9166,133.3281 C0.9566,140.0091 2.7356,166.5621 1.4306,173.9531 C0.1276,181.3461 1.7446,190.2931 3.4826,193.7711 C5.2196,197.2501 7.0846,200.1681 8.2606,200.7281 C10.6586,201.8691 12.3686,200.0291 10.8686,197.6851 C8.0336,193.2521 8.2606,189.8571 8.6966,187.6831 C9.1296,185.5101 11.3016,185.0741 11.3016,185.0741 C11.3016,185.0741 11.5416,191.1391 13.0396,191.5981 C15.0156,192.2011 15.8176,190.1291 15.3836,184.4761 C14.9486,178.8241 12.4086,179.0921 10.7626,173.2301 C8.7826,166.1771 18.8796,149.6761 16.5156,132.8941 C16.5156,132.8941 24.0466,118.1761 26.0216,100.0141 C26.2516,104.2081 28.0126,119.2481 30.2546,123.3011 C31.6616,125.8431 34.7546,141.0091 30.3796,151.0511 C28.8296,154.6081 29.6256,158.6401 29.2466,161.5091 C28.9186,163.9971 28.4516,164.8031 28.2126,166.0101 C24.2546,186.0511 30.8096,221.2031 31.1166,225.5101 C31.3156,228.2961 25.8706,241.4131 29.4496,254.5101 C33.5466,269.5101 33.5926,287.8261 33.1216,289.7131 C33.1216,289.7131 15.5026,293.8081 15.5026,298.0701 C15.5026,302.7541 23.4666,299.9121 28.6796,300.3481 C33.8936,300.7831 42.7386,301.7321 46.6476,299.9921 C50.5576,298.2541 44.4496,288.8441 44.4496,288.8441 C44.4496,288.8441 45.4486,267.1771 48.4496,250.1771 C50.1386,240.6051 47.0826,231.6031 46.9246,229.8631 C46.5836,226.1151 52.1446,194.4311 52.8066,180.4721 C53.4686,194.4311 59.0296,226.1151 58.6886,229.8631 C58.5306,231.6031 55.4746,240.6051 57.1636,250.1771 C60.1646,267.1771 61.1636,288.8441 61.1636,288.8441 C61.1636,288.8441 55.0556,298.2541 58.9656,299.9921 C62.8746,301.7321 71.7196,300.7831 76.9336,300.3481 C82.1466,299.9121 90.1106,302.7541 90.1106,298.0701 C90.1106,293.8081 72.4916,289.7131 72.4916,289.7131 C72.0206,287.8261 72.0666,269.5101 76.1636,254.5101 C79.7426,241.4131 74.2976,228.2961 74.4966,225.5101 C74.8036,221.2031 81.3586,186.0511 77.4006,166.0101 C77.1616,164.8031 76.6946,163.9971 76.3666,161.5091 C75.9876,158.6401 76.7836,154.6081 75.2336,151.0511 C70.8586,141.0091 73.9526,125.8431 75.3586,123.3011 C77.6006,119.2481 79.3616,104.2081 79.5916,100.0141 C81.5666,118.1761 89.0976,132.8941 89.0976,132.8941 C86.7336,149.6761 96.8306,166.1771 94.8506,173.2301 C93.2046,179.0921 90.6646,178.8241 90.2296,184.4761 C89.7956,190.1291 90.5976,192.2011 92.5736,191.5981 C94.0716,191.1391 94.3116,185.0741 94.3116,185.0741 C94.3116,185.0741 96.4836,185.5101 96.9166,187.6831 C97.3526,189.8571 97.5796,193.2521 94.7446,197.6851 C93.2446,200.0291 94.9546,201.8691 97.3526,200.7281 C98.5286,200.1681 100.3936,197.2501 102.1306,193.7711 C103.8686,190.2931 105.4856,181.3461 104.1826,173.9531" id="Fill-57"></path>
                                </g>
                                <path d="M50.4710177,200.888211 C50.4680177,200.903211 50.6530177,199.842211 50.6500177,199.856211 L50.8700177,198.112211 C50.5020177,198.992211 46.5650177,182.306211 47.9800177,188.304211 C47.9800177,188.304211 50.1320177,197.418211 50.4710177,200.888211 C48.7090177,210.806211 44.4410177,228.463211 45.0610177,231.493211 C46.4000177,238.034211 46.8800177,233.221211 46.8800177,233.221211 C46.5330177,230.762211 49.6340177,210.544211 49.6340177,210.544211 L50.4710177,200.888211 Z" id="Fill-60" fill="#B1E1F5"></path>
                                <path d="M29.4026731,215.543 C29.4026731,215.543 31.7116731,232.38 31.4616731,235.13 C31.4616731,235.13 32.1286731,243.277 33.2116731,235.944 C33.8696731,231.485 26.4846731,198.25 27.0286731,194 L27.7196731,201.343 L29.4026731,215.543 Z" id="Fill-62" fill="#B1E1F5"></path>
                                <path d="M15.3079561,126.826451 C13.9169561,120.674451 17.7279561,131.662451 17.0599561,136.217451 L15.3079561,126.826451 Z" id="Fill-64" fill="#B1E1F5"></path>
                                <path d="M41.2098525,110.075916 C39.6068525,110.075916 36.8588525,109.737916 36.8588525,109.737916 C36.8588525,109.737916 35.4648525,109.524916 34.9158525,109.436916 C31.9498525,108.749916 27.7858525,108.304916 27.0778525,103.292916 C26.8618525,101.756916 27.1638525,106.761916 27.1638525,106.761916 C27.1638525,106.761916 28.3908525,109.926916 34.6448525,111.207916 C36.0768525,111.520916 38.6228525,111.730916 41.5338525,111.730916 C46.0168525,111.730916 49.6498525,111.846916 49.6498525,111.234916 C49.6498525,110.623916 45.6918525,110.075916 41.2098525,110.075916" id="Fill-66" fill="#B1E1F5"></path>
                                <path d="M65.44,110.075916 C67.043,110.075916 69.791,109.737916 69.791,109.737916 C69.791,109.737916 71.185,109.524916 71.734,109.436916 C74.7,108.749916 78.864,108.304916 79.572,103.292916 C79.788,101.756916 79.486,106.761916 79.486,106.761916 C79.486,106.761916 78.259,109.926916 72.005,111.207916 C70.573,111.520916 68.027,111.730916 65.116,111.730916 C60.633,111.730916 57,111.846916 57,111.234916 C57,110.623916 60.958,110.075916 65.44,110.075916" id="Fill-68" fill="#B1E1F5"></path>
                                <path d="M25.520126,91.610545 C25.759126,92.525545 26.005126,92.486545 26.439126,96.797545 C26.662126,99.015545 26.550126,101.391545 26.325126,102.689545 C26.325126,102.689545 25.863126,107.016545 25.957126,101.860545 C25.957126,101.860545 26.270126,96.861545 25.103126,92.777545 C25.103126,92.777545 24.689126,89.735545 25.520126,91.610545" id="Fill-70" fill="#B1E1F5"></path>
                                <path d="M13.0071379,84.1462394 C13.0071379,84.1462394 9.16613794,96.6992394 10.1661379,103.672239 C10.1661379,103.672239 12.5101379,86.8742394 13.6781379,84.4552394 C13.6781379,84.4552394 15.5411379,74.6402394 13.0071379,84.1462394" id="Fill-72" fill="#B1E1F5"></path>
                                <path d="M29.3347733,159 C29.3347733,159 29.1067733,162.188 29.0167733,162.547 C28.7327733,163.273 32.1057733,163.081 35.2967733,165.687 C37.3377733,167.354 41.4277733,169.875 41.7087733,169.875 C41.7087733,169.875 42.2717733,169.313 35.5787733,164.854 C35.5787733,164.854 29.9467733,161.37 29.3347733,159" id="Fill-74" fill="#B1E1F5"></path>
                                <path d="M26.0777795,98 C24.2307795,103.528 24.4217795,103.546 22.4767795,106.787 C22.4767795,106.787 20.8517795,110.604 23.6017795,106.787 C23.6017795,106.787 25.9607795,101.752 26.0777795,98" id="Fill-76" fill="#B1E1F5"></path>
                                <path d="M5.01333333,128.676479 C5.01333333,128.676479 4.98333333,135.668479 5.01333333,137.668479 C5.01333333,137.668479 5.33433333,143.106479 5.66833333,136.918479 C5.66833333,136.918479 5.21133333,119.484479 5.01333333,128.676479" id="Fill-78" fill="#B1E1F5"></path>
                                <path d="M35.756,136.580292 C35.756,145.257292 38.371,151.718292 38.523,152.301292 C39.576,156.346292 35,145.267292 35,136.590292 C35,127.913292 39.536,116.771292 38.523,120.879292 C37.865,123.545292 35.756,127.903292 35.756,136.580292" id="Fill-80" fill="#B1E1F5"></path>
                                <path d="M69.9243746,136.580292 C69.9243746,145.257292 67.3093746,151.718292 67.1573746,152.301292 C66.1043746,156.346292 70.6803746,145.267292 70.6803746,136.590292 C70.6803746,127.913292 66.1443746,116.771292 67.1573746,120.879292 C67.8153746,123.545292 69.9243746,127.903292 69.9243746,136.580292" id="Fill-82" fill="#B1E1F5"></path>
                                <path d="M32.141,146.491798 C32.141,146.491798 30.202,151.892798 30,153.393798 C30,153.393798 30.59,153.434798 31.071,154.601798 C31.551,155.768798 34.526,137.514798 32.141,146.491798" id="Fill-84" fill="#B1E1F5"></path>
                                <path d="M55.399,200.888211 C55.402,200.903211 55.217,199.842211 55.22,199.856211 L55,198.112211 C55.368,198.992211 59.305,182.306211 57.89,188.304211 C57.89,188.304211 55.738,197.418211 55.399,200.888211 C57.161,210.806211 61.429,228.463211 60.809,231.493211 C59.47,238.034211 58.99,233.221211 58.99,233.221211 C59.337,230.762211 56.236,210.544211 56.236,210.544211 L55.399,200.888211 Z" id="Fill-86" fill="#B1E1F5"></path>
                                <path d="M75.8505391,215.543 C75.8505391,215.543 73.5415391,232.38 73.7915391,235.13 C73.7915391,235.13 73.1245391,243.277 72.0415391,235.944 C71.3835391,231.485 78.7685391,198.25 78.2245391,194 L77.5335391,201.343 L75.8505391,215.543 Z" id="Fill-88" fill="#B1E1F5"></path>
                                <path d="M90.8313158,126.826451 C92.2223158,120.674451 88.4113158,131.662451 89.0793158,136.217451 L90.8313158,126.826451 Z" id="Fill-90" fill="#A9C4D2"></path>
                                <path d="M80.0402802,91.610545 C79.8012802,92.525545 79.5552802,92.486545 79.1212802,96.797545 C78.8982802,99.015545 79.0102802,101.391545 79.2352802,102.689545 C79.2352802,102.689545 79.6972802,107.016545 79.6032802,101.860545 C79.6032802,101.860545 79.2902802,96.861545 80.4572802,92.777545 C80.4572802,92.777545 80.8712802,89.735545 80.0402802,91.610545" id="Fill-92" fill="#B1E1F5"></path>
                                <path d="M76.7167193,119.112516 C76.7167193,119.112516 73.6487193,127.662516 72.7537193,131.350516 C72.7537193,131.350516 71.1657193,138.589516 72.5997193,128.903516 C72.5997193,128.903516 78.0747193,113.861516 76.7167193,119.112516" id="Fill-94" fill="#B1E1F5"></path>
                                <path d="M29.2164859,119.112516 C29.2164859,119.112516 32.2844859,127.662516 33.1794859,131.350516 C33.1794859,131.350516 34.7674859,138.589516 33.3334859,128.903516 C33.3334859,128.903516 27.8584859,113.861516 29.2164859,119.112516" id="Fill-96" fill="#B1E1F5"></path>
                                <path d="M93.331009,84.1462394 C93.331009,84.1462394 97.172009,96.6992394 96.172009,103.672239 C96.172009,103.672239 93.828009,86.8742394 92.660009,84.4552394 C92.660009,84.4552394 90.797009,74.6402394 93.331009,84.1462394" id="Fill-98" fill="#A9C4D2"></path>
                                <path d="M76.3856757,159 C76.3856757,159 76.6136757,162.188 76.7036757,162.547 C76.9876757,163.273 73.6146757,163.081 70.4236757,165.687 C68.3826757,167.354 64.2926757,169.875 64.0116757,169.875 C64.0116757,169.875 63.4486757,169.313 70.1416757,164.854 C70.1416757,164.854 75.7736757,161.37 76.3856757,159" id="Fill-100" fill="#B1E1F5"></path>
                                <path d="M51.051,115.161 L52.806,112.12 C52.849,112.045 52.929,112 53.015,112 C53.101,112 53.181,112.045 53.224,112.12 L54.994,115.186 C55.038,115.263 55.038,115.353 54.994,115.429 C54.952,115.503 54.872,115.549 54.786,115.549 L53.014,113.515 L51.245,115.549 L51.242,115.549 C51.109,115.549 51,115.442 51,115.307 C51,115.252 51.019,115.201 51.051,115.161" id="Fill-102" fill="#B1E1F5"></path>
                                <path d="M52,130.998 C52,138.728 52.184,144.996 52.403,144.996 C52.627,144.996 52.807,138.728 52.807,130.998 C52.807,123.268 52.627,117 52.403,117 C52.184,117 52,123.268 52,130.998" id="Fill-104" fill="#B1E1F5"></path>
                                <path d="M52,102.64 C52,106.307 52.184,109.28 52.403,109.28 C52.627,109.28 52.807,106.307 52.807,102.64 C52.807,98.973 52.627,96 52.403,96 C52.184,96 52,98.973 52,102.64" id="Fill-106" fill="#B1E1F5"></path>
                                <path d="M79,98 C80.847,103.528 80.656,103.546 82.601,106.787 C82.601,106.787 84.226,110.604 81.476,106.787 C81.476,106.787 79.117,101.752 79,98" id="Fill-108" fill="#B1E1F5"></path>
                                <path d="M100.655,128.676479 C100.655,128.676479 100.685,135.668479 100.655,137.668479 C100.655,137.668479 100.334,143.106479 100,136.918479 C100,136.918479 100.457,119.484479 100.655,128.676479" id="Fill-110" fill="#A9C4D2"></path>
                                <path d="M73.9151611,146.491798 C73.9151611,146.491798 75.8541611,151.892798 76.0561611,153.393798 C76.0561611,153.393798 75.4661611,153.434798 74.9851611,154.601798 C74.5051611,155.768798 71.5301611,137.514798 73.9151611,146.491798" id="Fill-112" fill="#B1E1F5"></path>
                                <path d="M50.955,133.631772 C50.955,134.742772 49.769,135.642772 48.305,135.642772 L40.65,135.642772 C39.185,135.642772 38,134.742772 38,133.631772 L38,133.263772 C38,132.152772 39.185,134.910772 40.65,134.910772 L48.305,134.910772 C49.769,134.910772 50.955,132.152772 50.955,133.263772 L50.955,133.631772 Z" id="Fill-114" fill="#B1E1F5"></path>
                                <path d="M51.154,138.81168 C51.154,140.23968 49.859,141.39468 48.258,141.39468 L39.896,141.39468 C38.295,141.39468 37,140.23968 37,138.81168 L37,138.33868 C37,136.91168 38.295,140.45568 39.896,140.45568 L48.258,140.45568 C49.859,140.45568 51.154,136.91168 51.154,138.33868 L51.154,138.81168 Z" id="Fill-116" fill="#B1E1F5"></path>
                                <path d="M51.268,145.828262 C51.268,147.286262 50.054,148.466262 48.555,148.466262 L40.714,148.466262 C39.215,148.466262 38,147.286262 38,145.828262 L38,145.346262 C38,143.888262 39.215,147.506262 40.714,147.506262 L48.555,147.506262 C50.054,147.506262 51.268,143.888262 51.268,145.346262 L51.268,145.828262 Z" id="Fill-118" fill="#B1E1F5"></path>
                                <path d="M54,133.631772 C54,134.742772 55.187,135.642772 56.65,135.642772 L64.305,135.642772 C65.77,135.642772 66.955,134.742772 66.955,133.631772 L66.955,133.263772 C66.955,132.152772 65.77,134.910772 64.305,134.910772 L56.65,134.910772 C55.187,134.910772 54,132.152772 54,133.263772 L54,133.631772 Z" id="Fill-120" fill="#B1E1F5"></path>
                                <path d="M51.768,126.639152 C51.768,127.764152 50.873,128.674152 49.77,128.674152 L43.998,128.674152 C42.895,128.674152 42,127.764152 42,126.639152 L42,126.267152 C42,125.142152 42.895,127.934152 43.998,127.934152 L49.77,127.934152 C50.873,127.934152 51.768,125.142152 51.768,126.267152 L51.768,126.639152 Z" id="Fill-122" fill="#B1E1F5"></path>
                                <path d="M53,126.639152 C53,127.764152 53.895,128.674152 54.998,128.674152 L60.77,128.674152 C61.874,128.674152 62.768,127.764152 62.768,126.639152 L62.768,126.267152 C62.768,125.142152 61.874,127.934152 60.77,127.934152 L54.998,127.934152 C53.895,127.934152 53,125.142152 53,126.267152 L53,126.639152 Z" id="Fill-124" fill="#B1E1F5"></path>
                                <path d="M54,138.81168 C54,140.23968 55.297,141.39468 56.896,141.39468 L65.259,141.39468 C66.859,141.39468 68.154,140.23968 68.154,138.81168 L68.154,138.33868 C68.154,136.91168 66.859,140.45568 65.259,140.45568 L56.896,140.45568 C55.297,140.45568 54,136.91168 54,138.33868 L54,138.81168 Z" id="Fill-126" fill="#B1E1F5"></path>
                                <path d="M54,145.828262 C54,147.286262 55.214,148.466262 56.714,148.466262 L64.554,148.466262 C66.052,148.466262 67.268,147.286262 67.268,145.828262 L67.268,145.346262 C67.268,143.888262 66.052,147.506262 64.554,147.506262 L56.714,147.506262 C55.214,147.506262 54,143.888262 54,145.346262 L54,145.828262 Z" id="Fill-128" fill="#B1E1F5"></path>
                                <path d="M46.2123219,75.3325757 C46.0093219,74.2385757 45.0213219,73.8485757 43.9273219,74.0515757 L36.1723219,75.4905757 C29.3463219,77.7225757 35.4953219,76.4125757 36.5883219,76.2085757 L44.1993219,74.9095757 C45.2933219,74.7065757 48.0753219,78.6225757 47.8733219,77.5285757 L46.2123219,75.3325757 Z" id="Fill-130" fill="#B1E1F5"></path>
                                <path d="M61.6714445,75.3325757 C61.8744445,74.2385757 62.8634445,73.8485757 63.9574445,74.0515757 L71.7124445,75.4905757 C78.5384445,77.7225757 72.3884445,76.4125757 71.2954445,76.2085757 L63.6844445,74.9095757 C62.5904445,74.7065757 59.8084445,78.6225757 60.0104445,77.5285757 L61.6714445,75.3325757 Z" id="Fill-132" fill="#B1E1F5"></path>
                            </g>
                        </g>
                    </g>
                </g>
            </g>
        </g>
    </g>
</svg>