<?xml version="1.0" encoding="UTF-8"?>
<svg width="104px" height="301px" viewBox="0 0 104 301" version="1.1" xmlns="http://www.w3.org/2000/svg" xmlns:xlink="http://www.w3.org/1999/xlink">
    <!-- Generator: sketchtool 45.2 (43514) - http://www.bohemiancoding.com/sketch -->
    <title>4CC28AE2-45B9-4890-8721-1E5FAE4E54F7</title>
    <desc>Created with sketchtool.</desc>
    <defs></defs>
    <g id="survey" stroke="none" stroke-width="1" fill="none" fill-rule="evenodd">
        <g id="Body-" transform="translate(-460.000000, -3332.000000)">
            <g id="Group-81" transform="translate(174.000000, 3270.000000)">
                <g id="Group-75">
                    <g id="Group-45">
                        <g id="Group-46" transform="translate(6.000000, 59.000000)">
                            <g id="Group-39" transform="translate(280.000000, 3.000000)">
                                <path d="M103.266577,173.71057 C101.961577,166.31957 102.084577,138.30457 100.780577,133.08557 C99.4775769,127.86857 98.1745769,112.64757 93.8285769,92.6475696 C89.4855769,72.6435696 77.6205769,70.2675696 64.7215769,68.2955696 C62.8155769,68.0035696 61.8305769,65.8065696 61.2435769,63.4865696 L61.2375769,63.4865696 C61.1725769,63.2255696 61.1085769,62.9625696 61.0535769,62.6915696 C68.4635769,59.3035696 72.2435769,51.5765696 74.1455769,45.1875696 C74.5105769,44.1035696 74.8235769,42.9835696 75.0865769,41.8365696 C75.2175769,41.8955696 75.3505769,41.9415696 75.4915769,41.9615696 C77.1625769,42.2095696 78.9165769,39.6475696 79.4145769,36.2405696 C79.9095769,32.8345696 78.9555769,29.8735696 77.2865769,29.6275696 C77.0005769,29.5845696 76.7115769,29.6315696 76.4285769,29.7425696 C76.6925769,25.2835696 76.8685769,20.5205696 76.8685769,20.5205696 C76.8685769,20.5205696 75.8425769,2.76856963 56.7155769,0.348569629 C37.5865769,-2.07243037 31.2115769,8.85656963 30.4795769,10.3975696 C29.7465769,11.9385696 31.9445769,15.3125696 31.9445769,15.3125696 C31.9445769,15.3125696 30.9915769,14.7255696 29.2335769,16.5595696 C28.1665769,17.6685696 28.6005769,24.3195696 29.1085769,29.3965696 C28.8685769,29.2835696 28.6205769,29.2295696 28.3715769,29.2525696 C26.8405769,29.4025696 25.8605769,32.2485696 26.1825769,35.6115696 C26.5065769,38.9755696 28.0125769,41.5785696 29.5435769,41.4285696 C29.9405769,41.3915696 30.2975769,41.1685696 30.6065769,40.8095696 C31.8665769,47.0225696 35.0415769,56.9165696 42.8625769,61.6865696 C42.7705769,62.3045696 42.6435769,62.9045696 42.4965769,63.4865696 C41.9115769,65.8065696 40.9265769,68.0035696 39.0185769,68.2955696 C26.1215769,70.2675696 14.2545769,72.6435696 9.91157685,92.6475696 C5.56757685,112.64757 4.26257685,127.86857 2.95957685,133.08557 C1.65757685,138.30457 1.77857685,166.31957 0.473576853,173.71057 C-0.829423147,181.10357 0.787576853,190.05057 2.52657685,193.52857 C4.26257685,197.00757 6.12757685,199.92557 7.30357685,200.48557 C9.70257685,201.62657 11.4115769,199.78657 9.91157685,197.44257 C7.07757685,193.00957 7.30357685,189.61457 7.73957685,187.44057 C8.17257685,185.26757 10.3445769,184.83157 10.3445769,184.83157 C10.3445769,184.83157 10.5845769,190.89657 12.0825769,191.35557 C14.0595769,191.95857 14.8605769,189.88657 14.4265769,184.23357 C13.9915769,178.58157 11.4525769,178.84957 9.80557685,172.98757 C7.82557685,165.93457 19.1595769,140.60057 15.5595769,132.65157 C15.5595769,132.65157 27.0695769,114.53957 25.9125769,101.35757 C25.9125769,101.35757 28.6535769,118.04857 30.8255769,123.26757 C32.3425769,126.91257 31.4935769,143.26757 28.7605769,152.64657 C28.6595769,152.64057 28.5905769,152.63457 28.5905769,152.63457 C28.5905769,152.63457 27.0085769,158.01657 26.1215769,165.93457 C23.9525769,185.30657 29.8525769,220.96057 30.1595769,225.26757 C30.3585769,228.05357 27.9635769,240.70057 28.4935769,254.26757 C29.1205769,270.34357 32.6355769,287.58357 32.1645769,289.47057 C32.1645769,289.47057 14.5455769,293.56557 14.5455769,297.82757 C14.5455769,302.51157 22.5105769,299.66957 27.7235769,300.10557 C32.9365769,300.54057 41.7825769,301.48957 45.6905769,299.74957 C49.6005769,298.01157 43.4935769,288.60157 43.4935769,288.60157 C43.4935769,288.60157 44.4915769,266.93457 47.4935769,249.93457 C49.1825769,240.36257 46.1255769,231.36057 45.9675769,229.62057 C45.6255769,225.83757 51.2955769,193.57457 51.8705769,179.82657 C52.4445769,193.57457 58.1165769,225.83757 57.7725769,229.62057 C57.6145769,231.36057 54.5595769,240.36257 56.2485769,249.93457 C59.2485769,266.93457 60.2485769,288.60157 60.2485769,288.60157 C60.2485769,288.60157 54.1395769,298.01157 58.0495769,299.74957 C61.9595769,301.48957 70.8035769,300.54057 76.0185769,300.10557 C81.2315769,299.66957 89.1945769,302.51157 89.1945769,297.82757 C89.1945769,293.56557 71.5755769,289.47057 71.5755769,289.47057 C71.1045769,287.58357 74.6205769,270.34357 75.2485769,254.26757 C75.7785769,240.70057 73.3815769,228.05357 73.5805769,225.26757 C73.8875769,220.96057 79.7875769,185.30657 77.6205769,165.93457 C76.7335769,158.01657 75.1495769,152.63457 75.1495769,152.63457 C75.1495769,152.63457 75.0805769,152.64057 74.9795769,152.64657 C72.2485769,143.26757 71.3975769,126.91257 72.9145769,123.26757 C75.0865769,118.04857 77.8275769,101.35757 77.8275769,101.35757 C76.6725769,114.53957 88.1825769,132.65157 88.1825769,132.65157 C84.5805769,140.60057 95.9145769,165.93457 93.9345769,172.98757 C92.2895769,178.84957 89.7485769,178.58157 89.3135769,184.23357 C88.8795769,189.88657 89.6825769,191.95857 91.6575769,191.35557 C93.1555769,190.89657 93.3955769,184.83157 93.3955769,184.83157 C93.3955769,184.83157 95.5675769,185.26757 96.0005769,187.44057 C96.4365769,189.61457 96.6645769,193.00957 93.8285769,197.44257 C92.3285769,199.78657 94.0395769,201.62657 96.4365769,200.48557 C97.6125769,199.92557 99.4775769,197.00757 101.215577,193.52857 C102.952577,190.05057 104.569577,181.10357 103.266577,173.71057" id="Fill-1" fill="#7DB5D7"></path>
                                <path d="M29.3953237,214.543 C29.3953237,214.543 33.9403237,236.569 33.6903237,239.319 C33.6903237,239.319 34.3563237,244.652 35.4403237,237.319 C36.0983237,232.86 26.4773237,197.25 27.0223237,193 L27.7133237,200.343 L29.3953237,214.543 Z" id="Fill-3" fill="#B1E1F5"></path>
                                <path d="M75.0753019,214.543 C75.0753019,214.543 70.5323019,236.569 70.7823019,239.319 C70.7823019,239.319 70.1143019,244.652 69.0323019,237.319 C68.3743019,232.86 77.9933019,197.25 77.4503019,193 L76.7593019,200.343 L75.0753019,214.543 Z" id="Fill-5" fill="#B1E1F5"></path>
                                <path d="M93.2342771,127 C93.2342771,127 87.4142771,131.209 88.0482771,137.127 L93.2342771,127 Z" id="Fill-7" fill="#B1E1F5"></path>
                                <path d="M11,127 C11,127 16.82,131.209 16.186,137.127 L11,127 Z" id="Fill-9" fill="#B1E1F5"></path>
                                <path d="M54.4,200.888211 C54.402,200.903211 54.218,199.842211 54.22,199.856211 L54,198.112211 C54.369,198.992211 58.306,182.306211 56.89,188.304211 C56.89,188.304211 54.738,197.418211 54.4,200.888211 C56.162,210.806211 60.429,228.463211 59.81,231.493211 C58.47,238.034211 57.99,233.221211 57.99,233.221211 C58.338,230.762211 55.236,210.544211 55.236,210.544211 L54.4,200.888211 Z" id="Fill-11" fill="#B1E1F5"></path>
                                <path d="M49.4711923,200.888211 C49.4671923,200.903211 49.6531923,199.842211 49.6491923,199.856211 L49.8691923,198.112211 C49.5021923,198.992211 45.5651923,182.306211 46.9791923,188.304211 C46.9791923,188.304211 49.1311923,197.418211 49.4711923,200.888211 C47.7091923,210.806211 43.4401923,228.463211 44.0611923,231.493211 C45.3991923,238.034211 45.8791923,233.221211 45.8791923,233.221211 C45.5331923,230.762211 48.6331923,210.544211 48.6331923,210.544211 L49.4711923,200.888211 Z" id="Fill-13" fill="#B1E1F5"></path>
                                <path d="M49.595,109.346008 C49.595,110.605008 45.433,111.625008 40.297,111.625008 C35.164,111.625008 31,110.605008 31,109.346008 C31,108.088008 35.164,110.665008 40.297,110.665008 C45.433,110.665008 49.595,108.088008 49.595,109.346008" id="Fill-15" fill="#B1E1F5"></path>
                                <path d="M73.595,109.346008 C73.595,110.605008 69.434,111.625008 64.298,111.625008 C59.164,111.625008 55,110.605008 55,109.346008 C55,108.088008 59.164,110.665008 64.298,110.665008 C69.434,110.665008 73.595,108.088008 73.595,109.346008" id="Fill-17" fill="#B1E1F5"></path>
                                <path d="M74.5921546,120.140517 C74.5921546,120.140517 72.1781546,129.212517 71.6441546,133.042517 C71.6441546,133.042517 70.6721546,134.888517 71.1161546,130.647517 C71.1161546,130.647517 75.4521546,114.671517 74.5921546,120.140517" id="Fill-19" fill="#B1E1F5"></path>
                                <path d="M30.1128867,120.140517 C30.1128867,120.140517 32.5268867,129.212517 33.0608867,133.042517 C33.0608867,133.042517 34.0328867,134.888517 33.5888867,130.647517 C33.5888867,130.647517 29.2528867,114.671517 30.1128867,120.140517" id="Fill-21" fill="#B1E1F5"></path>
                                <path d="M52.361,129.998 C52.361,137.728 52.051,143.996 51.682,143.996 C51.302,143.996 51,137.728 51,129.998 C51,122.268 51.302,116 51.682,116 C52.051,116 52.361,122.268 52.361,129.998" id="Fill-23" fill="#B1E1F5"></path>
                                <path d="M45.9508726,73.3065098 C45.7518726,72.2345098 44.7838726,71.8515098 43.7108726,72.0505098 L36.1098726,73.4615098 C29.4178726,75.6495098 35.4468726,74.3665098 36.5178726,74.1645098 L43.9788726,72.8925098 C45.0508726,72.6935098 47.7788726,76.5325098 47.5798726,75.4595098 L45.9508726,73.3065098 Z" id="Fill-25" fill="#B1E1F5"></path>
                                <path d="M59.6384363,73.3065098 C59.8374363,72.2345098 60.8054363,71.8515098 61.8784363,72.0505098 L69.4794363,73.4615098 C76.1724363,75.6495098 70.1424363,74.3665098 69.0714363,74.1645098 L61.6104363,72.8925098 C60.5384363,72.6935098 57.8104363,76.5325098 58.0104363,75.4595098 L59.6384363,73.3065098 Z" id="Fill-27" fill="#B1E1F5"></path>
                            </g>
                        </g>
                    </g>
                </g>
            </g>
        </g>
    </g>
</svg>