<?xml version="1.0" encoding="UTF-8"?>
<svg width="104px" height="301px" viewBox="0 0 104 301" version="1.1" xmlns="http://www.w3.org/2000/svg" xmlns:xlink="http://www.w3.org/1999/xlink">
    <!-- Generator: sketchtool 45.2 (43514) - http://www.bohemiancoding.com/sketch -->
    <title>4B1C5ECF-EDD5-4F3B-9EEA-A27A21687A7B</title>
    <desc>Created with sketchtool.</desc>
    <defs></defs>
    <g id="survey" stroke="none" stroke-width="1" fill="none" fill-rule="evenodd">
        <g id="Body-" transform="translate(-739.000000, -3331.000000)">
            <g id="Group-81" transform="translate(174.000000, 3270.000000)">
                <g id="Group-75">
                    <g id="Group-45">
                        <g id="Group-46" transform="translate(6.000000, 59.000000)">
                            <g id="Group-14" transform="translate(559.000000, 2.000000)">
                                <path d="M103.240025,173.70957 C101.935025,166.31857 102.057025,138.30357 100.754025,133.08457 C99.4510248,127.86757 100.311025,113.70757 95.9670248,93.7065696 C91.6230248,73.7025696 70.3440248,70.0325696 64.6950248,68.2945696 C62.8610248,67.7295696 61.8140248,65.8265696 61.2260248,63.5245696 L61.2460248,63.5245696 C61.1770248,63.2515696 61.1100248,62.9745696 61.0530248,62.6905696 C68.4640248,59.3025696 72.2430248,51.5755696 74.1450248,45.1865696 C74.5110248,44.1025696 74.8230248,42.9825696 75.0870248,41.8355696 C75.2170248,41.8945696 75.3500248,41.9405696 75.4900248,41.9605696 C77.1630248,42.2085696 78.9170248,39.6465696 79.4140248,36.2395696 C79.9090248,32.8335696 78.9550248,29.8725696 77.2860248,29.6265696 C77.0000248,29.5835696 76.7120248,29.6305696 76.4280248,29.7415696 C76.6920248,25.2825696 76.8680248,20.5205696 76.8680248,20.5205696 C76.8680248,20.5205696 75.8420248,2.76856963 56.7150248,0.348569629 C37.5870248,-2.07243037 31.2120248,8.85656963 30.4790248,10.3975696 C29.7460248,11.9385696 31.9440248,15.3125696 31.9440248,15.3125696 C31.9440248,15.3125696 30.9910248,14.7255696 29.2330248,16.5595696 C28.1670248,17.6685696 28.6000248,24.3195696 29.1080248,29.3955696 C28.8670248,29.2825696 28.6200248,29.2285696 28.3720248,29.2515696 C26.8410248,29.4015696 25.8600248,32.2475696 26.1820248,35.6105696 C26.5070248,38.9745696 28.0120248,41.5775696 29.5440248,41.4275696 C29.9400248,41.3905696 30.2980248,41.1675696 30.6060248,40.8085696 C31.8650248,47.0215696 35.0420248,56.9155696 42.8620248,61.6855696 C42.7670248,62.3165696 42.6380248,62.9315696 42.4870248,63.5245696 C41.8990248,65.8265696 40.8520248,67.7295696 39.0180248,68.2945696 C33.3700248,70.0325696 12.0910248,73.7025696 7.74702481,93.7065696 C3.40202481,113.70757 4.26202481,127.86757 2.96002481,133.08457 C1.65602481,138.30357 1.77802481,166.31857 0.473024805,173.70957 C-0.828975195,181.10257 0.788024805,190.04957 2.52502481,193.52757 C4.26202481,197.00657 6.12802481,199.92457 7.30302481,200.48457 C9.70102481,201.62557 11.4110248,199.78557 9.91102481,197.44157 C7.07602481,193.00857 7.30302481,189.61357 7.73902481,187.43957 C8.17302481,185.26657 10.3440248,184.83057 10.3440248,184.83057 C10.3440248,184.83057 10.5850248,190.89557 12.0830248,191.35457 C14.0580248,191.95757 14.8600248,189.88557 14.4270248,184.23257 C13.9910248,178.58057 10.6640248,179.61257 10.6640248,173.52457 C10.6640248,167.43757 17.7310248,140.04157 15.5580248,132.65057 C15.5580248,132.65057 25.5490248,118.43757 26.0460248,106.13457 C26.1050248,110.44157 26.4190248,119.90657 27.9970248,123.52457 C29.4370248,126.82657 25.2540248,141.53157 24.2470248,154.27457 C23.5530248,163.04857 23.9970248,174.52457 23.9970248,174.52457 C23.9970248,174.54157 26.8890248,213.52157 28.2470248,220.77457 C29.6470248,228.26057 31.3650248,284.29657 30.4970248,287.77457 C30.4970248,287.77457 14.5460248,293.56457 14.5460248,297.82657 C14.5460248,302.51057 22.5100248,299.66857 27.7220248,300.10457 C32.9360248,300.53957 41.7810248,301.48857 45.6900248,299.74857 C49.6000248,298.01057 43.7470248,288.27457 43.7470248,288.27457 C43.7470248,288.27457 49.2470248,262.52457 45.6640248,223.48057 C45.3610248,220.18157 50.5180248,200.59457 51.8560248,186.25457 C53.1950248,200.59457 58.3520248,220.18157 58.0500248,223.48057 C54.4670248,262.52457 59.9670248,288.27457 59.9670248,288.27457 C59.9670248,288.27457 54.1130248,298.01057 58.0230248,299.74857 C61.9320248,301.48857 70.7770248,300.53957 75.9910248,300.10457 C81.2040248,299.66857 89.1680248,302.51057 89.1680248,297.82657 C89.1680248,293.56457 73.2170248,287.77457 73.2170248,287.77457 C72.3480248,284.29657 74.0660248,228.26057 75.4670248,220.77457 C76.8240248,213.52157 79.7170248,174.54157 79.7170248,174.52457 C79.7170248,174.52457 80.1600248,163.04857 79.4670248,154.27457 C78.4600248,141.53157 74.2760248,126.82657 75.7170248,123.52457 C77.2950248,119.90657 77.6080248,110.44157 77.6680248,106.13457 C78.1650248,118.43757 88.1550248,132.65057 88.1550248,132.65057 C85.9820248,140.04157 92.8300248,167.43757 92.8300248,173.52457 C92.8300248,179.61257 89.7220248,178.58057 89.2870248,184.23257 C88.8530248,189.88557 89.6550248,191.95757 91.6310248,191.35457 C93.1290248,190.89557 93.3690248,184.83057 93.3690248,184.83057 C93.3690248,184.83057 95.5410248,185.26657 95.9740248,187.43957 C96.4100248,189.61357 96.6370248,193.00857 93.8020248,197.44157 C92.3020248,199.78557 94.0120248,201.62557 96.4100248,200.48457 C97.5860248,199.92457 99.4510248,197.00657 101.188025,193.52757 C102.926025,190.04957 104.543025,181.10257 103.240025,173.70957" id="Fill-134" fill="#7DB5D7"></path>
                                <path d="M25,104 C25,104 29.129,121 43.743,116.784 C43.743,116.784 46.808,114.842 45.64,117.932 C45.64,117.932 27.813,124.5 25,104" id="Fill-136" fill="#B1E1F5"></path>
                                <path d="M25.1091454,144.215466 C25.1091454,144.215466 23.7161454,154.562466 30.8831454,153.062466 C30.8831454,153.062466 33.4671454,153.210466 34.0501454,151.645466 C34.0501454,151.645466 26.8161454,153.274466 26.7171454,149.229466 C26.7171454,149.229466 25.9501454,139.697466 25.1091454,144.215466" id="Fill-138" fill="#B1E1F5"></path>
                                <path d="M77.9054382,104 C77.9054382,104 73.7764382,121 59.1624382,116.784 C59.1624382,116.784 56.0974382,114.842 57.2654382,117.932 C57.2654382,117.932 75.0924382,124.5 77.9054382,104" id="Fill-140" fill="#B1E1F5"></path>
                                <path d="M77.941,144.215466 C77.941,144.215466 79.334,154.562466 72.167,153.062466 C72.167,153.062466 69.583,153.210466 69,151.645466 C69,151.645466 76.234,153.274466 76.333,149.229466 C76.333,149.229466 77.1,139.697466 77.941,144.215466" id="Fill-142" fill="#B1E1F5"></path>
                                <path d="M41.066,222.878621 C41.066,225.702621 38.668,226.855621 35.533,226.855621 C32.398,226.855621 30,225.702621 30,222.878621 C30,220.053621 32.398,224.944621 35.533,224.944621 C38.668,224.944621 41.066,220.053621 41.066,222.878621" id="Fill-144" fill="#B1E1F5"></path>
                                <path d="M72.066,222.878621 C72.066,225.702621 69.668,226.855621 66.533,226.855621 C63.398,226.855621 61,225.702621 61,222.878621 C61,220.053621 63.398,224.944621 66.533,224.944621 C69.668,224.944621 72.066,220.053621 72.066,222.878621" id="Fill-146" fill="#B1E1F5"></path>
                            </g>
                        </g>
                    </g>
                </g>
            </g>
        </g>
    </g>
</svg>