<?xml version="1.0" encoding="UTF-8"?>
<svg width="110px" height="301px" viewBox="0 0 110 301" version="1.1" xmlns="http://www.w3.org/2000/svg" xmlns:xlink="http://www.w3.org/1999/xlink">
    <!-- Generator: sketchtool 45.2 (43514) - http://www.bohemiancoding.com/sketch -->
    <title>F6A9D074-1FC1-495B-8035-3146F2B8C3D7</title>
    <desc>Created with sketchtool.</desc>
    <defs></defs>
    <g id="survey" stroke="none" stroke-width="1" fill="none" fill-rule="evenodd">
        <g id="Body-" transform="translate(-1017.000000, -3329.000000)">
            <g id="Group-81" transform="translate(174.000000, 3270.000000)">
                <g id="Group-75">
                    <g id="Group-45">
                        <g id="Group-46" transform="translate(6.000000, 59.000000)">
                            <g id="Group-9" transform="translate(837.000000, 0.000000)">
                                <path d="M80.1127489,112.613543 C80.1557489,113.674543 80.2327489,114.694543 80.3237489,115.695543 C80.1907489,114.763543 80.0967489,113.761543 80.1127489,112.613543 M27.5337489,115.695543 C27.6257489,114.694543 27.7027489,113.674543 27.7457489,112.613543 C27.7617489,113.761543 27.6677489,114.763543 27.5337489,115.695543 M106.562749,173.400543 C106.287749,165.900543 110.233749,141.531543 108.929749,136.312543 C107.626749,131.095543 109.015749,117.629543 103.099749,97.0625431 C98.1657489,79.9135431 71.7727489,70.0335431 66.1247489,68.2955431 C64.2907489,67.7295431 63.9617489,63.5255431 63.9617489,63.5255431 C63.8917489,63.2525431 63.8257489,62.9745431 63.7687489,62.6915431 C71.1787489,59.3025431 74.9587489,51.5765431 76.8607489,45.1865431 C77.2257489,44.1025431 77.5387489,42.9835431 77.8017489,41.8365431 C77.9317489,41.8945431 78.0657489,41.9415431 78.2057489,41.9615431 C79.8787489,42.2095431 81.6327489,39.6465431 82.1297489,36.2405431 C82.6247489,32.8345431 81.6707489,29.8735431 80.0017489,29.6275431 C79.7157489,29.5845431 79.4267489,29.6315431 79.1427489,29.7425431 C79.4077489,25.2835431 79.5837489,20.5205431 79.5837489,20.5205431 C79.5837489,20.5205431 78.5567489,2.76854313 59.4297489,0.348543127 C40.3017489,-2.07245687 33.9267489,8.85754313 33.1947489,10.3975431 C32.4617489,11.9385431 34.6597489,15.3125431 34.6597489,15.3125431 C34.6597489,15.3125431 33.7067489,14.7255431 31.9487489,16.5595431 C30.8827489,17.6695431 31.3157489,24.3205431 31.8237489,29.3955431 C31.5827489,29.2835431 31.3357489,29.2285431 31.0877489,29.2525431 C29.5557489,29.4025431 28.5757489,32.2485431 28.8977489,35.6115431 C29.2217489,38.9745431 30.7277489,41.5785431 32.2587489,41.4275431 C32.6557489,41.3905431 33.0127489,41.1685431 33.3217489,40.8085431 C34.5807489,47.0225431 37.7577489,56.9165431 45.5777489,61.6855431 C45.4827489,62.3175431 45.3537489,62.9315431 45.2027489,63.5255431 C44.6147489,65.8275431 43.5677489,67.7295431 41.7337489,68.2955431 C36.0857489,70.0335431 11.1427489,76.1265431 6.20974891,93.2755431 C0.292748912,113.842543 1.68174891,127.308543 0.379748912,132.525543 C-0.924251088,137.744543 1.57074891,165.900543 1.29574891,173.400543 C1.01174891,181.150543 3.50374891,190.050543 5.24074891,193.528543 C6.97774891,197.007543 8.84274891,199.925543 10.0187489,200.485543 C12.4167489,201.626543 14.1267489,199.786543 12.6267489,197.442543 C9.79174891,193.009543 10.0187489,189.614543 10.4547489,187.440543 C10.8877489,185.266543 13.0597489,184.831543 13.0597489,184.831543 C13.0597489,184.831543 13.2997489,190.895543 14.7987489,191.354543 C16.7737489,191.958543 17.5757489,189.885543 17.1417489,184.233543 C16.7067489,178.581543 13.3797489,179.613543 13.3797489,173.525543 C13.3797489,166.055543 21.8597489,139.834543 23.1707489,133.460543 C23.1707489,133.460543 25.3567489,128.861543 26.7217489,121.569543 C26.7177489,122.072543 26.9897489,122.624543 26.7957489,123.150543 C23.2887489,132.681543 20.7817489,138.394543 19.2127489,151.081543 C18.0147489,160.758543 18.5457489,176.025543 18.5457489,176.025543 C18.5457489,176.042543 16.8547489,208.025543 24.9627489,220.775543 C25.4437489,221.533543 24.6637489,224.167543 24.2077489,226.187543 C20.4877489,242.685543 33.9777489,284.707543 33.2127489,287.775543 C33.2127489,287.775543 17.2607489,293.565543 17.2607489,297.827543 C17.2607489,302.510543 25.2247489,299.669543 30.4377489,300.104543 C35.6517489,300.540543 44.4967489,301.489543 48.4057489,299.749543 C52.3157489,298.010543 46.4627489,288.275543 46.4627489,288.275543 C46.4627489,288.275543 51.9627489,262.525543 48.3797489,223.481543 C48.1127489,220.583543 52.0577489,205.124543 53.9287489,191.688543 C55.8007489,205.124543 59.7447489,220.583543 59.4787489,223.481543 C55.8957489,262.525543 61.3957489,288.275543 61.3957489,288.275543 C61.3957489,288.275543 55.5427489,298.010543 59.4527489,299.749543 C63.3617489,301.489543 72.2067489,300.540543 77.4207489,300.104543 C82.6337489,299.669543 90.5967489,302.510543 90.5967489,297.827543 C90.5967489,293.565543 74.6457489,287.775543 74.6457489,287.775543 C73.8807489,284.707543 86.5157489,242.685543 82.7957489,226.187543 C82.3397489,224.167543 82.8827489,221.074543 83.2957489,220.277543 C93.0297489,201.527543 88.6297489,173.292543 88.6297489,173.275543 C88.6297489,173.275543 89.3397489,159.854543 88.6457489,151.081543 C87.6387489,138.338543 83.5537489,130.617543 81.0627489,123.150543 C80.8847489,122.618543 81.1407489,122.072543 81.1357489,121.569543 C82.5017489,128.861543 84.6877489,133.460543 84.6877489,133.460543 C85.9987489,139.834543 94.4787489,166.055543 94.4787489,173.525543 C94.4787489,179.613543 91.1517489,178.581543 90.7167489,184.233543 C90.2827489,189.885543 91.0847489,191.958543 93.0597489,191.354543 C94.5577489,190.895543 94.7987489,184.831543 94.7987489,184.831543 C94.7987489,184.831543 96.9697489,185.266543 97.4037489,187.440543 C97.8397489,189.614543 98.0667489,193.009543 95.2317489,197.442543 C93.7317489,199.786543 95.4417489,201.626543 97.8397489,200.485543 C99.0147489,199.925543 100.880749,197.007543 102.617749,193.528543 C104.354749,190.050543 106.845749,181.150543 106.562749,173.400543" id="Fill-166" fill="#7DB5D7"></path>
                                <path d="M22,108 C22,108 27.494,127.527 44.045,123.232 C44.045,123.232 46.999,122.615 45.676,125.763 C45.676,125.763 25.187,128.883 22,108" id="Fill-168" fill="#B1E1F5"></path>
                                <path d="M34.712106,159.592 C34.712106,159.592 23.497106,162.013 21.328106,155.362 C21.328106,155.362 20.098106,149.886 22.401106,145 C22.401106,145 20.835106,158.025 29.297106,158.902 C29.297106,158.902 38.994106,159.015 34.712106,159.592" id="Fill-170" fill="#B1E1F5"></path>
                                <path d="M74.0916211,159.592 C74.0916211,159.592 85.3066211,162.013 87.4756211,155.362 C87.4756211,155.362 88.7056211,149.886 86.4026211,145 C86.4026211,145 87.9686211,158.025 79.5066211,158.902 C79.5066211,158.902 69.8096211,159.015 74.0916211,159.592" id="Fill-172" fill="#B1E1F5"></path>
                                <path d="M44.4282609,221.978948 C44.4282609,225.551948 39.0982609,226.088948 35.7382609,226.088948 C32.3782609,226.088948 31.2282609,224.068948 29.8062609,221.058948 C27.0602609,215.246948 32.0052609,223.525948 34.5342609,224.099948 C39.2552609,225.172948 44.4282609,218.406948 44.4282609,221.978948" id="Fill-174" fill="#B1E1F5"></path>
                                <path d="M23.6400487,133.519814 C23.1930487,135.114814 22.5460487,136.022814 20.5020487,136.022814 C18.4580487,136.022814 17.5410487,135.134814 17.0830487,133.519814 C16.5780487,131.740814 18.4580487,135.105814 20.5020487,135.105814 C22.5460487,135.105814 24.1390487,131.738814 23.6400487,133.519814" id="Fill-176" fill="#B1E1F5"></path>
                                <path d="M86.0169447,108 C86.0169447,108 80.5229447,127.932 63.9719447,123.548 C63.9719447,123.548 61.0179447,122.918 62.3409447,126.13 C62.3409447,126.13 82.8299447,129.315 86.0169447,108" id="Fill-178" fill="#B1E1F5"></path>
                                <path d="M84.0922686,133.519814 C84.5392686,135.114814 85.1862686,136.022814 87.2302686,136.022814 C89.2742686,136.022814 90.1912686,135.134814 90.6492686,133.519814 C91.1542686,131.740814 89.2742686,135.105814 87.2302686,135.105814 C85.1862686,135.105814 83.5932686,131.738814 84.0922686,133.519814" id="Fill-180" fill="#B1E1F5"></path>
                                <path d="M63,221.978948 C63,225.551948 68.33,226.088948 71.69,226.088948 C75.05,226.088948 76.2,224.068948 77.622,221.058948 C80.368,215.246948 75.423,223.525948 72.894,224.099948 C68.173,225.172948 63,218.406948 63,221.978948" id="Fill-182" fill="#B1E1F5"></path>
                            </g>
                        </g>
                    </g>
                </g>
            </g>
        </g>
    </g>
</svg>