<?xml version="1.0" encoding="UTF-8"?>
<svg width="104px" height="301px" viewBox="0 0 104 301" version="1.1" xmlns="http://www.w3.org/2000/svg" xmlns:xlink="http://www.w3.org/1999/xlink">
    <!-- Generator: sketchtool 45.2 (43514) - http://www.bohemiancoding.com/sketch -->
    <title>C2C9448E-BCBC-4A78-B537-90982613F0E4</title>
    <desc>Created with sketchtool.</desc>
    <defs></defs>
    <g id="survey" stroke="none" stroke-width="1" fill="none" fill-rule="evenodd">
        <g id="Body-" transform="translate(-881.000000, -3331.000000)">
            <g id="Group-81" transform="translate(174.000000, 3270.000000)">
                <g id="Group-75">
                    <g id="Group-45">
                        <g id="Group-46" transform="translate(6.000000, 59.000000)">
                            <g id="Group-10" transform="translate(701.000000, 2.000000)">
                                <path d="M103.239025,173.71057 C101.934025,166.31957 103.056025,138.30457 101.753025,133.08557 C100.450025,127.86857 101.882025,114.27357 95.9660248,93.7075696 C91.0320248,76.5585696 70.3430248,70.0335696 64.6940248,68.2955696 C62.8600248,67.7305696 61.8130248,65.8275696 61.2250248,63.5255696 L61.2460248,63.5255696 C61.1760248,63.2525696 61.1100248,62.9755696 61.0530248,62.6915696 C68.4640248,59.3035696 72.2430248,51.5765696 74.1450248,45.1875696 C74.5100248,44.1035696 74.8230248,42.9835696 75.0870248,41.8365696 C75.2170248,41.8955696 75.3500248,41.9415696 75.4900248,41.9615696 C77.1630248,42.2095696 78.9170248,39.6475696 79.4140248,36.2405696 C79.9090248,32.8345696 78.9550248,29.8735696 77.2860248,29.6275696 C77.0000248,29.5845696 76.7120248,29.6315696 76.4270248,29.7425696 C76.6920248,25.2835696 76.8680248,20.5205696 76.8680248,20.5205696 C76.8680248,20.5205696 75.8420248,2.76856963 56.7150248,0.348569629 C37.5870248,-2.07243037 31.2120248,8.85656963 30.4790248,10.3975696 C29.7460248,11.9385696 31.9440248,15.3125696 31.9440248,15.3125696 C31.9440248,15.3125696 30.9910248,14.7255696 29.2330248,16.5595696 C28.1670248,17.6685696 28.6000248,24.3195696 29.1080248,29.3965696 C28.8670248,29.2835696 28.6200248,29.2295696 28.3720248,29.2525696 C26.8410248,29.4025696 25.8600248,32.2485696 26.1820248,35.6115696 C26.5070248,38.9755696 28.0120248,41.5785696 29.5440248,41.4285696 C29.9400248,41.3915696 30.2980248,41.1685696 30.6060248,40.8095696 C31.8650248,47.0225696 35.0420248,56.9165696 42.8620248,61.6865696 C42.7670248,62.3175696 42.6380248,62.9325696 42.4870248,63.5255696 C41.8990248,65.8275696 40.8520248,67.7305696 39.0180248,68.2955696 C33.3700248,70.0335696 12.6800248,76.5585696 7.74702481,93.7075696 C1.83002481,114.27357 3.26202481,127.86857 1.96002481,133.08557 C0.656024805,138.30457 1.77802481,166.31957 0.473024805,173.71057 C-0.828975195,181.10357 0.788024805,190.05057 2.52502481,193.52857 C4.26202481,197.00757 6.12802481,199.92557 7.30302481,200.48557 C9.70102481,201.62657 11.4110248,199.78657 9.91102481,197.44257 C7.07602481,193.00957 7.30302481,189.61457 7.73902481,187.44057 C8.17302481,185.26757 10.3440248,184.83157 10.3440248,184.83157 C10.3440248,184.83157 10.5850248,190.89657 12.0830248,191.35557 C14.0580248,191.95857 14.8600248,189.88657 14.4260248,184.23357 C13.9910248,178.58157 10.6640248,179.61357 10.6640248,173.52557 C10.6640248,166.05657 16.2470248,139.02557 17.5580248,132.65157 C17.5580248,132.65157 24.5330248,124.91657 25.0300248,112.61357 C25.0900248,116.92157 24.8960248,119.30157 25.5640248,123.19157 C26.7310248,129.98757 22.8380248,139.78157 21.8310248,152.52457 C21.1370248,161.29857 21.1640248,176.85757 21.1640248,176.85757 C21.1640248,176.87457 21.9970248,210.52557 27.2470248,220.77557 C27.6560248,221.57457 28.2060248,223.25757 27.7500248,225.27757 C24.0300248,241.77557 31.2620248,284.70757 30.4970248,287.77557 C30.4970248,287.77557 14.5460248,293.56557 14.5460248,297.82757 C14.5460248,302.51157 22.5100248,299.66957 27.7220248,300.10557 C32.9360248,300.54057 41.7810248,301.48957 45.6900248,299.74957 C49.6000248,298.01157 43.7470248,288.27557 43.7470248,288.27557 C43.7470248,288.27557 49.2470248,262.52557 45.6640248,223.48157 C45.3610248,220.18257 50.5180248,200.59557 51.8560248,186.25557 C53.1940248,200.59557 58.3510248,220.18257 58.0490248,223.48157 C54.4660248,262.52557 59.9660248,288.27557 59.9660248,288.27557 C59.9660248,288.27557 54.1120248,298.01157 58.0220248,299.74957 C61.9310248,301.48957 70.7760248,300.54057 75.9900248,300.10557 C81.2030248,299.66957 89.1670248,302.51157 89.1670248,297.82757 C89.1670248,293.56557 73.2160248,287.77557 73.2160248,287.77557 C72.4500248,284.70757 79.6820248,241.77557 75.9630248,225.27757 C75.5070248,223.25757 76.0560248,221.57457 76.4660248,220.77557 C81.7160248,210.52557 82.5490248,176.87457 82.5490248,176.85757 C82.5490248,176.85757 82.5750248,161.29857 81.8820248,152.52457 C80.8750248,139.78157 76.9810248,129.98757 78.1480248,123.19157 C78.8160248,119.30157 78.6230248,116.92157 78.6820248,112.61357 C79.1790248,124.91657 86.1540248,132.65157 86.1540248,132.65157 C87.4660248,139.02557 93.0490248,166.05657 93.0490248,173.52557 C93.0490248,179.61357 89.7210248,178.58157 89.2860248,184.23357 C88.8520248,189.88657 89.6540248,191.95857 91.6300248,191.35557 C93.1280248,190.89657 93.3680248,184.83157 93.3680248,184.83157 C93.3680248,184.83157 95.5400248,185.26757 95.9730248,187.44057 C96.4090248,189.61457 96.6360248,193.00957 93.8010248,197.44257 C92.3010248,199.78657 94.0110248,201.62657 96.4090248,200.48557 C97.5850248,199.92557 99.4500248,197.00757 101.187025,193.52857 C102.925025,190.05057 104.542025,181.10357 103.239025,173.71057" id="Fill-148" fill="#7DB5D7"></path>
                                <path d="M25,104 C25,104 29.129,121 43.743,116.784 C43.743,116.784 46.808,114.842 45.64,117.932 C45.64,117.932 27.813,124.5 25,104" id="Fill-150" fill="#B1E1F5"></path>
                                <path d="M23.5678407,145.92288 C23.5678407,145.92288 21.0428407,155.41488 26.6418407,157.53788 C26.6418407,157.53788 32.4468407,159.60588 34.6468407,156.00488 C34.6468407,156.00488 24.3458407,157.85288 23.9388407,150.58088 C23.9388407,150.58088 24.2338407,142.28388 23.5678407,145.92288" id="Fill-152" fill="#B1E1F5"></path>
                                <path d="M82.086,146.006883 C82.086,146.006883 84.841,156.360883 78.732,158.676883 C78.732,158.676883 72.4,160.932883 70,157.004883 C70,157.004883 81.237,159.020883 81.681,151.087883 C81.681,151.087883 81.359,142.036883 82.086,146.006883" id="Fill-154" fill="#B1E1F5"></path>
                                <path d="M61,222.238739 C61,226.122739 66.794,226.706739 70.447,226.706739 C74.1,226.706739 75.35,224.509739 76.895,221.238739 C79.88,214.919739 74.505,223.919739 71.755,224.544739 C66.623,225.710739 61,218.354739 61,222.238739" id="Fill-156" fill="#B1E1F5"></path>
                                <path d="M43.7714697,222.238739 C43.7714697,226.122739 37.9774697,226.706739 34.3244697,226.706739 C30.6714697,226.706739 29.4214697,224.509739 27.8764697,221.238739 C24.8914697,214.919739 30.2664697,223.919739 33.0164697,224.544739 C38.1484697,225.710739 43.7714697,218.354739 43.7714697,222.238739" id="Fill-158" fill="#B1E1F5"></path>
                                <path d="M78.9054382,104 C78.9054382,104 74.7764382,121 60.1624382,116.784 C60.1624382,116.784 57.0974382,114.842 58.2654382,117.932 C58.2654382,117.932 76.0924382,124.5 78.9054382,104" id="Fill-160" fill="#B1E1F5"></path>
                                <path d="M20.1936843,129.797924 C19.5066843,132.244924 18.5146843,133.639924 15.3766843,133.639924 C12.2386843,133.639924 10.8316843,132.276924 10.1276843,129.797924 C9.35168427,127.066924 12.2386843,132.232924 15.3766843,132.232924 C18.5146843,132.232924 20.9596843,127.063924 20.1936843,129.797924" id="Fill-162" fill="#B1E1F5"></path>
                                <path d="M85.1419853,129.797924 C85.8279853,132.244924 86.8199853,133.639924 89.9579853,133.639924 C93.0969853,133.639924 94.5029853,132.276924 95.2069853,129.797924 C95.9839853,127.066924 93.0969853,132.232924 89.9579853,132.232924 C86.8199853,132.232924 84.3749853,127.063924 85.1419853,129.797924" id="Fill-164" fill="#B1E1F5"></path>
                            </g>
                        </g>
                    </g>
                </g>
            </g>
        </g>
    </g>
</svg>