<?xml version="1.0" encoding="UTF-8"?>
<svg width="89px" height="75px" viewBox="0 0 89 75" version="1.1" xmlns="http://www.w3.org/2000/svg" xmlns:xlink="http://www.w3.org/1999/xlink">
    <!-- Generator: sketchtool 45.2 (43514) - http://www.bohemiancoding.com/sketch -->
    <title>E5374BDD-686A-4EEE-8791-6E6FC5FFDC0F</title>
    <desc>Created with sketchtool.</desc>
    <defs>
        <path d="M49.9909414,7.96593126 L42.2921425,0.205285633 C42.1572345,0.0703299814 41.9785161,6.95647691e-05 41.7984069,6.95647691e-05 C41.6808839,6.95647691e-05 41.5633609,0.0292867677 41.456269,0.0905037644 C40.9444529,0.379893203 40.4298552,0.667891347 39.9145621,0.957280786 C38.7900966,1.58823324 37.6266885,2.24075077 36.4897057,2.90648561 C30.3597345,6.4946364 25.8597862,9.55131235 21.8959931,12.8173782 C14.295246,19.0802944 13.6881598,29.0649257 17.0163552,35.6916656 C17.3577977,36.372009 17.7618264,37.0287004 18.1178724,37.608175 C18.177677,37.7055656 18.2367862,37.8008694 18.2945046,37.8954775 L11.7876253,44.4582178 C9.44620575,43.2561386 7.15485517,42.6224035 5.13262529,42.6224035 C2.93724023,42.6224035 1.21125172,43.361877 0.142418391,44.7615202 C-0.0675931034,45.0376923 -0.0425586207,45.427255 0.201527586,45.6735143 L7.57070575,53.1030316 L14.7778552,60.3683761 C14.914154,60.5054187 15.0928724,60.5742878 15.2715908,60.5742878 C15.4475276,60.5742878 15.6234644,60.5075056 15.7583724,60.3746369 C16.910654,59.2456007 17.6081425,57.7868275 17.8320621,56.0386649 C18.1484701,53.5712025 17.5580736,51.1127836 16.0768667,48.7260163 L18.3765621,46.4088139 L22.6122575,42.141711 C25.6358667,44.2182193 29.2359644,45.3145601 33.0412057,45.3145601 C38.4980276,45.3145601 43.5960218,43.055792 47.0271368,39.1170348 C52.5889644,32.733076 56.8649931,25.1602552 60.3002805,19.0747292 C60.453269,18.8041223 60.4073724,18.4639505 60.1883207,18.2427346 L49.9909414,7.96593126 Z" id="path-1"></path>
        <path d="M49.9909414,7.96593126 L42.2921425,0.205285633 C42.1572345,0.0703299814 41.9785161,6.95647691e-05 41.7984069,6.95647691e-05 C41.6808839,6.95647691e-05 41.5633609,0.0292867677 41.456269,0.0905037644 C40.9444529,0.379893203 40.4298552,0.667891347 39.9145621,0.957280786 C38.7900966,1.58823324 37.6266885,2.24075077 36.4897057,2.90648561 C30.3597345,6.4946364 25.8597862,9.55131235 21.8959931,12.8173782 C14.295246,19.0802944 13.6881598,29.0649257 17.0163552,35.6916656 C17.3577977,36.372009 17.7618264,37.0287004 18.1178724,37.608175 C18.177677,37.7055656 18.2367862,37.8008694 18.2945046,37.8954775 L11.7876253,44.4582178 C9.44620575,43.2561386 7.15485517,42.6224035 5.13262529,42.6224035 C2.93724023,42.6224035 1.21125172,43.361877 0.142418391,44.7615202 C-0.0675931034,45.0376923 -0.0425586207,45.427255 0.201527586,45.6735143 L7.57070575,53.1030316 L14.7778552,60.3683761 C14.914154,60.5054187 15.0928724,60.5742878 15.2715908,60.5742878 C15.4475276,60.5742878 15.6234644,60.5075056 15.7583724,60.3746369 C16.910654,59.2456007 17.6081425,57.7868275 17.8320621,56.0386649 C18.1484701,53.5712025 17.5580736,51.1127836 16.0768667,48.7260163 L18.3765621,46.4088139 L22.6122575,42.141711 C25.6358667,44.2182193 29.2359644,45.3145601 33.0412057,45.3145601 C38.4980276,45.3145601 43.5960218,43.055792 47.0271368,39.1170348 C52.5889644,32.733076 56.8649931,25.1602552 60.3002805,19.0747292 C60.453269,18.8041223 60.4073724,18.4639505 60.1883207,18.2427346 L49.9909414,7.96593126 Z" id="path-3"></path>
    </defs>
    <g id="survey" stroke="none" stroke-width="1" fill="none" fill-rule="evenodd">
        <g id="-Nutrition" transform="translate(-198.000000, -1997.000000)">
            <g id="Group-68" transform="translate(175.000000, 1954.000000)">
                <g id="Group-66">
                    <g id="alocohol" transform="translate(6.000000, 37.000000)">
                        <g id="Group-26" transform="translate(40.809161, 46.792956) rotate(-23.000000) translate(-40.809161, -46.792956) translate(10.309161, 16.292956)">
                            <g id="Group-51">
                                <mask id="mask-2" fill="white">
                                    <use xlink:href="#path-1"></use>
                                </mask>
                                <use id="Fill-1" stroke="#E2E2E2" fill="#F9FEFF" xlink:href="#path-1"></use>
                                <path d="M54.4865086,23.8632897 C54.4461753,23.9878106 54.4399167,24.0754622 54.3954109,24.1338966 C50.7132557,29.0110826 46.97825,33.8500079 42.3858132,37.9265034 C36.1007672,43.5055978 26.5313362,43.0068184 20.9757672,36.6986852 C19.0446351,34.5066993 18.1072328,31.7275868 17.9104339,28.7766493 C17.7205891,25.9356241 18.2101523,23.2107721 19.4848247,20.6410496 C19.6906638,20.2264435 19.8958075,20.0441838 20.4069282,20.1005313 C31.6355891,21.3408711 42.8663362,22.5589502 54.0956925,23.7839858 C54.2187787,23.7972031 54.3411695,23.8333768 54.4865086,23.8632897" id="Fill-4" fill="#771939" mask="url(#mask-2)"></path>
                            </g>
                            <path d="M29.8120434,33.9757587 L37.5217237,33.9757587 C40.076487,33.9757587 41.1052652,34.9101149 39.819564,36.0627017 C38.5338629,37.2152886 36.4487847,38.8367279 35.2966044,38.8367279 L31.8195929,38.8367279 C30.6674126,38.8367279 28.7999042,37.2152886 27.514203,36.0627017 C26.2285019,34.9101149 27.2572801,33.9757587 29.8120434,33.9757587 Z" id="Rectangle-13" fill="#FFF4F4" transform="translate(33.666884, 36.406243) rotate(-9.000000) translate(-33.666884, -36.406243) "></path>
                        </g>
                        <g id="Group-26-Copy" transform="translate(81.751121, 39.159890) scale(-1, 1) rotate(-20.000000) translate(-81.751121, -39.159890) translate(51.251121, 8.659890)">
                            <g id="Group-51">
                                <mask id="mask-4" fill="white">
                                    <use xlink:href="#path-3"></use>
                                </mask>
                                <use id="Fill-1" stroke="#E2E2E2" fill="#F9FEFF" xlink:href="#path-3"></use>
                                <path d="M54.4865086,23.8632897 C54.4461753,23.9878106 54.4399167,24.0754622 54.3954109,24.1338966 C50.7132557,29.0110826 46.97825,33.8500079 42.3858132,37.9265034 C36.1007672,43.5055978 26.5313362,43.0068184 20.9757672,36.6986852 C19.0446351,34.5066993 18.1072328,31.7275868 17.9104339,28.7766493 C17.7205891,25.9356241 18.2101523,23.2107721 19.4848247,20.6410496 C19.6906638,20.2264435 19.8958075,20.0441838 20.4069282,20.1005313 C31.6355891,21.3408711 42.8663362,22.5589502 54.0956925,23.7839858 C54.2187787,23.7972031 54.3411695,23.8333768 54.4865086,23.8632897" id="Fill-4" fill="#DBDFC4" mask="url(#mask-4)"></path>
                            </g>
                            <path d="M30.0489626,33.1910004 L37.7586429,33.1910004 C40.3134062,33.1910004 41.3421844,34.1253566 40.0564832,35.2779434 C38.7707821,36.4305303 36.6857039,38.0519696 35.5335236,38.0519696 L32.0565121,38.0519696 C30.9043319,38.0519696 29.0368234,36.4305303 27.7511222,35.2779434 C26.4654211,34.1253566 27.4941993,33.1910004 30.0489626,33.1910004 Z" id="Rectangle-13" fill="#FFF4F4" transform="translate(33.903803, 35.621485) rotate(-9.000000) translate(-33.903803, -35.621485) "></path>
                        </g>
                    </g>
                </g>
            </g>
        </g>
    </g>
</svg>