<?xml version="1.0" encoding="UTF-8"?>
<svg width="53px" height="55px" viewBox="0 0 53 55" version="1.1" xmlns="http://www.w3.org/2000/svg" xmlns:xlink="http://www.w3.org/1999/xlink">
    <!-- Generator: sketchtool 45.2 (43514) - http://www.bohemiancoding.com/sketch -->
    <title>D5FEB40E-9296-482B-AA1C-913F32055FEE</title>
    <desc>Created with sketchtool.</desc>
    <defs>
        <polygon id="path-1" points="33.1829751 20.7120076 33.1829751 0.744224245 52.9736966 0.744224245 52.9736966 20.7120076"></polygon>
    </defs>
    <g id="survey" stroke="none" stroke-width="1" fill="none" fill-rule="evenodd">
        <g id="-Nutrition" transform="translate(-375.000000, -5200.000000)">
            <g id="Group-75" transform="translate(126.000000, 5078.000000)">
                <g id="Group-45" transform="translate(200.000000, 42.000000)">
                    <g id="colourfulVeggies" transform="translate(49.000000, 80.000000)">
                        <g id="Group-3" transform="translate(0.000000, 11.719971)"></g>
                        <path d="M35.1721906,16.2644124 C28.312547,24.3124226 20.2607136,30.6941426 10.1619129,34.2049475 C9.62419566,34.391761 9.07362464,34.5420707 8.52733822,34.705264 C8.44378853,34.7310314 8.35166964,34.7299578 8.31096595,34.735326 C7.73147388,34.7342523 7.28587555,34.3659936 7.20125471,33.8603088 C7.10056662,33.2612174 7.39191938,32.7877418 8.00033249,32.5805292 C9.02863634,32.2305224 10.0740786,31.9245348 11.0873863,31.5348032 C16.5427525,29.4401303 21.3672114,26.2954369 25.8135544,22.5398419 C28.5749787,20.2078945 31.1468095,17.681618 33.4604931,14.8976679 C33.938226,14.3232701 34.6012677,14.2277161 35.1025658,14.643215 C35.5888679,15.0469039 35.6413542,15.7136347 35.1721906,16.2644124 M48.9750275,21.3513217 C47.87817,20.254061 46.998756,19.0150797 46.4642522,17.5205719 C46.3689199,17.574254 46.3035798,17.601095 46.2489511,17.6418933 C44.5415383,18.9270412 42.5824052,19.6012875 40.515086,20.00605 C39.6367431,20.1778325 39.1740064,19.8868759 38.9115747,19.0236688 C38.2592444,16.8774612 38.284952,14.726959 38.9362111,12.4873446 C37.191308,12.6720108 35.5749429,12.4100425 34.009993,11.7765945 C33.881455,11.7239861 33.6275925,11.825982 33.5065526,11.9376406 C32.7053325,12.6752317 31.9201797,13.4300011 31.1393114,14.189065 C29.320499,15.9562775 27.59809,17.8362223 25.6710915,19.4756715 C22.0634588,22.5419892 18.0155835,24.9512388 13.7352688,26.964315 C11.5897556,27.9724636 9.44745593,28.9881276 7.29230245,29.975877 C5.9008788,30.6136195 4.63477968,31.4381756 3.49721855,32.4538396 C1.42561475,34.3005015 0.143448387,36.5519259 0.0116969563,39.3863372 C-0.0922045786,41.6227307 0.506568184,43.6937835 1.4052629,45.709007 C3.05054906,49.3991098 5.61595294,52.1229361 9.44638478,53.5712774 C13.1182864,54.9584211 16.882307,55.0690061 20.6677505,54.289543 C29.3237124,52.5072995 36.0869525,47.8820556 40.9178383,40.4599779 C44.6657916,34.7009695 46.8959256,28.2687884 49.0671464,21.8140609 C49.1110635,21.6809294 49.0692887,21.4458021 48.9750275,21.3513217" id="Fill-1" fill="#856B98"></path>
                        <g id="Group-6" transform="translate(33.000000, 0.719971)"></g>
                        <mask id="mask-2" fill="white">
                            <use xlink:href="#path-1"></use>
                        </mask>
                        <g id="Clip-5"></g>
                        <path d="M50.672924,20.7120076 C48.4620707,19.3071488 47.1774407,16.8342323 47.2086111,14.0468465 C45.5760717,16.7935414 42.8800946,17.6626535 39.9812418,18.311025 C39.0995784,15.4547115 39.4321704,12.7824199 40.8770444,10.1173218 C38.1557882,11.1905329 35.6567956,10.9066624 33.1829751,9.51189581 C35.2490089,7.20206533 37.4688598,5.26672072 40.5944751,4.75545304 C41.5596882,4.5975205 42.5532868,4.58506627 43.5038252,4.37151915 C45.5858191,3.90394865 47.2437448,2.82161152 48.1814294,0.744224245 C49.3565879,1.3923811 50.519214,2.03366665 51.697693,2.6836487 C50.3575774,4.41639733 50.3417244,6.29805991 50.9489593,8.2224534 C51.2316357,9.11829915 51.6374944,9.98461978 52.0694891,10.8218448 C53.8275674,14.2295801 52.8393245,18.1047787 50.672924,20.7120076" id="Fill-4" fill="#60A789" mask="url(#mask-2)"></path>
                        <path d="M-9.31859675,-1.30824617 C-9.46501247,-1.32821195 -9.6114282,-1.34817773 -9.76117156,-1.36814351 C-9.00579951,-4.58263428 -8.25708271,-7.79712506 -7.49172776,-11.0082882 C-7.42850279,-11.271171 -7.29206995,-11.540709 -7.11570555,-11.7436945 C-6.12739938,-12.855123 -2.05105239,-13.6337884 -0.463772779,-12.9482966 C-5.50513253,-10.6023173 -8.03745912,-6.42281379 -9.31859675,-1.30824617 M-12.7926427,-1.07531205 C-13.4881174,-3.75072673 -14.0804356,-6.02349816 -14.6993748,-8.3861156 C-13.5846187,-8.86196672 -12.5896572,-9.28790339 -11.4349696,-9.78039266 C-11.8775444,-6.94857936 -12.2968258,-4.25985416 -12.7926427,-1.07531205 M-17.3614789,2.16579976 C-19.484507,-1.28162512 -21.6108627,-4.73237764 -23.7205803,-8.15318149 C-21.1716155,-9.23133368 -19.7407345,-8.69891284 -18.8988441,-5.92366926 C-18.1035405,-3.30482429 -17.5544815,-0.612771454 -16.8989383,2.04600508 C-17.0520093,2.08593664 -17.2050803,2.1258682 -17.3614789,2.16579976 M5.10668018,-21.0277827 C6.14157317,-26.019228 2.57768122,-29.8826067 -2.32059043,-29.2004425 C-2.76982051,-29.1372175 -3.31887949,-29.4766358 -3.76145431,-29.7295357 C-5.57501277,-30.7744116 -7.27875943,-32.0655321 -9.18881917,-32.8841291 C-12.6562098,-34.3749075 -16.2966373,-33.7792617 -18.3464575,-30.8376366 C-20.249862,-28.1023245 -22.6257899,-26.6714436 -25.5907084,-25.4635138 C-29.6637278,-23.7996987 -30.6220853,-20.3822225 -28.6554558,-16.445636 C-28.519023,-16.1694426 -28.429177,-15.8666283 -28.3093823,-15.5638139 C-28.9982018,-15.4240535 -29.5971752,-15.3208969 -30.1861657,-15.1811365 C-33.6269354,-14.3592118 -35.1177137,-12.1895969 -34.1626838,-8.8153799 C-33.6801774,-7.11163324 -32.7451134,-5.44449051 -31.6702888,-4.02359241 C-29.9865079,-1.80073544 -29.1346346,-1.75082098 -26.4126331,-3.24159931 C-25.1514612,-1.53119739 -23.6706658,0.12263482 -22.5991689,2.00607351 C-20.2066028,6.2022152 -19.1916756,10.8708804 -18.5993574,15.6127534 C-18.4429588,16.8539595 -17.9205208,17.3963632 -16.8057647,17.4928645 C-14.8823944,17.659246 -12.9523689,17.902163 -11.025671,17.8821972 C-8.39351555,17.8555762 -8.36356688,17.7624025 -8.31032479,15.1701786 C-8.18054722,8.99409694 -7.58822904,2.89122315 -5.29881946,-2.90883629 C-3.98773316,-6.22315597 -2.16086418,-9.14148766 1.56940927,-10.4292805 C2.15174456,-9.03500349 3.23322437,-8.5292037 4.49772385,-9.23133368 C6.94685968,-10.5923344 8.60401952,-12.6221889 8.75709051,-15.5405205 C8.89685098,-18.2292457 7.05999911,-19.7100412 5.10668018,-21.0277827" id="Fill-1" fill="#5D8F7A" mask="url(#mask-2)" transform="translate(-12.840794, -7.894102) rotate(-33.000000) translate(12.840794, 7.894102) "></path>
                    </g>
                </g>
            </g>
        </g>
    </g>
</svg>