<?xml version="1.0" encoding="UTF-8"?>
<svg width="96px" height="113px" viewBox="0 0 96 113" version="1.1" xmlns="http://www.w3.org/2000/svg" xmlns:xlink="http://www.w3.org/1999/xlink">
    <!-- Generator: sketchtool 45.2 (43514) - http://www.bohemiancoding.com/sketch -->
    <title>3E89260F-2DB4-4230-8E5D-F92093BBCDEB</title>
    <desc>Created with sketchtool.</desc>
    <defs>
        <polygon id="path-1" points="49.4187257 8.12523064 49.4187257 0.183697467 0.0252434183 0.183697467 0.0252434183 8.12523064 49.4187257 8.12523064"></polygon>
    </defs>
    <g id="survey" stroke="none" stroke-width="1" fill="none" fill-rule="evenodd">
        <g id="-Nutrition" transform="translate(-954.000000, -5145.000000)">
            <g id="Group-75" transform="translate(126.000000, 5078.000000)">
                <g id="Group-41" transform="translate(806.000000, 43.000000)">
                    <g id="dairyProducts" transform="translate(17.000000, 15.000000)">
                        <g id="Page-1-Copy" transform="translate(74.015796, 33.427331) rotate(21.000000) translate(-74.015796, -33.427331) translate(48.515796, 7.927331)">
                            <g id="Group-3" transform="translate(0.000000, 17.430597)" fill="#D9C38A">
                                <path d="M38.7220761,20.9379737 C37.1172741,20.9224854 35.8385085,19.691161 35.8306993,18.1539416 C35.82289,16.6012338 37.1914621,15.2944037 38.7982164,15.3195723 C40.3893522,15.3428049 41.6642131,16.5896176 41.6700701,18.1307091 C41.675927,19.7240738 40.3873999,20.9534621 38.7220761,20.9379737 M30.0401364,18.256552 C29.9522822,20.6998402 27.8515925,22.6068441 25.3213937,22.5410186 C22.7580056,22.4751931 20.8095964,20.5023637 20.8623089,18.0280987 C20.9150213,15.5944907 23.0000925,13.6855507 25.5537191,13.7339518 C28.0604901,13.7823529 30.1260382,15.8655369 30.0401364,18.256552 M11.6786244,16.9613381 C10.2944339,16.9497219 9.18161498,15.8636008 9.18942424,14.5316022 C9.19723349,13.1918593 10.3041955,12.1483313 11.7079091,12.1522034 C13.1057659,12.1580115 14.2205371,13.2325163 14.2107755,14.5606428 C14.1990616,15.8752171 13.0432918,16.9710184 11.6786244,16.9613381 M43.5437057,1.21548751 C43.215717,1.27356885 42.8510247,1.54461509 42.653841,1.82340551 C40.8323322,4.40415295 37.6978923,4.91333267 35.1305995,3.07409031 C34.7694215,2.81659638 34.165766,2.71979416 33.7128292,2.7914278 C22.6412573,4.54161211 11.5640236,6.32664522 0.498308592,8.1019981 C0.338218855,8.12910273 0.196090405,8.11942251 0.000859018102,8.12523064 L0.000859018102,15.2885956 C0.586553179,15.4163746 1.03011889,15.5073686 1.51624504,15.6796766 C3.65988567,16.4386061 5.11865459,18.4927494 5.05618055,20.6320787 C4.98980188,22.8953148 3.40745149,24.901057 1.16814748,25.5283354 C0.795255531,25.6328818 0.406354609,25.6735388 0.0237010904,25.7432364 C0.0237010904,27.7121937 0.0654806071,29.6811511 0.00105424949,31.6481724 C-0.0204212031,32.2560904 0.288434851,32.1225033 0.610566639,32.1321835 C2.42231391,31.804992 4.22839947,31.4506958 6.04600368,31.1583531 C15.5030121,29.634686 24.9619727,28.1303793 34.4189811,26.6163925 C39.4208093,25.81487 44.4085807,25.0075394 49.4104089,24.207953 C49.5997833,24.1769763 49.7848627,24.1982728 49.980094,24.1944007 L49.980094,0.187447837 C47.8325488,0.52238355 45.6873463,0.839894862 43.5437057,1.21548751" id="Fill-1"></path>
                            </g>
                            <path d="M24.6243982,3.87208917e-05 C26.2247098,0.390926123 27.8422019,0.724119396 29.4226,1.18257475 C36.9995301,3.38134059 43.5780469,7.13862232 48.5416097,13.3738475 C48.9615524,13.9014197 49.3381537,14.4628726 49.8484886,15.1646888 C47.5640861,15.512596 45.436064,15.8368834 43.3281507,16.1582668 C41.7930463,12.8462754 40.0119504,11.6186295 37.4058066,12.0294582 C34.7867775,12.4424165 33.5132832,14.1124485 33.130044,17.7173635 C22.2181713,19.5051071 11.281309,21.29711 0.344641967,23.0891128 C0.260497239,22.9704333 0.176547743,22.8519474 0.0925982468,22.7332679 C0.389935649,22.5443099 0.729638262,22.3985257 0.978753512,22.1598114 C8.49028112,14.9639209 15.9928281,7.758931 23.4957655,0.554328286 C23.6822115,0.375244162 23.8579197,0.185124583 24.038704,3.87208917e-05 L24.6243982,3.87208917e-05 Z" id="Fill-4" fill="#E7D9B6"></path>
                            <g id="Group-8" transform="translate(0.585694, 41.437549)">
                                <mask id="mask-2" fill="white">
                                    <use xlink:href="#path-1"></use>
                                </mask>
                                <g id="Clip-7"></g>
                            </g>
                        </g>
                        <g id="Group-9" transform="translate(32.047996, 78.495626) rotate(-20.000000) translate(-32.047996, -78.495626) translate(13.047996, 36.995626)">
                            <path d="M37.829998,55.4482805 C37.829998,61.637033 37.8250081,67.8261619 37.8326848,74.0149145 C37.8353717,76.0660417 37.2173919,77.9045682 35.8927657,79.4872212 C34.5002,81.1515279 32.7076747,82.1731406 30.5232505,82.4880908 C30.0296343,82.5595848 29.5256545,82.5919453 29.0262808,82.5923216 C22.2833919,82.5987184 15.540503,82.5904402 8.79761414,82.6005998 C6.69609899,82.6036101 4.81106869,82.0079516 3.18551313,80.7056307 C1.48472525,79.3427279 0.440684848,77.586984 0.115573737,75.4466773 C0.0368868687,74.9289097 0.00771515152,74.3987247 0.00733131313,73.8745603 C0.00157373737,61.6193477 0.00541212121,49.3645113 3.83838385e-05,37.1096749 C-0.000729292929,35.6361445 0.226886869,34.1912117 0.516684848,32.7545572 C1.5442202,27.6577825 3.03658384,22.6919548 5.01143232,17.8717492 C5.61943232,16.3869303 6.36292727,14.9551674 7.03733131,13.4963121 C7.10795758,13.3435406 7.19432121,13.3292417 7.34977576,13.348056 C7.83725051,13.4063801 8.32741212,13.4801319 8.81642222,13.4808844 C15.5504828,13.4891627 22.2845434,13.4887864 29.0182202,13.481637 C29.4903414,13.4808844 29.9655333,13.4297097 30.4330485,13.3612259 C30.6288061,13.3326283 30.6975131,13.3871896 30.7777354,13.5380797 C32.0002606,15.8330394 32.994402,18.2231991 33.8799172,20.6585129 C35.2909071,24.5391358 36.4378162,28.4927579 37.2753515,32.5306678 C37.6572707,34.3733334 37.8518768,36.2302979 37.8415131,38.1192465 C37.8096545,43.8955911 37.829998,49.6719358 37.829998,55.4482805" id="Fill-1" stroke="#DDDDDD" fill="#EEFBFE"></path>
                            <path d="M0.933520972,43 C0.936204624,53.101356 0.934092871,63.2027479 0.938838694,73.3044086 C0.939203625,73.8027525 0.966938333,74.3068204 1.04174906,74.7990825 C1.35084509,76.833957 2.3434557,78.5032124 3.96046219,79.7989781 C5.50594232,81.0371462 7.29811539,81.6034624 9.29610918,81.6006004 C15.7068411,81.5909412 22.1175729,81.5988117 28.5283048,81.5927299 C29.0030792,81.5923722 29.4822328,81.5616058 29.9515333,81.4936335 C32.028352,81.1941979 33.7325769,80.2229102 35.0565443,78.6405878 C36.315919,77.1358969 36.9034569,75.3879369 36.9009024,73.4378488 C36.8936038,67.5539563 36.8983479,61.6697061 36.8983479,55.7858136 C36.8983479,51.5238757 36.8866993,47.2619379 36.8956389,43 L0.933520972,43 Z" id="Combined-Shape" fill="#FFFFFF"></path>
                            <path d="M18.9164,10.113175 C15.4864202,10.113175 12.0564404,10.1154327 8.62607677,10.1124225 C6.98593535,10.110541 5.64365253,9.07538213 5.2563596,7.50966198 C5.19379394,7.25679874 5.16807677,6.99038925 5.16577374,6.72962403 C5.15579394,5.61469281 5.15809697,4.49976158 5.16231919,3.38483036 C5.16961212,1.48384063 6.68155152,0.00316079051 8.62607677,0.00240822134 C15.4864202,-0.000602055336 22.3467636,-0.000602055336 29.2067232,0.00240822134 C31.1512485,0.00316079051 32.6631879,1.48384063 32.6704808,3.38483036 C32.6750869,4.49976158 32.6750869,5.61469281 32.6704808,6.72962403 C32.6631879,8.63061375 31.1512485,10.1097885 29.2067232,10.1120462 C25.7767434,10.1161853 22.3463798,10.113175 18.9164,10.113175" id="Fill-4" fill="#31729F"></path>
                            <rect id="Rectangle-18" fill="#FFFFFF" x="5" y="26" width="6" height="10.5" rx="3"></rect>
                        </g>
                    </g>
                </g>
            </g>
        </g>
    </g>
</svg>