<?xml version="1.0" encoding="UTF-8"?>
<svg width="50px" height="62px" viewBox="0 0 50 62" version="1.1" xmlns="http://www.w3.org/2000/svg" xmlns:xlink="http://www.w3.org/1999/xlink">
    <!-- Generator: sketchtool 45.2 (43514) - http://www.bohemiancoding.com/sketch -->
    <title>C6EC235F-1390-4319-9A4D-A7BB1F6D4239</title>
    <desc>Created with sketchtool.</desc>
    <defs>
        <polygon id="path-1" points="24.6625833 61.622973 49.325 61.622973 49.325 1.19063918e-14 24.6625833 1.19063918e-14 0.000166666667 0 0.000166666667 61.622973 24.6625833 61.622973"></polygon>
    </defs>
    <g id="survey" stroke="none" stroke-width="1" fill="none" fill-rule="evenodd">
        <g id="-Nutrition" transform="translate(-513.000000, -397.000000)">
            <g id="Group-61" transform="translate(175.000000, 308.000000)">
                <g id="Group-60">
                    <g id="eggetarian" transform="translate(338.000000, 89.000000)">
                        <mask id="mask-2" fill="white">
                            <use xlink:href="#path-1"></use>
                        </mask>
                        <g id="Clip-2"></g>
                        <path d="M41.8351667,27.3227297 L49.2751667,35.96 C48.3501667,50.3121622 37.6918333,61.622973 24.6751667,61.622973 C11.0501667,61.622973 0.000166666667,49.222973 0.000166666667,33.9240541 C0.000166666667,18.6251351 11.0501667,0 24.6751667,0 C38.0001667,0 48.8585,17.8124324 49.3251667,32.9018919 L41.2976667,24.2009459 C40.9618333,23.8381622 40.3635,23.9571351 40.191,24.4212973 L37.3001667,32.2157027 C37.0568333,32.8700541 36.1976667,33.0108108 35.7601667,32.4678919 L29.2751667,24.4045405 C28.8985,23.9361892 28.1676667,24.0115946 27.8935,24.5478108 L21.5418333,36.9905405 L28.5243333,26.6507838 C28.6951667,26.3985946 29.0626667,26.3935676 29.241,26.6407297 L35.8668333,35.8452162 C36.2301667,36.3487568 37.001,36.2624595 37.2443333,35.6902162 L40.7251667,27.497 C40.9176667,27.0445676 41.5151667,26.9507297 41.8351667,27.3227297" id="Fill-1" fill="#BDBDBD" mask="url(#mask-2)"></path>
                    </g>
                </g>
            </g>
        </g>
    </g>
</svg>