<?xml version="1.0" encoding="UTF-8"?>
<svg width="85px" height="71px" viewBox="0 0 85 71" version="1.1" xmlns="http://www.w3.org/2000/svg" xmlns:xlink="http://www.w3.org/1999/xlink">
    <!-- Generator: sketchtool 45.2 (43514) - http://www.bohemiancoding.com/sketch -->
    <title>CEC22BC9-6102-41E3-BCB7-F75B6C5F4B3E</title>
    <desc>Created with sketchtool.</desc>
    <defs>
        <polygon id="path-1" points="0 71 0 0 84.9647663 0 84.9647663 71 3.6086885e-05 71 84.9648024 71.0000362 84.9648024 3.62244898e-05 3.6086885e-05 3.62244898e-05 3.6086885e-05 71"></polygon>
        <polygon id="path-3" points="13.8736029 0.0387494346 13.8736029 10.4661072 0.160621676 10.4661072 0.160621676 0.0387494346 13.8736029 0.0387494346"></polygon>
    </defs>
    <g id="survey" stroke="none" stroke-width="1" fill="none" fill-rule="evenodd">
        <g id="-Nutrition" transform="translate(-802.000000, -5168.000000)">
            <g id="Group-75" transform="translate(126.000000, 5078.000000)">
                <g id="Group-42" transform="translate(655.000000, 42.000000)">
                    <g id="juicyFruits" transform="translate(21.000000, 47.719971)">
                        <g id="Page-1">
                            <g id="Group-3">
                                <mask id="mask-2" fill="white">
                                    <use xlink:href="#path-1"></use>
                                </mask>
                                <g id="Clip-2"></g>
                                <path d="M45.1400379,40.8156179 L51.0849913,40.8156179 C49.9294893,39.7085974 48.8180132,38.6432352 47.4961506,37.3764648 C46.7924564,38.4034291 46.0515926,39.4850923 45.1400379,40.8156179 L45.1400379,40.8156179 Z M32.8488449,5.23483724 C29.9871549,5.23483724 27.4163252,5.08088316 24.8819433,5.31851582 C23.9970929,5.4014699 22.7593127,6.28317398 22.4579872,7.09134235 C21.8206928,8.79932704 22.6322869,10.3986383 23.9476538,11.6157811 C25.152234,12.7304087 26.5271444,12.4862556 27.7981245,11.7610413 C30.2541978,10.3598781 31.7770644,8.18568418 32.8488449,5.23483724 L32.8488449,5.23483724 Z M60.4556727,34.1238679 C59.4311661,35.7956281 59.2904272,37.8615107 60.2792079,39.9661536 C60.4751597,40.3830974 60.9973369,40.9221179 61.3798579,40.9308117 C64.6962426,41.0072454 68.0151534,40.9746434 71.2265253,40.9746434 C69.9097149,38.8834036 68.6701304,36.9142403 67.6142281,35.2374087 C65.3082762,34.878424 63.0593415,34.5288577 60.4556727,34.1238679 L60.4556727,34.1238679 Z M25.2684338,15.905123 C24.692848,14.8944597 24.4265268,13.8660464 23.7643325,13.3704954 C21.9423056,12.0077301 21.0617856,10.2530158 20.7579341,8.05817398 C20.6695212,7.41808724 20.3671131,6.62151071 19.8896836,6.25310765 C17.5674926,4.46108214 15.1601365,2.77881684 12.7661325,1.08133724 C11.8527735,0.433643367 10.8127494,-0.215861735 9.99899018,1.11792398 C9.24116559,2.36006173 9.69766469,3.41709235 10.8928623,4.17563316 C12.1079077,4.94649031 13.3121271,5.7347352 14.5347507,6.49327602 C17.99837,8.64283724 20.4465042,11.5313781 21.2523244,15.6497403 C21.3421807,16.1087046 21.4793109,16.751327 21.8019276,16.9291893 C22.4182916,17.2693372 23.2385465,17.5808679 23.8707888,17.4392301 C24.3799747,17.325123 24.7365131,16.5256485 25.2684338,15.905123 L25.2684338,15.905123 Z M49.7627679,29.6164546 C48.0522495,32.2612046 48.1377754,35.0258577 49.9006198,37.3003934 C51.5739686,39.4597352 54.5298454,40.4022964 56.9844753,39.4293066 C57.4243744,39.2550668 57.8173606,38.5870872 57.9487169,38.0741485 C58.3449508,36.5273628 58.6199329,34.947975 58.9017715,33.3740209 C58.98838,32.8886128 59.1132406,32.3035872 58.9288366,31.8975107 C58.517807,30.9937097 57.9227343,30.1739495 57.3424572,29.2208832 C54.8373056,30.6097301 52.2776629,30.6756587 49.7627679,29.6164546 L49.7627679,29.6164546 Z M84.9648024,21.5572301 C82.860937,19.2019138 80.9974103,16.7654546 78.7740973,14.7238423 C76.5161409,12.651077 74.234728,13.1574954 72.5819487,15.7678321 C72.0464193,16.6140362 71.6523506,17.5931842 71.3939685,18.5650872 C70.9389128,20.2770566 71.598942,21.6445311 73.0398913,22.6193321 C75.9315334,24.5750923 81.6523872,24.2465362 84.9648024,21.5572301 L84.9648024,21.5572301 Z M53.8221816,15.5704087 C50.5559576,15.5588168 48.2680491,17.0621332 47.2204468,19.4833781 C46.1057229,22.0593015 46.6235697,24.6497148 48.6812439,26.7891332 C50.3715536,28.5467454 53.1513264,29.1125719 55.5070782,28.1421179 C56.4056416,27.7722658 57.0822707,27.3259801 57.2255357,26.1131842 C57.376018,24.8388066 57.8566953,23.536174 58.473781,22.3998117 C59.5314876,20.4512964 59.5545832,19.5503934 58.080434,17.8434954 C56.789967,16.3492352 55.1487354,15.5986638 53.8221816,15.5704087 L53.8221816,15.5704087 Z M76.1321765,27.1492046 C72.4906489,27.1307301 69.6462806,29.9667454 69.6112763,33.6515005 C69.5766329,37.2627199 72.512301,40.2218985 76.1061939,40.1979903 C79.5925479,40.1751689 82.5361551,37.2496791 82.5877593,33.7569138 C82.6411679,30.1402607 79.7365345,27.1676791 76.1321765,27.1492046 L76.1321765,27.1492046 Z M65.1837764,33.313526 C67.1573682,33.3783679 67.5669543,32.9241128 68.3240571,31.0346434 C68.8234996,29.7877964 69.5304417,28.3909801 70.5632484,27.6472913 C72.204119,26.4660107 71.9294978,25.2575617 71.183221,23.9505821 C70.6603221,23.0344648 69.9721452,22.0705311 69.1082252,21.5293372 C67.9938622,20.8316536 67.8863232,20.0847046 68.4936655,19.1751077 C70.0472059,16.8480464 71.49429,14.4036179 73.3538472,12.3424444 C74.8572268,10.6757556 76.9917661,9.59843929 78.6463497,8.04513316 C79.1461531,7.57638827 78.9772665,6.39003622 79.1147575,5.53224031 C78.4244154,5.45580663 77.5348737,5.06132194 77.074405,5.35184235 C71.8086068,8.67217908 67.1829898,12.6271689 65.1116026,18.8016332 C64.7687772,19.8231638 64.3151651,20.3516791 63.2704498,20.6911026 C60.4239163,21.6159138 58.482081,24.8315617 58.9187323,27.6161383 C59.4261139,30.8502607 62.0204001,33.2095617 65.1837764,33.313526 L65.1837764,33.313526 Z M42.9943117,40.9188577 C44.3537047,39.0522097 45.7527932,37.7061077 46.4124615,36.0615158 C47.0645515,34.4364852 46.9512387,32.5064444 47.2164773,30.7165923 C47.2763815,30.3119648 47.6170417,29.9413883 47.6441068,29.5425566 C47.6780285,29.0361383 47.7119502,28.3312097 47.4203682,28.0327199 C45.2479377,25.8121587 44.6506997,23.1981995 45.156277,20.2056944 C45.2273682,19.7851281 45.0350251,19.117873 44.7228735,18.8646638 C40.6371164,15.5490362 36.095221,14.1699699 30.9575312,15.9768474 C29.3227953,16.5520923 27.8349331,17.5660158 26.186845,18.0778679 C24.6278916,18.561827 22.9502123,18.8403934 21.3190851,18.8668372 C19.1084026,18.9023372 16.8901417,18.4578628 14.6790983,18.4893781 C8.59412774,18.5763168 1.93357138,25.382174 2.46801815,30.5774903 C2.79857402,33.7895158 3.53871603,36.9616944 4.16554522,40.1374954 C4.23086248,40.4671383 4.76927881,40.929725 5.10199988,40.9416791 C7.16761318,41.015577 9.23683517,40.9789903 11.5229393,40.9789903 C6.10918484,35.9865311 6.48015802,28.5960107 12.0992469,24.8576434 C13.648096,23.8274189 14.9750107,23.8962454 15.6942224,25.1180974 C16.5751032,26.6145311 15.8003178,27.5411536 14.5769724,28.4105413 C11.584287,30.5380056 11.0985576,33.1530515 13.0274016,36.2194546 C14.4690726,38.5113781 14.4438118,38.8728985 12.6430762,40.9188577 L42.9943117,40.9188577 Z M3.60868853e-05,42.3826893 L3.60868853e-05,3.62244896e-05 L84.8042158,3.62244896e-05 L84.8042158,71.0000362 L3.60868853e-05,71.0000362 L3.60868853e-05,44.9184036 C0.110822824,45.5613883 0.250839937,46.2007505 0.327705002,46.8477199 C1.11475996,53.4869444 3.80142855,59.1006536 9.20363523,63.1951077 C13.0569928,66.115526 17.478358,67.800327 22.1534139,68.834174 C32.1216941,71.0384342 42.2058133,71.036623 52.2928194,70.1085515 C59.3362576,69.4608577 66.1985396,67.9463117 72.1748886,63.824327 C79.5972391,58.7058066 82.1197124,51.2580515 82.1843079,42.4323168 L79.8816038,42.4323168 C57.9414995,42.4323168 36.0013951,42.4352148 14.0616517,42.4301434 C9.3743262,42.4290566 4.68736158,42.3993526 3.60868853e-05,42.3826893 L3.60868853e-05,42.3826893 Z" id="Fill-1" fill="#FFFFFF" mask="url(#mask-2)"></path>
                            </g>
                            <path d="M0,42.3826531 C4.68732549,42.3993163 9.37429011,42.4290204 14.0616156,42.4301071 C36.0013591,42.4351786 57.9414634,42.4322806 79.8815677,42.4322806 L82.1842718,42.4322806 C82.1196763,51.2580153 79.5972031,58.7057704 72.1748526,63.8242908 C66.1985035,67.9462755 59.3362215,69.4608214 52.2927833,70.1085153 C42.2061381,71.0365867 32.1216581,71.038398 22.1533778,68.8341378 C17.4783219,67.8002908 13.0569567,66.1154898 9.20359914,63.1950714 C3.80139246,59.1006173 1.11472388,53.4869082 0.327668916,46.8476837 C0.250803851,46.2007143 0.110786737,45.561352 0,44.9183673 L0,42.3826531" id="Fill-4" fill="#AD9385"></path>
                            <path d="M42.9943839,40.9188214 L12.6431484,40.9188214 C14.443884,38.8728622 14.4691448,38.5113418 13.0274737,36.2194184 C11.0986297,33.1530153 11.5843592,30.5383316 14.5770446,28.4105051 C15.8000291,27.5411173 16.5751754,26.6144949 15.6942945,25.1180612 C14.9750829,23.8965714 13.6481682,23.8273827 12.0993191,24.8579694 C6.4802302,28.5959745 6.10925702,35.9864949 11.5230115,40.9789541 C9.23690734,40.9789541 7.16768535,41.0159031 5.10207206,40.9416429 C4.76935098,40.9296888 4.23093466,40.467102 4.16561739,40.1374592 C3.5387882,36.9616582 2.79864619,33.7894796 2.46809032,30.5774541 C1.93364356,25.3821378 8.59419992,18.5762806 14.6788096,18.4893418 C16.8902139,18.4578265 19.1084747,18.902301 21.3191573,18.866801 C22.9499236,18.8403571 24.6279638,18.5617908 26.1869172,18.0778316 C27.8350052,17.5659796 29.3228675,16.5520561 30.9576034,15.9768112 C36.0952932,14.1699337 40.6371886,15.549 44.7229457,18.8646276 C45.0347364,19.1178367 45.2274403,19.7850918 45.1563492,20.2056582 C44.6507719,23.1981633 45.2480099,25.8121224 47.4204403,28.0326837 C47.7120224,28.3311735 47.6781007,29.036102 47.644179,29.5425204 C47.6171139,29.941352 47.2764537,30.3119286 47.2165494,30.7165561 C46.95095,32.5064082 47.0646236,34.436449 46.4125336,36.0614796 C45.7528654,37.7064337 44.3537768,39.0521735 42.9943839,40.9188214" id="Fill-6" fill="#C06363"></path>
                            <path d="M65.1836321,33.3133811 C62.0202557,33.2094168 59.4259696,30.8504781 58.9189488,27.6159934 C58.4819367,24.8314168 60.4241328,21.6157689 63.2706663,20.6909577 C64.3153816,20.3515342 64.7689938,19.8233811 65.1118192,18.8014883 C67.1832064,12.627024 71.8088233,8.67203418 77.0742607,5.35169745 C77.5350902,5.06117704 78.424271,5.45602398 79.1146131,5.53209541 C78.9771221,6.38989133 79.1460087,7.57624337 78.6465662,8.04535051 C76.9916217,9.59865663 74.8570825,10.675973 73.3537028,12.3422995 C71.4941456,14.403473 70.0474224,16.8479015 68.4935212,19.1749628 C67.8861789,20.0845597 67.9940787,20.8315087 69.1080808,21.5295546 C69.9720008,22.0707485 70.6605386,23.0346821 71.1834376,23.9507995 C71.9293535,25.2577791 72.2039747,26.4658658 70.563104,27.6475087 C69.5302974,28.3911974 68.8233553,29.7880138 68.3239128,31.0344985 C67.56681,32.9239679 67.1572238,33.378223 65.1836321,33.3133811" id="Fill-8" fill="#856B98"></path>
                            <path d="M76.131996,27.1492046 C79.736715,27.1676791 82.6413483,30.1402607 82.5879397,33.7569138 C82.5363355,37.2496791 79.5927283,40.1751689 76.1063743,40.1979903 C72.5124815,40.2218985 69.5768134,37.2627199 69.6110959,33.6515005 C69.646461,29.9667454 72.4904685,27.1307301 76.131996,27.1492046" id="Fill-10" fill="#856B98"></path>
                            <path d="M53.8223259,15.5702638 C55.1485189,15.5985189 56.7897505,16.3494526 58.0802175,17.8433505 C59.5543667,19.5506107 59.531632,20.4515138 58.4739254,22.3996668 C57.8564788,23.5363913 57.3761623,24.8386617 57.22568,26.1130393 C57.0824151,27.3258352 56.4054251,27.7721209 55.5072226,28.1423352 C53.1511098,29.1127893 50.371698,28.5469628 48.6813883,26.7893505 C46.6237141,24.6495699 46.1058673,22.0595189 47.2202303,19.4832332 C48.2681934,17.0619883 50.5561019,15.5590342 53.8223259,15.5702638" id="Fill-12" fill="#856B98"></path>
                            <g id="Group-16" transform="translate(71.091163, 13.403061)">
                                <mask id="mask-4" fill="white">
                                    <use xlink:href="#path-3"></use>
                                </mask>
                                <g id="Clip-15"></g>
                                <path d="M1.94880005,9.21605357 C0.507850732,8.2416148 -0.152178394,6.87414031 0.302877226,5.16180867 C0.561259322,4.18990561 0.954967237,3.2111199 1.49085748,2.36491582 C3.14327594,-0.245420918 5.42504968,-0.752201531 7.6826452,1.32092602 C9.90631906,3.36217602 11.7698458,5.79899745 13.8737112,8.15431378 C10.561296,10.8436199 4.84044214,11.1718138 1.94880005,9.21605357 Z" id="Fill-14" fill="#5D8F7A" mask="url(#mask-4)"></path>
                            </g>
                            <path d="M49.7627679,29.6165633 C52.2776629,30.6757673 54.8373056,30.6098388 57.3424572,29.2209918 C57.9227343,30.1740582 58.517807,30.9934561 58.9288366,31.8976194 C59.1132406,32.3033337 58.98838,32.8887214 58.9017715,33.3741296 C58.6199329,34.9480837 58.3449508,36.5274714 57.9487169,38.0738949 C57.8173606,38.5871959 57.4243744,39.2551755 56.9844753,39.4294153 C54.5298454,40.4024051 51.5739686,39.4598439 49.9006198,37.300502 C48.1377754,35.0259663 48.0522495,32.2613133 49.7627679,29.6165633" id="Fill-17" fill="#856B98"></path>
                            <path d="M25.2682895,15.9050505 C24.7367297,16.525576 24.3798304,17.3250505 23.8710053,17.4391577 C23.2387631,17.5807954 22.4181473,17.2692648 21.8017833,16.9291168 C21.4791665,16.7512546 21.3423973,16.1086321 21.2525409,15.6500301 C20.4463599,11.5313056 17.9982256,8.6427648 14.5346064,6.49356582 C13.3119827,5.73466276 12.1077634,4.94641786 10.892718,4.17556071 C9.69752034,3.41738214 9.24102124,2.35998929 9.99884583,1.11785153 C10.8126051,-0.215571939 11.8526291,0.433570918 12.7659882,1.0812648 C15.1599921,2.77874439 17.5673482,4.46100969 19.8899001,6.2530352 C20.3673296,6.62143827 20.6693768,7.4180148 20.7581506,8.05846378 C21.0616413,10.2529434 21.9425221,12.0076577 23.764549,13.3707852 C24.4267433,13.865974 24.6930645,14.8943872 25.2682895,15.9050505" id="Fill-19" fill="#7A675D"></path>
                            <path d="M60.4558171,34.1237954 C63.0594858,34.5287852 65.3080597,34.8787138 67.6143725,35.2373362 C68.6699139,36.9141679 69.9098592,38.8833311 71.2266697,40.9749332 C68.0149369,40.9749332 64.696387,41.007173 61.3800022,40.9311015 C60.9974812,40.9220454 60.475304,40.3833872 60.2793522,39.9660811 C59.2905716,37.8618005 59.4313104,35.7955556 60.4558171,34.1237954" id="Fill-21" fill="#856B98"></path>
                            <path d="M32.848881,5.23483724 C31.7767396,8.18568418 30.2542339,10.3598781 27.7981605,11.7610413 C26.5271805,12.4858934 25.1522701,12.7304087 23.9476899,11.6157811 C22.632323,10.3986383 21.8207289,8.79932704 22.4580233,7.09134235 C22.7593488,6.28317398 23.9971289,5.4014699 24.8819794,5.31851582 C27.4163613,5.08088316 29.987191,5.23483724 32.848881,5.23483724" id="Fill-23" fill="#5D8F7A"></path>
                            <path d="M45.1400379,40.8156179 C46.0515926,39.4850923 46.7924564,38.4034291 47.4961506,37.3764648 C48.8180132,38.6432352 49.9294893,39.7085974 51.0849913,40.8156179 L45.1400379,40.8156179 Z" id="Fill-25" fill="#856B98"></path>
                        </g>
                    </g>
                </g>
            </g>
        </g>
    </g>
</svg>