<?xml version="1.0" encoding="UTF-8"?>
<svg width="93px" height="98px" viewBox="0 0 93 98" version="1.1" xmlns="http://www.w3.org/2000/svg" xmlns:xlink="http://www.w3.org/1999/xlink">
    <!-- Generator: sketchtool 45.2 (43514) - http://www.bohemiancoding.com/sketch -->
    <title>232BA076-B6DC-4BDD-8891-73DD3849D097</title>
    <desc>Created with sketchtool.</desc>
    <defs>
        <polygon id="path-1" points="6.31313892e-20 0.401653413 6.31313892e-20 26.4014696 37.9556566 26.4014696 37.9556566 0.401653413 0 0.401653413"></polygon>
        <polygon id="path-3" points="0.221783249 0.0677324074 12.1157833 0.0677324074 12.1157833 7.29150516 0.221783249 7.29150516 0.221783249 0.0677324074"></polygon>
        <polygon id="path-5" points="42.9694349 0.0847001346 42.9694349 43.2764232 4.06871634e-05 43.2764232 4.06871634e-05 0.0847001346 42.9694349 0.0847001346"></polygon>
    </defs>
    <g id="survey" stroke="none" stroke-width="1" fill="none" fill-rule="evenodd">
        <g id="-Nutrition" transform="translate(-1105.000000, -5151.000000)">
            <g id="Group-75" transform="translate(126.000000, 5078.000000)">
                <g id="Group-40" transform="translate(958.000000, 43.000000)">
                    <g id="junk" transform="translate(21.000000, 24.000000)">
                        <g id="Page-1" transform="translate(30.986543, 26.576816) rotate(-19.000000) translate(-30.986543, -26.576816) translate(5.986543, 7.076816)">
                            <path d="M47.2620429,13.2675491 L2.28765924,13.2675491 C2.35588886,12.5476161 2.32699884,11.892007 2.49910959,11.2957738 C2.69765164,10.6073842 3.11440553,9.98579256 3.36335144,9.30791748 C3.93254629,7.7573401 5.25042291,6.85680533 6.31628021,5.72928137 C7.24567828,4.74524922 8.40558181,4.12675006 9.55626513,3.49093293 C10.4795164,2.98067113 11.4353457,2.52607425 12.3930191,2.08446585 C12.8644797,1.86675415 13.3672889,1.70965536 13.8682542,1.56987456 C14.6212387,1.35896634 15.3797554,1.15733562 16.1462629,1.00518483 C17.5907639,0.720056716 19.0389529,0.439876599 20.4951328,0.221546397 C21.389494,0.0873320807 22.301681,0.0279561618 23.2058772,0.0155861787 C24.7530299,-0.0035872951 26.3044854,-0.0227607689 27.846106,0.076817595 C29.1320192,0.159696482 30.4179324,0.358234711 31.6835611,0.605015873 C32.8981713,0.84190105 34.1090933,1.14249164 35.2806758,1.5358571 C36.3557533,1.89644211 37.3921059,2.38814894 38.4192383,2.87861877 C39.4519028,3.37279959 40.4993197,3.86203242 41.4545344,4.48671657 C42.9156317,5.44415326 44.3201784,6.50054982 45.256338,8.03813872 C45.7321013,8.81992165 46.210938,9.60232308 46.6209304,10.419979 C46.7776741,10.7317025 46.7235821,11.14486 46.8047201,11.5035895 C46.9350325,12.0775567 47.097923,12.6428649 47.2620429,13.2675491" id="Fill-1" fill="#C0AE9C"></path>
                            <path d="M24.6154642,20.2969157 L45.0382491,20.2969157 C46.1219321,20.2969157 46.7077234,20.8721199 46.7157142,21.9569674 C46.7255491,23.4153884 46.7206317,24.8738094 46.7323106,26.3334674 C46.7409161,27.3904825 45.9258488,28.1982424 44.8206519,28.1988609 C34.7447967,28.2000979 24.6689415,28.1994794 14.5924716,28.1994794 C11.1029261,28.1994794 7.6133806,28.2007164 4.12322042,28.1994794 C3.04814289,28.1994794 2.47157187,27.6180902 2.46665442,26.5208727 C2.46050761,24.9876133 2.46050761,23.4543539 2.46542506,21.9217129 C2.46849847,20.9352068 3.11452847,20.2993897 4.11891765,20.2993897 C10.9517145,20.2969157 17.783282,20.2975342 24.6154642,20.2969157" id="Fill-3" fill="#A48181"></path>
                            <path d="M47.2674521,30.7890735 C47.1113231,31.3370637 46.9299921,31.8256781 46.8365605,32.3303734 C46.5630274,33.8178638 45.7872996,34.9008559 44.5142947,35.7315002 C43.5308047,36.3728839 42.5092045,36.8225327 41.4033929,37.2041467 C39.7566618,37.7731659 38.0859581,37.9785077 36.3709974,38.1850864 C29.2880253,39.0404707 22.1909155,38.5425789 15.1011818,38.5172204 C13.4286341,38.5110354 11.7542424,38.0180916 10.0866121,37.712553 C9.16090214,37.5437028 8.214293,37.3965 7.33960157,37.0699324 C5.83670589,36.5095722 4.38974621,35.7976796 3.44436643,34.3980161 C3.09522748,33.8809508 2.71596914,33.348423 2.52849136,32.7645598 C2.33978421,32.1769856 2.37236232,31.517047 2.29798589,30.7890735 L47.2674521,30.7890735 Z" id="Fill-5" fill="#C0AE9C"></path>
                            <path d="M49.129506,15.8605449 C49.3040755,17.3938043 49.1239739,17.3783419 47.7919596,17.8910777 C46.5177254,18.380929 45.2705371,18.4390679 44.003679,18.2912466 C43.2519238,18.2034197 42.5511872,17.7370714 41.8080376,17.5051342 C40.4385277,17.0765143 39.0770087,16.4679111 37.6017737,17.1068207 C37.4456447,17.1742371 37.277222,17.2441275 37.1106434,17.2527865 C35.8966479,17.3158734 34.8277172,17.8842742 33.6905569,18.2009457 C32.4943871,18.5343168 31.2650246,19.0464341 29.9711206,18.7619245 C28.923089,18.5318428 27.8922686,18.2225932 26.859604,17.9306616 C26.1527206,17.7308864 25.3302771,17.664707 24.7832107,17.2441275 C24.0419051,16.6738713 23.29015,16.7981896 22.5678995,16.9033345 C21.6833732,17.0319823 20.8338837,17.4030818 19.9696418,17.669655 C19.8522377,17.7055279 19.7360629,17.7444934 19.6174294,17.7766553 C18.4814985,18.0815754 17.3590905,18.5374093 16.2047191,18.6481206 C14.9132738,18.772439 13.5929384,18.5881262 12.2855114,18.5244208 C12.0955749,18.5151433 11.9105558,18.3877325 11.7224634,18.3840215 C10.7008631,18.364848 9.87473149,17.7611928 8.94779215,17.4933827 C8.27656022,17.2985555 7.57029145,16.6676863 6.77673794,17.2676305 C6.66425127,17.3529834 6.43927793,17.2738155 6.2696259,17.2985555 C4.95359333,17.4958567 3.63448735,17.6807879 2.3239869,17.9108696 C1.90723301,17.984471 1.52121318,18.2312522 1.10445929,18.3098016 C0.538337847,18.4161834 0.155391422,18.0283845 0.0551983771,17.5570881 C-0.0579029746,17.0276528 -0.0665085122,16.5217205 0.731962443,16.2706099 C2.17892213,15.8153945 3.60682669,15.3583236 5.13615366,15.3069882 C5.43488876,15.2970922 5.74960556,15.2414273 6.02559745,15.1300974 C7.22115249,14.6470496 8.34540452,15.1016465 9.47641803,15.3799711 C9.99397965,15.5073819 10.4924862,15.7318971 10.9836165,15.9483718 C12.3482089,16.548316 13.7927098,16.7777792 15.2482751,16.6441834 C16.1346454,16.561923 16.987823,16.1549505 17.8649732,15.9298168 C18.8134264,15.6873652 19.8344119,15.6261338 20.7121768,15.2327683 C21.8776124,14.7101365 23.0559564,14.7688939 24.2299976,14.8561023 C24.9737619,14.9117672 25.7021592,15.2556528 26.4244097,15.5061449 C27.1325225,15.7504521 27.8117453,16.0832046 28.527849,16.2959683 C29.1283926,16.4747146 29.765817,16.6404724 30.382957,16.6256284 C31.1992537,16.6058364 32.0296881,16.4697666 32.8220122,16.2613324 C33.5522536,16.0695976 34.2204121,15.6267522 34.9531122,15.45048 C36.8746058,14.9890796 38.8231454,14.5647892 40.8067218,14.9235187 C41.5099172,15.0509295 42.1454976,15.5234629 42.8431608,15.7275676 C44.1038721,16.0968116 45.3479869,16.8408661 46.7150381,15.9588863 C47.0604889,15.7368451 47.5473165,15.6719027 47.9732906,15.6564402 C48.3673013,15.6422147 48.7662294,15.7906545 49.129506,15.8605449" id="Fill-7" fill="#5D8F7A"></path>
                        </g>
                        <g id="Page-1" transform="translate(72.265768, 64.987690) scale(-1, 1) rotate(-14.000000) translate(-72.265768, -64.987690) translate(53.265768, 28.487690)">
                            <path d="M7.14284257,59.2711505 C7.03182036,58.2170162 6.92157454,57.2687625 6.83462008,56.3181732 C6.63276153,54.1040242 6.4409959,51.8890966 6.24612476,49.674169 C6.03262052,47.2474804 5.83930214,44.8184561 5.59318998,42.394103 C5.53806706,41.8514652 5.2997187,41.3259552 5.10950583,40.6680944 L32.5638219,40.6680944 C32.4582344,41.7907396 32.3534232,42.8736796 32.2563758,43.9558411 C32.1158512,45.5245859 31.9900778,47.0933307 31.8417894,48.661297 C31.5607402,51.6384088 31.2734799,54.6155206 30.9730212,57.5910753 C30.9318731,58.0122619 30.8410368,58.4388982 30.7005122,58.8359503 C30.6376255,59.015013 30.4148047,59.1855118 30.2253682,59.2555798 C30.0351553,59.3279834 29.7975833,59.2727075 29.5794208,59.2727075 C22.4406154,59.271929 15.3010337,59.2711505 8.16145189,59.2711505 L7.14284257,59.2711505 Z" id="Fill-1" fill="#C06363"></path>
                            <g id="Group-5" transform="translate(0.000000, 11.610347)">
                                <mask id="mask-2" fill="white">
                                    <use xlink:href="#path-1"></use>
                                </mask>
                                <g id="Clip-4"></g>
                                <path d="M16.3774832,14.635494 C16.3774832,10.313855 16.3596265,6.14480856 16.401551,1.97498357 C16.4062092,1.48840019 16.6298064,0.891265057 16.9652022,0.562723954 C17.1864702,0.344734597 17.8751184,0.357969666 18.1988685,0.542482086 C18.7927985,0.881922656 19.2726007,1.42300338 19.8152897,1.89323757 C19.7322171,2.182852 19.5179365,2.59080351 19.514831,3.00186915 C19.4884341,6.70379555 19.498527,10.4065005 19.5008562,14.1084269 C19.5008562,14.2563482 19.5404515,14.4027125 19.5738358,14.6386081 L20.6103018,14.6386081 C25.8260163,14.6386081 31.0425072,14.635494 36.2574453,14.6432794 C36.6223434,14.6440579 37.1401882,14.588782 37.3187554,14.7943148 C37.6448346,15.1703465 37.889394,15.7059775 37.9499516,16.2026818 C38.0400116,16.9376173 37.0462464,17.757413 36.2100861,17.7659769 C35.9616448,17.7683125 35.7132035,17.7651984 35.4647623,17.7659769 C32.9562815,17.7776549 33.5789375,17.5308598 33.2117102,19.9591055 C33.0447887,21.0583947 33.1930771,22.2012818 33.0991353,23.3145846 C33.0129572,24.3461413 32.7932419,25.364463 32.6302023,26.4014696 L5.04312542,26.4014696 C4.87232203,23.9397469 4.68754381,21.5177294 4.54080817,19.0925978 C4.47481595,18.0065437 4.28305032,17.7745408 3.21941102,17.7659769 C2.6604181,17.7605272 2.10064881,17.7823261 1.54320864,17.7620842 C1.01061261,17.7418424 0.446185042,17.872636 0.180663406,17.126801 C-0.117466151,16.2929917 -0.0561322056,15.509787 0.432210219,14.8433624 C0.596802578,14.6175877 1.17598135,14.6463935 1.56572364,14.6448364 C6.16033488,14.6323799 10.7549461,14.635494 15.3503337,14.635494 L16.3774832,14.635494 Z" id="Fill-3" fill="#BDBDBD" mask="url(#mask-2)"></path>
                            </g>
                            <path d="M30.5691489,61.8698172 C30.2158964,65.3895667 29.8688549,68.8400268 29.5179316,72.3356419 L8.27697709,72.3356419 C7.9392522,68.8828462 7.60152731,65.4292719 7.2537095,61.8698172 L30.5691489,61.8698172 Z" id="Fill-6" fill="#BDBDBD"></path>
                            <g id="Group-10" transform="translate(22.514993, 0.710879)">
                                <mask id="mask-4" fill="white">
                                    <use xlink:href="#path-3"></use>
                                </mask>
                                <g id="Clip-9"></g>
                                <path d="M12.1157833,2.76138018 C11.6313228,3.08057888 11.1957741,3.42702625 10.7097609,3.67537841 C9.94114559,4.06775926 9.14225154,4.40097156 8.34956853,4.7466404 C7.67722427,5.04014749 6.98857605,5.29939912 6.32011369,5.60224862 C5.63224184,5.91521906 4.96610862,6.27723709 4.27901315,6.59332166 C3.70759817,6.85646596 3.13695957,7.18812119 2.53293666,7.2862164 C2.21229211,7.33759961 1.78606001,7.00360877 1.47240287,6.75992781 C1.13545437,6.49756205 0.881578415,6.12853721 0.579566963,5.81945945 C-0.00970473817,5.21609605 0.145571073,4.70615666 0.922726505,4.37294435 C2.1905535,3.8310851 3.41490327,3.18723796 4.67962475,2.6360363 C5.85583901,2.12376131 7.07087223,1.70101766 8.24863925,1.19107828 C8.88915197,0.913920379 9.4737654,0.507525935 10.1096198,0.218690037 C10.5793292,0.006150414 11.0288526,-0.0849379959 11.2345931,0.650776084 C11.4201477,1.31097242 11.7602017,1.92834942 12.1157833,2.76138018" id="Fill-8" fill="#E3E3E3" mask="url(#mask-4)"></path>
                            </g>
                            <path d="M21.5952939,12.2885272 C19.8639686,12.9985497 19.3934829,11.2748767 18.1334197,11.1736673 C18.3096578,10.758709 18.4230091,10.2355346 18.551888,10.2324204 C18.873309,10.2238566 19.2451945,10.3904627 19.51848,10.5928814 C20.1807313,11.0810218 20.7979526,11.6298879 21.5952939,12.2885272" id="Fill-11" fill="#E3E3E3"></path>
                            <path d="M19.3722878,9.16069131 C20.1067424,8.64530219 20.7441496,8.54798551 21.1672762,9.08128091 C21.6439729,9.6823087 23.0189402,9.82945152 22.3062242,11.2533891 C21.3248811,10.5534876 20.3955554,9.89017713 19.3722878,9.16069131" id="Fill-13" fill="#E3E3E3"></path>
                            <path d="M23.9661226,9.33407071 C22.8954959,9.64003434 22.4972135,8.89419933 21.9956726,8.46834155 C21.6835682,8.20286165 21.5298452,7.73418453 21.3528307,7.33635396 C21.3248811,7.27251422 21.6167996,6.97745005 21.640091,6.99146365 C22.3163172,7.39707956 23.0150583,7.78167507 23.6214103,8.27915793 C23.8450075,8.46289181 23.841902,8.9237836 23.9661226,9.33407071" id="Fill-15" fill="#E3E3E3"></path>
                        </g>
                        <g id="Page-1" transform="translate(0.000000, 60.000000)">
                            <g id="Group-3" transform="translate(0.000000, 0.463279)">
                                <mask id="mask-6" fill="white">
                                    <use xlink:href="#path-5"></use>
                                </mask>
                                <g id="Clip-2"></g>
                                <path d="M12.010944,8.99173895 C11.7435345,8.64716911 11.551982,8.371075 11.324411,8.12949265 C11.2692919,8.06978182 11.0602759,8.07306865 10.9849647,8.13058826 C10.7737657,8.29054755 10.5914906,8.48940105 10.4064869,8.68168088 C9.78271329,9.32644829 9.12674138,9.94601663 8.56026979,10.638991 C8.35616538,10.8876948 8.29067734,11.321557 8.31578109,11.6595531 C8.32942443,11.8332076 8.68797148,12.1147797 8.88006974,12.1060148 C9.14093045,12.0945109 9.42962359,11.8923706 9.63973106,11.699543 C10.1761873,11.2098046 10.6957258,10.6970584 11.1819745,10.1580175 C11.4777622,9.829334 11.7009673,9.43491384 12.010944,8.99173895 M8.40801008,17.5966722 C7.75858697,17.6388533 7.305628,17.5906464 6.90233079,17.7111637 C6.10610531,17.9489114 5.32134024,18.2436309 4.56713625,18.5914876 C4.30845847,18.711457 4.0028476,19.0560269 3.99247866,19.3096609 C3.97938105,19.6109541 4.198766,19.9982528 4.43943456,20.206419 C4.58841987,20.3351534 4.98462254,20.2584606 5.23511431,20.1730029 C5.91673571,19.9401854 6.58798817,19.6712128 7.24778022,19.3808757 C7.63252249,19.2110559 8.08439,19.0489054 8.32123843,18.7404907 C8.50023908,18.5076733 8.38672647,18.0480642 8.40801008,17.5966722 M34.3510991,20.4195155 C34.6097768,20.2524347 34.7925976,20.1713594 34.9273939,20.0409817 C35.7339883,19.2576194 36.5525888,18.4846654 37.3089758,17.6547397 C37.4743331,17.4739637 37.5267235,16.8839769 37.4213969,16.8171446 C37.1076,16.6193867 36.8380076,15.9740715 36.2895452,16.5662496 C35.5391614,17.3770021 34.7844116,18.2003542 33.9276097,18.8867549 C33.5439589,19.1946217 33.5734285,19.4948193 33.6716606,19.7637919 C33.7633439,20.0141392 34.086964,20.1784809 34.3510991,20.4195155 M8.56026979,23.6997765 C8.34088484,23.8898651 7.99652687,24.0459898 7.94795657,24.2683989 C7.8901088,24.5329891 8.01289888,24.9142619 8.19244527,25.1339321 C8.41674182,25.4083828 8.76710286,25.5897065 9.08417415,25.7737692 C9.82910066,26.2076314 10.5696613,26.6584756 11.3527892,27.0123581 C11.5459789,27.1005548 11.9651024,26.9153965 12.1457402,26.7258557 C12.2723505,26.5921911 12.2483382,26.2054402 12.1522891,25.9956306 C12.0606058,25.7945858 11.7959249,25.6658515 11.5961864,25.5217786 C11.0471783,25.1251672 10.5085391,24.711026 9.93388153,24.3549522 C9.53549592,24.1084396 9.08581135,23.9457413 8.56026979,23.6997765 M35.8163941,11.9099004 C35.7394456,11.420162 36.0663401,10.988491 35.5391614,10.5688718 C34.8127898,9.99093671 34.2010223,9.26892868 33.539593,8.60882271 C33.2825525,8.3524496 32.1567038,8.29054755 32.0109929,8.57376314 C31.7877878,9.00981655 31.8379953,9.41957527 32.2849513,9.77291001 C32.9927679,10.3316719 33.7153193,10.8959119 34.3112605,11.5642349 C34.7614908,12.0693119 35.2051723,12.0085054 35.8163941,11.9099004 M14.9311651,32.5249277 C15.5593046,32.2132262 16.0521021,31.9606878 16.5519942,31.7234879 C17.212332,31.4101429 17.9086882,31.1570567 18.525913,30.7746882 C18.7158284,30.6563622 18.7736761,30.1912751 18.7442065,29.900938 C18.7278345,29.7404309 18.3714704,29.4626934 18.2235765,29.4950139 C17.564876,29.6374434 16.9138157,29.8406794 16.2845847,30.0855486 C15.8163452,30.2679679 15.4075906,30.6514319 14.9311651,30.7549672 C14.4563768,30.8574069 14.3161232,31.1696562 14.3794283,31.472045 C14.4591054,31.85277 14.7456156,32.1907662 14.9311651,32.5249277 M28.3032781,28.8524377 C28.3993273,29.1153845 28.4113334,29.370662 28.535215,29.4500938 C28.9630702,29.7229011 29.4171206,29.8072632 29.7964055,29.3328634 C30.4720239,28.4870513 31.1863893,27.6680816 31.8036141,26.7817319 C32.0311851,26.4535962 32.0071728,25.9441368 31.5749517,25.68119 C31.2480572,25.4828843 30.8807784,25.371132 30.5647986,25.7781517 C30.014699,26.4853689 29.4291268,27.1646481 28.885576,27.8767956 C28.6525477,28.1819234 28.4871904,28.5396406 28.3032781,28.8524377 M38.2105279,25.9644056 C37.8579839,25.5929933 37.5529187,25.2549971 37.2314816,24.9350786 C36.6033421,24.3089365 35.9746569,23.6838901 35.3306911,23.0747301 C34.8313447,22.6019737 34.5060874,23.1092419 34.2435895,23.3815013 C34.1006073,23.5294089 34.0804152,24.0394161 34.2163028,24.1785588 C35.0419979,25.0260143 35.9097145,25.8356713 36.8090837,26.6031472 C37.0082765,26.772967 37.4219426,26.8211739 37.6828034,26.7422898 C37.8749016,26.6847702 37.9769538,26.3292443 38.2105279,25.9644056 M11.6971471,14.5180037 C11.6971471,14.6735806 11.6873239,14.7409607 11.6987843,14.8039583 C11.8848795,15.8354766 12.0234959,16.8790467 12.2849023,17.8908439 C12.3907747,18.3006027 12.7476845,18.6659891 13.3048786,18.5388982 C13.7589291,18.4348151 14.054171,17.70459 13.8937253,17.1704793 C13.6312274,16.2928945 13.3790984,15.411475 13.1618964,14.5218384 C13.0467466,14.0501776 12.7820658,13.7488844 12.3252866,13.730259 C11.7468089,13.7067034 11.7735499,14.218354 11.6971471,14.5180037 M17.2330699,11.1955616 C17.5703333,11.0169769 17.8628466,10.8378445 18.173369,10.7003452 C18.9188413,10.3716617 19.6779569,10.0725598 20.4223377,9.74004166 C20.8425526,9.55214427 21.1279713,8.88929927 20.9577024,8.57431095 C20.7170339,8.13223168 20.1538367,7.97008116 19.7805548,8.17769956 C19.2997634,8.44502878 18.7824079,8.64497789 18.292339,8.89642075 C17.7476968,9.1758017 17.1593958,9.41464502 16.7058911,9.80632616 C16.5208874,9.96518984 16.5863754,10.4888922 16.6464061,10.8274361 C16.6709642,10.9643876 16.9853068,11.0487497 17.2330699,11.1955616 M27.9551,8.47789713 C27.856868,8.05225203 27.7078827,7.36256455 27.5365223,6.67890293 C27.4388359,6.2883174 27.3253233,5.89937529 27.1812496,5.52467613 C27.051365,5.18722777 26.793233,4.84156232 26.4183139,5.00645186 C26.0684986,5.16093309 25.6581068,5.41073253 25.7596133,5.96018173 C25.9489829,6.97636147 26.0848706,8.00459293 26.3260849,9.00762532 C26.3959388,9.29686678 26.7102814,9.66334885 26.9831483,9.74058946 C27.7760994,9.96573764 27.9998502,9.70005184 27.9551,8.47789713 M25.6924881,32.9023659 C25.8256471,32.3786636 25.9167846,31.9020725 25.4785605,31.4019259 C25.034879,30.8963011 24.7429114,30.2602986 24.3467087,29.7086582 C24.1093146,29.3777835 23.8271703,29.066082 23.516102,28.8042308 C23.0827895,28.43994 22.8011909,28.8590114 22.563251,29.1142889 C22.4229974,29.2660311 22.3340428,29.5870453 22.3946193,29.7754905 C22.4770251,30.0291246 22.7329742,30.2230478 22.9010602,30.4525784 C23.274342,30.9631334 23.7278467,31.4391767 23.9859788,32.0039644 C24.4252944,32.9615289 24.6561398,33.1412092 25.6924881,32.9023659 M18.5144526,4.93195027 C18.6034072,4.91496829 18.870271,4.90072534 19.1087566,4.81088519 C19.7041521,4.58683263 20.2935445,4.34251125 20.8720222,4.07846886 C21.2731365,3.89604953 21.675888,3.70048287 22.0289777,3.44356195 C22.1539507,3.353174 22.2308992,3.02120369 22.1648654,2.87329613 C21.9285627,2.34192452 21.1907307,2.15676616 20.6493629,2.37534067 C19.8804241,2.68485094 19.0743754,2.90671228 18.3158055,3.23868259 C17.9065053,3.41781508 17.3940613,3.60352124 17.4846531,4.25157549 C17.5572357,4.7643217 17.8677582,4.94564542 18.5144526,4.93195027 M28.9876282,15.4185964 L28.9876282,15.4153096 C29.5088039,15.4153096 30.0507175,15.5018629 30.5446065,15.3851803 C30.8845986,15.3046528 31.2982647,15.0033597 31.4303323,14.6927538 C31.6311623,14.2221886 31.137819,13.7423107 30.551701,13.7368327 C29.5748377,13.7280678 28.5974286,13.7313546 27.6205653,13.7357371 C27.0748316,13.7379283 26.6535251,14.1115318 26.6518879,14.5804536 C26.6502507,15.0499231 27.0650083,15.4120228 27.6205653,15.4175008 C28.0757072,15.4224311 28.5319405,15.4185964 28.9876282,15.4185964 M21.4084785,27.2824263 C24.5262551,27.4916882 27.0791974,24.6096819 27.0999353,21.7364406 C27.1255848,18.2677343 24.3658094,16.0562424 21.6185859,15.9680456 C18.4838915,15.868345 15.7579517,18.6588677 15.8054305,21.7172674 C15.8490892,24.5335369 18.148811,27.379388 21.4084785,27.2824263 M38.8490363,30.7757838 C38.7769994,30.7094993 38.7055083,30.6432148 38.6340172,30.5769303 C38.0746402,30.78674 37.5136259,30.9943584 36.9547946,31.2063592 C35.9430043,31.5892754 35.2864866,32.4274183 34.6081396,33.1894161 C33.8937742,33.9924994 33.3562265,34.9517074 32.6822454,35.7953283 C32.2265577,36.3661419 31.6251592,36.6531921 30.8272965,36.6685307 C29.6452373,36.6915385 28.7797037,36.1042907 27.9278133,35.4425413 C27.3804424,35.017444 25.8900437,34.9730718 25.4654628,35.5126605 C24.9311895,36.1935831 24.4460323,36.9303819 24.0481924,37.6995012 C23.542843,38.6762389 22.7460718,39.2733472 21.7424675,39.4880871 C20.1702087,39.823892 18.6994563,38.664735 18.357827,37.0941758 C18.1881039,36.3141003 17.8814015,35.5241644 17.456275,34.8531023 C17.0829931,34.2642111 16.4057376,33.8369226 15.6515336,34.0390629 C14.9557231,34.2253169 14.2866536,34.5540004 13.6448707,34.8941877 C12.6510897,35.4217247 11.5688997,35.2897035 10.6176859,35.0601729 C9.67847816,34.8328335 8.9602926,33.9892126 8.31086948,33.2255713 C7.66744944,32.4685037 7.09006318,31.6555599 6.44664314,30.8990401 C5.33825798,29.596358 4.2036776,28.3172315 3.07346309,27.0342703 C3.00360918,26.9542907 2.87590749,26.9258048 2.77494676,26.8737632 C2.73128806,26.9855156 2.62650719,27.1153456 2.65324814,27.2062813 C2.8371604,27.8324234 3.02052692,28.4613044 3.26174122,29.0666298 C3.44619922,29.5289779 3.713063,29.9584576 3.94554556,30.4016325 C4.3008182,31.0787204 4.59715161,31.7979894 5.03046417,32.4213924 C5.63895725,33.2978817 6.31566705,34.1338333 7.02784954,34.9303429 C7.6587177,35.6348212 8.32669576,36.3261521 9.06943934,36.904635 C10.0375709,37.6589635 11.0657332,38.348651 12.1255481,38.966576 C12.8824808,39.4070118 13.7278223,39.6995401 14.5453314,40.0282236 C15.0474064,40.2303639 15.5680363,40.3930622 16.0886663,40.5459 C16.9820324,40.8066556 17.8715783,41.2021714 18.7813164,41.2607866 C20.5413076,41.375278 22.313305,41.2980374 24.079845,41.2903681 C24.294864,41.2892725 24.514249,41.2476393 24.7227193,41.1923109 C25.6471922,40.9457983 26.5716651,40.6965466 27.4901349,40.4297652 C28.0413259,40.2698059 28.6077975,40.1295676 29.1218787,39.8836028 C29.8373356,39.5412242 30.4900331,39.0657288 31.2060357,38.7228024 C32.4672263,38.1185726 33.5330442,37.251396 34.5568407,36.3250565 C35.9790227,35.0393563 37.2085608,33.5789061 38.2869306,31.9951995 C38.5357851,31.6303609 38.6645783,31.184447 38.8490363,30.7757838 M0.00480245663,22.209197 C-0.0246671636,15.3901105 2.3012499,10.0939242 6.7795407,5.87472403 C11.283481,1.6303248 16.7571901,-0.193868468 22.9698226,0.118928636 C33.2001467,0.633318269 42.9698715,9.63705417 42.9698715,21.3365423 C42.9698715,25.717893 41.9700874,29.7831598 39.5639474,33.4194946 C35.4998685,39.5609452 29.6981735,42.8379195 22.3946193,43.2438435 C20.0659735,43.3742213 17.6914862,43.115657 15.4043162,42.4254217 C10.9336657,41.0767238 7.25378329,38.5343572 4.43452296,34.8487199 C1.477192,30.9834022 -0.0983412141,26.5790437 0.00480245663,22.209197" id="Fill-1" fill="#DE8AA8" mask="url(#mask-6)"></path>
                            </g>
                            <path d="M38.8488726,31.2388441 C38.6644146,31.6475072 38.5356214,32.0939689 38.2873126,32.4588076 C37.208397,34.0419663 35.978859,35.5024165 34.5572227,36.7886645 C33.5328805,37.7144563 32.4676083,38.5816328 31.205872,39.1864104 C30.4904151,39.5293368 29.8371719,40.0042845 29.121715,40.3466631 C28.6076338,40.5926279 28.0411622,40.7328662 27.4905169,40.8928254 C26.5715014,41.1596069 25.6475742,41.4088585 24.7225556,41.6559189 C24.5140853,41.7106995 24.2947003,41.7523327 24.080227,41.7534283 C22.3131412,41.7610976 20.5411439,41.838886 18.7816984,41.7243946 C17.8719603,41.6652316 16.9824144,41.2702636 16.0885026,41.0089603 C15.5678726,40.8566703 15.0477884,40.6939719 14.5451676,40.4918316 C13.7276585,40.1626003 12.882317,39.8706198 12.1253844,39.4296362 C11.0655695,38.8117113 10.0374072,38.1220238 9.06982135,37.3676952 C8.32653204,36.7897601 7.65909972,36.0978814 7.02768582,35.3934032 C6.31604906,34.5974414 5.63879353,33.7609419 5.03030045,32.8844527 C4.59698789,32.2610497 4.30065448,31.5423285 3.94538184,30.8646927 C3.71289928,30.4220656 3.4460355,29.9925859 3.2615775,29.52969 C3.02090894,28.9243646 2.83754241,28.2954836 2.65308442,27.6693416 C2.62634347,27.5784058 2.73112434,27.4485758 2.77478304,27.3368235 C2.87574377,27.3894128 3.00344546,27.4173509 3.07329937,27.4973306 C4.20405962,28.7808395 5.33863999,30.059966 6.44647942,31.3626482 C7.09044519,32.1186202 7.66728572,32.9321118 8.31070576,33.6891794 C8.96012888,34.4522728 9.67831444,35.2958937 10.6180679,35.5232331 C11.5692817,35.7527638 12.6509259,35.8847849 13.644707,35.3577958 C14.2864899,35.0170606 14.9555594,34.6883771 15.6513699,34.5021231 C16.4055738,34.2999828 17.0828294,34.7272713 17.4561112,35.3161625 C17.8812378,35.9872246 18.1884859,36.7771606 18.3576633,37.557236 C18.6992926,39.1277952 20.170045,40.2875001 21.7423038,39.9511473 C22.7459081,39.7369552 23.5426793,39.1398469 24.0480287,38.1631092 C24.4458686,37.3934421 24.9310258,36.6571911 25.4658449,35.9757207 C25.88988,35.436132 27.3802787,35.4805043 27.9276496,35.9061494 C28.7795399,36.5678988 29.6450736,37.1551466 30.8276785,37.1321387 C31.6255412,37.1162524 32.226394,36.8292021 32.6820817,36.2583885 C33.3566085,35.4147676 33.8936105,34.4555597 34.6079759,33.6524764 C35.2868687,32.8910263 35.9428406,32.0523357 36.9546309,31.6694194 C37.5140079,31.4574186 38.0744764,31.250348 38.6338535,31.0405384 C38.7053446,31.1068229 38.7768357,31.1725596 38.8488726,31.2388441" id="Fill-4" fill="#E6DBBF"></path>
                            <path d="M21.4083147,27.7454866 C18.1486473,27.842996 15.8489255,24.9965971 15.8052668,22.1808754 C15.7577879,19.1224757 18.4842735,16.3314052 21.618968,16.4316537 C24.3656457,16.5193026 27.1259668,18.7307946 27.1003173,22.1995008 C27.0795794,25.0727421 24.5260914,27.9552962 21.4083147,27.7454866" id="Fill-6" fill="#FEFEFE"></path>
                            <path d="M28.9878465,15.8820949 C28.5321588,15.8820949 28.0759255,15.8859296 27.6202378,15.8809993 C27.0652266,15.8749734 26.650469,15.5128738 26.6521062,15.0439521 C26.6537434,14.5744825 27.0745041,14.2014268 27.6202378,14.1992355 C28.5971012,14.1948531 29.5745102,14.1910185 30.5513736,14.2003311 C31.1374916,14.2052614 31.6313806,14.6851393 31.4305506,15.1562522 C31.2979373,15.4663103 30.8848169,15.7681513 30.5448248,15.848131 C30.05039,15.9648136 29.5090222,15.8782603 28.9878465,15.8782603 L28.9878465,15.8820949 Z" id="Fill-8" fill="#925597"></path>
                            <path d="M18.5144526,5.39512007 C17.8677582,5.40881521 17.5572357,5.22749149 17.4846531,4.71474528 C17.3940613,4.06669103 17.9065053,3.88098487 18.3158055,3.70185238 C19.0743754,3.36988207 19.8804241,3.14802073 20.6493629,2.83851046 C21.1907307,2.62048376 21.9285627,2.80509431 22.1648654,3.33646592 C22.2308992,3.48437348 22.1539507,3.81634379 22.0289777,3.90673174 C21.675888,4.16365266 21.2731365,4.35921932 20.8720222,4.54163865 C20.2935445,4.80568104 19.7041521,5.05000242 19.1087566,5.27405499 C18.870271,5.36389514 18.6034072,5.37813809 18.5144526,5.39512007" id="Fill-10" fill="#A2DC82"></path>
                            <path d="M25.6926518,33.3658644 C24.6563035,33.6047077 24.4254581,33.4244796 23.9861425,32.4669151 C23.7274647,31.9021273 23.27396,31.4266319 22.9012239,30.9155291 C22.7331379,30.6859985 22.4766431,30.492623 22.394783,30.238989 C22.3342066,30.049996 22.4231611,29.7289818 22.5634147,29.5777874 C22.8013546,29.3219621 23.0829532,28.9034384 23.5162658,29.2677293 C23.827334,29.5290327 24.1094783,29.8407341 24.3468725,30.1721566 C24.7430751,30.7237971 25.0350427,31.3597996 25.4781784,31.8654243 C25.9169483,32.365571 25.8258108,32.8421621 25.6926518,33.3658644" id="Fill-12" fill="#A2DC82"></path>
                            <path d="M27.9549909,8.94090258 C27.999741,10.1630573 27.7759902,10.4292909 26.9830391,10.2041427 C26.7101723,10.1263543 26.3963754,9.75987223 26.3265215,9.47117858 C26.0847615,8.46814618 25.9488738,7.43991472 25.7600499,6.42318718 C25.6579977,5.87373798 26.0683894,5.62393854 26.4187505,5.46945731 C26.7931238,5.30456777 27.0512559,5.65023322 27.1811405,5.98768158 C27.3252142,6.36292855 27.4387268,6.75187066 27.5364131,7.14245618 C27.7077735,7.8261178 27.8567588,8.51580529 27.9549909,8.94090258" id="Fill-14" fill="#FEFEFE"></path>
                            <path d="M17.2332336,11.6590601 C16.9854705,11.5117004 16.6711279,11.4273383 16.6465699,11.2903868 C16.5859934,10.9523906 16.5205054,10.4286883 16.7055091,10.2698246 C17.1590138,9.8781435 17.7473147,9.63875237 18.291957,9.35991922 C18.7825716,9.10847637 19.2999271,8.90852726 19.7807185,8.64065023 C20.1540004,8.43303183 20.7171976,8.59518235 20.9573204,9.03780942 C21.1281351,9.35224994 20.8421706,10.0156427 20.4225014,10.2035401 C19.6775749,10.5355104 18.919005,10.8346124 18.1735328,11.1638437 C17.8624646,11.3013429 17.5699513,11.4804754 17.2332336,11.6590601" id="Fill-16" fill="#A2DC82"></path>
                            <path d="M11.697038,14.9812283 C11.7739864,14.6815785 11.7466998,14.1704757 12.3251775,14.1940314 C12.7819566,14.212109 13.0471832,14.5134022 13.162333,14.9850629 C13.3789893,15.8746995 13.6311183,16.756119 13.8936162,17.6337039 C14.0540619,18.1678146 13.7588199,18.8980397 13.3047695,19.0021228 C12.7475754,19.1292137 12.3906655,18.7638273 12.2847932,18.3540685 C12.0239325,17.342819 11.8847704,16.2987012 11.6986752,15.2671829 C11.6872148,15.2041853 11.697038,15.1368051 11.697038,14.9812283" id="Fill-18" fill="#925597"></path>
                            <path d="M38.2104187,26.4279041 C37.9768447,26.7927428 37.8747925,27.1477209 37.6826942,27.2057883 C37.4223792,27.2841245 37.0081673,27.2364654 36.8095203,27.0666456 C35.9096054,26.2991697 35.0418888,25.488965 34.2167394,24.6415094 C34.0808517,24.5023668 34.1004982,23.9929074 34.2434804,23.844452 C34.5059783,23.5721925 34.8317813,23.0649244 35.3311277,23.5382286 C35.9745477,24.1473886 36.6037787,24.772435 37.2313724,25.3980292 C37.5528096,25.7184956 37.8578747,26.055944 38.2104187,26.4279041" id="Fill-20" fill="#925597"></path>
                            <path d="M28.303551,29.3156075 C28.4874633,29.0028104 28.6528206,28.6450932 28.8853031,28.3399654 C29.4293996,27.6278179 30.0149719,26.9485387 30.5650715,26.2413215 C30.8810513,25.8348496 31.2483301,25.9460541 31.5746788,26.1443598 C32.0068999,26.4073066 32.0309122,26.916766 31.8033413,27.2449017 C31.1861164,28.1312514 30.4722967,28.9502211 29.7961327,29.7960332 C29.4168478,30.270433 28.963343,30.1860709 28.5354878,29.9132636 C28.4110605,29.8338318 28.3996001,29.5785543 28.303551,29.3156075" id="Fill-22" fill="#925597"></path>
                            <path d="M14.9309468,32.9881523 C14.7453973,32.6539908 14.4594329,32.3159946 14.37921,31.9352696 C14.3159049,31.6328808 14.4567042,31.3206315 14.9309468,31.2181918 C15.4073723,31.1146565 15.8161269,30.7311925 16.2843664,30.5487731 C16.9141431,30.3039039 17.5646577,30.100668 18.2233583,29.9582385 C18.3717978,29.9259179 18.7276162,30.2036555 18.7439882,30.3641626 C18.7734578,30.6544996 18.7161558,31.1195868 18.5256947,31.2379128 C17.9084699,31.6202812 17.2126594,31.8733675 16.5523216,32.1867124 C16.0524296,32.4239123 15.5590863,32.6764508 14.9309468,32.9881523" id="Fill-24" fill="#A2DC82"></path>
                            <path d="M35.8164487,12.3732345 C35.2052269,12.4718396 34.7609997,12.532646 34.3113151,12.0275691 C33.7148281,11.3586982 32.9928224,10.795006 32.2850058,10.2362441 C31.8380499,9.88290941 31.7878424,9.47315068 32.0110475,9.03709727 C32.1567584,8.75388168 33.2820613,8.81578374 33.5396476,9.07215684 C34.2010769,9.73226282 34.8128444,10.4542708 35.5392159,11.0322059 C36.0663947,11.4512774 35.7395002,11.8829483 35.8164487,12.3732345" id="Fill-26" fill="#925597"></path>
                            <path d="M8.56010607,24.1628367 C9.08564763,24.4088015 9.5353322,24.5714999 9.93426354,24.8180125 C10.5083754,25.174634 11.0475603,25.5887752 11.5960227,25.9848388 C11.796307,26.1294595 12.0604421,26.2576461 12.1521253,26.4586908 C12.2481745,26.6685004 12.2727325,27.0552513 12.1455765,27.1889159 C11.9649387,27.3784567 11.5463609,27.5636151 11.3526255,27.4759661 C10.5700433,27.1215358 9.82893694,26.6706916 9.08401043,26.2368294 C8.76693914,26.0527667 8.4165781,25.871443 8.19228155,25.5969923 C8.01273516,25.37787 7.88994508,24.9960493 7.94779285,24.7314591 C7.99636315,24.5095978 8.34126685,24.3534732 8.56010607,24.1628367" id="Fill-28" fill="#925597"></path>
                            <path d="M34.3508262,20.8829592 C34.0872368,20.6419246 33.7636167,20.4775829 33.6719335,20.2272356 C33.5731557,19.958263 33.5436861,19.6580654 33.9278826,19.3501986 C34.7846845,18.6632501 35.5394342,17.839898 36.2898181,17.0296933 C36.8382804,16.4375152 37.1078729,17.0828304 37.421124,17.2805883 C37.5264506,17.3474206 37.4746059,17.9374074 37.3092486,18.1181834 C36.552316,18.9481091 35.7337154,19.7210631 34.9276667,20.5044254 C34.7928705,20.6348031 34.6100497,20.7153306 34.3508262,20.8829592" id="Fill-30" fill="#925597"></path>
                            <path d="M8.40822838,18.0599516 C8.38694476,18.5113436 8.50045737,18.9709526 8.32145672,19.2037701 C8.08406256,19.5121847 7.63219505,19.6743352 7.24799852,19.844155 C6.58820646,20.1344921 5.916954,20.4034647 5.2353326,20.6362822 C4.98484083,20.7217399 4.58863816,20.7984327 4.43965286,20.6696984 C4.19843856,20.4615322 3.97959934,20.0742335 3.99215122,19.7729403 C4.00306589,19.5193062 4.30813103,19.1747364 4.56735454,19.0547669 C5.32155853,18.7069102 6.10577787,18.4121907 6.90200335,18.174443 C7.30530056,18.0539257 7.75880527,18.1021326 8.40822838,18.0599516" id="Fill-32" fill="#A2DC82"></path>
                            <path d="M12.010944,9.45501831 C11.7009673,9.89819319 11.4777622,10.2926134 11.1819745,10.6212968 C10.6957258,11.1603377 10.1761873,11.6730839 9.63973106,12.1628223 C9.42962359,12.3556499 9.14093045,12.5577903 8.88006974,12.5692942 C8.68797148,12.5780591 8.32942443,12.2964869 8.31578109,12.1228325 C8.29067734,11.7848363 8.35616538,11.3509741 8.56026979,11.1022703 C9.12674138,10.409296 9.78271329,9.78972764 10.4064869,9.14496023 C10.5914906,8.9526804 10.7737657,8.7538269 10.9849647,8.59386761 C11.0602759,8.536348 11.2692919,8.53306117 11.324411,8.592772 C11.551982,8.83435435 11.7435345,9.11044847 12.010944,9.45501831" id="Fill-34" fill="#A2DC82"></path>
                        </g>
                    </g>
                </g>
            </g>
        </g>
    </g>
</svg>