<?xml version="1.0" encoding="UTF-8"?>
<svg width="93px" height="90px" viewBox="0 0 93 90" version="1.1" xmlns="http://www.w3.org/2000/svg" xmlns:xlink="http://www.w3.org/1999/xlink">
    <!-- Generator: sketchtool 45.2 (43514) - http://www.bohemiancoding.com/sketch -->
    <title>1203FE19-E9F4-4D03-AD61-A3253548E569</title>
    <desc>Created with sketchtool.</desc>
    <defs></defs>
    <g id="survey" stroke="none" stroke-width="1" fill="none" fill-rule="evenodd">
        <g id="-Nutrition" transform="translate(-193.000000, -5153.000000)">
            <g id="Group-75" transform="translate(126.000000, 5078.000000)">
                <g id="Group-55" transform="translate(49.000000, 42.000000)">
                    <g id="Group-46">
                        <g id="leanProteins" transform="translate(18.000000, 33.719971)">
                            <path d="M86.5117492,20.9694834 C84.8239714,19.5895567 77.2363524,8.57469731 76.5031778,6.1340441 C78.4320667,7.5925431 79.1800032,9.3898853 80.2822254,10.8680274 C81.5074635,12.5033141 82.6293683,14.2122625 83.7857175,15.8966569 C84.8731778,17.4779252 85.9458762,19.0739258 87.0234952,20.6601048 C86.8561937,20.763231 86.6839714,20.8663572 86.5117492,20.9694834 M81.1531778,25.0650664 C77.1625429,19.3194643 73.0931778,13.6327915 69.4617492,7.6269185 C71.3660349,8.75639583 81.6747651,23.7342475 82.201273,25.8016821 C81.7338127,25.482482 81.3450825,25.3400696 81.1531778,25.0650664 M63.7833365,9.19836523 C65.5104794,9.99882091 66.0320667,11.6193753 66.9669873,12.8421573 C68.0052413,14.2024409 68.9401619,15.6511184 69.9193683,17.0605097 C70.8493683,18.4060609 71.769527,19.756523 72.699527,21.1020742 C73.6738127,22.5163763 74.6973048,23.8963029 75.6174635,25.3449804 C76.4539714,26.6561563 77.6890508,27.7709013 78.117146,29.7253882 C76.1931778,28.33564 64.5115905,11.5064276 63.7833365,9.19836523 M68.1184159,28.978951 C64.5755587,23.8766599 61.0327016,18.7743687 57.4898444,13.6720776 C57.6128603,13.5345761 57.7358762,13.4019852 57.8588921,13.2693944 C58.1541302,13.4167175 58.5625429,13.4805576 58.7249238,13.7162746 C62.0069873,18.3913286 65.259527,23.0762042 68.5022254,27.7758121 C68.6596857,28.0066183 68.6547651,28.3503723 68.723654,28.6401078 C68.5219079,28.7530555 68.3201619,28.8660032 68.1184159,28.978951 M52.4855587,17.9837346 C54.409527,18.897138 54.9458762,20.6797479 55.9742889,21.986013 C57.037146,23.3315643 57.9474635,24.794974 58.9119079,26.2141869 C59.8861937,27.648132 61.0080984,29.0035048 62.0266698,31.0562071 C60.0288921,29.9316405 53.5188921,20.7877849 52.4855587,17.9837346 M48.5490508,22.6538779 C50.6107968,23.744069 56.3679397,31.9499674 56.6927016,34.2482083 C53.8879397,30.6584347 51.1717492,27.0342856 48.5490508,22.6538779 M89.6166698,9.20818677 C84.4106381,2.36257195 77.3101619,-0.578979905 68.7384159,0.0937957268 C55.177146,1.15943304 45.4638127,14.094404 43.8990508,23.4052258 C43.1215905,28.0164398 43.7022254,32.3919368 46.9400032,36.0799259 C50.177781,39.7728257 53.4844476,40.2246166 57.5734952,37.5433356 C59.0792095,36.5562707 60.5307968,35.4808118 62.0660349,34.5477653 C65.4957175,32.4606876 69.1665111,31.7191612 73.1522254,32.6178323 C74.8990508,33.010694 76.6950825,33.1776602 78.4714317,33.4477526 C85.4390508,33.6736481 90.2465111,29.5633327 91.9638127,24.3431831 C93.7450825,18.9167811 93.051273,13.7260961 89.6166698,9.20818677" id="Fill-1" fill="#A48181"></path>
                            <path d="M41.1927508,81.8826873 C39.6033857,81.8826873 38.3191,80.6009761 38.3191,79.014797 C38.3191,77.4335288 39.6033857,76.1469068 41.1927508,76.1469068 C42.7771952,76.1469068 44.0664016,77.4335288 44.0664016,79.014797 C44.0664016,80.6009761 42.7771952,81.8826873 41.1927508,81.8826873 M47.3238619,70.9365787 C45.5278302,64.8766872 42.7821159,59.3618914 37.7581476,55.251576 C31.390846,50.0363372 24.2559254,47.0113022 15.5956079,47.6742563 C15.743227,46.7068344 15.9105286,45.9898618 15.9548143,45.2630677 C16.146719,42.0317804 15.0346556,39.3063024 12.5841794,37.1946709 C11.2802111,36.0750151 10.2321159,36.2518029 9.32179841,37.7053911 C8.6722746,38.7415638 8.17036984,39.8710411 7.62417937,40.9661431 C6.56132222,43.0875961 5.00148095,44.7032398 2.86100476,45.7590556 C2.49687778,45.9407541 2.12783016,46.1175419 1.76862381,46.3188835 C-0.445661905,47.551487 -0.558836508,48.4206935 1.30608413,50.1983926 C3.17100476,51.971181 5.40005238,52.8600305 7.98338571,52.850209 C8.68703651,52.8452982 9.3906873,52.850209 9.72036984,52.850209 C10.2911635,56.2140871 10.3846556,59.4060883 11.3884651,62.2739786 C16.510846,76.9178978 27.5133857,84.8733469 42.1916397,88.2519574 C47.5748143,89.4894717 48.9919571,88.0997235 49.0756079,82.5407307 C49.1297349,78.5728277 48.4457667,74.7129616 47.3238619,70.9365787" id="Fill-3" fill="#BDBDBD"></path>
                            <path d="M69.2846063,68.5155686 C65.623654,68.5352117 62.7303206,65.4758013 62.7893683,61.6601322 C62.8484159,57.9426785 65.677781,55.1631821 69.3633365,55.2024683 C72.9849238,55.2368437 75.7454,58.1243771 75.7306381,61.8663846 C75.7109556,65.5838383 72.8815905,68.5008363 69.2846063,68.5155686 M82.5900032,62.9565758 C82.4276222,60.442261 82.1569873,57.9279462 81.8469873,55.423453 C81.581273,53.2479814 81.1925429,51.0872422 80.8579397,48.9166814 C80.9858762,48.8970383 81.1138127,48.882306 81.2417492,48.8626629 C81.0793683,47.3255916 81.0498444,45.7590556 80.7300032,44.2514489 C80.0706381,41.1331093 78.3779397,39.9496135 75.2533365,40.4456013 C73.157146,40.7844445 71.1101619,41.4130232 69.0188921,41.8009741 C65.9188921,42.3706236 62.9025429,42.4786605 59.9698444,40.7893553 C57.4996857,39.3701425 55.1033365,39.9152381 52.9727016,41.8157064 C49.3166698,45.0764584 46.9154,53.8225416 52.1411143,58.3158971 C54.2766698,60.1574363 55.1919079,62.7110372 55.1476222,65.5740167 C55.1279397,66.5512602 55.177146,67.5383251 55.3001619,68.505747 C55.8168286,72.5129362 57.6719079,74.6687647 61.6428603,75.1598418 C68.3988921,76.0044944 74.4758762,74.1433122 79.6376222,69.6941536 C81.6354,67.9753838 82.7622254,65.6722321 82.5900032,62.9565758" id="Fill-5" fill="#BBBBB3"></path>
                            <path d="M13.3726619,19.7002455 C13.4115349,18.2667915 13.6851222,16.9290974 14.9580905,16.0353371 C15.9299159,15.353231 16.6571857,15.5206883 17.0749476,16.6285582 C17.3583762,17.3803973 17.5611063,18.2093354 17.5719317,19.0073357 C17.5950587,20.7123554 18.1466619,22.1585775 19.1347254,23.5399774 C20.3466778,25.2337023 20.4067095,26.5154136 19.5298524,27.2829671 C18.6367571,28.0652529 17.163027,27.5643543 15.768519,25.9781752 C14.1929317,24.1847616 13.4996143,22.0485762 13.3726619,19.7002455" id="Fill-7" fill="#8EB5A5"></path>
                            <path d="M30.0022429,30.8794685 C29.941719,31.4152336 29.9614016,31.8409974 29.8378937,32.2196179 C29.5023063,33.2484244 29.0254968,34.4510722 27.8199413,34.3140617 C27.2112587,34.2448199 26.4278937,33.1890041 26.236481,32.4474777 C25.6341952,30.1089685 24.7671794,28.023364 22.9391635,26.3198176 C21.9058302,25.3573064 21.9594651,24.2322488 22.6813222,23.4813919 C23.5365286,22.5915602 24.4940841,22.889644 25.3694651,23.3983999 C28.2819889,25.0911426 29.6897825,27.7164408 30.0022429,30.8794685" id="Fill-9" fill="#8EB5A5"></path>
                            <path d="M25.124319,20.4370085 C24.8182556,20.3240608 24.1702079,20.1747733 23.6131921,19.8629394 C21.1981444,18.5100219 19.6776683,16.4366944 19.1629698,13.7421543 C18.9892714,12.8326795 19.1491921,11.7866853 19.435081,10.8914518 C19.5969698,10.3856423 20.3080016,9.76639411 20.8035095,9.73742056 C21.2872079,9.70942917 21.9180333,10.281534 22.2890492,10.7460929 C22.6822079,11.2381522 22.8992079,11.8961955 23.0980016,12.5120062 C23.6146683,14.1114443 24.4644619,15.4398079 25.8584778,16.4357123 C26.3731762,16.803529 26.8583508,17.313267 27.1550651,17.8662199 C27.9025095,19.2564591 27.0443508,20.5082147 25.124319,20.4370085" id="Fill-11" fill="#8EB5A5"></path>
                            <path d="M35.1515889,18.6182553 C35.0625254,19.0842875 35.0295571,19.584204 34.8666841,20.0374682 C34.5242079,20.9896667 33.9888429,22.0263304 32.8669381,21.8176227 C32.2784302,21.7081125 31.5856048,20.8172986 31.3966524,20.1504159 C30.7180968,17.7598526 29.8870016,15.527416 27.9477794,13.807664 C27.1511286,13.1010041 26.9857952,12.0363489 27.743573,11.1529012 C28.5284143,10.2375335 29.5253349,10.5297244 30.4366365,11.0060692 C33.4987476,12.6069805 34.6772397,15.3766554 35.1515889,18.6182553" id="Fill-13" fill="#8EB5A5"></path>
                            <path d="M20.9233762,7.92868538 C19.4673603,7.87368474 18.1761857,7.45921567 17.3406619,6.17308473 C16.7127889,5.20566284 16.9548841,4.50047612 18.0211857,4.0418101 C18.2440905,3.94605007 18.4856937,3.83752203 18.7204079,3.83261126 C21.3258841,3.77859277 23.6725349,3.06112913 25.750027,1.4145476 C26.5865349,0.752084584 27.6134714,0.761906126 28.3958524,1.65026461 C29.1354238,2.49000645 28.7644079,3.35921293 28.2516778,4.12283782 C26.5112492,6.71474278 23.8974079,7.67774498 20.9233762,7.92868538" id="Fill-15" fill="#8EB5A5"></path>
                        </g>
                    </g>
                </g>
            </g>
        </g>
    </g>
</svg>