<?xml version="1.0" encoding="UTF-8"?>
<svg width="93px" height="99px" viewBox="0 0 93 99" version="1.1" xmlns="http://www.w3.org/2000/svg" xmlns:xlink="http://www.w3.org/1999/xlink">
    <!-- Generator: sketchtool 45.2 (43514) - http://www.bohemiancoding.com/sketch -->
    <title>B92F68F8-2196-4229-9C4A-19264706ED3E</title>
    <desc>Created with sketchtool.</desc>
    <defs>
        <polygon id="path-1" points="16.8550861 11.1906085 33.646649 11.1906085 33.646649 0.166826193 0.06352316 0.166826193 0.06352316 11.1906085 16.8550861 11.1906085"></polygon>
        <polygon id="path-3" points="22.4802439 0.0830432653 22.4802439 25.1357807 0.136890701 25.1357807 0.136890701 0.0830432653 22.4802439 0.0830432653"></polygon>
    </defs>
    <g id="survey" stroke="none" stroke-width="1" fill="none" fill-rule="evenodd">
        <g id="-Nutrition" transform="translate(-498.000000, -5143.000000)">
            <g id="Group-75" transform="translate(126.000000, 5078.000000)">
                <g id="Group-44" transform="translate(352.000000, 43.000000)">
                    <g id="naturalFats" transform="translate(20.000000, 22.000000)">
                        <g id="Page-1" transform="translate(0.000000, 50.719971)">
                            <path d="M0,26.1982239 C0.0849169704,25.6720458 0.147013876,25.1410405 0.258042267,24.6205675 C0.957126163,21.3480825 2.91767689,19.0542272 5.85641845,17.5764086 C6.92325646,17.0396982 8.07676683,16.678088 9.1719105,16.1940393 C11.2290077,15.2849669 12.8437466,13.8146087 14.008667,11.9312951 C15.3679968,9.73288912 16.5504711,7.42586838 17.8509954,5.18994092 C18.428738,4.19682927 19.0420272,3.2109586 19.75296,2.31154087 C21.4907956,0.113573705 23.7749963,-0.424672622 26.4177353,0.308202524 C30.0279134,1.30921343 32.1692692,3.80888817 33.3739053,7.21522163 C34.4457901,10.2467794 34.4321858,13.3509664 33.7976125,16.4670024 C32.9245256,20.7541025 30.9393994,24.5266541 28.4322643,28.0655195 C24.9936755,32.9189522 20.2012426,35.5502812 14.4598022,36.5848639 C11.4738845,37.1231103 8.4820424,37.0711068 5.55887992,36.1335094 C4.69281459,35.855719 3.8122673,35.5860473 3.17659685,34.8470283 C2.3269883,33.8594022 2.46171445,32.9983836 3.66964189,32.4895401 C4.81547244,32.0065885 6.02032795,31.6656041 7.18217642,31.2177603 C11.8594119,29.4147558 16.1280805,26.9510666 19.6480754,23.3261871 C23.4577097,19.4031108 25.6328568,14.7059078 26.1836102,9.26200587 C26.2421964,8.68338558 26.2790595,8.10235163 26.2608474,7.50881054 C26.2266173,7.60557639 26.181416,7.69992858 26.1596931,7.79910809 C24.7983884,14.0335936 21.4721446,18.9993712 16.4576549,22.8890951 C13.1899972,25.4236582 9.55568254,27.3126768 5.81560564,29.0219874 C5.02633861,29.3825005 4.23531618,29.7395029 3.44122183,30.0892643 C3.18230187,30.2031452 2.9159215,30.307152 2.64405554,30.3841697 C1.51314581,30.7043089 0.65717397,30.2669975 0.321016867,29.1442064 C0.155351977,28.5906004 0.103348561,28.0029838 0,27.4307268 L0,26.1982239" id="Fill-1" fill="#C5C4B5"></path>
                            <g id="Group-5" transform="translate(14.043117, 36.624448)">
                                <mask id="mask-2" fill="white">
                                    <use xlink:href="#path-1"></use>
                                </mask>
                                <g id="Clip-4"></g>
                                <path d="M16.1066867,11.1906085 C15.2814342,11.0813355 14.4509155,11.0019041 13.6318068,10.8568651 C11.726112,10.5198303 9.9266183,9.83457006 8.16223236,9.06746482 C5.3373717,7.83935039 2.7233772,6.26827673 0.453658492,4.16158982 C0.352504168,4.06767648 0.228968627,3.99789974 0.06352316,3.87919152 C1.24292553,3.62904851 2.30734988,3.43200603 3.35707284,3.17484146 C5.68274459,2.60455927 7.88488081,1.71567388 9.94943837,0.49984718 C10.235128,0.331549205 10.4685948,0.315092428 10.7801765,0.439505663 C14.6404976,1.9816154 18.6588037,2.36736226 22.7705844,2.04020153 C25.6750958,1.80914837 28.5056615,1.1991505 31.2949755,0.376531063 C31.4612987,0.327599578 31.628719,0.280642907 31.7978946,0.243779726 C32.8300637,0.0182121668 33.299411,0.270988265 33.6467587,1.23557483 L33.6467587,1.70953002 C33.460468,2.68574604 32.9160778,3.47325769 32.2986195,4.21293497 C29.3416658,7.75596939 25.4615966,9.72003089 21.0349429,10.6936138 C19.8250407,10.9595554 18.5723508,11.0302098 17.3391896,11.1906085 L16.1066867,11.1906085 Z" id="Fill-3" fill="#A3A393" mask="url(#mask-2)"></path>
                            </g>
                            <path d="M26.4563319,35.6862361 C27.7612447,34.3786903 29.0582581,33.255241 30.1362868,31.9509866 C31.3181028,30.5210023 32.2892721,28.9176734 33.3758582,27.4071607 C33.5327461,27.1888341 33.7993459,26.9838923 34.0543163,26.9123602 C35.8301122,26.414049 37.6289477,26.1463521 39.4793477,26.4522287 C42.3726686,26.9305724 44.5346503,28.4797037 46.0646917,30.940321 C46.3780287,31.4441178 46.6358516,31.9975044 46.8265308,32.5594485 C47.1506196,33.5139415 46.715283,34.3808846 45.737531,34.6286139 C44.5478157,34.9301021 43.333525,35.1400906 42.1238421,35.3551258 C38.6508039,35.9728035 35.1540678,36.3881725 31.6217852,36.2163638 C29.8960178,36.1323245 28.1790274,35.8687966 26.4563319,35.6862361" id="Fill-6" fill="#A3A393"></path>
                        </g>
                        <g id="Page-1" transform="translate(60.000000, 41.719971)">
                            <g id="Group-3" transform="translate(0.000000, 9.857910)" fill="#C3B1A6">
                                <path d="M8.13904724,0.10022961 C8.60931817,0.755540649 9.09441817,1.34379 9.45993904,1.99894325 C9.5596409,2.17740623 9.37128012,2.61527961 9.19301573,2.83492636 C7.80491982,4.54602506 6.30686792,6.17396727 5.0011207,7.94423805 C3.74869504,9.64239779 2.81540997,11.5592575 2.51314929,13.6716218 C2.35633973,14.7682777 2.50778558,15.912429 2.56079163,17.033227 C2.57262334,17.2828543 2.75593592,17.5245919 2.8602127,17.7699588 C2.92773231,17.7598601 2.99509417,17.7499192 3.06245602,17.7399783 C3.12066802,17.4534277 3.17919553,17.1670348 3.23677651,16.8803264 C3.61965056,14.9775101 4.57644129,13.3389958 5.73342451,11.8382342 C7.33591095,9.75932182 9.0422009,7.76041013 10.7087363,5.73120234 C10.9067202,5.49025364 11.1346778,5.27407831 11.4404091,4.94902636 C15.5977555,9.64523805 20.2245841,13.7230621 25.6958811,17.0698348 C24.340914,18.3476361 23.1358151,19.5829913 21.8272283,20.6968465 C19.3613428,22.796114 16.6416276,24.4562458 13.4117293,25.117553 C10.8611287,25.6396874 8.34081729,25.4274569 5.87856012,24.6583777 C4.77947339,24.3150218 3.76100002,24.1867368 2.68478792,24.7052419 C2.10235241,24.9857965 1.45066197,25.0705309 0.952941483,24.4759699 C0.453170166,23.8791997 0.562495141,23.22594 0.939532215,22.6449491 C1.49846207,21.783877 1.55935592,20.985764 1.17001387,19.9949868 C-1.09899208,14.2205809 0.0041963122,8.96057766 3.85470714,4.23738351 C4.95994636,2.88163286 6.31475573,1.72880299 7.56292197,0.490765325 C7.70411368,0.350961429 7.89610285,0.262282208 8.13904724,0.10022961" id="Fill-1"></path>
                            </g>
                            <g id="Group-6" transform="translate(9.780878, 0.074794)">
                                <mask id="mask-4" fill="white">
                                    <use xlink:href="#path-3"></use>
                                </mask>
                                <g id="Clip-5"></g>
                                <path d="M17.9639235,8.8565926 C18.5695491,9.65959714 19.1564018,10.3912796 19.6929303,11.1583075 C20.9677573,12.9811231 21.9964848,14.9257543 22.3525403,17.1520445 C22.8082977,20.0022452 22.040972,22.5019894 20.106409,24.6463855 C19.5219227,25.2941225 18.7708459,25.2062322 18.1432921,24.9128965 C16.8672031,24.3165997 15.5603516,23.7094153 14.4368126,22.8762725 C9.72290268,19.3810173 5.63323361,15.2342381 2.15944434,10.5077303 C1.36514239,9.42701143 0.856694488,8.12585688 0.287826,6.89334195 C-0.024215561,6.21736013 0.155784146,5.59849909 0.751786683,5.06389909 C3.58098454,2.52628481 6.7572458,2.19744584 10.209107,3.50743675 C12.7805314,4.48338156 14.9757075,6.04757571 16.9408752,7.93461273 C17.4821363,8.45422247 17.8132664,8.38905429 18.2991552,7.92072701 C19.5391181,6.72576662 19.8961201,5.10476727 19.186691,3.52826532 C18.9935975,3.09922831 18.7430808,2.69480688 18.5028183,2.28864974 C18.2234322,1.81653545 18.0087262,1.35404649 18.4122663,0.838854935 C18.8087074,0.332815325 19.2854463,-0.0272664935 19.9604846,0.113957532 C20.5769955,0.243031558 20.9628669,0.652344545 21.1244091,1.26915429 C21.7407622,3.62104714 20.6817455,6.71977052 18.7449739,8.22810623 C18.501714,8.41745688 18.2644488,8.61438156 17.9639235,8.8565926" id="Fill-4" fill="#AD9385" mask="url(#mask-4)"></path>
                            </g>
                        </g>
                        <g id="Page-1" transform="translate(27.000000, 0.000000)">
                            <path d="M40.4174058,2.89225936 C44.3511462,-0.252493644 46.8875504,-0.766791014 49.7043673,1.08512738 C49.1671791,1.83480226 48.6322302,2.58049613 48.0900657,3.33713779 C45.8313373,2.30680135 44.3344757,3.57002716 43.0797096,4.5503521 C43.7087099,6.54583585 44.5031712,8.28827633 44.7726362,10.1083466 C45.1495885,12.6571914 44.2827225,15.0567482 42.3327716,16.7270328 C39.2960036,19.3281285 38.2776103,22.5898238 38.2549682,26.4247852 C38.2425276,28.5663225 37.9407169,30.7143289 37.6593089,32.8446695 C36.694908,40.1483391 28.7440747,48.3726184 19.1311676,49.4542104 C6.19112728,50.9102666 -1.10458027,39.6902735 0.264391255,29.5896921 C1.43530728,20.949148 6.15579577,15.0385848 14.3136419,11.9177179 C16.5512211,11.0617997 18.8146769,10.2735587 21.0689266,9.46118287 C23.5311844,8.57391416 25.6530654,7.18404231 27.3989892,5.22588057 C27.7848989,4.79319401 28.1932017,4.37991489 28.6044903,3.97111442 C31.9903436,0.606161521 35.0273604,0.123961084 39.2820701,2.27420679 C39.6500652,2.46007043 40.0066148,2.66807846 40.4174058,2.89225936" id="Fill-4" fill="#89A88F"></path>
                            <path d="M16.980805,38.719398 C12.6778255,38.6581899 9.71868729,35.3596702 10.0212444,30.9061585 C10.3927229,25.4427131 14.7720882,20.3599522 20.1098828,19.1974959 C24.9605007,18.1407852 28.9365394,21.4370656 28.7922276,26.3956685 C28.6332358,31.864339 24.2690482,37.201636 18.9354834,38.4253005 C18.2950376,38.5723492 17.632945,38.6236048 16.980805,38.719398" id="Fill-8" stroke="#FFFFFF" stroke-width="2" fill="#C7A068"></path>
                        </g>
                    </g>
                </g>
            </g>
        </g>
    </g>
</svg>