<?xml version="1.0" encoding="UTF-8"?>
<svg width="90px" height="89px" viewBox="0 0 90 89" version="1.1" xmlns="http://www.w3.org/2000/svg" xmlns:xlink="http://www.w3.org/1999/xlink">
    <!-- Generator: sketchtool 45.2 (43514) - http://www.bohemiancoding.com/sketch -->
    <title>A4E92C89-22F7-409B-BF33-88809CAA786D</title>
    <desc>Created with sketchtool.</desc>
    <defs>
        <path d="M42.5542724,6.78914596 L36.0007494,0.174959347 C35.8859103,0.0599403251 35.7337782,5.92881555e-05 35.5804621,5.92881555e-05 C35.4804218,5.92881555e-05 35.3803816,0.0249603134 35.2892207,0.0771338901 C34.8535425,0.323772617 34.4154966,0.56922558 33.9768586,0.815864306 C33.019669,1.35360788 32.0293299,1.90973077 31.0614851,2.47711842 C25.8434103,5.53520147 22.0128759,8.14032302 18.6387379,10.9239019 C12.1686805,16.2616145 11.6519046,24.7712435 14.4849966,30.4190332 C14.775646,30.9988713 15.1195713,31.5585515 15.4226517,32.0524218 C15.4735598,32.1354253 15.5238759,32.21665 15.573008,32.2972819 L10.0340943,37.8905265 C8.04098506,36.8660272 6.09049655,36.3259121 4.36909425,36.3259121 C2.5002954,36.3259121 1.03106552,36.9561452 0.121232184,38.1490229 C-0.057537931,38.3843968 -0.0362275862,38.7164105 0.171548276,38.9262906 L6.44448506,45.2582656 L12.5794966,51.4503205 C12.6955195,51.5671182 12.8476517,51.6258135 12.9997839,51.6258135 C13.1495483,51.6258135 13.2993126,51.5688968 13.4141517,51.4556565 C14.3950195,50.4934097 14.9887494,49.2501371 15.1793586,47.7602257 C15.4486977,45.6572749 14.9461287,43.5620315 13.6852667,41.5278548 L15.6428586,39.5529664 L19.2484506,35.9162309 C21.8222667,37.6859824 24.8868126,38.6203637 28.1259851,38.6203637 C32.7710483,38.6203637 37.1106632,36.6952773 40.0313644,33.3383819 C44.7658126,27.8975079 48.4057379,21.4433993 51.3299908,16.2568715 C51.4602207,16.0262406 51.4211517,15.7363215 51.2346862,15.5477852 L42.5542724,6.78914596 Z" id="path-1"></path>
        <path d="M42.5542724,6.78914596 L36.0007494,0.174959347 C35.8859103,0.0599403251 35.7337782,5.92881555e-05 35.5804621,5.92881555e-05 C35.4804218,5.92881555e-05 35.3803816,0.0249603134 35.2892207,0.0771338901 C34.8535425,0.323772617 34.4154966,0.56922558 33.9768586,0.815864306 C33.019669,1.35360788 32.0293299,1.90973077 31.0614851,2.47711842 C25.8434103,5.53520147 22.0128759,8.14032302 18.6387379,10.9239019 C12.1686805,16.2616145 11.6519046,24.7712435 14.4849966,30.4190332 C14.775646,30.9988713 15.1195713,31.5585515 15.4226517,32.0524218 C15.4735598,32.1354253 15.5238759,32.21665 15.573008,32.2972819 L10.0340943,37.8905265 C8.04098506,36.8660272 6.09049655,36.3259121 4.36909425,36.3259121 C2.5002954,36.3259121 1.03106552,36.9561452 0.121232184,38.1490229 C-0.057537931,38.3843968 -0.0362275862,38.7164105 0.171548276,38.9262906 L6.44448506,45.2582656 L12.5794966,51.4503205 C12.6955195,51.5671182 12.8476517,51.6258135 12.9997839,51.6258135 C13.1495483,51.6258135 13.2993126,51.5688968 13.4141517,51.4556565 C14.3950195,50.4934097 14.9887494,49.2501371 15.1793586,47.7602257 C15.4486977,45.6572749 14.9461287,43.5620315 13.6852667,41.5278548 L15.6428586,39.5529664 L19.2484506,35.9162309 C21.8222667,37.6859824 24.8868126,38.6203637 28.1259851,38.6203637 C32.7710483,38.6203637 37.1106632,36.6952773 40.0313644,33.3383819 C44.7658126,27.8975079 48.4057379,21.4433993 51.3299908,16.2568715 C51.4602207,16.0262406 51.4211517,15.7363215 51.2346862,15.5477852 L42.5542724,6.78914596 Z" id="path-3"></path>
    </defs>
    <g id="survey" stroke="none" stroke-width="1" fill="none" fill-rule="evenodd">
        <g id="-Nutrition" transform="translate(-347.000000, -1989.000000)">
            <g id="Group-68" transform="translate(175.000000, 1954.000000)">
                <g id="Group-66">
                    <g id="noAlcohol" transform="translate(163.000000, 35.000000)">
                        <g id="Group-22-Copy" transform="translate(0.000000, 7.000000)">
                            <g id="Group-26" transform="translate(34.774746, 39.871160) rotate(-23.000000) translate(-34.774746, -39.871160) translate(8.774746, 13.871160)">
                                <g id="Group-51">
                                    <mask id="mask-2" fill="white">
                                        <use xlink:href="#path-1"></use>
                                    </mask>
                                    <use id="Fill-1" stroke="#E2E2E2" fill="#F9FEFF" xlink:href="#path-1"></use>
                                    <path d="M46.3810776,20.338031 C46.3467443,20.4441568 46.3414167,20.5188598 46.3035316,20.5686619 C43.1691351,24.7253545 39.98975,28.8494385 36.0804856,32.3237244 C30.7304052,37.0786345 22.5845259,36.6535384 17.8554052,31.2772885 C16.2115489,29.4091187 15.4135948,27.0405569 15.2460718,24.5255534 C15.0844684,22.1042251 15.501204,19.7819081 16.5862557,17.5918036 C16.7614741,17.2384462 16.9361006,17.0831112 17.3711868,17.1311346 C26.9294684,18.1882424 36.4895259,19.226378 46.0483994,20.2704425 C46.1531753,20.2817072 46.2573592,20.312537 46.3810776,20.338031" id="Fill-4" fill="#DBDFC4" mask="url(#mask-2)"></path>
                                </g>
                                <path d="M25.377194,28.9566125 L31.9399797,28.9566125 C34.1146956,28.9566125 34.9904323,29.7529388 33.8959925,30.7352571 C32.8015527,31.7175755 31.0266514,33.099484 30.0458699,33.099484 L27.0860997,33.099484 C26.1053182,33.099484 24.5156209,31.7175755 23.4211811,30.7352571 C22.3267413,29.7529388 23.2024781,28.9566125 25.377194,28.9566125 Z" id="Rectangle-13" fill="#FFF4F4" transform="translate(28.658587, 31.028048) rotate(-9.000000) translate(-28.658587, -31.028048) "></path>
                            </g>
                            <g id="Group-26-Copy" transform="translate(69.552980, 33.367614) scale(-1, 1) rotate(-20.000000) translate(-69.552980, -33.367614) translate(43.552980, 7.367614)">
                                <g id="Group-51">
                                    <mask id="mask-4" fill="white">
                                        <use xlink:href="#path-3"></use>
                                    </mask>
                                    <use id="Fill-1" stroke="#E2E2E2" fill="#F9FEFF" xlink:href="#path-3"></use>
                                    <path d="M46.3810776,20.338031 C46.3467443,20.4441568 46.3414167,20.5188598 46.3035316,20.5686619 C43.1691351,24.7253545 39.98975,28.8494385 36.0804856,32.3237244 C30.7304052,37.0786345 22.5845259,36.6535384 17.8554052,31.2772885 C16.2115489,29.4091187 15.4135948,27.0405569 15.2460718,24.5255534 C15.0844684,22.1042251 15.501204,19.7819081 16.5862557,17.5918036 C16.7614741,17.2384462 16.9361006,17.0831112 17.3711868,17.1311346 C26.9294684,18.1882424 36.4895259,19.226378 46.0483994,20.2704425 C46.1531753,20.2817072 46.2573592,20.312537 46.3810776,20.338031" id="Fill-4" fill="#DBDFC4" mask="url(#mask-4)"></path>
                                </g>
                                <path d="M25.578869,28.2877844 L32.1416547,28.2877844 C34.3163706,28.2877844 35.1921074,29.0841108 34.0976675,30.0664291 C33.0032277,31.0487474 31.2283264,32.4306559 30.2475449,32.4306559 L27.2877748,32.4306559 C26.3069932,32.4306559 24.7172959,31.0487474 23.6228561,30.0664291 C22.5284163,29.0841108 23.4041531,28.2877844 25.578869,28.2877844 Z" id="Rectangle-13" fill="#FFF4F4" transform="translate(28.860262, 30.359220) rotate(-9.000000) translate(-28.860262, -30.359220) "></path>
                            </g>
                        </g>
                        <path d="M23.0290785,20.2109796 C23.2998299,19.8899799 23.6924693,19.6959801 24.112084,19.6779801 C24.5297006,19.6619801 24.9383254,19.81798 25.236052,20.1149797 L77.9186771,72.7469265 C78.2114083,73.0379262 78.3712615,73.4389258 78.3592725,73.8529254 C78.3462845,74.265925 78.1644514,74.6549246 77.8547358,74.9309243 C71.7423484,80.3569188 62.6407058,83.5979156 53.5110889,83.5979156 C46.7343116,83.5979156 36.7155112,81.8599173 27.462008,73.5839257 C10.0879614,58.0449414 11.6335422,33.7799659 23.0290785,20.2109796 M29.3472769,13.905986 C35.9292332,8.42199149 44.5303354,5.40099455 53.5680366,5.40099455 C64.1083582,5.40099455 74.0032724,9.55699035 81.4304525,17.1019827 C97.0241339,32.9469667 95.0699283,55.7699437 84.1719352,68.6809306 C83.9021829,69.0009303 83.5105425,69.1929301 83.0909278,69.2109301 C83.0699471,69.2119301 83.0479672,69.2119301 83.0279856,69.2119301 C82.6313498,69.2119301 82.2497002,69.0559303 81.968958,68.7739305 L29.2483677,16.1209837 C28.9506411,15.821984 28.791787,15.4129844 28.8097705,14.9919849 C28.828753,14.5699853 29.0245732,14.1759857 29.3472769,13.905986 M36.6475736,85.5789136 C41.1234636,87.5439116 46.1488492,88.6509105 51.5818604,88.8719102 C51.8516127,88.8829102 52.1193669,88.9269102 52.3881201,88.9779101 L52.5140045,88.9989101 L54.6580358,88.9989101 C55.204534,88.9439102 55.7520312,88.8939102 56.2995285,88.8429103 C57.4764478,88.7349104 58.6933304,88.6229105 59.8622571,88.4549107 C69.7261997,87.0369121 78.2853404,82.7099165 85.3028967,75.5929237 C91.8448896,68.9579304 95.9411283,60.8639385 97.4807146,51.5359479 C97.6955174,50.2199493 97.8134091,48.8979506 97.9372954,47.496952 C97.9922449,46.8629527 98.0491926,46.2299533 98.114133,45.5969539 L98.114133,43.4099562 C98.0362046,42.7109569 97.9712642,42.0099576 97.9053247,41.3089583 C97.763455,39.7529599 97.6265807,38.2829613 97.3438403,36.8399628 C94.2596723,21.1349787 85.2179747,9.88999001 70.4715153,3.41599655 C66.0865418,1.49099849 61.1560691,0.386999609 55.8209679,0.134999864 C55.5382276,0.120999878 55.2574853,0.0759999232 54.9787413,0.0269999727 L54.8108954,0 L52.266232,0 C51.7427127,0.0549999445 51.2201925,0.104999894 50.6966732,0.153999844 C49.5617154,0.262999734 48.3857951,0.374999621 47.2568318,0.537999457 C37.2690029,1.978998 28.6669017,6.35399358 21.6883096,13.5389863 C14.0213497,21.4339784 9.8022238,31.0649686 9.14582653,42.1659574 C9.12684396,42.4569571 9.08288433,42.7459568 9.03592744,43.0329565 L9.00495588,43.2429563 L9.00495588,45.7819538 C9.08188524,46.4569531 9.14682561,47.1339524 9.21176598,47.8109517 C9.35763204,49.3229502 9.49450636,50.7529487 9.77025316,52.1599473 C12.8544212,67.8619315 21.8971179,79.1069201 36.6475736,85.5789136" id="Fill-1" fill="#C06363"></path>
                    </g>
                </g>
            </g>
        </g>
    </g>
</svg>