<?xml version="1.0" encoding="UTF-8"?>
<svg width="86px" height="85px" viewBox="0 0 86 85" version="1.1" xmlns="http://www.w3.org/2000/svg" xmlns:xlink="http://www.w3.org/1999/xlink">
    <!-- Generator: sketchtool 45.2 (43514) - http://www.bohemiancoding.com/sketch -->
    <title>3D3A8186-1CCD-46C5-BAA5-771CB8B84887</title>
    <desc>Created with sketchtool.</desc>
    <defs></defs>
    <g id="survey" stroke="none" stroke-width="1" fill="none" fill-rule="evenodd">
        <g id="-Nutrition" transform="translate(-350.000000, -3041.000000)">
            <g id="Group-71" transform="translate(175.000000, 3007.000000)">
                <g id="Group-59">
                    <g id="Group-13" transform="translate(175.000000, 34.000000)">
                        <g id="Page-1" transform="translate(18.271376, 18.419131)">
                            <path d="M39.7007676,26.350037 L39.7007676,32.6878052 C39.3190295,32.706941 39.0518128,32.7452125 38.7464223,32.7452125 C26.1566981,32.7471261 13.55075,32.7471261 0.961025793,32.743299 C0.646091819,32.743299 0.314933974,32.6916324 0,32.6648423 L0,26.350037 C1.33417484,26.3596048 2.66834967,26.363432 4.00252451,26.363432 C15.479482,26.3653456 26.9583482,26.350037 38.4353057,26.350037 L39.7007676,26.350037 Z" id="Fill-1" fill="#BAB8A9"></path>
                            <path d="M46.3811853,20.4179471 L46.3811853,25.2018905 L44.1327476,25.2018905 C44.1327476,23.9848553 44.1136606,22.7869559 44.1384736,21.59097 C44.167104,20.155787 43.8712569,18.8048014 43.1535892,17.5609761 C41.926301,15.4330781 40.0901405,14.2906724 37.6241121,14.2275243 C36.5762409,14.2026478 35.5207349,14.2849316 34.4785897,14.1949935 C33.995691,14.1548084 33.3581883,13.9404877 33.1272367,13.5845623 C32.9344589,13.2898714 33.1844974,12.6545637 33.3333753,12.2029594 C33.6368571,11.2729608 34.1712905,10.3888881 34.3125336,9.43975372 C34.6599154,7.10136217 33.0652042,4.93136543 30.6850669,4.35155149 C30.2556114,4.24821831 29.7755757,4.17741595 29.3938376,4.08747781 L29.3938376,1.9997649 C31.8751355,2.09353019 33.9890106,3.01204733 35.4186199,5.11889601 C36.8577728,7.23913974 36.7942134,9.54691405 35.9486633,12.0728362 C36.8801044,12.0728362 37.6968332,11.9848116 38.4984833,12.0881448 C42.5410903,12.6067243 45.5329631,15.5995593 46.1933701,19.7041827 C46.2315439,19.9452935 46.3162898,20.1806635 46.3811853,20.4179471" id="Fill-3" fill="#B3B3B3"></path>
                            <path d="M46.3811853,26.350037 L46.3811853,32.6648423 L44.0907564,32.6648423 L44.0907564,26.2390495 C44.8542327,26.2754074 45.6463393,26.313679 46.3811853,26.350037" id="Fill-5" fill="#F8BE39"></path>
                            <path d="M42.882536,25.2018905 L40.8364195,25.2018905 C40.8364195,24.2451018 40.8383282,23.470103 40.8364195,22.6204747 C40.8306935,20.427515 39.7751875,19.3281648 37.5630149,19.2879797 C35.7822064,19.2573624 34.001398,19.2807081 32.2205895,19.2787945 C28.5749902,19.2768809 26.5918605,17.2115569 26.6949298,13.5279204 C26.7006558,13.307859 26.6949298,13.0874149 26.6949298,12.878835 C21.9480159,11.1432203 20.1681617,8.47550208 21.1358679,4.70001393 C21.8974356,1.73588258 24.4312225,-0.346280961 27.1033896,0.0479159774 L27.1033896,1.96914766 C26.9125205,2.01890067 26.78941,2.08587588 26.6424408,2.12032027 C24.2642121,2.66951698 22.9287012,4.37260084 23.0909399,6.7014245 C23.2360004,8.77574237 24.9645107,10.4367275 27.203405,10.6357396 C29.5778163,10.8462331 29.5726628,10.8462331 28.9656991,13.1138223 C28.374005,15.3106091 29.7226859,17.0940632 31.9884927,17.0998039 C33.8645448,17.1055447 35.7396426,17.0653595 37.6139769,17.1151126 C40.4884652,17.1916557 42.4593793,18.6153572 42.8468435,21.0609091 C43.0550817,22.3870182 42.882536,23.8623864 42.882536,25.2018905" id="Fill-7" fill="#B3B3B3"></path>
                            <polygon id="Fill-9" fill="#F8BE39" points="40.8459821 32.6647657 42.9455419 32.6647657 42.9455419 26.3499604 40.8459821 26.3499604"></polygon>
                        </g>
                        <path d="M13.4012511,19.3026098 C13.6598337,18.9960373 14.0348262,18.8107567 14.4355816,18.7935657 C14.8344286,18.7782848 15.224688,18.9272733 15.5090335,19.2109246 L65.8238712,69.4773617 C66.1034458,69.7552826 66.2561145,70.1382595 66.2446644,70.5336522 C66.23226,70.9280897 66.0585994,71.299606 65.7628037,71.5632011 C59.9251337,76.7453277 51.2325588,79.8406599 42.5132667,79.8406599 C36.0410674,79.8406599 26.4725556,78.1807749 17.6349454,70.2767425 C1.04176437,55.436148 2.51788001,32.2617466 13.4012511,19.3026098 M19.435482,13.2809902 C25.7216164,8.04347039 33.9361475,5.15825024 42.567655,5.15825024 C52.6342484,5.15825024 62.0844419,9.12745743 69.1778121,16.3333449 C84.0706453,31.466186 82.2042702,53.2633987 71.7960805,65.5941094 C71.5384521,65.8997269 71.1644137,66.0830974 70.7636584,66.1002884 C70.7436206,66.1012435 70.7226286,66.1012435 70.703545,66.1012435 C70.3247358,66.1012435 69.9602392,65.9522549 69.6921148,65.6829295 L19.3410183,15.3964363 C19.0566728,15.1108749 18.9049583,14.7202575 18.9221335,14.3181795 C18.9402629,13.9151465 19.1272821,13.5388549 19.435482,13.2809902 M26.4076714,81.7326232 C30.6823955,83.6093056 35.4819182,84.6665511 40.6707462,84.8776182 C40.9283746,84.8881238 41.1840947,84.9301462 41.440769,84.978854 L41.5609956,84.9989101 L43.6086648,84.9989101 C44.1306009,84.9463821 44.6534913,84.8986294 45.1763816,84.8499216 C46.3004051,84.7467757 47.4625957,84.6398096 48.5789856,84.4793604 C57.9995996,83.1250929 66.1740551,78.9925713 72.8762117,72.1954473 C79.1241789,65.8586596 83.0363147,58.1284471 84.5067053,49.2196972 C84.7118539,47.9628453 84.824447,46.700263 84.9427653,45.3622314 C84.9952452,44.7567268 85.0496334,44.1521772 85.1116551,43.5476276 L85.1116551,41.458923 C85.0372291,40.7913398 84.9752074,40.1218465 84.9122316,39.4523531 C84.7767381,37.9662881 84.6460155,36.5623577 84.3759827,35.1842139 C81.4304307,20.1850803 72.7951064,9.44549063 58.7114174,3.26246673 C54.5235237,1.42398651 49.8146481,0.369606155 44.7193297,0.12893238 C44.4492969,0.115561614 44.1811725,0.0725841545 43.9149564,0.0257864759 L43.7546542,0 L41.3243591,0 C40.8243691,0.0525280066 40.3253332,0.10028074 39.8253432,0.147078418 C38.7413953,0.251179377 37.6183261,0.358145499 36.5401032,0.51381941 C27.0011711,1.89005318 18.7856858,6.06841734 12.1207422,12.9304851 C4.79836895,20.4706417 0.768869041,29.6687732 0.141973128,40.270835 C0.123843718,40.5487559 0.0818598211,40.8247667 0.0370133859,41.0988674 L0.00743382228,41.2994289 L0.00743382228,43.7243127 C0.0809056416,44.3689746 0.142927307,45.0155466 0.204948973,45.6621186 C0.344259176,47.1061612 0.474981763,48.4718894 0.738335297,49.8156513 C3.68388733,64.8119197 12.3201657,75.5515094 26.4076714,81.7326232" id="Fill-1" fill="#C06363"></path>
                    </g>
                </g>
            </g>
        </g>
    </g>
</svg>