<?xml version="1.0" encoding="UTF-8"?>
<svg width="98px" height="66px" viewBox="0 0 98 66" version="1.1" xmlns="http://www.w3.org/2000/svg" xmlns:xlink="http://www.w3.org/1999/xlink">
    <!-- Generator: sketchtool 45.2 (43514) - http://www.bohemiancoding.com/sketch -->
    <title>88BE0D13-289D-44C2-BBDC-D43001090819</title>
    <desc>Created with sketchtool.</desc>
    <defs>
        <polygon id="path-1" points="0 65.8689735 97.8510859 65.8689735 97.8510859 0.270289926 0 0.270289926"></polygon>
    </defs>
    <g id="survey" stroke="none" stroke-width="1" fill="none" fill-rule="evenodd">
        <g id="-Nutrition" transform="translate(-1252.000000, -5177.000000)">
            <g id="Group-75" transform="translate(126.000000, 5078.000000)">
                <g id="Group-12" transform="translate(1109.000000, 43.000000)">
                    <g id="Group-40-Copy"></g>
                    <g id="Page-1" transform="translate(17.000000, 56.000000)">
                        <g id="Group-3" transform="translate(0.000000, 0.108267)">
                            <mask id="mask-2" fill="white">
                                <use xlink:href="#path-1"></use>
                            </mask>
                            <g id="Clip-2"></g>
                            <path d="M48.5199914,3.29204802 C46.7131164,3.34958873 45.3457102,4.84640437 45.4272492,6.67559333 C45.5064914,8.440049 46.8704523,9.66960317 48.7037414,9.62796187 C50.4681242,9.58859191 51.8676867,8.19550097 51.856968,6.49047881 C51.8454836,4.73359429 50.2824602,3.23564297 48.5199914,3.29204802 L48.5199914,3.29204802 Z M90.1355383,56.3968259 C89.586968,35.6920119 71.8838039,16.0706289 47.0289367,17.243778 C21.4049992,18.4536472 7.58431953,40.0601848 7.83659297,56.3968259 L90.1355383,56.3968259 Z M9.49799922,37.9061936 C16.870968,24.465516 28.2137023,16.6146158 43.5633352,14.4757669 C44.0724758,14.4045981 44.9609836,14.0763889 44.9617492,13.8655325 C44.9655773,12.9887937 44.9828039,11.8641 44.4698352,11.2830145 C43.2402414,9.8910592 42.3670461,8.4657909 42.3555617,6.58057545 C42.340632,3.85874832 43.9855773,1.47762278 46.5167336,0.611483638 C49.1221555,-0.280018849 52.042632,0.617161998 53.6791555,2.81165878 C55.2739523,4.95050763 55.3099367,7.85896351 53.7469133,10.0617886 C53.4563586,10.4717661 53.0337336,10.794297 52.7661477,11.2163884 C51.7647102,12.7919439 52.5177023,14.3201798 54.3548195,14.4988589 C72.8825617,16.2973847 89.2497102,31.3813797 92.4936633,49.6808405 C92.878007,51.8499739 93.1084602,54.0459849 93.451843,56.5327279 C94.2056008,56.5327279 95.0699914,56.4994149 95.9309367,56.5391634 C97.6765617,56.6201747 98.2733664,57.4832854 97.5506164,59.0020573 C96.6567492,60.8812159 95.756757,62.7721097 94.6531086,64.5316441 C94.2641711,65.1524781 93.2922102,65.4519169 92.539218,65.7967827 C92.2241633,65.9413916 91.7854602,65.8232817 91.4030305,65.8232817 C63.0243742,65.8232817 34.645718,65.8009468 6.26782734,65.8690871 C4.22437422,65.8736298 3.05871016,65.2652882 2.35778047,63.3982435 C1.82873359,61.9877389 1.03286641,60.6771735 0.395483594,59.3041461 C-0.471969531,57.4371014 0.0754523438,56.589133 2.15603828,56.5342422 C2.85390547,56.5156929 3.55253828,56.5312137 4.49846797,56.5312137 C4.90807734,49.865955 6.35472578,43.6360372 9.49799922,37.9061936 Z" id="Fill-1" fill="#888992" mask="url(#mask-2)"></path>
                        </g>
                        <path d="M12.354398,54.0317706 C12.1301641,39.7566087 24.433041,20.8762143 47.2439011,19.8193462 C69.3694505,18.793903 85.1292102,35.9393136 85.6172087,54.0317706 L12.354398,54.0317706 Z" id="Path" fill="#CADDDF"></path>
                        <path d="M84.3821344,6.8516982 C81.2622125,6.85245531 78.1419078,6.85548377 75.0223687,6.85056253 C73.8789078,6.8490483 72.6856812,6.73775245 72.7373609,5.2481294 C72.7852125,3.87888757 73.9600641,3.8209683 75.005525,3.81907551 C81.3728453,3.80847591 87.7397828,3.80809735 94.1074859,3.82058974 C95.1671109,3.82248253 96.3010016,3.94286376 96.3013844,5.32459797 C96.3017672,6.68626865 95.2103688,6.84791263 94.1243297,6.84942686 C90.8773141,6.85510522 87.6295328,6.85131964 84.3821344,6.8516982" id="Fill-4" fill="#888992"></path>
                        <path d="M87.14405,15.9352189 C84.8529172,15.935976 82.5617844,15.9401402 80.2706516,15.9340833 C79.1861437,15.9310548 78.0947453,15.7728178 78.0916828,14.4126614 C78.0882375,13.0301701 79.2209797,12.9082746 80.2798391,12.9048676 C84.9260344,12.8912395 89.5718469,12.8901039 94.2180422,12.9086532 C95.2994875,12.9128173 96.5076438,13.1672078 96.2262766,14.495944 C96.1003313,15.0891433 94.9407922,15.8144591 94.2031125,15.8697285 C91.8622141,16.0457577 89.4987297,15.9348404 87.14405,15.9352189" id="Fill-6" fill="#888992"></path>
                        <path d="M91.1770562,24.9969348 C90.036275,24.9988275 88.8526187,25.1793994 87.7715562,24.9284159 C87.1609703,24.7864569 86.7192047,23.9347029 86.2012594,23.4028299 C86.7230328,22.9432613 87.2210719,22.1217919 87.7704078,22.0869646 C90.1047984,21.9393273 92.4602437,21.9408415 94.7942516,22.0884789 C95.3321031,22.122549 95.8190406,22.9504539 96.3293297,23.4126724 C95.8155953,23.9400027 95.3738297,24.7981922 94.7739625,24.9246303 C93.6224625,25.166907 92.3813844,24.995042 91.1770562,24.9969348" id="Fill-8" fill="#888992"></path>
                        <path d="M52.5645154,28.4138835 C53.2062061,28.1608306 53.760316,27.6997119 54.3512303,27.3259213 C53.8669805,26.833047 53.4628142,26.0685956 52.8811009,25.9081634 C51.8785231,25.6312937 50.7406553,25.5770445 49.7097926,25.735492 C49.1744256,25.8178582 48.5116065,26.4920045 48.3602997,27.0212655 C48.275786,27.3169901 49.0456104,28.0116451 49.5649607,28.2521281 C50.0233112,28.4644941 50.6684097,28.2964537 50.7464485,28.2964537 C51.6808701,28.3731966 52.1927233,28.5607535 52.5645154,28.4138835 Z" id="Path" fill="#888992"></path>
                        <path d="M57.2396904,28.0083373 C57.1251879,28.4128912 57.5910356,29.0529662 57.9464702,29.471744 C58.1649109,29.7287664 58.6556356,29.7740843 59.0301539,29.8987915 C66.7972353,32.4891933 72.1076261,37.5571983 75.1293316,44.9344353 C75.2966551,45.3422971 75.3477722,45.8874359 75.6541344,46.1279189 C76.0814738,46.4639997 76.8703819,46.8774848 77.1924199,46.705475 C77.6432733,46.464992 77.9022668,45.7412276 78.0566407,45.1759107 C78.1418359,44.8649698 77.8613731,44.4494999 77.7179043,44.0915872 C74.6345175,36.4146561 69.2167806,30.9576443 61.3140684,27.876022 C60.4757471,27.5488725 59.6122079,27.2829189 58.4307201,26.8747263 C58.0739223,27.1883135 57.3763436,27.5234019 57.2396904,28.0083373 Z" id="Path" fill="#888992"></path>
                    </g>
                </g>
            </g>
        </g>
    </g>
</svg>