<?xml version="1.0" encoding="UTF-8"?>
<svg width="47px" height="33px" viewBox="0 0 47 33" version="1.1" xmlns="http://www.w3.org/2000/svg" xmlns:xlink="http://www.w3.org/1999/xlink">
    <!-- Generator: sketchtool 45.2 (43514) - http://www.bohemiancoding.com/sketch -->
    <title>398B73F9-E00D-496A-B6B4-AF6DD4817299</title>
    <desc>Created with sketchtool.</desc>
    <defs></defs>
    <g id="survey" stroke="none" stroke-width="1" fill="none" fill-rule="evenodd">
        <g id="-Nutrition" transform="translate(-218.000000, -3059.000000)">
            <g id="Group-71" transform="translate(175.000000, 3007.000000)">
                <g id="Group-59">
                    <g id="smoking" transform="translate(43.000000, 52.000000)">
                        <path d="M39.7007676,26 L39.7007676,32.3377683 C39.3190295,32.356904 39.0518128,32.3951756 38.7464223,32.3951756 C26.1566981,32.3970892 13.55075,32.3970892 0.961025793,32.393262 C0.646091819,32.393262 0.314933974,32.3415954 0,32.3148053 L0,26 C1.33417484,26.0095679 2.66834967,26.013395 4.00252451,26.013395 C15.479482,26.0153086 26.9583482,26 38.4353057,26 L39.7007676,26 Z" id="Fill-1" fill="#BAB8A9"></path>
                        <path d="M45.9873477,20.4181822 L45.9873477,25.2021256 L43.73891,25.2021256 C43.73891,23.9850904 43.7198231,22.787191 43.7446361,21.5912051 C43.7732664,20.1560221 43.4774193,18.8050365 42.7597516,17.5612112 C41.5324635,15.4333132 39.696303,14.2909075 37.2302745,14.2277594 C36.1824033,14.2028829 35.1268973,14.2851667 34.0847522,14.1952286 C33.6018534,14.1550435 32.9643507,13.9407228 32.7333991,13.5847974 C32.5406213,13.2901065 32.7906598,12.6547988 32.9395377,12.2031945 C33.2430195,11.2731959 33.777453,10.3891232 33.9186961,9.43998882 C34.2660778,7.10159727 32.6713667,4.93160053 30.2912293,4.35178659 C29.8617739,4.24845341 29.3817382,4.17765105 29,4.08771291 L29,2 C31.481298,2.09376529 33.595173,3.01228243 35.0247824,5.11913112 C36.4639352,7.23937485 36.4003758,9.54714916 35.5548258,12.0730713 C36.4862669,12.0730713 37.3029956,11.9850467 38.1046458,12.0883799 C42.1472528,12.6069594 45.1391255,15.5997944 45.7995325,19.7044178 C45.8377063,19.9455286 45.9224522,20.1808986 45.9873477,20.4181822" id="Fill-3" fill="#B3B3B3"></path>
                        <path d="M46.2904289,26.1109875 L46.2904289,32.4257928 L44,32.4257928 L44,26 C44.7634763,26.036358 45.555583,26.0746295 46.2904289,26.1109875" id="Fill-5" fill="#F8BE39"></path>
                        <path d="M43.0011055,25.2018734 L40.954989,25.2018734 C40.954989,24.2450847 40.9568977,23.4700859 40.954989,22.6204575 C40.9492629,20.4274979 39.8937569,19.3281477 37.6815843,19.2879626 C35.9007759,19.2573453 34.1199674,19.280691 32.3391589,19.2787774 C28.6935596,19.2768638 26.7104299,17.2115397 26.8134992,13.5279033 C26.8192253,13.3078419 26.8134992,13.0873978 26.8134992,12.8788179 C22.0665853,11.1432032 20.2867312,8.47548497 21.2544374,4.69999681 C22.016005,1.73586547 24.549792,-0.346298074 27.221959,0.0478988651 L27.221959,1.96913055 C27.03109,2.01888356 26.9079794,2.08585877 26.7610102,2.12030316 C24.3827815,2.66949987 23.0472706,4.37258373 23.2095093,6.70140739 C23.3545698,8.77572526 25.0830802,10.4367104 27.3219744,10.6357225 C29.6963857,10.846216 29.6912323,10.846216 29.0842686,13.1138052 C28.4925745,15.310592 29.8412553,17.0940461 32.1070621,17.0997868 C33.9831143,17.1055276 35.8582121,17.0653424 37.7325464,17.1150954 C40.6070347,17.1916385 42.5779487,18.6153401 42.965413,21.060892 C43.1736511,22.3870011 43.0011055,23.8623693 43.0011055,25.2018734" id="Fill-7" fill="#B3B3B3"></path>
                        <polygon id="Fill-9" fill="#F8BE39" points="41 32.3148053 43.0995598 32.3148053 43.0995598 26 41 26"></polygon>
                    </g>
                </g>
            </g>
        </g>
    </g>
</svg>