<?xml version="1.0" encoding="UTF-8"?>
<svg width="98px" height="97px" viewBox="0 0 98 97" version="1.1" xmlns="http://www.w3.org/2000/svg" xmlns:xlink="http://www.w3.org/1999/xlink">
    <!-- Generator: sketchtool 45.2 (43514) - http://www.bohemiancoding.com/sketch -->
    <title>6608FFA2-1F04-454B-A60F-71BC2246A4C2</title>
    <desc>Created with sketchtool.</desc>
    <defs>
        <polygon id="path-1" points="63.4326006 0.75908209 0.100508518 0.75908209 0.100508518 51.9443842 63.4326006 51.9443842 63.4326006 0.75908209"></polygon>
    </defs>
    <g id="survey" stroke="none" stroke-width="1" fill="none" fill-rule="evenodd">
        <g id="-Nutrition" transform="translate(-191.000000, -381.000000)">
            <g id="Group-61" transform="translate(175.000000, 308.000000)">
                <g id="Group-60">
                    <g id="vegan" transform="translate(16.000000, 73.000000)">
                        <g id="cheese-triangular-piece-with-holes" transform="translate(16.333333, 21.797753)">
                            <mask id="mask-2" fill="white">
                                <use xlink:href="#path-1"></use>
                            </mask>
                            <g id="Clip-2"></g>
                            <path d="M1.7924019,21.3313797 L41.2570714,27.4191175 C40.9488452,26.8041437 40.7662548,26.1288455 40.7662548,25.403277 C40.7662548,22.8763547 42.8082528,20.8337034 45.3276663,20.8337034 C47.8521053,20.8337034 49.8941033,22.8763547 49.8941033,25.403277 C49.8941033,26.6265219 49.4032867,27.7324693 48.6176451,28.5518758 L61.489436,30.5409055 C62.9819875,30.7704733 63.6419934,29.8605802 62.9685863,28.5049568 L56.9213238,16.4099137 C56.2093885,16.8673738 55.365117,17.142185 54.4555149,17.142185 C51.9361014,17.142185 49.8941033,15.0995336 49.8941033,12.5726113 C49.8941033,10.6154195 51.1370586,8.95314704 52.8775311,8.3113624 L49.9008039,2.36270584 C49.2273968,1.01378513 47.5522549,0.392108629 46.1585367,0.980271573 L39.6271582,3.74346444 C40.4982321,4.94157414 41.0208763,6.41449501 41.0208763,8.01141606 C41.0208763,12.0162862 37.7761264,15.26375 33.7708619,15.26375 C30.1860581,15.26375 27.2143563,12.6647736 26.6314069,9.24806635 L1.60981142,19.8450534 C0.216093313,20.434892 0.301525553,21.1018118 1.7924019,21.3313797 L1.7924019,21.3313797 Z M21.4501928,15.6625614 C22.2877638,15.6625614 22.9611709,16.3428866 22.9611709,17.1756985 C22.9611709,18.0068347 22.2877638,18.6804573 21.4501928,18.6804573 C20.6193224,18.6804573 19.9442402,18.0068347 19.9442402,17.1756985 C19.9442402,16.3428866 20.6193224,15.6625614 21.4501928,15.6625614 L21.4501928,15.6625614 Z" id="Fill-1" fill="#E7D9B6" mask="url(#mask-2)"></path>
                            <path d="M10.431109,37.1916711 C10.431109,40.0972965 8.07418425,42.4482726 5.16948809,42.4482726 C4.07059497,42.4482726 3.04875837,42.1131371 2.20448682,41.5316768 L2.72880625,46.0342234 C2.89799559,47.5406578 4.26658658,48.8292541 5.77756462,48.9147137 L38.0441491,50.8199595 C38.0307479,50.6942836 38.0056208,50.5702834 38.0056208,50.4395806 C38.0056208,47.9394691 40.0275172,45.9169259 42.526829,45.9169259 C45.0261408,45.9169259 47.0547377,47.9394691 47.0547377,50.4395806 C47.0547377,50.7479053 47.0145343,51.0545544 46.9626049,51.342771 L57.0469595,51.9393123 C58.5579375,52.0297989 60.003585,50.8987163 60.2850089,49.41239 L63.4326006,32.6220974 L0,22.4373271 L1.29488474,33.6442609 C2.25809136,32.5969623 3.63840834,31.9350695 5.16948809,31.9350695 C8.07418425,31.9350695 10.431109,34.2843699 10.431109,37.1916711 Z M23.1253348,32.0473399 C24.8792084,32.0473399 26.2980536,33.4666391 26.2980536,35.2277766 C26.2980536,36.9822113 24.8792084,38.4031862 23.1253348,38.4031862 C21.3647606,38.4031862 19.9442402,36.9822113 19.9442402,35.2277766 C19.9442402,33.4666391 21.3647606,32.0473399 23.1253348,32.0473399 L23.1253348,32.0473399 Z M16.7648207,40.9418382 C17.5956912,40.9418382 18.2757988,41.6154607 18.2757988,42.4532997 C18.2757988,43.2861116 17.5956912,43.9597341 16.7648207,43.9597341 C15.9339503,43.9597341 15.2588681,43.2861116 15.2588681,42.4532997 C15.2588681,41.6154607 15.9339503,40.9418382 16.7648207,40.9418382 L16.7648207,40.9418382 Z" id="Fill-3" fill="#D9C38A" mask="url(#mask-2)"></path>
                        </g>
                        <path d="M15.2847333,22.0277191 C15.5798222,21.6778652 16.0077556,21.466427 16.4650889,21.446809 C16.9202444,21.4293708 17.3656,21.5993933 17.6900889,21.9230899 L75.1082889,79.2860562 C75.4273333,79.6032135 75.6015556,80.0402584 75.5884889,80.4914719 C75.5743333,80.9415955 75.3761556,81.3655618 75.0386,81.6663708 C68.3767778,87.5801011 58.457,91.112427 48.5067333,91.112427 C41.1208,91.112427 30.2014222,89.2182022 20.1161333,80.1982921 C1.18035556,63.2625281 2.86486667,36.8164045 15.2847333,22.0277191 M22.1708667,15.1559775 C29.3444667,9.17903371 38.7187111,5.88648315 48.5688,5.88648315 C60.0565778,5.88648315 70.8409333,10.4160562 78.9357333,18.6392584 C95.9311111,35.9085281 93.8012444,60.7830337 81.9236444,74.854573 C81.6296444,75.2033371 81.2028,75.4125955 80.7454667,75.4322135 C80.7226,75.4333034 80.6986444,75.4333034 80.6768667,75.4333034 C80.2445778,75.4333034 79.8286222,75.2632809 79.5226444,74.9559326 L22.0630667,17.5700787 C21.7385778,17.2442022 21.5654444,16.7984382 21.5850444,16.3395955 C21.6057333,15.8796629 21.8191556,15.4502472 22.1708667,15.1559775 M30.1273778,93.2714944 C35.0056,95.4131236 40.4827111,96.6196292 46.4040889,96.8604944 C46.6980889,96.8724831 46.9899111,96.9204382 47.2828222,96.9760225 L47.4200222,96.9989101 L49.7567778,96.9989101 C50.3524,96.9389663 50.9491111,96.8844719 51.5458222,96.8288876 C52.8285333,96.7111798 54.1548,96.5891124 55.4288,96.4060112 C66.1794,94.8605506 75.5079111,90.1446067 83.1562667,82.3878764 C90.2863111,75.1564719 94.7507556,66.3349213 96.4287333,56.1684494 C96.6628444,54.7341573 96.7913333,53.2933258 96.9263556,51.7663933 C96.9862444,51.0754045 97.0483111,50.3855056 97.1190889,49.6956067 L97.1190889,47.3120225 C97.0341556,46.550191 96.9633778,45.7861798 96.8915111,45.0221685 C96.7368889,43.3263034 96.5877111,41.7241685 96.2795556,40.1514607 C92.9181556,23.0347753 83.0637111,10.7789888 66.9917111,3.72305618 C62.2125778,1.62502247 56.8389111,0.421786517 51.0242444,0.147134831 C50.7160889,0.131876404 50.4101111,0.0828314607 50.1063111,0.0294269663 L49.9233778,0 L47.1499778,0 C46.5794,0.0599438202 46.0099111,0.114438202 45.4393333,0.167842697 C44.2023556,0.286640449 42.9207333,0.408707865 41.6902889,0.586359551 C30.8046667,2.15688764 21.4293333,6.92514607 13.8234444,14.7559888 C5.46731111,23.3606517 0.868933333,33.8573596 0.153533333,45.9562022 C0.132844444,46.2733596 0.0849333333,46.5883371 0.0337555556,46.9011348 L0,47.1300112 L0,49.897236 C0.0838444444,50.6329101 0.154622222,51.370764 0.2254,52.108618 C0.384377778,53.7565281 0.533555556,55.3150674 0.834088889,56.8485393 C4.19548889,73.9619551 14.0510222,86.2177416 30.1273778,93.2714944" id="Fill-1" fill="#C06363"></path>
                    </g>
                </g>
            </g>
        </g>
    </g>
</svg>