<?xml version="1.0" encoding="UTF-8"?>
<svg width="87px" height="68px" viewBox="0 0 87 68" version="1.1" xmlns="http://www.w3.org/2000/svg" xmlns:xlink="http://www.w3.org/1999/xlink">
    <!-- Generator: sketchtool 45.2 (43514) - http://www.bohemiancoding.com/sketch -->
    <title>59299380-77AA-4C82-95AC-063C0C2543BB</title>
    <desc>Created with sketchtool.</desc>
    <defs>
        <polygon id="path-1" points="28.0141622 23.5687305 28.0141622 0.612576962 0.494837838 0.612576962 0.494837838 23.5687305 28.0141622 23.5687305"></polygon>
    </defs>
    <g id="survey" stroke="none" stroke-width="1" fill="none" fill-rule="evenodd">
        <g id="-Nutrition" transform="translate(-348.000000, -397.000000)">
            <g id="Group-61" transform="translate(175.000000, 308.000000)">
                <g id="Group-60">
                    <g id="Group-11" transform="translate(149.000000, 34.000000)">
                        <g id="vegetarian" transform="translate(24.477477, 55.000000)">
                            <path d="M61.5287892,38.2867568 L5.6768973,66.9294595 C1.7623027,68.9327027 -1.93175135,63.9062162 1.13743784,60.7727027 L15.0406811,46.5937838 C17.5860865,48.3672973 19.552573,49.3689189 20.1314919,48.7624324 C20.6920324,48.1743243 19.6077081,46.2721622 17.7514919,43.837027 L25.0385189,36.3937838 C29.2931135,39.7662162 33.0606811,42.2932432 33.9152757,41.4110811 C34.7423027,40.5564865 32.0314919,36.8716216 28.5396,32.8283784 L34.2001405,27.0575676 C40.0077081,32.0197297 46.5412216,37.0921622 47.6990595,35.8975676 C48.8293297,34.7305405 43.352573,28.2889189 38.3260865,22.8489189 L44.1887892,16.8759459 C47.6255459,13.3748649 53.2768973,13.43 56.6493297,17.0045946 L63.8720324,24.6683784 C67.8141946,28.8586486 66.6471676,35.6586486 61.5287892,38.2867568" id="Fill-1" fill="#E58A2C"></path>
                            <g id="Group-5" transform="translate(57.891892, 0.306643)">
                                <mask id="mask-2" fill="white">
                                    <use xlink:href="#path-1"></use>
                                </mask>
                                <g id="Clip-4"></g>
                                <path d="M0.494837838,15.6621459 L7.00445946,22.8922 C7.00445946,22.8922 27.5965135,26.3069027 28.010027,17.7931189 C28.293973,11.9442 14.4118649,14.8286865 14.4118649,14.8286865 C14.4118649,14.8286865 23.9952703,12.0802 22.2484054,7.0674973 C20.5713784,2.2542 8.83862162,10.7376595 8.83862162,10.7376595 C8.83862162,10.7376595 11.5512703,1.74511892 9.68127027,0.7582 C6.137,-1.11271892 0.494837838,15.6621459 0.494837838,15.6621459" id="Fill-3" fill="#5D8F7A" mask="url(#mask-2)"></path>
                            </g>
                        </g>
                    </g>
                </g>
            </g>
        </g>
    </g>
</svg>