<?xml version="1.0" encoding="UTF-8"?>
<svg width="110px" height="119px" viewBox="0 0 110 119" version="1.1" xmlns="http://www.w3.org/2000/svg" xmlns:xlink="http://www.w3.org/1999/xlink">
    <!-- Generator: sketchtool 45.2 (43514) - http://www.bohemiancoding.com/sketch -->
    <title>58F956B7-BAF5-4BE2-B669-7BC63DE397B8</title>
    <desc>Created with sketchtool.</desc>
    <defs>
        <polygon id="path-1" points="0.357936883 0.305028571 49.4492453 0.305028571 49.4492453 18.0481552 0.357936883 18.0481552 0.357936883 0.305028571"></polygon>
        <polygon id="path-3" points="0 65.6335263 0 0 65.6443816 0 65.6443816 65.6335263"></polygon>
    </defs>
    <g id="survey" stroke="none" stroke-width="1" fill="none" fill-rule="evenodd">
        <g id="-Nutrition" transform="translate(-646.000000, -5140.000000)">
            <g id="Group-75" transform="translate(126.000000, 5078.000000)">
                <g id="Group-54" transform="translate(503.000000, 42.000000)">
                    <path d="M96.5,1 L132.283806,36.135396 L132.283806,4.99626902 C132.283806,2.78919058 130.484758,1 128.283109,1 L96.5,1 Z" id="Path-5" fill="#31729F"></path>
                    <g id="wateryCarbs" transform="translate(16.000000, 20.000000)">
                        <g id="Page-1" transform="translate(53.500000, 19.719971)">
                            <path d="M56.6008538,22.3095857 C55.4218795,32.1210143 51.0616231,39.9701571 42.3557256,45.0507286 C40.8211103,45.9493 39.6811103,46.7313 40.0270077,48.7227286 C40.2852128,50.2235857 39.4082897,50.6850143 38.0149564,50.6801571 C31.5208538,50.6510143 25.0267513,50.6315857 18.5375205,50.6947286 C16.8908538,50.7093 16.3111103,50.0147286 16.530341,48.5090143 C16.7641872,46.9158714 16.0529051,46.1387286 14.6449564,45.3373 C5.57367436,40.1547286 0.852905128,32.2133 0.0198282051,21.8724429 C-0.131197436,19.9441571 0.570341026,19.3418714 2.4947,19.3613 C11.0982897,19.4487286 19.7018795,19.4001571 28.3054692,19.4001571 C36.8262385,19.4001571 45.3518795,19.4875857 53.8677769,19.3418714 C56.2647,19.3030143 56.8541872,20.2015857 56.6008538,22.3095857" id="Fill-1" fill="#AD9385"></path>
                            <g id="Group-5" transform="translate(3.897436, 0.180686)">
                                <mask id="mask-2" fill="white">
                                    <use xlink:href="#path-1"></use>
                                </mask>
                                <g id="Clip-4"></g>
                                <path d="M46.7111103,17.8934714 C46.4723923,16.7957571 46.4918795,15.5620429 45.9511103,14.6537571 C44.8744436,12.8517571 43.1936744,12.2203286 41.1523923,13.1966143 C39.6616231,13.9106143 38.9211103,13.3180429 38.5118795,11.8463286 C37.5618795,8.46575714 35.6423923,7.69347143 32.5000846,9.1749 C31.5744436,9.6169 30.4441872,9.62661429 28.9388026,9.92775714 C29.9375205,7.3389 30.4052128,5.0949 28.1057256,3.88547143 C27.0388026,3.32204286 25.2167513,3.33175714 24.1157256,3.86604286 C21.850341,4.9589 22.3034179,7.18347143 22.8782897,9.35947143 C21.0464949,9.76747143 19.4436744,10.5300429 18.7567513,7.79061429 C18.2939308,5.93032857 15.9554692,5.03175714 14.1870077,5.63404286 C12.3113667,6.27032857 11.2785462,8.10632857 11.7267513,10.0686143 C11.8485462,10.5980429 12.0775205,11.1080429 12.4282897,12.1183286 C11.0057256,12.0406143 9.83162308,12.1280429 8.72085385,11.8900429 C4.55059744,11.0060429 2.72367436,12.8080429 3.60546923,17.0289 C3.65418718,17.2523286 3.59085385,17.4951857 3.57623846,17.7186143 C1.02341795,18.1849 0.419315385,17.7380429 0.360853846,15.3774714 C0.253674359,11.2780429 3.10367436,8.83975714 8.32136667,8.55804286 C11.4685462,2.29718571 14.1967513,1.22861429 19.8675205,4.02632857 C23.5652128,-1.47195714 30.4149564,-0.845385714 32.9141872,5.69232857 C36.3147,5.18232857 39.0672641,6.17804286 40.9331615,9.3109 C41.2157256,9.7869 42.2826487,9.93747143 43.0036744,9.9909 C46.3798282,10.2289 49.0105974,12.5020429 49.3759821,15.6009 C49.6536744,17.9566143 49.2200846,18.3209 46.7111103,17.8934714" id="Fill-3" fill="#D9C38A" mask="url(#mask-2)"></path>
                            </g>
                            <path d="M24.9000846,11.8715857 C22.9611103,16.0341571 17.4267513,18.7444429 13.4075205,17.6078714 C14.4695718,13.7853 20.6664949,10.6038714 24.9000846,11.8715857" id="Fill-6" fill="#8EB5A5"></path>
                            <path d="M33.3380333,15.12592 C31.2577769,17.6370629 27.8036744,18.2976343 24.6418795,16.6607771 C27.1021359,14.0573486 30.7023923,13.4696343 33.3380333,15.12592" id="Fill-8" fill="#8EB5A5"></path>
                            <path d="M38.5508538,13.2947286 C36.2172641,14.9364429 32.4123923,14.0135857 30.1177769,11.1090143 C33.2357256,9.76358571 36.4705974,10.6427286 38.5508538,13.2947286" id="Fill-10" fill="#8EB5A5"></path>
                        </g>
                        <g id="Page-1" transform="translate(3.500000, 0.719971)" fill="#5D8F7A">
                            <path d="M45.8994955,9.48356046 C44.058986,13.084553 39.870451,15.0851044 35.9051006,14.309318 C34.5445911,14.0466502 33.8108331,13.3227866 33.5693045,11.9117106 C32.8447185,7.71818839 34.9665019,3.51244903 38.8462471,1.75929406 C41.6651006,0.4826063 44.6551643,0.0519532509 47.9417885,3.05427698e-05 C47.7277758,3.40860362 47.3884127,6.56978026 45.8994955,9.48356046 Z" id="Fill-1"></path>
                            <g id="Group-5" transform="translate(7.031847, 37.905409)">
                                <path d="M20.3372025,3.31514274 C16.9527439,9.41147953 7.94892229,12.0137235 2.81873121,8.48908789 C1.40013248,7.51477354 -0.16216051,6.40301673 0.100769427,4.420791 C0.403444586,2.1545175 2.25618344,1.18325743 4.23121529,0.651813243 C8.46255287,-0.487432058 12.5868841,0.28530001 16.6194955,1.67194174 C17.8913427,2.10870335 19.089814,2.75926434 20.3372025,3.31514274" id="Fill-3"></path>
                            </g>
                            <g id="Group-8" transform="translate(0.000000, 20.190603)">
                                <path d="M9.34306242,16.5035106 C9.20242548,17.5266934 8.48701146,18.5712561 7.78076943,19.3898023 C6.51197962,20.8619638 4.86408153,20.9261036 3.32013248,19.7471527 C1.35732994,18.250557 0.168030573,16.2103 0.0304509554,13.8004755 C-0.287510828,8.17449736 1.88318981,3.65416748 6.57006879,0.251702963 C8.35248917,3.13188612 9.37363567,6.21365156 9.66408153,9.43896802 C9.87503694,11.7724356 9.65796688,14.1730973 9.34306242,16.5035106" id="Fill-6"></path>
                            </g>
                            <path d="M19.9489529,23.1392327 C19.6309911,25.8605935 18.6006726,28.2062781 16.5002904,30.0510614 C15.3996535,31.0131587 14.4396535,31.0803528 13.296214,30.0724414 C11.4006726,28.4048061 10.171628,26.3553863 10.1257682,23.8753134 C10.0248764,18.3318008 12.0610548,13.7961995 17.1148127,10.6502943 C19.6707363,14.5811487 20.4656408,18.7074768 19.9489529,23.1392327" id="Fill-9"></path>
                            <path d="M37.3176153,30.6802425 C35.3548127,34.910416 29.136214,38.1876552 24.2811822,37.6806452 C21.7405452,37.4149231 19.6248764,36.4070117 17.9433478,34.4553288 C16.9711185,33.3283006 17.0414369,32.3264977 18.0136662,31.2513923 C19.771628,29.3119264 22.0157045,28.3223407 24.5379975,27.9802617 C29.1086981,27.3632977 33.3950675,28.1726811 37.3176153,30.6802425" id="Fill-11"></path>
                            <path d="M46.3489223,17.1284157 C46.2877758,21.2303096 41.8057376,26.0407958 37.4368204,26.8562877 C34.5079032,27.4030033 31.7685401,27.0151101 29.3043363,25.2741723 C27.9040815,24.2876408 27.6472662,23.3102722 28.2984764,21.7189939 C29.1117248,19.7245511 30.7626803,18.6555541 32.6796229,17.9897218 C37.1555465,16.4381491 41.7415338,16.5664287 46.3489223,17.1284157" id="Fill-13"></path>
                            <path d="M30.0839541,15.1522985 C29.4480306,17.0887101 28.2495592,18.6708255 26.3051006,19.5260231 C24.5777121,20.2895923 23.5259924,20.0238702 22.5445911,18.411212 C20.2607694,14.6605599 20.4839541,10.8518765 22.6332535,7.15620143 C24.2994955,4.2851811 27.5494318,2.23881554 31.080642,1.66461148 C31.7410242,6.30100388 31.5147822,10.7816282 30.0839541,15.1522985" id="Fill-15"></path>
                        </g>
                        <g id="Page-1" transform="translate(35.721577, 91.221577) rotate(86.000000) translate(-35.721577, -91.221577) translate(2.721577, 58.221577)">
                            <mask id="mask-4" fill="white">
                                <use xlink:href="#path-3"></use>
                            </mask>
                            <g id="Clip-2"></g>
                            <path d="M5.35260017,35.2153726 C5.59810426,31.4184895 7.00903308,28.4185694 10.4193603,26.6025795 C11.4223493,26.0683922 12.4208148,25.5235129 13.4447766,25.0320935 C14.3540053,24.5970126 15.3360216,24.7339521 16.2489514,24.9638294 C19.3730628,25.7505117 22.4716779,26.6371227 25.5937332,27.4324408 C27.4331633,27.9012426 29.2878089,28.3260428 31.156025,28.6566714 C31.9287255,28.7931996 32.7779146,28.7426184 33.5506151,28.5793602 C34.71275,28.3346786 35.085324,27.2720613 34.2562851,26.4257507 C33.4597333,25.613161 32.5106154,24.8947429 31.5125611,24.3465738 C28.2675482,22.5643046 24.7692178,21.5329407 21.0800769,21.1990223 C19.5675744,21.0620828 18.0616515,21.1138977 16.6058987,21.9589746 C16.774914,19.3871446 17.6660486,17.3272954 19.914241,16.0158842 C21.2585506,15.2316693 22.7628285,14.9327054 24.251891,14.5848051 C25.3741366,14.3224406 26.5058405,14.1303964 27.5182878,13.4806536 C27.8583747,13.2627019 28.4612373,13.300535 28.8954958,13.411567 C31.1564363,13.9881109 33.3918805,14.6637612 35.6544658,15.2320805 C37.8549555,15.7847731 40.0686045,16.2951091 42.2958241,16.7236103 C42.9784653,16.8552038 43.7470535,16.7478729 44.4370968,16.5842035 C45.6115686,16.3066235 45.8833913,15.3365328 44.9445541,14.5946746 C43.9835105,13.835956 42.9143135,13.1553709 41.7937128,12.6672414 C38.7193602,11.3274553 35.5167039,10.4626394 32.1166574,10.5736714 C31.8896587,10.5814848 31.6622487,10.6028687 31.4381285,10.6390569 C31.2164758,10.6748339 30.9985241,10.7369296 30.7702916,10.789567 C31.3990617,8.75356911 34.2916509,6.46096399 36.4674668,6.25740533 C36.7763002,6.22903049 37.0913021,6.12827923 37.3910885,6.16364498 C39.3193442,6.39228864 41.0333492,5.68291755 42.7905334,5.05373624 C45.829109,3.96685636 48.9532204,3.3010756 52.2142713,3.51285886 C55.6320007,3.73492285 58.5254123,5.083756 60.8714772,7.56881658 C62.182066,8.95712777 62.3519039,10.6633195 62.0290886,12.4468223 C61.5824932,14.9129663 60.4166573,17.0850812 59.1179941,19.1807073 C56.1818147,23.9176613 52.5761534,28.1364659 48.8068227,32.2125739 C41.4651403,40.1517729 33.8520464,47.8212053 25.7142235,54.9519269 C21.9745013,58.2286045 18.1048306,61.345725 13.6952154,63.7045381 C12.1444685,64.5343994 10.5336821,65.2277326 8.7740306,65.5254628 C6.41562874,65.9243555 4.52191634,65.2256764 3.0106475,63.3418335 C1.0071368,60.8436136 0.164938541,57.955548 0.024709241,54.8281468 C-0.173092205,50.410307 0.828663144,46.2021943 2.41888808,42.1199179 C2.88275509,40.9298194 3.51645993,39.8067513 4.02679588,38.6331019 C4.25091603,38.1178312 4.58730185,37.9718447 5.09804904,38.0503896 C6.61014035,38.2827343 8.12552149,38.4924614 9.63514542,38.7404329 C12.4718073,39.2071785 15.3039457,39.7273839 18.1928338,39.7092898 C18.8471001,39.7051775 19.5182268,39.6208755 20.1502868,39.4547387 C21.2914489,39.1541299 21.5233824,38.4052807 20.6330703,37.6346364 C19.7374122,36.8594686 18.7245537,36.1825846 17.6746845,35.6307145 C15.6983149,34.5923597 13.5545749,34.0260965 11.3290002,33.840632 C9.22679441,33.6650369 7.20189977,33.9315137 5.35260017,35.2153726" id="Fill-1" fill="#C0AE9C" mask="url(#mask-4)"></path>
                        </g>
                    </g>
                </g>
            </g>
        </g>
    </g>
</svg>