<?xml version="1.0" encoding="UTF-8"?>
<svg width="97px" height="99px" viewBox="0 0 97 99" version="1.1" xmlns="http://www.w3.org/2000/svg" xmlns:xlink="http://www.w3.org/1999/xlink">
    <!-- Generator: sketchtool 45.2 (43514) - http://www.bohemiancoding.com/sketch -->
    <title>5F020A6D-CE56-4AFB-8CB7-8D7268B29CD7</title>
    <desc>Created with sketchtool.</desc>
    <defs>
        <rect id="path-1" x="0" y="0" width="132" height="179" rx="4"></rect>
        <polygon id="path-2" points="2.26004894e-20 0.0658358974 2.26004894e-20 41.3219373 38.0070181 41.3219373 38.0070181 0.0658358974"></polygon>
    </defs>
    <g id="survey" stroke="none" stroke-width="1" fill="none" fill-rule="evenodd">
        <g id="Body-" transform="translate(-498.000000, -5365.000000)">
            <g id="Group-92" transform="translate(176.000000, 5308.000000)">
                <g id="Group-73" transform="translate(0.000000, 0.400000)">
                    <g id="Group-70" transform="translate(304.000000, 34.000000)">
                        <g id="Rectangle-15-Copy">
                            <use fill="#FFFFFF" fill-rule="evenodd" xlink:href="#path-1"></use>
                            <rect stroke="#D9D9D9" stroke-width="1" x="0.5" y="0.5" width="131" height="178" rx="4"></rect>
                        </g>
                        <g id="Page-1" transform="translate(18.000000, 23.000000)">
                            <g id="Group-3" transform="translate(17.787966, 16.550274)" fill="#1F6DA3">
                                <path d="M45.0776232,19.2690336 C44.8422106,19.5267373 44.6326461,19.7336262 44.4489298,19.9611761 C39.9182794,25.5731419 35.3979126,31.1934838 30.8489183,36.7903726 C30.4078324,37.3331419 30.3803166,37.6790735 30.8044484,38.2547886 C34.2775487,42.9680023 37.724245,47.7007601 41.1562106,52.4444068 C42.485861,54.2826746 43.4172278,56.2739453 43.3908238,58.6312501 C43.3708123,60.4097687 42.7537923,61.9400764 41.6587206,63.2852729 C40.4238467,64.8024581 38.9254885,66.0055407 37.1425229,66.8241618 C31.1299126,69.584914 25.1192479,72.3506917 19.0977436,75.0918997 C15.7291476,76.625837 12.2160244,75.100555 11.2816003,71.7384011 C10.5631332,69.1521504 11.8566519,66.4578484 14.2994398,65.3823613 C19.5004742,63.092065 24.6945602,60.7858541 29.8900358,58.4827145 C30.1326748,58.3752217 30.3603052,58.2336661 30.6885487,58.0574895 C30.4336805,57.7241219 30.2277292,57.4401732 30.0070473,57.1685094 C25.991692,52.2269083 21.9635516,47.2956376 17.9634828,42.3414724 C16.4792994,40.5032046 15.1874484,38.543763 14.5673711,36.2113071 C13.7860903,33.2738199 14.6201791,30.7269368 16.2308238,28.257951 C19.973245,22.5211818 23.6242249,16.724384 27.3096691,10.9502017 C27.3552507,10.8790051 27.3663682,10.7851932 27.4175086,10.6288399 C27.2743711,10.5864011 27.1473539,10.5182758 27.018947,10.5152046 C25.0936777,10.4694154 23.1675745,10.4060365 21.2417493,10.4127373 C20.7906576,10.4144125 20.2789756,10.5635066 19.8993138,10.8080877 C15.8986891,13.3848456 11.9233567,16.0018085 7.9310702,18.5919681 C6.66145415,19.4153356 5.37154871,20.1881675 3.73644556,19.7970051 C1.90345129,19.3583783 0.779474212,18.1837744 0.385359599,16.3929709 C0.00847707736,14.6817402 0.552955587,13.2195578 2.02574355,12.1979567 C5.83848281,9.55363191 9.66261748,6.92605926 13.478692,4.28592251 C14.1226719,3.84059487 14.7866633,3.41257778 15.3742221,2.89912479 C16.7513997,1.69576296 18.3498152,1.12758632 20.1500129,1.03265755 C23.6025458,0.850896866 27.0548009,0.660760114 30.5062221,0.459734473 C32.1866289,0.362013675 33.8639785,0.155124786 35.5446633,0.132230199 C39.840457,0.0738769231 43.5987206,1.73122165 46.9873281,4.1873641 C51.1180272,7.18125014 54.059712,11.3209823 57.1159069,15.3328399 C58.3974742,17.0153128 57.8513281,16.8743157 59.813563,16.0015293 C63.852543,14.2045835 67.8609499,12.3381162 71.916884,10.5816547 C72.8810473,10.1639681 73.9961304,9.82082849 75.0194943,9.87471453 C77.1123596,9.98472023 78.2952593,11.4293128 78.8027722,13.3477117 C79.3244599,15.3194382 78.7299527,17.0457459 77.221033,18.4222131 C76.9355917,18.6824296 76.5887264,18.8856889 76.2457521,19.069404 C71.4174312,21.6559339 66.5863309,24.237159 61.7530072,26.8139168 C60.3524828,27.5607829 58.8866433,28.0407316 57.2668266,27.9505493 C56.1784255,27.8896832 55.219543,27.5579909 54.3715573,26.8588684 C51.533543,24.5185949 48.684967,22.1911647 45.8394484,19.860384 C45.6107063,19.6730393 45.3727923,19.4974211 45.0776232,19.2690336" id="Fill-1"></path>
                            </g>
                            <g id="Group-6" transform="translate(0.000000, 56.476199)">
                                <mask id="mask-3" fill="white">
                                    <use xlink:href="#path-2"></use>
                                </mask>
                                <g id="Clip-5"></g>
                                <path d="M30.2267287,0.0658358974 C32.2737344,4.06149972 35.3115854,7.11206382 38.0070181,10.4985083 C35.6231527,12.9286849 33.2865367,15.3214484 30.9385252,17.7024855 C23.8664192,24.8743544 16.7854192,32.0375681 9.71998367,39.2161379 C8.67382894,40.279061 7.50176877,41.0111293 6.00202092,41.2612946 C3.19291203,41.729796 0.235106877,39.423306 0.0213733524,36.555061 C-0.114259885,34.7371749 0.384081089,33.2342291 1.70483754,31.8915453 C6.5267659,26.9893117 11.3648146,22.097967 16.0230381,17.0404969 C19.083402,13.7174313 21.8444278,10.1154427 24.7408089,6.63965356 C26.5337802,4.4881208 28.3298089,2.33910085 30.2267287,0.0658358974" id="Fill-4" fill="#1F6DA3" mask="url(#mask-3)"></path>
                            </g>
                            <path d="M75.9712338,8.23965014 C75.9681765,12.4447157 72.1951822,16.7860319 67.9463599,17.6456957 C63.175016,18.6114564 59.3002968,15.249861 58.4039501,11.0369778 C57.2068756,5.41021425 61.1769272,0.201974929 66.9121564,0.0056957265 C72.3377639,-0.180252991 76.1560619,4.24929117 75.9712338,8.23965014" id="Fill-7" fill="#1F6DA3"></path>
                        </g>
                    </g>
                </g>
            </g>
        </g>
    </g>
</svg>