<?xml version="1.0" encoding="UTF-8"?>
<svg width="90px" height="96px" viewBox="0 0 90 96" version="1.1" xmlns="http://www.w3.org/2000/svg" xmlns:xlink="http://www.w3.org/1999/xlink">
    <!-- Generator: sketchtool 45.2 (43514) - http://www.bohemiancoding.com/sketch -->
    <title>7ABEEEEB-0195-4975-884F-A31C649E005E</title>
    <desc>Created with sketchtool.</desc>
    <defs>
        <rect id="path-1" x="0" y="0" width="132" height="179" rx="4"></rect>
        <polygon id="path-2" points="31.2817334 60.2929902 4.22837045e-05 60.2929902 4.22837045e-05 0.168935872 31.2817334 0.168935872"></polygon>
    </defs>
    <g id="survey" stroke="none" stroke-width="1" fill="none" fill-rule="evenodd">
        <g id="Body-" transform="translate(-198.000000, -5361.000000)">
            <g id="Group-92" transform="translate(176.000000, 5308.000000)">
                <g id="Group-73" transform="translate(0.000000, 0.400000)">
                    <g id="Group-72" transform="translate(1.000000, 34.000000)">
                        <g id="Rectangle-15">
                            <use fill="#EDEDED" fill-rule="evenodd" xlink:href="#path-1"></use>
                            <rect stroke="#EEEEEE" stroke-width="1" x="0.5" y="0.5" width="131" height="178" rx="4"></rect>
                        </g>
                        <g id="Group-56" transform="translate(96.000000, 0.000000)" fill="#31729F">
                            <path d="M0,5.28252688e-26 L35.7838061,35.135396 L35.7838061,3.99626902 C35.7838061,1.78919058 33.9847584,-3.65926265e-27 31.7831086,-1.43492963e-42 L0,5.28252688e-26 Z" id="Path-5"></path>
                        </g>
                        <g id="Page-1" transform="translate(21.000000, 19.000000)">
                            <path d="M27.5911739,26.7169776 C27.157913,26.3687148 26.7063913,26.0409125 26.2946522,25.669142 C23.9683478,23.5695529 20.8113913,23.613521 18.8433478,25.784504 C16.8976957,27.9308909 17.045087,31.0974701 19.4059565,33.1237063 C21.1811739,34.6473559 23.1613913,35.9391931 25.1031304,37.255844 C25.6937826,37.6565638 25.8285652,37.9380037 25.5898696,38.6301759 C23.8770435,43.5974912 23.855087,48.6216168 25.1970435,53.7304138 C27.9009565,53.9844279 30.5863913,54.2369184 33.329,54.4946329 L33.329,65.8003304 C29.7924783,65.7217536 26.295087,65.5750479 22.7983478,65.592461 C20.7105217,65.6026912 18.6196522,65.8273207 16.5376957,66.0310544 C10.5905217,66.6124356 5.61813043,62.0956853 5.5366087,56.1251556 C5.42073913,47.6131784 7.12247826,39.5591668 11.6609565,32.294188 C13.2198696,29.7988853 15.1357391,27.4755374 17.1683478,25.3409043 C20.032913,22.3319141 25.177913,22.904371 27.5320435,26.2703306 C27.6046522,26.3741564 27.6494348,26.4973544 27.7070435,26.6114104 C27.6683478,26.646672 27.6298696,26.681716 27.5911739,26.7169776" id="Fill-1" fill="#1F6DA3"></path>
                            <path d="M82.4773913,54.4674684 L36.9543478,54.4674684 L36.9543478,55.8598664 C36.9541304,68.1896741 36.9545652,80.5196994 36.9528261,92.8495071 C36.9526087,94.3335417 36.7302174,94.5137677 35.2482609,94.4715409 C34.3654348,94.4460741 34.0345652,94.0331651 34.0447826,93.1805743 C34.0684783,91.2226846 34.0521739,89.2643596 34.0521739,87.3058169 L34.0521739,51.0777834 L34.0521739,49.6740668 C33.1895652,49.6740668 32.4393478,49.6795084 31.6891304,49.6725432 C30.9415217,49.6655779 30.551087,49.2898895 30.5508696,48.5302413 C30.5508696,48.0951306 30.5528261,47.6598021 30.5502174,47.2246913 C30.545,46.4145451 31,46.0484339 31.7543478,45.9855289 C32.0063043,45.9646331 32.261087,45.979652 32.5145652,45.979652 C50.8778261,45.979652 69.2406522,45.979652 87.6036957,45.9798696 C89.4836957,45.9798696 90.3386957,47.2595176 89.5326087,48.9853772 C89.3791304,49.3142679 88.8280435,49.6057203 88.433913,49.6442468 C87.4676087,49.7384954 86.4858696,49.6749375 85.3245652,49.6749375 L85.3245652,50.9709103 C85.3245652,64.9327643 85.3247826,78.8944006 85.3241304,92.8562546 C85.323913,94.3024158 85.1595652,94.4330143 83.8217391,94.4754588 C82.7865217,94.5085438 82.4552174,94.1091299 82.4578261,93.0658653 C82.4882609,80.6635755 82.4773913,68.2610679 82.4773913,55.8585604 L82.4773913,54.4674684 Z" id="Fill-3" fill="#967674"></path>
                            <path d="M30.1219565,6.52992673e-05 C36.8473913,0.00615989755 42.0741304,5.31041938 42.0636957,12.1180857 C42.0536957,18.5986026 36.6554348,23.942477 30.1223913,23.9394297 C23.4954348,23.9361647 18.151087,18.5587701 18.1586957,11.9015098 C18.166087,5.32630887 23.5263043,-0.00602929902 30.1219565,6.52992673e-05" id="Fill-5" fill="#1F6DA3"></path>
                            <path d="M55.157413,43.0180908 L56.3137174,43.0180908 C61.1287174,43.0183084 65.9437174,43.0178731 70.7587174,43.0196144 C71.3385,43.0198321 71.9356739,42.9688986 72.1826304,43.7019917 C72.4832826,44.5926738 71.9561087,45.2630796 70.8806739,45.2661269 C66.9708913,45.2763571 63.0608913,45.2704801 59.1511087,45.2704801 C56.1461087,45.2706978 53.1413261,45.2706978 50.1365435,45.2704801 C48.1958913,45.2702625 48.1958913,45.2702625 48.077413,43.4057507 C45.7271957,43.0918789 43.3565435,42.8705144 41.0226304,42.4465045 C33.6285,41.1030809 26.8117609,38.3835841 20.8691522,33.6798602 C19.3661087,32.4898899 18.0061087,31.2041473 18.1298043,29.0316407 C18.2315435,27.2428761 19.069587,25.9307961 20.6552391,25.1498169 C22.2906739,24.3442416 23.9682826,24.4413199 25.3402391,25.620407 C32.3737174,31.6655955 40.7261087,33.9242971 49.7535,34.3069508 C50.9061087,34.3557076 52.0665435,34.2775662 53.2150217,34.3657202 C55.1954565,34.5176498 56.7652391,35.837348 57.2335,37.6326425 C57.7215435,39.5047725 57.0682826,41.3235748 55.4756739,42.5259519 C55.3635,42.6106233 55.2506739,42.6946417 55.1380652,42.7788778 C55.1443696,42.8587605 55.1508913,42.9384256 55.157413,43.0180908" id="Fill-7" fill="#1F6DA3"></path>
                            <g id="Group-11" transform="translate(0.000000, 34.684141)">
                                <mask id="mask-3" fill="white">
                                    <use xlink:href="#path-2"></use>
                                </mask>
                                <g id="Clip-10"></g>
                                <path d="M15.815913,53.8648867 C15.0143913,53.7079508 14.0893913,54.1585158 13.2256957,54.3494073 C10.5250435,54.9464603 7.82656522,55.5528728 5.44026087,56.0859325 C5.64982609,57.0162294 6.07243478,57.8940692 5.97895652,58.7127044 C5.83808696,59.9481665 4.47613043,60.5739511 3.30308696,60.1719253 C2.20873913,59.7964545 1.61765217,58.5457559 2.06026087,57.4356683 C2.24482609,56.9724789 2.32765217,56.634011 2.1096087,56.0944214 C1.67069565,55.0087122 2.09895652,54.3837983 3.25373913,54.0457657 C6.71656522,53.0323211 10.1837391,52.0330246 13.6367826,50.9873657 C13.9639565,50.8881108 14.447,50.5032805 14.4493913,50.2473073 C14.4967826,44.9212814 14.4850435,39.5943849 14.4850435,34.1181706 L13.2713478,34.1181706 C9.432,34.1181706 5.59265217,34.115994 1.75330435,34.119912 C0.978086957,34.120565 0.171782609,34.1978358 0.0222173913,33.1210508 C-0.118217391,32.1102182 0.414608696,31.6476817 1.44352174,31.5549567 L1.44352174,30.3312485 C1.44352174,27.0673734 1.44395652,23.8034984 1.44308696,20.5394057 C1.44286957,19.8733531 1.57569565,19.1885815 0.808956522,18.7502057 C0.616782609,18.6402853 0.561347826,18.1692599 0.560478261,17.8640947 C0.546347826,12.4242304 0.54526087,6.9843661 0.554826087,1.5445018 C0.556347826,0.571325056 1.03569565,0.196289598 2.2043913,0.170822883 C3.59069565,0.14078522 4.11352174,0.464451922 4.117,1.49422137 C4.13547826,6.97021792 4.12852174,12.4464321 4.11613043,17.9226464 C4.11547826,18.1973386 4.0646087,18.6311434 3.89504348,18.7203857 C2.967,19.2083889 3.18308696,20.0389956 3.182,20.805609 C3.17678261,24.3565832 3.1796087,27.9075573 3.1796087,31.6237386 L4.6293913,31.6237386 C12.7428696,31.6237386 20.8561304,31.6237386 28.9696087,31.6239563 C29.2954783,31.6239563 29.6215652,31.6237386 29.9474348,31.6278743 C30.8200435,31.6394105 31.3222174,32.0438306 31.2791739,32.956932 C31.2387391,33.8114818 30.7493913,34.1305775 29.913087,34.1262242 C26.1463478,34.1070698 22.3793913,34.1181706 18.6124348,34.1181706 L17.3487391,34.1181706 C17.3235217,34.4873292 17.2841739,34.799242 17.2837391,35.1113725 C17.2800435,40.0434262 17.3006957,44.9759152 17.2611304,49.9075335 C17.2548261,50.7063612 17.5002609,51.0343812 18.263087,51.2468215 C21.5298261,52.1573109 24.7778696,53.1354939 28.0333043,54.0875572 C29.2193913,54.434514 29.515913,55.1101438 29.0606957,56.2798713 C28.9539565,56.5539106 28.9606957,56.9383056 29.0637391,57.2166981 C29.4815652,58.3459401 29.1983043,59.4048766 28.2606957,59.9825574 C27.4239565,60.4984216 26.2474348,60.3121011 25.5893913,59.5605065 C24.8761304,58.746007 24.9054783,57.585639 25.6641739,56.7006163 C25.7998261,56.5423744 25.9437391,56.3910977 26.1215652,56.1951999 C22.6341739,55.3891893 19.2428696,54.5357279 15.815913,53.8648867 Z" id="Fill-9" fill="#8F9588" mask="url(#mask-3)"></path>
                            </g>
                            <path d="M37.7235435,55.3634179 C43.2291957,56.2606298 45.9748478,59.4317799 46.4176739,65.1389358 C46.8939783,71.2761963 46.3889783,77.3718829 45.8241957,83.4697462 C45.6705,85.1279122 45.4841957,86.7832487 45.3235435,88.4407617 C44.9946304,91.834147 41.3861522,93.8416641 38.4128913,92.2359551 C38.0505,92.040275 37.6518043,91.4926318 37.6505,91.1067131 C37.6133261,79.3210661 37.6235435,67.5352013 37.6300652,55.7493365 C37.6300652,55.6461637 37.6785435,55.5432085 37.7235435,55.3634179" id="Fill-12" fill="#1F6DA3"></path>
                            <path d="M71.11,41.7928806 C71.6652174,38.4441165 72.2163043,35.0944818 72.7767391,31.7465883 C73.4093478,27.9705494 74.0517391,24.196034 74.6867391,20.4206481 C74.8008696,19.7421887 74.9452174,19.1087858 75.8541304,19.1836623 C76.6854348,19.2522265 77.1006522,19.623344 76.948913,20.5229503 C75.7430435,27.6812736 74.5519565,34.8422089 73.3447826,42.0005323 C73.2328261,42.6657141 72.9152174,43.153935 72.106087,43.0472795 C71.3578261,42.9486776 71.0213043,42.5499168 71.11,41.7928806" id="Fill-14" fill="#1F6DA3"></path>
                        </g>
                    </g>
                </g>
            </g>
        </g>
    </g>
</svg>