<?xml version="1.0" encoding="UTF-8"?>
<svg width="95px" height="97px" viewBox="0 0 95 97" version="1.1" xmlns="http://www.w3.org/2000/svg" xmlns:xlink="http://www.w3.org/1999/xlink">
    <!-- Generator: sketchtool 45.2 (43514) - http://www.bohemiancoding.com/sketch -->
    <title>EF325DC0-0A15-4704-ABB0-5BE86F8EBBF7</title>
    <desc>Created with sketchtool.</desc>
    <defs></defs>
    <g id="survey" stroke="none" stroke-width="1" fill="none" fill-rule="evenodd">
        <g id="Body-" transform="translate(-500.000000, -4865.000000)">
            <g id="Group-93" transform="translate(176.000000, 4786.000000)">
                <g id="Group-74">
                    <g id="Group-63" transform="translate(305.000000, 34.000000)">
                        <g id="withFamily" transform="translate(19.000000, 45.000000)">
                            <g id="Group-3" transform="translate(0.000000, 20.368611)" fill="#1F6DA3">
                                <path d="M76.4886696,22.1387826 C76.5003469,21.5331251 76.013127,21.0277675 75.3885452,20.9978318 C74.7381504,20.9665073 74.2016093,21.4689331 74.1937732,22.1160994 C74.1867053,22.7154304 74.7590466,23.2846713 75.3691854,23.2848256 C75.9146382,23.2851343 76.4776069,22.7086408 76.4886696,22.1387826 M76.488055,18.6474175 C76.479297,18.0409884 75.9599645,17.5249835 75.3502866,17.5171138 C74.7066524,17.5089355 74.1661164,18.0627457 74.1945414,18.7014251 C74.2220445,19.315261 74.7442963,19.7965466 75.3659588,19.7809616 C75.9931526,19.7652222 76.496813,19.2564698 76.488055,18.6474175 M75.3432188,26.8826631 C75.9817826,26.8778796 76.508183,26.3313218 76.4832919,25.6985061 C76.4599373,25.1059647 75.9200159,24.5814729 75.3347681,24.5825531 C74.7295461,24.5834789 74.1759499,25.166299 74.1953097,25.7822952 C74.2132866,26.3603317 74.7628878,26.8869837 75.3432188,26.8826631 M75.4017589,14.5993103 C75.4842683,14.5834166 75.5664703,14.5673686 75.648826,14.5514749 C75.8384284,13.2869236 76.0292601,12.0226809 76.2167114,10.7579753 C76.4086186,9.46425987 76.4706927,8.13397351 76.8223945,6.88593314 C77.1899221,5.58110755 76.627568,4.85154092 75.6892356,4.19773935 C75.5698506,4.11456752 75.4203504,4.00809524 75.2919002,4.01689077 C74.827113,4.04836954 73.7703175,5.49484956 73.853595,5.96564224 C74.2466283,8.18659242 74.6448856,10.4064625 75.0425284,12.6264868 C75.1602233,13.2844547 75.281913,13.941651 75.4017589,14.5993103 M71.2643078,76.2279389 L69.5741725,76.2279389 C68.8477217,75.8193322 68.045522,75.5036187 67.4111067,74.9820588 C66.2106497,73.9949527 65.9409963,72.5938391 65.9436083,71.0925799 C65.9655801,58.9806629 65.9723406,46.8689001 65.9758745,34.7568288 C65.9760282,34.3514626 65.9067327,33.9440903 65.8478852,33.5408844 C65.6598193,32.2519525 65.3254798,30.9682671 65.2936745,29.676249 C65.2134699,26.4124876 65.269859,23.1451772 65.2635594,19.8794098 C65.2629448,19.5856081 65.2051729,19.2918063 65.1739822,18.9980045 C64.4111166,21.0492162 63.8108113,23.0885463 63.2644366,25.142227 C62.7497136,27.0758563 62.2906114,29.0247621 61.8087692,30.9673412 C61.5776816,31.898588 61.0915373,32.6414251 60.2993248,33.2032592 C60.1157146,33.3334949 59.9898764,33.6563065 59.9765089,33.898261 C59.9225783,34.8705535 60.0047803,35.8554993 59.888161,36.8177619 C59.5753323,39.3959344 58.3163352,41.3085778 55.7605433,42.1145267 C54.9273066,42.3773127 54.019704,42.4020019 53.1263907,42.5388728 C52.9636768,46.7838766 53.0340478,51.0302692 52.7557901,55.2876176 C52.3790436,61.0483855 52.631642,66.8537484 52.702474,72.6390513 C52.723063,74.3162213 52.2094155,75.5193581 50.6753872,76.2279389 L49.2925493,76.2279389 C47.6589567,75.5141116 47.1955524,74.221322 47.2205971,72.5035691 C47.2894317,67.8025862 47.2464101,63.1000602 47.2393422,58.3979971 C47.2388813,58.1035781 47.1671274,57.8091591 47.1285616,57.5147401 C47.0411355,57.5170547 46.9537094,57.5190607 46.8662833,57.5215296 C46.837551,57.7999006 46.7839276,58.0787346 46.7836203,58.3572599 C46.7788572,63.1107074 46.7539661,67.864155 46.7952976,72.6171396 C46.8097406,74.2924579 46.3255937,75.5770692 44.6830895,76.2279389 L43.3002515,76.2279389 C42.187067,75.6011412 41.3211031,74.8152522 41.3128061,73.3913011 C41.2667115,65.4828791 41.5142395,57.5715253 40.9763155,49.6674239 C40.8317321,47.5433789 40.9546511,45.400817 40.9548047,43.2664334 L40.9548047,42.4183585 C40.5722196,42.4183585 40.272451,42.4334807 39.9745263,42.4160439 C37.752613,42.2856539 35.9948723,41.3767818 34.9110346,39.3493334 C34.0705765,37.7769384 33.9319854,36.0724559 34.0346227,34.3397352 C34.0702692,33.7376267 34.0605893,33.2797959 33.4650471,32.9012792 C33.08154,32.657473 32.7029497,32.201031 32.5924764,31.7698954 C32.3354221,30.7672042 32.1332205,29.7253188 32.1024908,28.6936178 C32.0063067,25.4783091 31.9018256,22.2691726 30.97978,19.1580215 C30.8038523,18.5648629 30.4859532,18.0139845 30.1591425,17.2753137 C30.0446743,17.5845463 29.9779907,17.6779024 29.9810637,17.7690983 C30.0558906,20.0965207 29.7811668,22.4256406 30.3132521,24.7493597 C31.5445925,30.1268274 32.7014133,35.5217319 33.8440983,40.9192596 C34.4179761,43.6304452 34.9386914,46.3549013 35.4024031,49.0872271 C35.7688551,51.2466085 35.2817889,51.9693856 33.2058418,52.5984979 C32.1075612,52.931031 30.999447,53.2533797 29.8742779,53.4661699 C29.2075964,53.5922393 29.0043192,53.8409832 29.008314,54.5173137 C29.0365854,59.1456177 29.0244471,63.7739218 29.0209132,68.4023801 C29.0199913,69.6365328 29.0522576,70.8730001 28.982962,72.1036037 C28.8910801,73.7338641 28.1156153,74.9769667 26.6622526,75.754523 C26.3291423,75.9327483 25.9751358,76.0713166 25.6306555,76.2279389 L23.9405203,76.2279389 C21.1249085,75.3209184 20.1592267,73.3143016 20.2203789,70.4447963 C20.3283939,65.3842765 20.250955,60.3197447 20.2511086,55.256756 C20.2512623,54.9581707 20.2511086,54.6597397 20.2511086,54.3552907 L19.3882177,54.3552907 C19.3882177,54.954313 19.3860667,55.5146041 19.388525,56.0748953 C19.4101895,61.111806 19.425708,66.1490253 19.4581279,71.1860903 C19.4714953,73.271867 18.6987962,74.8721918 16.7577527,75.790631 C16.4396999,75.9412352 16.1174987,76.0824268 15.7971412,76.2279389 L14.107006,76.2279389 C12.8217349,75.7531342 11.6460154,75.1001042 11.2002806,73.7070146 C10.9393852,72.8919615 10.7840464,72.0062355 10.7783614,71.1509082 C10.7419466,65.5711431 10.7533166,59.9910694 10.7689888,54.4109957 C10.7705253,53.8596545 10.6391557,53.6153854 10.0471474,53.4899333 C8.75173553,53.2152657 7.46999841,52.8565004 6.20516263,52.4597754 C4.62165953,51.9632133 4.10985584,51.1436853 4.36506627,49.5188256 C4.67159534,47.5674509 4.98411672,45.6139159 5.39159297,43.681984 C6.68930956,37.530509 7.96290331,31.3720902 9.39076031,25.2503966 C9.98799266,22.6898153 9.76074629,20.1477509 9.78302535,17.5902557 C9.78317899,17.5644863 9.7080448,17.538254 9.57406317,17.4512245 C9.5362656,17.5214345 9.48632978,17.6107786 9.44008154,17.7019744 C9.35895504,17.8616828 9.27291179,18.0193853 9.20146516,18.1835686 C8.210124,20.461767 8.02559196,22.9044573 7.8264633,25.3310996 C7.68787221,27.0198426 7.75394113,28.7244794 7.63885828,30.4158456 C7.459243,33.0589816 4.51564195,34.6532884 2.18156515,33.4236106 C0.64600043,32.6147298 0.0980893051,31.2699385 0.0300229483,29.6152975 C-0.0975054402,26.5171082 0.185669042,23.453021 0.780443008,20.4194867 C1.30638237,17.7371566 2.17142433,15.1487998 3.425812,12.7278669 C4.83553847,10.0069599 6.62877199,7.55686285 8.87511541,5.4351325 C11.2334687,3.20770139 13.8710016,1.45800681 16.8567024,0.217836127 C17.2538842,0.0528812359 17.5241522,0.026340318 17.8374418,0.417355934 C18.4398982,1.16914286 19.1154914,1.86182996 19.7944648,2.61654874 C20.6246285,1.77495475 21.286086,1.13658395 21.9074412,0.461025003 C22.2253403,0.115375839 22.4920743,0.024951549 22.9596272,0.219842126 C25.3394913,1.21111455 27.5243753,2.51285399 29.5119743,4.15993398 C33.3296826,7.32370398 36.0617095,11.2639501 37.7544568,15.9146288 C39.382518,20.3876993 39.9316583,25.0349831 39.7468189,29.7802524 C39.7056411,30.8352539 39.4707123,31.8090895 38.7166047,32.6046998 C38.5664899,32.7631738 38.4134559,32.9869199 38.3964009,33.1919948 C38.3194229,34.1110512 38.1972722,35.0410635 38.2641094,35.9545649 C38.4137632,38.003462 39.8041299,38.6893596 41.5833814,37.6592016 C41.8049428,37.5308176 42.0168243,37.3856141 42.2363882,37.2535268 C43.0662446,36.7548044 43.896101,36.2562363 44.7282622,35.7610631 C45.2976841,35.4223577 45.7756851,35.4917962 46.1578093,36.0718387 C46.3815218,36.4114699 46.6373468,36.7298066 46.902698,37.0902693 C47.3965248,36.5571363 47.7273304,36.2346333 48.0164972,35.8780283 C48.2766244,35.5575313 48.5333713,35.4124821 48.9334724,35.6374626 C49.7101664,36.0746162 50.4991522,36.4893952 51.2818385,36.9159016 C51.9738721,37.2928752 52.6284154,37.7803331 53.3634706,38.0273797 C54.5166038,38.4148462 55.4477147,37.8223048 55.578316,36.624723 C55.6912478,35.5899359 55.637778,34.5344715 55.6167282,33.489037 C55.6115041,33.2298002 55.5156274,32.9091488 55.3449237,32.7267572 C54.3062588,31.617748 54.1604462,30.3160086 54.489408,28.9187527 C55.0182666,26.6726504 55.5458962,24.4248506 56.1325267,22.1934075 C57.1974656,18.1417513 58.4641452,14.1606136 60.5093625,10.4769811 C63.2443087,5.55117186 67.1975351,2.04375869 72.5130105,0.146854602 C72.7242774,0.071552463 73.1068625,0.175092904 73.2755688,0.336653027 C73.9742092,1.00557674 74.6212237,1.72897106 75.4066757,2.55868336 C76.103626,1.81677212 76.786287,1.1316461 77.4160929,0.400382091 C77.699882,0.0709352324 77.9424932,0.0309695478 78.3401359,0.161668138 C80.3119092,0.808988781 82.0304695,1.9088938 83.6735883,3.13841725 C87.9402579,6.3313514 90.9301072,10.473432 92.6266957,15.5308656 C94.2295586,20.3090024 94.5993909,25.2232385 93.992786,30.211388 C93.8105587,31.7090982 92.9561185,32.7759813 91.5135112,33.2603531 C90.03326,33.7575324 88.6977458,33.4581755 87.5499903,32.361511 C86.3937841,31.2568224 86.4693793,29.8621897 86.5076378,28.4232708 C86.5634123,26.3209832 86.5816965,24.2102087 86.4527852,22.1133219 C86.3828751,20.9788519 85.9737087,19.8656765 85.71773,18.7427796 C85.6244653,18.7566673 85.5312006,18.7707093 85.4377822,18.784597 C85.4248757,19.0498518 85.4009065,19.315261 85.4005992,19.5808245 C85.3978335,23.0780534 85.4208808,26.5752822 85.3833906,30.0722025 C85.3734034,30.9881728 85.3435955,31.9652489 85.0269257,32.8012878 C84.6263636,33.8593754 84.6332778,34.9021866 84.6331241,35.9735447 C84.6320486,47.724999 84.6279001,59.4766077 84.6409602,71.228062 C84.6424967,72.6532476 84.3628561,73.9843055 83.2539738,74.918947 C82.5883678,75.4801639 81.7210211,75.7997351 80.9441734,76.2279389 L79.2540382,76.2279389 C78.6462041,75.9150029 77.9902779,75.6698081 77.4396011,75.2760149 C75.9891578,74.2390674 75.6216302,72.7168223 75.6243959,71.0132657 C75.6397607,60.7525777 75.6354586,50.492044 75.6185572,40.2312017 C75.6179426,39.8844724 75.3724121,39.2306708 75.3057285,39.2390035 C74.6547192,39.3207865 74.9755376,39.8728993 74.9747693,40.2086728 C74.9554096,50.5719754 74.9704672,60.9355866 74.9360499,71.2990435 C74.9332842,72.1168741 74.716025,72.9762135 74.4113397,73.7411166 C73.8546706,75.1397612 72.587991,75.7468076 71.2643078,76.2279389" id="Fill-1"></path>
                            </g>
                            <path d="M50.6754026,96.5965966 C52.2094308,95.8878615 52.7230783,94.6847247 52.7024894,93.0075547 C52.6316574,87.2224061 52.379059,81.4170432 52.7558055,75.6562753 C53.0340632,71.3989269 52.9636921,67.1525343 53.1264061,62.9075305 C54.0197194,62.7706596 54.927322,62.7459704 55.7605587,62.4831845 C58.3161969,61.6772355 59.5753476,59.7645921 59.8880227,57.1864196 C60.0047957,56.2240028 59.9225936,55.2390569 59.9765243,54.2669187 C59.9898917,54.02481 60.11573,53.7021526 60.2993401,53.571917 C61.0915526,53.0100828 61.577697,52.2672457 61.8086309,51.3359989 C62.2906268,49.3934198 62.749729,47.444514 63.264452,45.5108847 C63.8108266,43.457204 64.4109783,41.4178739 65.1739976,39.3665079 C65.2051882,39.6603097 65.2629601,39.9542658 65.2635747,40.2480676 C65.2698743,43.5138349 65.2134853,46.7811454 65.2936899,50.0447524 C65.3254951,51.3367705 65.6598346,52.6206102 65.8479006,53.9093878 C65.906748,54.3127481 65.9760436,54.719966 65.9758899,55.1254865 C65.972356,67.2374035 65.9655955,79.3493206 65.9436237,91.4612376 C65.9410117,92.9623425 66.2106651,94.3634561 67.4111221,95.3507165 C68.0455374,95.8722764 68.8475834,96.1879899 69.5741879,96.5965966 L50.6754026,96.5965966 Z" id="Fill-4" fill="#FEFEFE"></path>
                            <path d="M25.6306709,96.5965966 C25.9751512,96.43982 26.3291577,96.301406 26.662268,96.1231807 C28.1156307,95.3456244 28.8910955,94.1025219 28.9829774,92.4721071 C29.0522729,91.2416578 29.0200067,90.0050362 29.0209286,88.7710378 C29.0244625,84.1425795 29.0366008,79.5142755 29.0083294,74.8859714 C29.0043345,74.209641 29.2076117,73.960897 29.8742933,73.8346733 C30.9994624,73.6218831 32.1075765,73.2995344 33.2058572,72.9670013 C35.2818042,72.3380433 35.7688705,71.6151119 35.4024184,69.4557305 C34.9387068,66.7234047 34.4179915,63.9991029 33.8441137,61.2879173 C32.7014286,55.8903896 31.5446078,50.4953308 30.3132675,45.1180174 C29.7811822,42.7942983 30.055906,40.4650241 29.9809254,38.1376017 C29.9780061,38.0465601 30.0446896,37.953204 30.1591579,37.6439714 C30.4859686,38.3824879 30.8038677,38.9335206 30.9796417,39.5265249 C31.9016873,42.637676 32.0063221,45.8468125 32.1025061,49.0621212 C32.1332359,50.0939766 32.3354375,51.1358619 32.5924917,52.1385531 C32.7029651,52.5696887 33.0815554,53.0261308 33.4650625,53.2699369 C34.0606047,53.6484536 34.0702845,54.1062844 34.034638,54.7083929 C33.9320007,56.4411136 34.0705918,58.1454418 34.91105,59.7179912 C35.9948877,61.7454395 37.7526283,62.6543117 39.974388,62.7847016 C40.2723127,62.8019841 40.5722349,62.7870162 40.9548201,62.7870162 L40.9548201,63.6350912 C40.9546664,65.7694747 40.8317475,67.9118823 40.9763309,70.0360816 C41.5141012,77.940183 41.2667269,85.8513825 41.3126678,93.7598045 C41.3211185,95.1839099 42.1870823,95.9697989 43.3002669,96.5965966 L25.6306709,96.5965966 Z" id="Fill-6" fill="#FEFEFE"></path>
                            <path d="M76.6420263,0 C77.8693718,0.475421908 79.1875237,0.795301691 80.3068542,1.45558418 C83.5629766,3.37686888 85.2627917,6.32244785 85.1432531,10.1224283 C85.0009744,14.6371619 82.6198811,17.7321107 78.4630702,19.2400052 C75.2346046,20.411046 72.0728224,19.8555384 69.3452514,17.6876701 C66.2284883,15.2107235 65.0249584,11.9227358 65.6970176,7.99174814 C66.3517145,4.16152334 69.5801802,0.981396732 73.5403208,0.165572122 C73.7076442,0.131161513 73.8668242,0.0561679891 74.0299991,0 L76.6420263,0 Z" id="Fill-8" fill="#1F6DA3"></path>
                            <path d="M21.1748597,0 C22.3602591,0.447337913 23.6115738,0.770766773 24.719227,1.36469697 C28.4273838,3.3531055 30.3526015,7.60659621 29.5485581,11.7857106 C28.1466677,19.0702668 19.4632136,22.2392832 13.7411839,17.5543483 C9.9273168,14.4317784 8.97131484,9.20692098 11.401883,5.01175856 C12.9202391,2.39130584 15.1758014,0.84822922 18.0762272,0.174984889 C18.242936,0.136407973 18.4008868,0.0592541423 18.5628325,0 L21.1748597,0 Z" id="Fill-10" fill="#1F6DA3"></path>
                            <path d="M71.2643232,96.5965966 C72.5880064,96.1154653 73.8546859,95.5082647 74.411355,94.1097743 C74.7160403,93.3448712 74.9332995,92.4853776 74.9359116,91.6677012 C74.9704825,81.30409 74.955425,70.9404788 74.9747847,60.5771762 C74.9755529,60.2414027 74.6547345,59.6892899 75.3057439,59.6076612 C75.3724274,59.5991743 75.617958,60.2531301 75.6185726,60.5998594 C75.6354739,70.8607018 75.6397761,81.1212355 75.6244112,91.3819235 C75.6216455,93.08548 75.9891731,94.6075708 77.4396165,95.6446726 C77.9902933,96.0384658 78.6462194,96.2836607 79.2540535,96.5965966 L71.2643232,96.5965966 Z" id="Fill-12" fill="#FEFEFE"></path>
                            <path d="M15.7971566,96.5965966 C16.1173604,96.4510845 16.4397153,96.309893 16.7576144,96.1592887 C18.6988116,95.2408495 19.4715107,93.6405247 19.4581432,91.5545937 C19.4257234,86.517683 19.4102049,81.4804637 19.3885404,76.4433987 C19.386082,75.8832619 19.3882331,75.3229707 19.3882331,74.7239484 L20.251124,74.7239484 C20.251124,75.0283974 20.2512776,75.3268284 20.251124,75.6254138 C20.2509703,80.6882482 20.3284093,85.7529342 20.2203942,90.8132997 C20.1592421,93.6829593 21.1249239,95.6895762 23.9405356,96.5965966 L15.7971566,96.5965966 Z" id="Fill-14" fill="#FEFEFE"></path>
                            <path d="M44.6831048,96.5965966 C46.3254554,95.9455726 46.809756,94.6611156 46.795313,92.9857973 C46.7539815,88.2328127 46.7788726,83.4792108 46.7836357,78.7257633 C46.783943,78.4473923 46.8374127,78.1685583 46.8662987,77.890033 C46.9537248,77.8877184 47.0411508,77.8855581 47.1285769,77.8833978 C47.1671427,78.1778168 47.2388967,78.4722358 47.2393576,78.7666548 C47.2464254,83.4687179 47.2894471,88.1710896 47.2206125,92.8720726 C47.1955677,94.5899798 47.6589721,95.8827694 49.2925647,96.5965966 L44.6831048,96.5965966 Z" id="Fill-16" fill="#FEFEFE"></path>
                            <path d="M41.1198541,49.5044287 C41.1292267,46.2454509 43.6942374,43.5638923 46.9409873,43.6035494 C50.5007195,43.6470642 52.8441688,46.1915975 52.9340533,49.5223284 C53.0207111,52.7272985 50.2419751,55.4682655 47.0390151,55.4823075 C43.7529312,55.4968125 41.1103279,52.8280614 41.1198541,49.5044287" id="Fill-18" fill="#1F6DA3"></path>
                        </g>
                    </g>
                </g>
            </g>
        </g>
    </g>
</svg>